# Blender 4.5.11 LTS
# www.blender.org
mtllib Battery9V.mtl
o Battery
v -0.105000 0.000000 0.060000
v -0.105000 0.025000 0.085000
v -0.130000 0.025000 0.060000
v -0.105000 0.007322 0.077678
v -0.119434 0.010566 0.074434
v -0.122678 0.025000 0.077678
v -0.122678 0.007322 0.060000
v -0.105000 0.435000 0.085000
v -0.105000 0.460000 0.060000
v -0.130000 0.435000 0.060000
v -0.105000 0.452678 0.077678
v -0.119434 0.449434 0.074434
v -0.122678 0.452678 0.060000
v -0.122678 0.435000 0.077678
v -0.105000 0.000000 -0.060000
v -0.130000 0.025000 -0.060000
v -0.105000 0.025000 -0.085000
v -0.122678 0.007322 -0.060000
v -0.119434 0.010566 -0.074434
v -0.122678 0.025000 -0.077678
v -0.105000 0.007322 -0.077678
v -0.105000 0.460000 -0.060000
v -0.105000 0.435000 -0.085000
v -0.130000 0.435000 -0.060000
v -0.105000 0.452678 -0.077678
v -0.119434 0.449434 -0.074434
v -0.122678 0.435000 -0.077678
v -0.122678 0.452678 -0.060000
v 0.105000 0.000000 0.060000
v 0.130000 0.025000 0.060000
v 0.105000 0.025000 0.085000
v 0.122678 0.007322 0.060000
v 0.119434 0.010566 0.074434
v 0.122678 0.025000 0.077678
v 0.105000 0.007322 0.077678
v 0.105000 0.460000 0.060000
v 0.105000 0.435000 0.085000
v 0.130000 0.435000 0.060000
v 0.105000 0.452678 0.077678
v 0.119434 0.449434 0.074434
v 0.122678 0.435000 0.077678
v 0.122678 0.452678 0.060000
v 0.105000 0.000000 -0.060000
v 0.105000 0.025000 -0.085000
v 0.130000 0.025000 -0.060000
v 0.105000 0.007322 -0.077678
v 0.119434 0.010566 -0.074434
v 0.122678 0.025000 -0.077678
v 0.122678 0.007322 -0.060000
v 0.105000 0.460000 -0.060000
v 0.130000 0.435000 -0.060000
v 0.105000 0.435000 -0.085000
v 0.122678 0.452678 -0.060000
v 0.119434 0.449434 -0.074434
v 0.122678 0.435000 -0.077678
v 0.105000 0.452678 -0.077678
vn -0.3251 -0.8881 0.3251
vn -0.3251 -0.3251 0.8881
vn -0.8881 -0.3251 0.3251
vn -0.3251 0.3251 0.8881
vn -0.3251 0.8881 0.3251
vn -0.8881 0.3251 0.3251
vn -0.3251 -0.8881 -0.3251
vn -0.8881 -0.3251 -0.3251
vn -0.3251 -0.3251 -0.8881
vn -0.3251 0.8881 -0.3251
vn -0.3251 0.3251 -0.8881
vn -0.8881 0.3251 -0.3251
vn 0.3251 -0.8881 0.3251
vn 0.8881 -0.3251 0.3251
vn 0.3251 -0.3251 0.8881
vn 0.3251 0.8881 0.3251
vn 0.3251 0.3251 0.8881
vn 0.8881 0.3251 0.3251
vn 0.3251 -0.8881 -0.3251
vn 0.3251 -0.3251 -0.8881
vn 0.8881 -0.3251 -0.3251
vn 0.3251 0.8881 -0.3251
vn 0.8881 0.3251 -0.3251
vn 0.3251 0.3251 -0.8881
vn -0.3827 -0.9239 -0.0000
vn -0.9239 -0.3827 -0.0000
vn -0.3827 -0.0000 0.9239
vn -0.9239 -0.0000 0.3827
vn -0.3827 0.9239 -0.0000
vn -0.9239 0.3827 -0.0000
vn -0.3827 -0.0000 -0.9239
vn -0.9239 -0.0000 -0.3827
vn -0.0000 -0.9239 -0.3827
vn -0.0000 -0.3827 -0.9239
vn -0.0000 0.9239 -0.3827
vn -0.0000 0.3827 -0.9239
vn 0.9239 -0.0000 -0.3827
vn 0.3827 -0.0000 -0.9239
vn 0.3827 -0.9239 -0.0000
vn 0.9239 -0.3827 -0.0000
vn 0.3827 0.9239 -0.0000
vn 0.9239 0.3827 -0.0000
vn 0.3827 -0.0000 0.9239
vn 0.9239 -0.0000 0.3827
vn -0.0000 -0.9239 0.3827
vn -0.0000 -0.3827 0.9239
vn -0.0000 0.9239 0.3827
vn -0.0000 0.3827 0.9239
vn -0.0000 -1.0000 -0.0000
vn -1.0000 -0.0000 -0.0000
vn -0.0000 -0.0000 1.0000
vn -0.0000 1.0000 -0.0000
vn -0.0000 -0.0000 -1.0000
vn 1.0000 -0.0000 -0.0000
vt 0.149038 0.713235
vt 0.149038 0.750000
vt 0.135160 0.750000
vt 0.125000 0.713235
vt 0.388587 0.975961
vt 0.388587 1.000000
vt 0.380743 1.000000
vt 0.375000 0.975962
vt 0.388587 0.036765
vt 0.375000 0.036765
vt 0.375000 0.015539
vt 0.388587 0.000000
vt 0.611413 0.975962
vt 0.625000 0.975962
vt 0.625000 0.989840
vt 0.611413 1.000000
vt 0.850961 0.713235
vt 0.875000 0.713235
vt 0.875000 0.734461
vt 0.850962 0.750000
vt 0.611413 0.036765
vt 0.611413 0.000000
vt 0.619258 0.000000
vt 0.625000 0.036765
vt 0.149038 0.536765
vt 0.125000 0.536765
vt 0.125000 0.515539
vt 0.149038 0.500000
vt 0.388587 0.213235
vt 0.388587 0.250000
vt 0.377871 0.255080
vt 0.375000 0.213235
vt 0.388587 0.274038
vt 0.375000 0.274038
vt 0.850962 0.536765
vt 0.850962 0.500000
vt 0.864840 0.500000
vt 0.875000 0.536765
vt 0.611413 0.274038
vt 0.611413 0.250000
vt 0.622129 0.242231
vt 0.625000 0.274038
vt 0.611413 0.213235
vt 0.625000 0.213235
vt 0.350962 0.713235
vt 0.375000 0.713235
vt 0.376914 0.748207
vt 0.362981 0.762019
vt 0.388587 0.713235
vt 0.388587 0.750000
vt 0.388587 0.774038
vt 0.649039 0.713235
vt 0.637019 0.762019
vt 0.626472 0.744820
vt 0.625000 0.713235
vt 0.611413 0.774038
vt 0.611413 0.750000
vt 0.611413 0.713235
vt 0.350962 0.536765
vt 0.362981 0.487981
vt 0.373528 0.505180
vt 0.375000 0.536765
vt 0.388587 0.475962
vt 0.388587 0.500000
vt 0.388587 0.536765
vt 0.649039 0.536765
vt 0.625000 0.536765
vt 0.623086 0.501793
vt 0.637019 0.487981
vt 0.611413 0.536765
vt 0.611413 0.500000
vt 0.611413 0.475962
s 0
usemtl M_Graphite
f 1/1/1 4/2/1 5/3/1 7/4/1
f 2/5/2 6/6/2 5/7/2 4/8/2
f 3/9/3 7/10/3 5/11/3 6/12/3
f 8/13/4 11/14/4 12/15/4 14/16/4
f 9/17/5 13/18/5 12/19/5 11/20/5
f 10/21/6 14/22/6 12/23/6 13/24/6
f 15/25/7 18/26/7 19/27/7 21/28/7
f 16/29/8 20/30/8 19/31/8 18/32/8
f 17/33/9 21/34/9 19/31/9 20/30/9
f 22/35/10 25/36/10 26/37/10 28/38/10
f 23/39/11 27/40/11 26/41/11 25/42/11
f 24/43/12 28/44/12 26/41/12 27/40/12
f 29/45/13 32/46/13 33/47/13 35/48/13
f 30/49/14 34/50/14 33/47/14 32/46/14
f 31/51/15 35/48/15 33/47/15 34/50/15
f 36/52/16 39/53/16 40/54/16 42/55/16
f 37/56/17 41/57/17 40/54/17 39/53/17
f 38/58/18 42/55/18 40/54/18 41/57/18
f 43/59/19 46/60/19 47/61/19 49/62/19
f 44/63/20 48/64/20 47/61/20 46/60/20
f 45/65/21 49/62/21 47/61/21 48/64/21
f 50/66/22 53/67/22 54/68/22 56/69/22
f 51/70/23 55/71/23 54/68/23 53/67/23
f 52/72/24 56/69/24 54/68/24 55/71/24
f 15/25/25 1/1/25 7/4/25 18/26/25
f 18/32/26 7/10/26 3/9/26 16/29/26
f 2/5/27 8/13/27 14/16/27 6/6/27
f 6/12/28 14/22/28 10/21/28 3/9/28
f 9/17/29 22/35/29 28/38/29 13/18/29
f 13/24/30 28/44/30 24/43/30 10/21/30
f 23/39/31 17/33/31 20/30/31 27/40/31
f 27/40/32 20/30/32 16/29/32 24/43/32
f 43/59/33 15/25/33 21/28/33 46/60/33
f 46/60/34 21/34/34 17/33/34 44/63/34
f 22/35/35 50/66/35 56/69/35 25/36/35
f 25/42/36 56/69/36 52/72/36 23/39/36
f 51/70/37 45/65/37 48/64/37 55/71/37
f 55/71/38 48/64/38 44/63/38 52/72/38
f 29/45/39 43/59/39 49/62/39 32/46/39
f 32/46/40 49/62/40 45/65/40 30/49/40
f 50/66/41 36/52/41 42/55/41 53/67/41
f 53/67/42 42/55/42 38/58/42 51/70/42
f 37/56/43 31/51/43 34/50/43 41/57/43
f 41/57/44 34/50/44 30/49/44 38/58/44
f 1/1/45 29/45/45 35/48/45 4/2/45
f 4/8/46 35/48/46 31/51/46 2/5/46
f 36/52/47 9/17/47 11/20/47 39/53/47
f 39/53/48 11/14/48 8/13/48 37/56/48
f 15/25/49 43/59/49 29/45/49 1/1/49
f 3/9/50 10/21/50 24/43/50 16/29/50
f 31/51/51 37/56/51 8/13/51 2/5/51
f 50/66/52 22/35/52 9/17/52 36/52/52
f 17/33/53 23/39/53 52/72/53 44/63/53
f 45/65/54 51/70/54 38/58/54 30/49/54
o Copper_Top
v -0.113000 0.455000 0.068000
v -0.113000 0.467000 0.080000
v -0.125000 0.467000 0.068000
v -0.113000 0.458515 0.076485
v -0.119928 0.460072 0.074928
v -0.121485 0.467000 0.076485
v -0.121485 0.458515 0.068000
v -0.113000 0.513000 0.080000
v -0.113000 0.525000 0.068000
v -0.125000 0.513000 0.068000
v -0.113000 0.521485 0.076485
v -0.119928 0.519928 0.074928
v -0.121485 0.521485 0.068000
v -0.121485 0.513000 0.076485
v -0.113000 0.455000 -0.068000
v -0.125000 0.467000 -0.068000
v -0.113000 0.467000 -0.080000
v -0.121485 0.458515 -0.068000
v -0.119928 0.460072 -0.074928
v -0.121485 0.467000 -0.076485
v -0.113000 0.458515 -0.076485
v -0.113000 0.525000 -0.068000
v -0.113000 0.513000 -0.080000
v -0.125000 0.513000 -0.068000
v -0.113000 0.521485 -0.076485
v -0.119928 0.519928 -0.074928
v -0.121485 0.513000 -0.076485
v -0.121485 0.521485 -0.068000
v 0.113000 0.455000 0.068000
v 0.125000 0.467000 0.068000
v 0.113000 0.467000 0.080000
v 0.121485 0.458515 0.068000
v 0.119928 0.460072 0.074928
v 0.121485 0.467000 0.076485
v 0.113000 0.458515 0.076485
v 0.113000 0.525000 0.068000
v 0.113000 0.513000 0.080000
v 0.125000 0.513000 0.068000
v 0.113000 0.521485 0.076485
v 0.119928 0.519928 0.074928
v 0.121485 0.513000 0.076485
v 0.121485 0.521485 0.068000
v 0.113000 0.455000 -0.068000
v 0.113000 0.467000 -0.080000
v 0.125000 0.467000 -0.068000
v 0.113000 0.458515 -0.076485
v 0.119928 0.460072 -0.074928
v 0.121485 0.467000 -0.076485
v 0.121485 0.458515 -0.068000
v 0.113000 0.525000 -0.068000
v 0.125000 0.513000 -0.068000
v 0.113000 0.513000 -0.080000
v 0.121485 0.521485 -0.068000
v 0.119928 0.519928 -0.074928
v 0.121485 0.513000 -0.076485
v 0.113000 0.521485 -0.076485
vn -0.3251 -0.8881 0.3251
vn -0.3251 -0.3251 0.8881
vn -0.8881 -0.3251 0.3251
vn -0.3251 0.3251 0.8881
vn -0.3251 0.8881 0.3251
vn -0.8881 0.3251 0.3251
vn -0.3251 -0.8881 -0.3251
vn -0.8881 -0.3251 -0.3251
vn -0.3251 -0.3251 -0.8881
vn -0.3251 0.8881 -0.3251
vn -0.3251 0.3251 -0.8881
vn -0.8881 0.3251 -0.3251
vn 0.3251 -0.8881 0.3251
vn 0.8881 -0.3251 0.3251
vn 0.3251 -0.3251 0.8881
vn 0.3251 0.8881 0.3251
vn 0.3251 0.3251 0.8881
vn 0.8881 0.3251 0.3251
vn 0.3251 -0.8881 -0.3251
vn 0.3251 -0.3251 -0.8881
vn 0.8881 -0.3251 -0.3251
vn 0.3251 0.8881 -0.3251
vn 0.8881 0.3251 -0.3251
vn 0.3251 0.3251 -0.8881
vn -0.3827 -0.9239 -0.0000
vn -0.9239 -0.3827 -0.0000
vn -0.3827 -0.0000 0.9239
vn -0.9239 -0.0000 0.3827
vn -0.3827 0.9239 -0.0000
vn -0.9239 0.3827 -0.0000
vn -0.3827 -0.0000 -0.9239
vn -0.9239 -0.0000 -0.3827
vn -0.0000 -0.9239 -0.3827
vn -0.0000 -0.3827 -0.9239
vn -0.0000 0.9239 -0.3827
vn -0.0000 0.3827 -0.9239
vn 0.9239 -0.0000 -0.3827
vn 0.3827 -0.0000 -0.9239
vn 0.3827 -0.9239 -0.0000
vn 0.9239 -0.3827 -0.0000
vn 0.3827 0.9239 -0.0000
vn 0.9239 0.3827 -0.0000
vn 0.3827 -0.0000 0.9239
vn 0.9239 -0.0000 0.3827
vn -0.0000 -0.9239 0.3827
vn -0.0000 -0.3827 0.9239
vn -0.0000 0.9239 0.3827
vn -0.0000 0.3827 0.9239
vn -0.0000 -1.0000 -0.0000
vn -1.0000 -0.0000 -0.0000
vn -0.0000 -0.0000 1.0000
vn -0.0000 1.0000 -0.0000
vn -0.0000 -0.0000 -1.0000
vn 1.0000 -0.0000 -0.0000
vt 0.137000 0.731250
vt 0.137000 0.750000
vt 0.130072 0.750000
vt 0.125000 0.731250
vt 0.417857 0.988000
vt 0.417857 1.000000
vt 0.393114 1.000000
vt 0.375000 0.988000
vt 0.417857 0.018750
vt 0.375000 0.018750
vt 0.375000 0.007925
vt 0.417857 0.000000
vt 0.582143 0.988000
vt 0.625000 0.988000
vt 0.625000 0.994928
vt 0.582143 1.000000
vt 0.863000 0.731250
vt 0.875000 0.731250
vt 0.875000 0.742075
vt 0.863000 0.750000
vt 0.582143 0.018750
vt 0.582143 0.000000
vt 0.606886 0.000000
vt 0.625000 0.018750
vt 0.137000 0.518750
vt 0.125000 0.518750
vt 0.125000 0.507925
vt 0.137000 0.500000
vt 0.417857 0.231250
vt 0.417857 0.250000
vt 0.384057 0.252536
vt 0.375000 0.231250
vt 0.417857 0.262000
vt 0.375000 0.262000
vt 0.863000 0.518750
vt 0.863000 0.500000
vt 0.869928 0.500000
vt 0.875000 0.518750
vt 0.582143 0.262000
vt 0.582143 0.250000
vt 0.615943 0.246038
vt 0.625000 0.262000
vt 0.582143 0.231250
vt 0.625000 0.231250
vt 0.363000 0.731250
vt 0.375000 0.731250
vt 0.381038 0.749049
vt 0.369000 0.756000
vt 0.417857 0.731250
vt 0.417857 0.750000
vt 0.417857 0.762000
vt 0.637000 0.731250
vt 0.631000 0.756000
vt 0.620653 0.747359
vt 0.625000 0.731250
vt 0.582143 0.762000
vt 0.582143 0.750000
vt 0.582143 0.731250
vt 0.363000 0.518750
vt 0.369000 0.494000
vt 0.379347 0.502641
vt 0.375000 0.518750
vt 0.417857 0.488000
vt 0.417857 0.500000
vt 0.417857 0.518750
vt 0.637000 0.518750
vt 0.625000 0.518750
vt 0.618962 0.500951
vt 0.631000 0.494000
vt 0.582143 0.518750
vt 0.582143 0.500000
vt 0.582143 0.488000
s 0
usemtl M_Yellow
f 57/73/55 60/74/55 61/75/55 63/76/55
f 58/77/56 62/78/56 61/79/56 60/80/56
f 59/81/57 63/82/57 61/83/57 62/84/57
f 64/85/58 67/86/58 68/87/58 70/88/58
f 65/89/59 69/90/59 68/91/59 67/92/59
f 66/93/60 70/94/60 68/95/60 69/96/60
f 71/97/61 74/98/61 75/99/61 77/100/61
f 72/101/62 76/102/62 75/103/62 74/104/62
f 73/105/63 77/106/63 75/103/63 76/102/63
f 78/107/64 81/108/64 82/109/64 84/110/64
f 79/111/65 83/112/65 82/113/65 81/114/65
f 80/115/66 84/116/66 82/113/66 83/112/66
f 85/117/67 88/118/67 89/119/67 91/120/67
f 86/121/68 90/122/68 89/119/68 88/118/68
f 87/123/69 91/120/69 89/119/69 90/122/69
f 92/124/70 95/125/70 96/126/70 98/127/70
f 93/128/71 97/129/71 96/126/71 95/125/71
f 94/130/72 98/127/72 96/126/72 97/129/72
f 99/131/73 102/132/73 103/133/73 105/134/73
f 100/135/74 104/136/74 103/133/74 102/132/74
f 101/137/75 105/134/75 103/133/75 104/136/75
f 106/138/76 109/139/76 110/140/76 112/141/76
f 107/142/77 111/143/77 110/140/77 109/139/77
f 108/144/78 112/141/78 110/140/78 111/143/78
f 71/97/79 57/73/79 63/76/79 74/98/79
f 74/104/80 63/82/80 59/81/80 72/101/80
f 58/77/81 64/85/81 70/88/81 62/78/81
f 62/84/82 70/94/82 66/93/82 59/81/82
f 65/89/83 78/107/83 84/110/83 69/90/83
f 69/96/84 84/116/84 80/115/84 66/93/84
f 79/111/85 73/105/85 76/102/85 83/112/85
f 83/112/86 76/102/86 72/101/86 80/115/86
f 99/131/87 71/97/87 77/100/87 102/132/87
f 102/132/88 77/106/88 73/105/88 100/135/88
f 78/107/89 106/138/89 112/141/89 81/108/89
f 81/114/90 112/141/90 108/144/90 79/111/90
f 107/142/91 101/137/91 104/136/91 111/143/91
f 111/143/92 104/136/92 100/135/92 108/144/92
f 85/117/93 99/131/93 105/134/93 88/118/93
f 88/118/94 105/134/94 101/137/94 86/121/94
f 106/138/95 92/124/95 98/127/95 109/139/95
f 109/139/96 98/127/96 94/130/96 107/142/96
f 93/128/97 87/123/97 90/122/97 97/129/97
f 97/129/98 90/122/98 86/121/98 94/130/98
f 57/73/99 85/117/99 91/120/99 60/74/99
f 60/80/100 91/120/100 87/123/100 58/77/100
f 92/124/101 65/89/101 67/92/101 95/125/101
f 95/125/102 67/86/102 64/85/102 93/128/102
f 71/97/103 99/131/103 85/117/103 57/73/103
f 59/81/104 66/93/104 80/115/104 72/101/104
f 87/123/105 93/128/105 64/85/105 58/77/105
f 106/138/106 78/107/106 65/89/106 92/124/106
f 73/105/107 79/111/107 108/144/107 100/135/107
f 101/137/108 107/142/108 94/130/108 86/121/108
o Positive
v -0.055000 0.525000 -0.032000
v -0.055000 0.555000 -0.032000
v -0.045111 0.525000 -0.030434
v -0.045111 0.555000 -0.030434
v -0.036191 0.525000 -0.025889
v -0.036191 0.555000 -0.025889
v -0.029111 0.525000 -0.018809
v -0.029111 0.555000 -0.018809
v -0.024566 0.525000 -0.009889
v -0.024566 0.555000 -0.009889
v -0.023000 0.525000 0.000000
v -0.023000 0.555000 0.000000
v -0.024566 0.525000 0.009889
v -0.024566 0.555000 0.009889
v -0.029111 0.525000 0.018809
v -0.029111 0.555000 0.018809
v -0.036191 0.525000 0.025889
v -0.036191 0.555000 0.025889
v -0.045111 0.525000 0.030434
v -0.045111 0.555000 0.030434
v -0.055000 0.525000 0.032000
v -0.055000 0.555000 0.032000
v -0.064889 0.525000 0.030434
v -0.064889 0.555000 0.030434
v -0.073809 0.525000 0.025889
v -0.073809 0.555000 0.025889
v -0.080889 0.525000 0.018809
v -0.080889 0.555000 0.018809
v -0.085434 0.525000 0.009889
v -0.085434 0.555000 0.009889
v -0.087000 0.525000 0.000000
v -0.087000 0.555000 0.000000
v -0.085434 0.525000 -0.009889
v -0.085434 0.555000 -0.009889
v -0.080889 0.525000 -0.018809
v -0.080889 0.555000 -0.018809
v -0.073809 0.525000 -0.025889
v -0.073809 0.555000 -0.025889
v -0.064889 0.525000 -0.030434
v -0.064889 0.555000 -0.030434
vn -0.0000 -0.6735 -0.7392
vn -0.0000 0.6735 -0.7392
vn 0.2284 -0.6735 -0.7030
vn 0.2284 0.6735 -0.7030
vn 0.4345 -0.6735 -0.5980
vn 0.4345 0.6735 -0.5980
vn 0.5980 -0.6735 -0.4345
vn 0.5980 0.6735 -0.4345
vn 0.7030 -0.6735 -0.2284
vn 0.7030 0.6735 -0.2284
vn 0.7392 -0.6735 -0.0000
vn 0.7392 0.6735 -0.0000
vn 0.7030 -0.6735 0.2284
vn 0.7030 0.6735 0.2284
vn 0.5980 -0.6735 0.4345
vn 0.5980 0.6735 0.4345
vn 0.4345 -0.6735 0.5980
vn 0.4345 0.6735 0.5980
vn 0.2284 -0.6735 0.7030
vn 0.2284 0.6735 0.7030
vn -0.0000 -0.6735 0.7392
vn -0.0000 0.6735 0.7392
vn -0.2284 -0.6735 0.7030
vn -0.2284 0.6735 0.7030
vn -0.4345 -0.6735 0.5980
vn -0.4345 0.6735 0.5980
vn -0.5980 -0.6735 0.4345
vn -0.5980 0.6735 0.4345
vn -0.7030 -0.6735 0.2284
vn -0.7030 0.6735 0.2284
vn -0.7392 -0.6735 -0.0000
vn -0.7392 0.6735 -0.0000
vn -0.7030 -0.6735 -0.2284
vn -0.7030 0.6735 -0.2284
vn -0.5980 -0.6735 -0.4345
vn -0.5980 0.6735 -0.4345
vn -0.4345 -0.6735 -0.5980
vn -0.4345 0.6735 -0.5980
vn -0.2284 -0.6735 -0.7030
vn -0.2284 0.6735 -0.7030
vt 1.000000 0.500000
vt 1.000000 1.000000
vt 0.950000 1.000000
vt 0.950000 0.500000
vt 0.900000 1.000000
vt 0.900000 0.500000
vt 0.850000 1.000000
vt 0.850000 0.500000
vt 0.800000 1.000000
vt 0.800000 0.500000
vt 0.750000 1.000000
vt 0.750000 0.500000
vt 0.700000 1.000000
vt 0.700000 0.500000
vt 0.650000 1.000000
vt 0.650000 0.500000
vt 0.600000 1.000000
vt 0.600000 0.500000
vt 0.550000 1.000000
vt 0.550000 0.500000
vt 0.500000 1.000000
vt 0.500000 0.500000
vt 0.450000 1.000000
vt 0.450000 0.500000
vt 0.400000 1.000000
vt 0.400000 0.500000
vt 0.350000 1.000000
vt 0.350000 0.500000
vt 0.300000 1.000000
vt 0.300000 0.500000
vt 0.250000 1.000000
vt 0.250000 0.500000
vt 0.200000 1.000000
vt 0.200000 0.500000
vt 0.150000 1.000000
vt 0.150000 0.500000
vt 0.100000 1.000000
vt 0.100000 0.500000
vt 0.324164 0.478254
vt 0.250000 0.490000
vt 0.175836 0.478254
vt 0.108932 0.444164
vt 0.055836 0.391068
vt 0.021746 0.324164
vt 0.010000 0.250000
vt 0.021746 0.175836
vt 0.055836 0.108932
vt 0.108932 0.055836
vt 0.175836 0.021746
vt 0.250000 0.010000
vt 0.324164 0.021746
vt 0.391068 0.055836
vt 0.444164 0.108932
vt 0.478254 0.175836
vt 0.490000 0.250000
vt 0.478254 0.324164
vt 0.444164 0.391068
vt 0.391068 0.444164
vt 0.050000 1.000000
vt 0.050000 0.500000
vt -0.000000 1.000000
vt -0.000000 0.500000
vt 0.750000 0.490000
vt 0.824164 0.478254
vt 0.891068 0.444164
vt 0.944164 0.391068
vt 0.978254 0.324164
vt 0.990000 0.250000
vt 0.978254 0.175836
vt 0.944164 0.108932
vt 0.891068 0.055836
vt 0.824164 0.021746
vt 0.750000 0.010000
vt 0.675836 0.021746
vt 0.608932 0.055836
vt 0.555836 0.108932
vt 0.521746 0.175836
vt 0.510000 0.250000
vt 0.521746 0.324164
vt 0.555836 0.391068
vt 0.608932 0.444164
vt 0.675836 0.478254
s 1
usemtl M_Brushed_Metal
f 113/145/109 114/146/110 116/147/112 115/148/111
f 115/148/111 116/147/112 118/149/114 117/150/113
f 117/150/113 118/149/114 120/151/116 119/152/115
f 119/152/115 120/151/116 122/153/118 121/154/117
f 121/154/117 122/153/118 124/155/120 123/156/119
f 123/156/119 124/155/120 126/157/122 125/158/121
f 125/158/121 126/157/122 128/159/124 127/160/123
f 127/160/123 128/159/124 130/161/126 129/162/125
f 129/162/125 130/161/126 132/163/128 131/164/127
f 131/164/127 132/163/128 134/165/130 133/166/129
f 133/166/129 134/165/130 136/167/132 135/168/131
f 135/168/131 136/167/132 138/169/134 137/170/133
f 137/170/133 138/169/134 140/171/136 139/172/135
f 139/172/135 140/171/136 142/173/138 141/174/137
f 141/174/137 142/173/138 144/175/140 143/176/139
f 143/176/139 144/175/140 146/177/142 145/178/141
f 145/178/141 146/177/142 148/179/144 147/180/143
f 147/180/143 148/179/144 150/181/146 149/182/145
f 116/183/112 114/184/110 152/185/148 150/186/146 148/187/144 146/188/142 144/189/140 142/190/138 140/191/136 138/192/134 136/193/132 134/194/130 132/195/128 130/196/126 128/197/124 126/198/122 124/199/120 122/200/118 120/201/116 118/202/114
f 149/182/145 150/181/146 152/203/148 151/204/147
f 151/204/147 152/203/148 114/205/110 113/206/109
f 113/207/109 115/208/111 117/209/113 119/210/115 121/211/117 123/212/119 125/213/121 127/214/123 129/215/125 131/216/127 133/217/129 135/218/131 137/219/133 139/220/135 141/221/137 143/222/139 145/223/141 147/224/143 149/225/145 151/226/147
o Negative
v 0.055000 0.525000 -0.045000
v 0.055000 0.555000 -0.045000
v 0.068906 0.525000 -0.042798
v 0.068906 0.555000 -0.042798
v 0.081450 0.525000 -0.036406
v 0.081450 0.555000 -0.036406
v 0.091406 0.525000 -0.026450
v 0.091406 0.555000 -0.026450
v 0.097798 0.525000 -0.013906
v 0.097798 0.555000 -0.013906
v 0.100000 0.525000 0.000000
v 0.100000 0.555000 0.000000
v 0.097798 0.525000 0.013906
v 0.097798 0.555000 0.013906
v 0.091406 0.525000 0.026450
v 0.091406 0.555000 0.026450
v 0.081450 0.525000 0.036406
v 0.081450 0.555000 0.036406
v 0.068906 0.525000 0.042798
v 0.068906 0.555000 0.042798
v 0.055000 0.525000 0.045000
v 0.055000 0.555000 0.045000
v 0.041094 0.525000 0.042798
v 0.041094 0.555000 0.042798
v 0.028550 0.525000 0.036406
v 0.028550 0.555000 0.036406
v 0.018594 0.525000 0.026450
v 0.018594 0.555000 0.026450
v 0.012202 0.525000 0.013906
v 0.012202 0.555000 0.013906
v 0.010000 0.525000 0.000000
v 0.010000 0.555000 0.000000
v 0.012202 0.525000 -0.013906
v 0.012202 0.555000 -0.013906
v 0.018594 0.525000 -0.026450
v 0.018594 0.555000 -0.026450
v 0.028550 0.525000 -0.036406
v 0.028550 0.555000 -0.036406
v 0.041094 0.525000 -0.042798
v 0.041094 0.555000 -0.042798
vn -0.0000 -0.6735 -0.7392
vn -0.0000 0.6735 -0.7392
vn 0.2284 -0.6735 -0.7030
vn 0.2284 0.6735 -0.7030
vn 0.4345 -0.6735 -0.5980
vn 0.4345 0.6735 -0.5980
vn 0.5980 -0.6735 -0.4345
vn 0.5980 0.6735 -0.4345
vn 0.7030 -0.6735 -0.2284
vn 0.7030 0.6735 -0.2284
vn 0.7392 -0.6735 -0.0000
vn 0.7392 0.6735 -0.0000
vn 0.7030 -0.6735 0.2284
vn 0.7030 0.6735 0.2284
vn 0.5980 -0.6735 0.4345
vn 0.5980 0.6735 0.4345
vn 0.4345 -0.6735 0.5980
vn 0.4345 0.6735 0.5980
vn 0.2284 -0.6735 0.7030
vn 0.2284 0.6735 0.7030
vn -0.0000 -0.6735 0.7392
vn -0.0000 0.6735 0.7392
vn -0.2284 -0.6735 0.7030
vn -0.2284 0.6735 0.7030
vn -0.4345 -0.6735 0.5980
vn -0.4345 0.6735 0.5980
vn -0.5980 -0.6735 0.4345
vn -0.5980 0.6735 0.4345
vn -0.7030 -0.6735 0.2284
vn -0.7030 0.6735 0.2284
vn -0.7392 -0.6735 -0.0000
vn -0.7392 0.6735 -0.0000
vn -0.7030 -0.6735 -0.2284
vn -0.7030 0.6735 -0.2284
vn -0.5980 -0.6735 -0.4345
vn -0.5980 0.6735 -0.4345
vn -0.4345 -0.6735 -0.5980
vn -0.4345 0.6735 -0.5980
vn -0.2284 -0.6735 -0.7030
vn -0.2284 0.6735 -0.7030
vt 1.000000 0.500000
vt 1.000000 1.000000
vt 0.950000 1.000000
vt 0.950000 0.500000
vt 0.900000 1.000000
vt 0.900000 0.500000
vt 0.850000 1.000000
vt 0.850000 0.500000
vt 0.800000 1.000000
vt 0.800000 0.500000
vt 0.750000 1.000000
vt 0.750000 0.500000
vt 0.700000 1.000000
vt 0.700000 0.500000
vt 0.650000 1.000000
vt 0.650000 0.500000
vt 0.600000 1.000000
vt 0.600000 0.500000
vt 0.550000 1.000000
vt 0.550000 0.500000
vt 0.500000 1.000000
vt 0.500000 0.500000
vt 0.450000 1.000000
vt 0.450000 0.500000
vt 0.400000 1.000000
vt 0.400000 0.500000
vt 0.350000 1.000000
vt 0.350000 0.500000
vt 0.300000 1.000000
vt 0.300000 0.500000
vt 0.250000 1.000000
vt 0.250000 0.500000
vt 0.200000 1.000000
vt 0.200000 0.500000
vt 0.150000 1.000000
vt 0.150000 0.500000
vt 0.100000 1.000000
vt 0.100000 0.500000
vt 0.324164 0.478254
vt 0.250000 0.490000
vt 0.175836 0.478254
vt 0.108932 0.444164
vt 0.055836 0.391068
vt 0.021746 0.324164
vt 0.010000 0.250000
vt 0.021746 0.175836
vt 0.055836 0.108932
vt 0.108932 0.055836
vt 0.175836 0.021746
vt 0.250000 0.010000
vt 0.324164 0.021746
vt 0.391068 0.055836
vt 0.444164 0.108932
vt 0.478254 0.175836
vt 0.490000 0.250000
vt 0.478254 0.324164
vt 0.444164 0.391068
vt 0.391068 0.444164
vt 0.050000 1.000000
vt 0.050000 0.500000
vt -0.000000 1.000000
vt -0.000000 0.500000
vt 0.750000 0.490000
vt 0.824164 0.478254
vt 0.891068 0.444164
vt 0.944164 0.391068
vt 0.978254 0.324164
vt 0.990000 0.250000
vt 0.978254 0.175836
vt 0.944164 0.108932
vt 0.891068 0.055836
vt 0.824164 0.021746
vt 0.750000 0.010000
vt 0.675836 0.021746
vt 0.608932 0.055836
vt 0.555836 0.108932
vt 0.521746 0.175836
vt 0.510000 0.250000
vt 0.521746 0.324164
vt 0.555836 0.391068
vt 0.608932 0.444164
vt 0.675836 0.478254
s 1
usemtl M_Brushed_Metal
f 153/227/149 154/228/150 156/229/152 155/230/151
f 155/230/151 156/229/152 158/231/154 157/232/153
f 157/232/153 158/231/154 160/233/156 159/234/155
f 159/234/155 160/233/156 162/235/158 161/236/157
f 161/236/157 162/235/158 164/237/160 163/238/159
f 163/238/159 164/237/160 166/239/162 165/240/161
f 165/240/161 166/239/162 168/241/164 167/242/163
f 167/242/163 168/241/164 170/243/166 169/244/165
f 169/244/165 170/243/166 172/245/168 171/246/167
f 171/246/167 172/245/168 174/247/170 173/248/169
f 173/248/169 174/247/170 176/249/172 175/250/171
f 175/250/171 176/249/172 178/251/174 177/252/173
f 177/252/173 178/251/174 180/253/176 179/254/175
f 179/254/175 180/253/176 182/255/178 181/256/177
f 181/256/177 182/255/178 184/257/180 183/258/179
f 183/258/179 184/257/180 186/259/182 185/260/181
f 185/260/181 186/259/182 188/261/184 187/262/183
f 187/262/183 188/261/184 190/263/186 189/264/185
f 156/265/152 154/266/150 192/267/188 190/268/186 188/269/184 186/270/182 184/271/180 182/272/178 180/273/176 178/274/174 176/275/172 174/276/170 172/277/168 170/278/166 168/279/164 166/280/162 164/281/160 162/282/158 160/283/156 158/284/154
f 189/264/185 190/263/186 192/285/188 191/286/187
f 191/286/187 192/285/188 154/287/150 153/288/149
f 153/289/149 155/290/151 157/291/153 159/292/155 161/293/157 163/294/159 165/295/161 167/296/163 169/297/165 171/298/167 173/299/169 175/300/171 177/301/173 179/302/175 181/303/177 183/304/179 185/305/181 187/306/183 189/307/185 191/308/187
