# Blender 4.5.11 LTS
# www.blender.org
mtllib Pushbutton.mtl
o Housing
v -0.052000 0.002500 0.052000
v -0.052000 0.010500 0.060000
v -0.060000 0.010500 0.052000
v -0.052000 0.004843 0.057657
v -0.056619 0.005881 0.056619
v -0.057657 0.010500 0.057657
v -0.057657 0.004843 0.052000
v -0.052000 0.049500 0.060000
v -0.052000 0.057500 0.052000
v -0.060000 0.049500 0.052000
v -0.052000 0.055157 0.057657
v -0.056619 0.054119 0.056619
v -0.057657 0.055157 0.052000
v -0.057657 0.049500 0.057657
v -0.052000 0.002500 -0.052000
v -0.060000 0.010500 -0.052000
v -0.052000 0.010500 -0.060000
v -0.057657 0.004843 -0.052000
v -0.056619 0.005881 -0.056619
v -0.057657 0.010500 -0.057657
v -0.052000 0.004843 -0.057657
v -0.052000 0.057500 -0.052000
v -0.052000 0.049500 -0.060000
v -0.060000 0.049500 -0.052000
v -0.052000 0.055157 -0.057657
v -0.056619 0.054119 -0.056619
v -0.057657 0.049500 -0.057657
v -0.057657 0.055157 -0.052000
v 0.052000 0.002500 0.052000
v 0.060000 0.010500 0.052000
v 0.052000 0.010500 0.060000
v 0.057657 0.004843 0.052000
v 0.056619 0.005881 0.056619
v 0.057657 0.010500 0.057657
v 0.052000 0.004843 0.057657
v 0.052000 0.057500 0.052000
v 0.052000 0.049500 0.060000
v 0.060000 0.049500 0.052000
v 0.052000 0.055157 0.057657
v 0.056619 0.054119 0.056619
v 0.057657 0.049500 0.057657
v 0.057657 0.055157 0.052000
v 0.052000 0.002500 -0.052000
v 0.052000 0.010500 -0.060000
v 0.060000 0.010500 -0.052000
v 0.052000 0.004843 -0.057657
v 0.056619 0.005881 -0.056619
v 0.057657 0.010500 -0.057657
v 0.057657 0.004843 -0.052000
v 0.052000 0.057500 -0.052000
v 0.060000 0.049500 -0.052000
v 0.052000 0.049500 -0.060000
v 0.057657 0.055157 -0.052000
v 0.056619 0.054119 -0.056619
v 0.057657 0.049500 -0.057657
v 0.052000 0.055157 -0.057657
vn -0.3251 -0.8881 0.3251
vn -0.3251 -0.3251 0.8881
vn -0.8881 -0.3251 0.3251
vn -0.3251 0.3251 0.8881
vn -0.3251 0.8881 0.3251
vn -0.8881 0.3251 0.3251
vn -0.3251 -0.8881 -0.3251
vn -0.8881 -0.3251 -0.3251
vn -0.3251 -0.3251 -0.8881
vn -0.3251 0.8881 -0.3251
vn -0.3251 0.3251 -0.8881
vn -0.8881 0.3251 -0.3251
vn 0.3251 -0.8881 0.3251
vn 0.8881 -0.3251 0.3251
vn 0.3251 -0.3251 0.8881
vn 0.3251 0.8881 0.3251
vn 0.3251 0.3251 0.8881
vn 0.8881 0.3251 0.3251
vn 0.3251 -0.8881 -0.3251
vn 0.3251 -0.3251 -0.8881
vn 0.8881 -0.3251 -0.3251
vn 0.3251 0.8881 -0.3251
vn 0.8881 0.3251 -0.3251
vn 0.3251 0.3251 -0.8881
vn -0.3827 -0.9239 -0.0000
vn -0.9239 -0.3827 -0.0000
vn -0.3827 -0.0000 0.9239
vn -0.9239 -0.0000 0.3827
vn -0.3827 0.9239 -0.0000
vn -0.9239 0.3827 -0.0000
vn -0.3827 -0.0000 -0.9239
vn -0.9239 -0.0000 -0.3827
vn -0.0000 -0.9239 -0.3827
vn -0.0000 -0.3827 -0.9239
vn -0.0000 0.9239 -0.3827
vn -0.0000 0.3827 -0.9239
vn 0.9239 -0.0000 -0.3827
vn 0.3827 -0.0000 -0.9239
vn 0.3827 -0.9239 -0.0000
vn 0.9239 -0.3827 -0.0000
vn 0.3827 0.9239 -0.0000
vn 0.9239 0.3827 -0.0000
vn 0.3827 -0.0000 0.9239
vn 0.9239 -0.0000 0.3827
vn -0.0000 -0.9239 0.3827
vn -0.0000 -0.3827 0.9239
vn -0.0000 0.9239 0.3827
vn -0.0000 0.3827 0.9239
vn -0.0000 -1.0000 -0.0000
vn -1.0000 -0.0000 -0.0000
vn -0.0000 -0.0000 1.0000
vn -0.0000 1.0000 -0.0000
vn -0.0000 -0.0000 -1.0000
vn 1.0000 -0.0000 -0.0000
vt 0.141667 0.733333
vt 0.141667 0.750000
vt 0.132044 0.750000
vt 0.125000 0.733333
vt 0.411364 0.983333
vt 0.411364 1.000000
vt 0.390369 1.000000
vt 0.375000 0.983333
vt 0.411364 0.016667
vt 0.375000 0.016667
vt 0.375000 0.007044
vt 0.411364 0.000000
vt 0.588636 0.983333
vt 0.625000 0.983333
vt 0.625000 0.992956
vt 0.588636 1.000000
vt 0.858333 0.733333
vt 0.875000 0.733333
vt 0.875000 0.742956
vt 0.858333 0.750000
vt 0.588636 0.016667
vt 0.588636 0.000000
vt 0.609631 0.000000
vt 0.625000 0.016667
vt 0.141667 0.516667
vt 0.125000 0.516667
vt 0.125000 0.507044
vt 0.141667 0.500000
vt 0.411364 0.233333
vt 0.411364 0.250000
vt 0.382685 0.253522
vt 0.375000 0.233333
vt 0.411364 0.266667
vt 0.375000 0.266667
vt 0.858333 0.516667
vt 0.858333 0.500000
vt 0.867956 0.500000
vt 0.875000 0.516667
vt 0.588636 0.266667
vt 0.588636 0.250000
vt 0.617315 0.246478
vt 0.625000 0.266667
vt 0.588636 0.233333
vt 0.625000 0.233333
vt 0.358333 0.733333
vt 0.375000 0.733333
vt 0.380123 0.750000
vt 0.366667 0.758333
vt 0.411364 0.733333
vt 0.411364 0.750000
vt 0.411364 0.766667
vt 0.641667 0.733333
vt 0.633333 0.758333
vt 0.622225 0.747652
vt 0.625000 0.733333
vt 0.588636 0.766667
vt 0.588636 0.750000
vt 0.588636 0.733333
vt 0.358333 0.516667
vt 0.366667 0.491667
vt 0.377775 0.502348
vt 0.375000 0.516667
vt 0.411364 0.483333
vt 0.411364 0.500000
vt 0.411364 0.516667
vt 0.641667 0.516667
vt 0.625000 0.516667
vt 0.619877 0.500000
vt 0.633333 0.491667
vt 0.588636 0.516667
vt 0.588636 0.500000
vt 0.588636 0.483333
s 0
usemtl M_Graphite
f 1/1/1 4/2/1 5/3/1 7/4/1
f 2/5/2 6/6/2 5/7/2 4/8/2
f 3/9/3 7/10/3 5/11/3 6/12/3
f 8/13/4 11/14/4 12/15/4 14/16/4
f 9/17/5 13/18/5 12/19/5 11/20/5
f 10/21/6 14/22/6 12/23/6 13/24/6
f 15/25/7 18/26/7 19/27/7 21/28/7
f 16/29/8 20/30/8 19/31/8 18/32/8
f 17/33/9 21/34/9 19/31/9 20/30/9
f 22/35/10 25/36/10 26/37/10 28/38/10
f 23/39/11 27/40/11 26/41/11 25/42/11
f 24/43/12 28/44/12 26/41/12 27/40/12
f 29/45/13 32/46/13 33/47/13 35/48/13
f 30/49/14 34/50/14 33/47/14 32/46/14
f 31/51/15 35/48/15 33/47/15 34/50/15
f 36/52/16 39/53/16 40/54/16 42/55/16
f 37/56/17 41/57/17 40/54/17 39/53/17
f 38/58/18 42/55/18 40/54/18 41/57/18
f 43/59/19 46/60/19 47/61/19 49/62/19
f 44/63/20 48/64/20 47/61/20 46/60/20
f 45/65/21 49/62/21 47/61/21 48/64/21
f 50/66/22 53/67/22 54/68/22 56/69/22
f 51/70/23 55/71/23 54/68/23 53/67/23
f 52/72/24 56/69/24 54/68/24 55/71/24
f 15/25/25 1/1/25 7/4/25 18/26/25
f 18/32/26 7/10/26 3/9/26 16/29/26
f 2/5/27 8/13/27 14/16/27 6/6/27
f 6/12/28 14/22/28 10/21/28 3/9/28
f 9/17/29 22/35/29 28/38/29 13/18/29
f 13/24/30 28/44/30 24/43/30 10/21/30
f 23/39/31 17/33/31 20/30/31 27/40/31
f 27/40/32 20/30/32 16/29/32 24/43/32
f 43/59/33 15/25/33 21/28/33 46/60/33
f 46/60/34 21/34/34 17/33/34 44/63/34
f 22/35/35 50/66/35 56/69/35 25/36/35
f 25/42/36 56/69/36 52/72/36 23/39/36
f 51/70/37 45/65/37 48/64/37 55/71/37
f 55/71/38 48/64/38 44/63/38 52/72/38
f 29/45/39 43/59/39 49/62/39 32/46/39
f 32/46/40 49/62/40 45/65/40 30/49/40
f 50/66/41 36/52/41 42/55/41 53/67/41
f 53/67/42 42/55/42 38/58/42 51/70/42
f 37/56/43 31/51/43 34/50/43 41/57/43
f 41/57/44 34/50/44 30/49/44 38/58/44
f 1/1/45 29/45/45 35/48/45 4/2/45
f 4/8/46 35/48/46 31/51/46 2/5/46
f 36/52/47 9/17/47 11/20/47 39/53/47
f 39/53/48 11/14/48 8/13/48 37/56/48
f 15/25/49 43/59/49 29/45/49 1/1/49
f 3/9/50 10/21/50 24/43/50 16/29/50
f 31/51/51 37/56/51 8/13/51 2/5/51
f 50/66/52 22/35/52 9/17/52 36/52/52
f 17/33/53 23/39/53 52/72/53 44/63/53
f 45/65/54 51/70/54 38/58/54 30/49/54
o Cap
v 0.000000 0.057500 -0.042000
v 0.000000 0.102500 -0.042000
v 0.010870 0.057500 -0.040569
v 0.010870 0.102500 -0.040569
v 0.021000 0.057500 -0.036373
v 0.021000 0.102500 -0.036373
v 0.029698 0.057500 -0.029698
v 0.029698 0.102500 -0.029698
v 0.036373 0.057500 -0.021000
v 0.036373 0.102500 -0.021000
v 0.040569 0.057500 -0.010870
v 0.040569 0.102500 -0.010870
v 0.042000 0.057500 0.000000
v 0.042000 0.102500 0.000000
v 0.040569 0.057500 0.010870
v 0.040569 0.102500 0.010870
v 0.036373 0.057500 0.021000
v 0.036373 0.102500 0.021000
v 0.029698 0.057500 0.029698
v 0.029698 0.102500 0.029698
v 0.021000 0.057500 0.036373
v 0.021000 0.102500 0.036373
v 0.010870 0.057500 0.040569
v 0.010870 0.102500 0.040569
v 0.000000 0.057500 0.042000
v 0.000000 0.102500 0.042000
v -0.010870 0.057500 0.040569
v -0.010870 0.102500 0.040569
v -0.021000 0.057500 0.036373
v -0.021000 0.102500 0.036373
v -0.029698 0.057500 0.029698
v -0.029698 0.102500 0.029698
v -0.036373 0.057500 0.021000
v -0.036373 0.102500 0.021000
v -0.040569 0.057500 0.010870
v -0.040569 0.102500 0.010870
v -0.042000 0.057500 0.000000
v -0.042000 0.102500 0.000000
v -0.040569 0.057500 -0.010870
v -0.040569 0.102500 -0.010870
v -0.036373 0.057500 -0.021000
v -0.036373 0.102500 -0.021000
v -0.029698 0.057500 -0.029698
v -0.029698 0.102500 -0.029698
v -0.021000 0.057500 -0.036373
v -0.021000 0.102500 -0.036373
v -0.010870 0.057500 -0.040569
v -0.010870 0.102500 -0.040569
vn -0.0000 -0.6789 -0.7342
vn -0.0000 0.6789 -0.7342
vn 0.1900 -0.6789 -0.7092
vn 0.1900 0.6789 -0.7092
vn 0.3671 -0.6789 -0.6359
vn 0.3671 0.6789 -0.6359
vn 0.5192 -0.6789 -0.5192
vn 0.5192 0.6789 -0.5192
vn 0.6359 -0.6789 -0.3671
vn 0.6359 0.6789 -0.3671
vn 0.7092 -0.6789 -0.1900
vn 0.7092 0.6789 -0.1900
vn 0.7342 -0.6789 -0.0000
vn 0.7342 0.6789 -0.0000
vn 0.7092 -0.6789 0.1900
vn 0.7092 0.6789 0.1900
vn 0.6359 -0.6789 0.3671
vn 0.6359 0.6789 0.3671
vn 0.5192 -0.6789 0.5192
vn 0.5192 0.6789 0.5192
vn 0.3671 -0.6789 0.6359
vn 0.3671 0.6789 0.6359
vn 0.1900 -0.6789 0.7092
vn 0.1900 0.6789 0.7092
vn -0.0000 -0.6789 0.7342
vn -0.0000 0.6789 0.7342
vn -0.1900 -0.6789 0.7092
vn -0.1900 0.6789 0.7092
vn -0.3671 -0.6789 0.6359
vn -0.3671 0.6789 0.6359
vn -0.5192 -0.6789 0.5192
vn -0.5192 0.6789 0.5192
vn -0.6359 -0.6789 0.3671
vn -0.6359 0.6789 0.3671
vn -0.7092 -0.6789 0.1900
vn -0.7092 0.6789 0.1900
vn -0.7342 -0.6789 -0.0000
vn -0.7342 0.6789 -0.0000
vn -0.7092 -0.6789 -0.1900
vn -0.7092 0.6789 -0.1900
vn -0.6359 -0.6789 -0.3671
vn -0.6359 0.6789 -0.3671
vn -0.5192 -0.6789 -0.5192
vn -0.5192 0.6789 -0.5192
vn -0.3671 -0.6789 -0.6359
vn -0.3671 0.6789 -0.6359
vn -0.1900 -0.6789 -0.7092
vn -0.1900 0.6789 -0.7092
vt 1.000000 0.500000
vt 1.000000 1.000000
vt 0.958333 1.000000
vt 0.958333 0.500000
vt 0.916667 1.000000
vt 0.916667 0.500000
vt 0.875000 1.000000
vt 0.875000 0.500000
vt 0.833333 1.000000
vt 0.833333 0.500000
vt 0.791667 1.000000
vt 0.791667 0.500000
vt 0.750000 1.000000
vt 0.750000 0.500000
vt 0.708333 1.000000
vt 0.708333 0.500000
vt 0.666667 1.000000
vt 0.666667 0.500000
vt 0.625000 1.000000
vt 0.625000 0.500000
vt 0.583333 1.000000
vt 0.583333 0.500000
vt 0.541666 1.000000
vt 0.541666 0.500000
vt 0.500000 1.000000
vt 0.500000 0.500000
vt 0.458333 1.000000
vt 0.458333 0.500000
vt 0.416666 1.000000
vt 0.416666 0.500000
vt 0.375000 1.000000
vt 0.375000 0.500000
vt 0.333333 1.000000
vt 0.333333 0.500000
vt 0.291667 1.000000
vt 0.291667 0.500000
vt 0.250000 1.000000
vt 0.250000 0.500000
vt 0.208333 1.000000
vt 0.208333 0.500000
vt 0.166666 1.000000
vt 0.166666 0.500000
vt 0.125000 1.000000
vt 0.125000 0.500000
vt 0.083333 1.000000
vt 0.083333 0.500000
vt 0.312117 0.481822
vt 0.250000 0.490000
vt 0.187883 0.481822
vt 0.130000 0.457846
vt 0.080294 0.419706
vt 0.042154 0.370000
vt 0.018178 0.312117
vt 0.010000 0.250000
vt 0.018178 0.187883
vt 0.042154 0.130000
vt 0.080294 0.080294
vt 0.130000 0.042154
vt 0.187883 0.018178
vt 0.250000 0.010000
vt 0.312117 0.018178
vt 0.370000 0.042154
vt 0.419706 0.080294
vt 0.457846 0.130000
vt 0.481822 0.187883
vt 0.490000 0.250000
vt 0.481822 0.312117
vt 0.457846 0.370000
vt 0.419706 0.419706
vt 0.370000 0.457846
vt 0.041666 1.000000
vt 0.041666 0.500000
vt -0.000000 1.000000
vt -0.000000 0.500000
vt 0.750000 0.490000
vt 0.812117 0.481822
vt 0.870000 0.457846
vt 0.919706 0.419706
vt 0.957846 0.370000
vt 0.981822 0.312117
vt 0.990000 0.250000
vt 0.981822 0.187883
vt 0.957846 0.130000
vt 0.919706 0.080294
vt 0.870000 0.042154
vt 0.812117 0.018178
vt 0.750000 0.010000
vt 0.687883 0.018178
vt 0.630000 0.042154
vt 0.580294 0.080294
vt 0.542154 0.130000
vt 0.518178 0.187883
vt 0.510000 0.250000
vt 0.518178 0.312117
vt 0.542154 0.370000
vt 0.580294 0.419706
vt 0.630000 0.457846
vt 0.687883 0.481822
s 1
usemtl M_Black_Rubber
f 57/73/55 58/74/56 60/75/58 59/76/57
f 59/76/57 60/75/58 62/77/60 61/78/59
f 61/78/59 62/77/60 64/79/62 63/80/61
f 63/80/61 64/79/62 66/81/64 65/82/63
f 65/82/63 66/81/64 68/83/66 67/84/65
f 67/84/65 68/83/66 70/85/68 69/86/67
f 69/86/67 70/85/68 72/87/70 71/88/69
f 71/88/69 72/87/70 74/89/72 73/90/71
f 73/90/71 74/89/72 76/91/74 75/92/73
f 75/92/73 76/91/74 78/93/76 77/94/75
f 77/94/75 78/93/76 80/95/78 79/96/77
f 79/96/77 80/95/78 82/97/80 81/98/79
f 81/98/79 82/97/80 84/99/82 83/100/81
f 83/100/81 84/99/82 86/101/84 85/102/83
f 85/102/83 86/101/84 88/103/86 87/104/85
f 87/104/85 88/103/86 90/105/88 89/106/87
f 89/106/87 90/105/88 92/107/90 91/108/89
f 91/108/89 92/107/90 94/109/92 93/110/91
f 93/110/91 94/109/92 96/111/94 95/112/93
f 95/112/93 96/111/94 98/113/96 97/114/95
f 97/114/95 98/113/96 100/115/98 99/116/97
f 99/116/97 100/115/98 102/117/100 101/118/99
f 60/119/58 58/120/56 104/121/102 102/122/100 100/123/98 98/124/96 96/125/94 94/126/92 92/127/90 90/128/88 88/129/86 86/130/84 84/131/82 82/132/80 80/133/78 78/134/76 76/135/74 74/136/72 72/137/70 70/138/68 68/139/66 66/140/64 64/141/62 62/142/60
f 101/118/99 102/117/100 104/143/102 103/144/101
f 103/144/101 104/143/102 58/145/56 57/146/55
f 57/147/55 59/148/57 61/149/59 63/150/61 65/151/63 67/152/65 69/153/67 71/154/69 73/155/71 75/156/73 77/157/75 79/158/77 81/159/79 83/160/81 85/161/83 87/162/85 89/163/87 91/164/89 93/165/91 95/166/93 97/167/95 99/168/97 101/169/99 103/170/101
o Pin
v -0.045000 -0.100000 0.039000
v -0.045000 0.000000 0.039000
v -0.041473 -0.100000 0.040146
v -0.041473 0.000000 0.040146
v -0.039294 -0.100000 0.043146
v -0.039294 0.000000 0.043146
v -0.039294 -0.100000 0.046854
v -0.039294 0.000000 0.046854
v -0.041473 -0.100000 0.049854
v -0.041473 0.000000 0.049854
v -0.045000 -0.100000 0.051000
v -0.045000 0.000000 0.051000
v -0.048527 -0.100000 0.049854
v -0.048527 0.000000 0.049854
v -0.050706 -0.100000 0.046854
v -0.050706 0.000000 0.046854
v -0.050706 -0.100000 0.043146
v -0.050706 0.000000 0.043146
v -0.048527 -0.100000 0.040146
v -0.048527 0.000000 0.040146
vn -0.0000 -0.6437 -0.7653
vn -0.0000 0.6437 -0.7653
vn 0.4498 -0.6437 -0.6191
vn 0.4498 0.6437 -0.6191
vn 0.7278 -0.6437 -0.2365
vn 0.7278 0.6437 -0.2365
vn 0.7278 -0.6437 0.2365
vn 0.7278 0.6437 0.2365
vn 0.4498 -0.6437 0.6191
vn 0.4498 0.6437 0.6191
vn -0.0000 -0.6437 0.7653
vn -0.0000 0.6437 0.7653
vn -0.4498 -0.6437 0.6191
vn -0.4498 0.6437 0.6191
vn -0.7278 -0.6437 0.2365
vn -0.7278 0.6437 0.2365
vn -0.7278 -0.6437 -0.2365
vn -0.7278 0.6437 -0.2365
vn -0.4498 -0.6437 -0.6191
vn -0.4498 0.6437 -0.6191
vt 1.000000 0.500000
vt 1.000000 1.000000
vt 0.900000 1.000000
vt 0.900000 0.500000
vt 0.800000 1.000000
vt 0.800000 0.500000
vt 0.700000 1.000000
vt 0.700000 0.500000
vt 0.600000 1.000000
vt 0.600000 0.500000
vt 0.500000 1.000000
vt 0.500000 0.500000
vt 0.400000 1.000000
vt 0.400000 0.500000
vt 0.300000 1.000000
vt 0.300000 0.500000
vt 0.200000 1.000000
vt 0.200000 0.500000
vt 0.391068 0.444164
vt 0.250000 0.490000
vt 0.108932 0.444164
vt 0.021746 0.324164
vt 0.021746 0.175836
vt 0.108932 0.055836
vt 0.250000 0.010000
vt 0.391068 0.055836
vt 0.478254 0.175836
vt 0.478254 0.324164
vt 0.100000 1.000000
vt 0.100000 0.500000
vt -0.000000 1.000000
vt -0.000000 0.500000
vt 0.750000 0.490000
vt 0.891068 0.444164
vt 0.978254 0.324164
vt 0.978254 0.175836
vt 0.891068 0.055836
vt 0.750000 0.010000
vt 0.608932 0.055836
vt 0.521746 0.175836
vt 0.521746 0.324164
vt 0.608932 0.444164
s 1
usemtl M_Brushed_Metal
f 105/171/103 106/172/104 108/173/106 107/174/105
f 107/174/105 108/173/106 110/175/108 109/176/107
f 109/176/107 110/175/108 112/177/110 111/178/109
f 111/178/109 112/177/110 114/179/112 113/180/111
f 113/180/111 114/179/112 116/181/114 115/182/113
f 115/182/113 116/181/114 118/183/116 117/184/115
f 117/184/115 118/183/116 120/185/118 119/186/117
f 119/186/117 120/185/118 122/187/120 121/188/119
f 108/189/106 106/190/104 124/191/122 122/192/120 120/193/118 118/194/116 116/195/114 114/196/112 112/197/110 110/198/108
f 121/188/119 122/187/120 124/199/122 123/200/121
f 123/200/121 124/199/122 106/201/104 105/202/103
f 105/203/103 107/204/105 109/205/107 111/206/109 113/207/111 115/208/113 117/209/115 119/210/117 121/211/119 123/212/121
o Pin.001
v -0.045000 -0.100000 -0.051000
v -0.045000 0.000000 -0.051000
v -0.041473 -0.100000 -0.049854
v -0.041473 0.000000 -0.049854
v -0.039294 -0.100000 -0.046854
v -0.039294 0.000000 -0.046854
v -0.039294 -0.100000 -0.043146
v -0.039294 0.000000 -0.043146
v -0.041473 -0.100000 -0.040146
v -0.041473 0.000000 -0.040146
v -0.045000 -0.100000 -0.039000
v -0.045000 0.000000 -0.039000
v -0.048527 -0.100000 -0.040146
v -0.048527 0.000000 -0.040146
v -0.050706 -0.100000 -0.043146
v -0.050706 0.000000 -0.043146
v -0.050706 -0.100000 -0.046854
v -0.050706 0.000000 -0.046854
v -0.048527 -0.100000 -0.049854
v -0.048527 0.000000 -0.049854
vn -0.0000 -0.6437 -0.7653
vn -0.0000 0.6437 -0.7653
vn 0.4498 -0.6437 -0.6191
vn 0.4498 0.6437 -0.6191
vn 0.7278 -0.6437 -0.2365
vn 0.7278 0.6437 -0.2365
vn 0.7278 -0.6437 0.2365
vn 0.7278 0.6437 0.2365
vn 0.4498 -0.6437 0.6191
vn 0.4498 0.6437 0.6191
vn -0.0000 -0.6437 0.7653
vn -0.0000 0.6437 0.7653
vn -0.4498 -0.6437 0.6191
vn -0.4498 0.6437 0.6191
vn -0.7278 -0.6437 0.2365
vn -0.7278 0.6437 0.2365
vn -0.7278 -0.6437 -0.2365
vn -0.7278 0.6437 -0.2365
vn -0.4498 -0.6437 -0.6191
vn -0.4498 0.6437 -0.6191
vt 1.000000 0.500000
vt 1.000000 1.000000
vt 0.900000 1.000000
vt 0.900000 0.500000
vt 0.800000 1.000000
vt 0.800000 0.500000
vt 0.700000 1.000000
vt 0.700000 0.500000
vt 0.600000 1.000000
vt 0.600000 0.500000
vt 0.500000 1.000000
vt 0.500000 0.500000
vt 0.400000 1.000000
vt 0.400000 0.500000
vt 0.300000 1.000000
vt 0.300000 0.500000
vt 0.200000 1.000000
vt 0.200000 0.500000
vt 0.391068 0.444164
vt 0.250000 0.490000
vt 0.108932 0.444164
vt 0.021746 0.324164
vt 0.021746 0.175836
vt 0.108932 0.055836
vt 0.250000 0.010000
vt 0.391068 0.055836
vt 0.478254 0.175836
vt 0.478254 0.324164
vt 0.100000 1.000000
vt 0.100000 0.500000
vt -0.000000 1.000000
vt -0.000000 0.500000
vt 0.750000 0.490000
vt 0.891068 0.444164
vt 0.978254 0.324164
vt 0.978254 0.175836
vt 0.891068 0.055836
vt 0.750000 0.010000
vt 0.608932 0.055836
vt 0.521746 0.175836
vt 0.521746 0.324164
vt 0.608932 0.444164
s 1
usemtl M_Brushed_Metal
f 125/213/123 126/214/124 128/215/126 127/216/125
f 127/216/125 128/215/126 130/217/128 129/218/127
f 129/218/127 130/217/128 132/219/130 131/220/129
f 131/220/129 132/219/130 134/221/132 133/222/131
f 133/222/131 134/221/132 136/223/134 135/224/133
f 135/224/133 136/223/134 138/225/136 137/226/135
f 137/226/135 138/225/136 140/227/138 139/228/137
f 139/228/137 140/227/138 142/229/140 141/230/139
f 128/231/126 126/232/124 144/233/142 142/234/140 140/235/138 138/236/136 136/237/134 134/238/132 132/239/130 130/240/128
f 141/230/139 142/229/140 144/241/142 143/242/141
f 143/242/141 144/241/142 126/243/124 125/244/123
f 125/245/123 127/246/125 129/247/127 131/248/129 133/249/131 135/250/133 137/251/135 139/252/137 141/253/139 143/254/141
o Pin.002
v 0.045000 -0.100000 0.039000
v 0.045000 0.000000 0.039000
v 0.048527 -0.100000 0.040146
v 0.048527 0.000000 0.040146
v 0.050706 -0.100000 0.043146
v 0.050706 0.000000 0.043146
v 0.050706 -0.100000 0.046854
v 0.050706 0.000000 0.046854
v 0.048527 -0.100000 0.049854
v 0.048527 0.000000 0.049854
v 0.045000 -0.100000 0.051000
v 0.045000 0.000000 0.051000
v 0.041473 -0.100000 0.049854
v 0.041473 0.000000 0.049854
v 0.039294 -0.100000 0.046854
v 0.039294 0.000000 0.046854
v 0.039294 -0.100000 0.043146
v 0.039294 0.000000 0.043146
v 0.041473 -0.100000 0.040146
v 0.041473 0.000000 0.040146
vn -0.0000 -0.6437 -0.7653
vn -0.0000 0.6437 -0.7653
vn 0.4498 -0.6437 -0.6191
vn 0.4498 0.6437 -0.6191
vn 0.7278 -0.6437 -0.2365
vn 0.7278 0.6437 -0.2365
vn 0.7278 -0.6437 0.2365
vn 0.7278 0.6437 0.2365
vn 0.4498 -0.6437 0.6191
vn 0.4498 0.6437 0.6191
vn -0.0000 -0.6437 0.7653
vn -0.0000 0.6437 0.7653
vn -0.4498 -0.6437 0.6191
vn -0.4498 0.6437 0.6191
vn -0.7278 -0.6437 0.2365
vn -0.7278 0.6437 0.2365
vn -0.7278 -0.6437 -0.2365
vn -0.7278 0.6437 -0.2365
vn -0.4498 -0.6437 -0.6191
vn -0.4498 0.6437 -0.6191
vt 1.000000 0.500000
vt 1.000000 1.000000
vt 0.900000 1.000000
vt 0.900000 0.500000
vt 0.800000 1.000000
vt 0.800000 0.500000
vt 0.700000 1.000000
vt 0.700000 0.500000
vt 0.600000 1.000000
vt 0.600000 0.500000
vt 0.500000 1.000000
vt 0.500000 0.500000
vt 0.400000 1.000000
vt 0.400000 0.500000
vt 0.300000 1.000000
vt 0.300000 0.500000
vt 0.200000 1.000000
vt 0.200000 0.500000
vt 0.391068 0.444164
vt 0.250000 0.490000
vt 0.108932 0.444164
vt 0.021746 0.324164
vt 0.021746 0.175836
vt 0.108932 0.055836
vt 0.250000 0.010000
vt 0.391068 0.055836
vt 0.478254 0.175836
vt 0.478254 0.324164
vt 0.100000 1.000000
vt 0.100000 0.500000
vt -0.000000 1.000000
vt -0.000000 0.500000
vt 0.750000 0.490000
vt 0.891068 0.444164
vt 0.978254 0.324164
vt 0.978254 0.175836
vt 0.891068 0.055836
vt 0.750000 0.010000
vt 0.608932 0.055836
vt 0.521746 0.175836
vt 0.521746 0.324164
vt 0.608932 0.444164
s 1
usemtl M_Brushed_Metal
f 145/255/143 146/256/144 148/257/146 147/258/145
f 147/258/145 148/257/146 150/259/148 149/260/147
f 149/260/147 150/259/148 152/261/150 151/262/149
f 151/262/149 152/261/150 154/263/152 153/264/151
f 153/264/151 154/263/152 156/265/154 155/266/153
f 155/266/153 156/265/154 158/267/156 157/268/155
f 157/268/155 158/267/156 160/269/158 159/270/157
f 159/270/157 160/269/158 162/271/160 161/272/159
f 148/273/146 146/274/144 164/275/162 162/276/160 160/277/158 158/278/156 156/279/154 154/280/152 152/281/150 150/282/148
f 161/272/159 162/271/160 164/283/162 163/284/161
f 163/284/161 164/283/162 146/285/144 145/286/143
f 145/287/143 147/288/145 149/289/147 151/290/149 153/291/151 155/292/153 157/293/155 159/294/157 161/295/159 163/296/161
o Pin.003
v 0.045000 -0.100000 -0.051000
v 0.045000 0.000000 -0.051000
v 0.048527 -0.100000 -0.049854
v 0.048527 0.000000 -0.049854
v 0.050706 -0.100000 -0.046854
v 0.050706 0.000000 -0.046854
v 0.050706 -0.100000 -0.043146
v 0.050706 0.000000 -0.043146
v 0.048527 -0.100000 -0.040146
v 0.048527 0.000000 -0.040146
v 0.045000 -0.100000 -0.039000
v 0.045000 0.000000 -0.039000
v 0.041473 -0.100000 -0.040146
v 0.041473 0.000000 -0.040146
v 0.039294 -0.100000 -0.043146
v 0.039294 0.000000 -0.043146
v 0.039294 -0.100000 -0.046854
v 0.039294 0.000000 -0.046854
v 0.041473 -0.100000 -0.049854
v 0.041473 0.000000 -0.049854
vn -0.0000 -0.6437 -0.7653
vn -0.0000 0.6437 -0.7653
vn 0.4498 -0.6437 -0.6191
vn 0.4498 0.6437 -0.6191
vn 0.7278 -0.6437 -0.2365
vn 0.7278 0.6437 -0.2365
vn 0.7278 -0.6437 0.2365
vn 0.7278 0.6437 0.2365
vn 0.4498 -0.6437 0.6191
vn 0.4498 0.6437 0.6191
vn -0.0000 -0.6437 0.7653
vn -0.0000 0.6437 0.7653
vn -0.4498 -0.6437 0.6191
vn -0.4498 0.6437 0.6191
vn -0.7278 -0.6437 0.2365
vn -0.7278 0.6437 0.2365
vn -0.7278 -0.6437 -0.2365
vn -0.7278 0.6437 -0.2365
vn -0.4498 -0.6437 -0.6191
vn -0.4498 0.6437 -0.6191
vt 1.000000 0.500000
vt 1.000000 1.000000
vt 0.900000 1.000000
vt 0.900000 0.500000
vt 0.800000 1.000000
vt 0.800000 0.500000
vt 0.700000 1.000000
vt 0.700000 0.500000
vt 0.600000 1.000000
vt 0.600000 0.500000
vt 0.500000 1.000000
vt 0.500000 0.500000
vt 0.400000 1.000000
vt 0.400000 0.500000
vt 0.300000 1.000000
vt 0.300000 0.500000
vt 0.200000 1.000000
vt 0.200000 0.500000
vt 0.391068 0.444164
vt 0.250000 0.490000
vt 0.108932 0.444164
vt 0.021746 0.324164
vt 0.021746 0.175836
vt 0.108932 0.055836
vt 0.250000 0.010000
vt 0.391068 0.055836
vt 0.478254 0.175836
vt 0.478254 0.324164
vt 0.100000 1.000000
vt 0.100000 0.500000
vt -0.000000 1.000000
vt -0.000000 0.500000
vt 0.750000 0.490000
vt 0.891068 0.444164
vt 0.978254 0.324164
vt 0.978254 0.175836
vt 0.891068 0.055836
vt 0.750000 0.010000
vt 0.608932 0.055836
vt 0.521746 0.175836
vt 0.521746 0.324164
vt 0.608932 0.444164
s 1
usemtl M_Brushed_Metal
f 165/297/163 166/298/164 168/299/166 167/300/165
f 167/300/165 168/299/166 170/301/168 169/302/167
f 169/302/167 170/301/168 172/303/170 171/304/169
f 171/304/169 172/303/170 174/305/172 173/306/171
f 173/306/171 174/305/172 176/307/174 175/308/173
f 175/308/173 176/307/174 178/309/176 177/310/175
f 177/310/175 178/309/176 180/311/178 179/312/177
f 179/312/177 180/311/178 182/313/180 181/314/179
f 168/315/166 166/316/164 184/317/182 182/318/180 180/319/178 178/320/176 176/321/174 174/322/172 172/323/170 170/324/168
f 181/314/179 182/313/180 184/325/182 183/326/181
f 183/326/181 184/325/182 166/327/164 165/328/163
f 165/329/163 167/330/165 169/331/167 171/332/169 173/333/171 175/334/173 177/335/175 179/336/177 181/337/179 183/338/181
