# Blender 4.5.11 LTS
# www.blender.org
mtllib ESDFloorTile.mtl
o Tile
v -0.296000 0.000000 0.296000
v -0.296000 0.004000 0.300000
v -0.300000 0.004000 0.296000
v -0.296000 0.001172 0.298828
v -0.298309 0.001691 0.298309
v -0.298828 0.004000 0.298828
v -0.298828 0.001172 0.296000
v -0.296000 0.004000 0.300000
v -0.296000 0.008000 0.296000
v -0.300000 0.004000 0.296000
v -0.296000 0.006828 0.298828
v -0.298309 0.006309 0.298309
v -0.298828 0.006828 0.296000
v -0.298828 0.004000 0.298828
v -0.296000 0.000000 -0.296000
v -0.300000 0.004000 -0.296000
v -0.296000 0.004000 -0.300000
v -0.298828 0.001172 -0.296000
v -0.298309 0.001691 -0.298309
v -0.298828 0.004000 -0.298828
v -0.296000 0.001172 -0.298828
v -0.296000 0.008000 -0.296000
v -0.296000 0.004000 -0.300000
v -0.300000 0.004000 -0.296000
v -0.296000 0.006828 -0.298828
v -0.298309 0.006309 -0.298309
v -0.298828 0.004000 -0.298828
v -0.298828 0.006828 -0.296000
v 0.296000 0.000000 0.296000
v 0.300000 0.004000 0.296000
v 0.296000 0.004000 0.300000
v 0.298828 0.001172 0.296000
v 0.298309 0.001691 0.298309
v 0.298828 0.004000 0.298828
v 0.296000 0.001172 0.298828
v 0.296000 0.008000 0.296000
v 0.296000 0.004000 0.300000
v 0.300000 0.004000 0.296000
v 0.296000 0.006828 0.298828
v 0.298309 0.006309 0.298309
v 0.298828 0.004000 0.298828
v 0.298828 0.006828 0.296000
v 0.296000 0.000000 -0.296000
v 0.296000 0.004000 -0.300000
v 0.300000 0.004000 -0.296000
v 0.296000 0.001172 -0.298828
v 0.298309 0.001691 -0.298309
v 0.298828 0.004000 -0.298828
v 0.298828 0.001172 -0.296000
v 0.296000 0.008000 -0.296000
v 0.300000 0.004000 -0.296000
v 0.296000 0.004000 -0.300000
v 0.298828 0.006828 -0.296000
v 0.298309 0.006309 -0.298309
v 0.298828 0.004000 -0.298828
v 0.296000 0.006828 -0.298828
vn -0.3251 -0.8881 0.3251
vn -0.3251 -0.3251 0.8881
vn -0.8881 -0.3251 0.3251
vn -0.3251 0.3251 0.8881
vn -0.3251 0.8881 0.3251
vn -0.8881 0.3251 0.3251
vn -0.3251 -0.8881 -0.3251
vn -0.8881 -0.3251 -0.3251
vn -0.3251 -0.3251 -0.8881
vn -0.3251 0.8881 -0.3251
vn -0.3251 0.3251 -0.8881
vn -0.8881 0.3251 -0.3251
vn 0.3251 -0.8881 0.3251
vn 0.8881 -0.3251 0.3251
vn 0.3251 -0.3251 0.8881
vn 0.3251 0.8881 0.3251
vn 0.3251 0.3251 0.8881
vn 0.8881 0.3251 0.3251
vn 0.3251 -0.8881 -0.3251
vn 0.3251 -0.3251 -0.8881
vn 0.8881 -0.3251 -0.3251
vn 0.3251 0.8881 -0.3251
vn 0.8881 0.3251 -0.3251
vn 0.3251 0.3251 -0.8881
vn -0.3827 -0.9239 -0.0000
vn -0.9239 -0.3827 -0.0000
vn -0.3827 -0.0000 0.9239
vn -0.9239 -0.0000 0.3827
vn -0.3827 0.9239 -0.0000
vn -0.9239 0.3827 -0.0000
vn -0.3827 -0.0000 -0.9239
vn -0.9239 -0.0000 -0.3827
vn -0.0000 -0.9239 -0.3827
vn -0.0000 -0.3827 -0.9239
vn -0.0000 0.9239 -0.3827
vn -0.0000 0.3827 -0.9239
vn 0.9239 -0.0000 -0.3827
vn 0.3827 -0.0000 -0.9239
vn 0.3827 -0.9239 -0.0000
vn 0.9239 -0.3827 -0.0000
vn 0.3827 0.9239 -0.0000
vn 0.9239 0.3827 -0.0000
vn 0.3827 -0.0000 0.9239
vn 0.9239 -0.0000 0.3827
vn -0.0000 -0.9239 0.3827
vn -0.0000 -0.3827 0.9239
vn -0.0000 0.9239 0.3827
vn -0.0000 0.3827 0.9239
vn -0.0000 -1.0000 -0.0000
vn -1.0000 -0.0000 -0.0000
vn -0.0000 -0.0000 1.0000
vn -0.0000 1.0000 -0.0000
vn -0.0000 -0.0000 -1.0000
vn 1.0000 -0.0000 -0.0000
vt 0.126667 0.748333
vt 0.126667 0.750000
vt 0.125704 0.750000
vt 0.125000 0.748333
vt 0.500000 0.998333
vt 0.500000 1.000000
vt 0.427831 1.000000
vt 0.375000 0.998333
vt 0.500000 0.001667
vt 0.375000 0.001667
vt 0.375000 0.000704
vt 0.500000 0.000000
vt 0.625000 0.998333
vt 0.625000 0.999296
vt 0.873333 0.748333
vt 0.875000 0.748333
vt 0.875000 0.749296
vt 0.873333 0.750000
vt 0.500000 0.001667
vt 0.500000 0.000000
vt 0.572169 0.000000
vt 0.625000 0.001667
vt 0.126667 0.501667
vt 0.125000 0.501667
vt 0.125000 0.500704
vt 0.126667 0.500000
vt 0.500000 0.248333
vt 0.500000 0.250000
vt 0.401416 0.250352
vt 0.375000 0.248333
vt 0.500000 0.251667
vt 0.375000 0.251667
vt 0.873333 0.501667
vt 0.873333 0.500000
vt 0.874296 0.500000
vt 0.875000 0.501667
vt 0.500000 0.251667
vt 0.500000 0.250000
vt 0.598585 0.249648
vt 0.625000 0.251667
vt 0.625000 0.248333
vt 0.373333 0.748333
vt 0.375000 0.748333
vt 0.392610 0.750000
vt 0.374167 0.750833
vt 0.500000 0.748333
vt 0.500000 0.750000
vt 0.500000 0.751667
vt 0.626667 0.748333
vt 0.625833 0.750833
vt 0.607625 0.749765
vt 0.625000 0.748333
vt 0.500000 0.751667
vt 0.500000 0.750000
vt 0.373333 0.501667
vt 0.374167 0.499167
vt 0.392376 0.500235
vt 0.375000 0.501667
vt 0.500000 0.498333
vt 0.500000 0.500000
vt 0.500000 0.501667
vt 0.626667 0.501667
vt 0.625000 0.501667
vt 0.607389 0.500000
vt 0.625833 0.499167
vt 0.500000 0.501667
vt 0.500000 0.500000
s 0
usemtl M_Graphite
f 1/1/1 4/2/1 5/3/1 7/4/1
f 2/5/2 6/6/2 5/7/2 4/8/2
f 3/9/3 7/10/3 5/11/3 6/12/3
f 8/5/4 11/13/4 12/14/4 14/6/4
f 9/15/5 13/16/5 12/17/5 11/18/5
f 10/19/6 14/20/6 12/21/6 13/22/6
f 15/23/7 18/24/7 19/25/7 21/26/7
f 16/27/8 20/28/8 19/29/8 18/30/8
f 17/31/9 21/32/9 19/29/9 20/28/9
f 22/33/10 25/34/10 26/35/10 28/36/10
f 23/37/11 27/38/11 26/39/11 25/40/11
f 24/27/12 28/41/12 26/39/12 27/38/12
f 29/42/13 32/43/13 33/44/13 35/45/13
f 30/46/14 34/47/14 33/44/14 32/43/14
f 31/48/15 35/45/15 33/44/15 34/47/15
f 36/49/16 39/50/16 40/51/16 42/52/16
f 37/53/17 41/54/17 40/51/17 39/50/17
f 38/46/18 42/52/18 40/51/18 41/54/18
f 43/55/19 46/56/19 47/57/19 49/58/19
f 44/59/20 48/60/20 47/57/20 46/56/20
f 45/61/21 49/58/21 47/57/21 48/60/21
f 50/62/22 53/63/22 54/64/22 56/65/22
f 51/66/23 55/67/23 54/64/23 53/63/23
f 52/59/24 56/65/24 54/64/24 55/67/24
f 15/23/25 1/1/25 7/4/25 18/24/25
f 18/30/26 7/10/26 3/9/26 16/27/26
f 2/5/27 8/5/27 14/6/27 6/6/27
f 6/12/28 14/20/28 10/19/28 3/9/28
f 9/15/29 22/33/29 28/36/29 13/16/29
f 13/22/30 28/41/30 24/27/30 10/19/30
f 23/37/31 17/31/31 20/28/31 27/38/31
f 27/38/32 20/28/32 16/27/32 24/27/32
f 43/55/33 15/23/33 21/26/33 46/56/33
f 46/56/34 21/32/34 17/31/34 44/59/34
f 22/33/35 50/62/35 56/65/35 25/34/35
f 25/40/36 56/65/36 52/59/36 23/37/36
f 51/66/37 45/61/37 48/60/37 55/67/37
f 55/67/38 48/60/38 44/59/38 52/59/38
f 29/42/39 43/55/39 49/58/39 32/43/39
f 32/43/40 49/58/40 45/61/40 30/46/40
f 50/62/41 36/49/41 42/52/41 53/63/41
f 53/63/42 42/52/42 38/46/42 51/66/42
f 37/53/43 31/48/43 34/47/43 41/54/43
f 41/54/44 34/47/44 30/46/44 38/46/44
f 1/1/45 29/42/45 35/45/45 4/2/45
f 4/8/46 35/45/46 31/48/46 2/5/46
f 36/49/47 9/15/47 11/18/47 39/50/47
f 39/50/48 11/13/48 8/5/48 37/53/48
f 15/23/49 43/55/49 29/42/49 1/1/49
f 3/9/50 10/19/50 24/27/50 16/27/50
f 31/48/51 37/53/51 8/5/51 2/5/51
f 50/62/52 22/33/52 9/15/52 36/49/52
f 17/31/53 23/37/53 52/59/53 44/59/53
f 45/61/54 51/66/54 38/46/54 30/46/54
