# Blender 4.5.11 LTS
# www.blender.org
mtllib SnapSocketRing.mtl
o Ring.002
v 0.066000 0.000000 0.000000
v 0.064243 0.004243 0.000000
v 0.060000 0.006000 0.000000
v 0.055757 0.004243 0.000000
v 0.054000 0.000000 0.000000
v 0.055757 -0.004243 0.000000
v 0.060000 -0.006000 0.000000
v 0.064243 -0.004243 0.000000
v 0.064732 0.000000 -0.012876
v 0.063008 0.004243 -0.012533
v 0.058847 0.006000 -0.011705
v 0.054686 0.004243 -0.010878
v 0.052962 0.000000 -0.010535
v 0.054686 -0.004243 -0.010878
v 0.058847 -0.006000 -0.011705
v 0.063008 -0.004243 -0.012533
v 0.060976 0.000000 -0.025257
v 0.059352 0.004243 -0.024585
v 0.055433 0.006000 -0.022961
v 0.051513 0.004243 -0.021337
v 0.049889 0.000000 -0.020665
v 0.051513 -0.004243 -0.021337
v 0.055433 -0.006000 -0.022961
v 0.059352 -0.004243 -0.024585
v 0.054877 0.000000 -0.036668
v 0.053416 0.004243 -0.035691
v 0.049888 0.006000 -0.033334
v 0.046361 0.004243 -0.030977
v 0.044899 0.000000 -0.030001
v 0.046361 -0.004243 -0.030977
v 0.049888 -0.006000 -0.033334
v 0.053416 -0.004243 -0.035691
v 0.046669 0.000000 -0.046669
v 0.045426 0.004243 -0.045426
v 0.042426 0.006000 -0.042426
v 0.039426 0.004243 -0.039426
v 0.038184 0.000000 -0.038184
v 0.039426 -0.004243 -0.039426
v 0.042426 -0.006000 -0.042426
v 0.045426 -0.004243 -0.045426
v 0.036668 0.000000 -0.054877
v 0.035691 0.004243 -0.053416
v 0.033334 0.006000 -0.049888
v 0.030977 0.004243 -0.046361
v 0.030001 0.000000 -0.044899
v 0.030977 -0.004243 -0.046361
v 0.033334 -0.006000 -0.049888
v 0.035691 -0.004243 -0.053416
v 0.025257 0.000000 -0.060976
v 0.024585 0.004243 -0.059352
v 0.022961 0.006000 -0.055433
v 0.021337 0.004243 -0.051513
v 0.020665 0.000000 -0.049889
v 0.021337 -0.004243 -0.051513
v 0.022961 -0.006000 -0.055433
v 0.024585 -0.004243 -0.059352
v 0.012876 0.000000 -0.064732
v 0.012533 0.004243 -0.063008
v 0.011705 0.006000 -0.058847
v 0.010878 0.004243 -0.054686
v 0.010535 0.000000 -0.052962
v 0.010878 -0.004243 -0.054686
v 0.011705 -0.006000 -0.058847
v 0.012533 -0.004243 -0.063008
v 0.000000 0.000000 -0.066000
v 0.000000 0.004243 -0.064243
v 0.000000 0.006000 -0.060000
v 0.000000 0.004243 -0.055757
v 0.000000 0.000000 -0.054000
v 0.000000 -0.004243 -0.055757
v 0.000000 -0.006000 -0.060000
v 0.000000 -0.004243 -0.064243
v -0.012876 0.000000 -0.064732
v -0.012533 0.004243 -0.063008
v -0.011705 0.006000 -0.058847
v -0.010878 0.004243 -0.054686
v -0.010535 0.000000 -0.052962
v -0.010878 -0.004243 -0.054686
v -0.011705 -0.006000 -0.058847
v -0.012533 -0.004243 -0.063008
v -0.025257 0.000000 -0.060976
v -0.024585 0.004243 -0.059352
v -0.022961 0.006000 -0.055433
v -0.021337 0.004243 -0.051513
v -0.020665 0.000000 -0.049889
v -0.021337 -0.004243 -0.051513
v -0.022961 -0.006000 -0.055433
v -0.024585 -0.004243 -0.059352
v -0.036668 0.000000 -0.054877
v -0.035691 0.004243 -0.053416
v -0.033334 0.006000 -0.049888
v -0.030977 0.004243 -0.046361
v -0.030001 0.000000 -0.044899
v -0.030977 -0.004243 -0.046361
v -0.033334 -0.006000 -0.049888
v -0.035691 -0.004243 -0.053416
v -0.046669 0.000000 -0.046669
v -0.045426 0.004243 -0.045426
v -0.042426 0.006000 -0.042426
v -0.039426 0.004243 -0.039426
v -0.038184 0.000000 -0.038184
v -0.039426 -0.004243 -0.039426
v -0.042426 -0.006000 -0.042426
v -0.045426 -0.004243 -0.045426
v -0.054877 0.000000 -0.036668
v -0.053416 0.004243 -0.035691
v -0.049888 0.006000 -0.033334
v -0.046361 0.004243 -0.030977
v -0.044899 0.000000 -0.030001
v -0.046361 -0.004243 -0.030977
v -0.049888 -0.006000 -0.033334
v -0.053416 -0.004243 -0.035691
v -0.060976 0.000000 -0.025257
v -0.059352 0.004243 -0.024585
v -0.055433 0.006000 -0.022961
v -0.051513 0.004243 -0.021337
v -0.049889 0.000000 -0.020665
v -0.051513 -0.004243 -0.021337
v -0.055433 -0.006000 -0.022961
v -0.059352 -0.004243 -0.024585
v -0.064732 0.000000 -0.012876
v -0.063008 0.004243 -0.012533
v -0.058847 0.006000 -0.011705
v -0.054686 0.004243 -0.010878
v -0.052962 0.000000 -0.010535
v -0.054686 -0.004243 -0.010878
v -0.058847 -0.006000 -0.011705
v -0.063008 -0.004243 -0.012533
v -0.066000 0.000000 -0.000000
v -0.064243 0.004243 -0.000000
v -0.060000 0.006000 -0.000000
v -0.055757 0.004243 -0.000000
v -0.054000 0.000000 -0.000000
v -0.055757 -0.004243 -0.000000
v -0.060000 -0.006000 -0.000000
v -0.064243 -0.004243 -0.000000
v -0.064732 0.000000 0.012876
v -0.063008 0.004243 0.012533
v -0.058847 0.006000 0.011705
v -0.054686 0.004243 0.010878
v -0.052962 0.000000 0.010535
v -0.054686 -0.004243 0.010878
v -0.058847 -0.006000 0.011705
v -0.063008 -0.004243 0.012533
v -0.060976 0.000000 0.025257
v -0.059352 0.004243 0.024585
v -0.055433 0.006000 0.022961
v -0.051513 0.004243 0.021337
v -0.049890 0.000000 0.020665
v -0.051513 -0.004243 0.021337
v -0.055433 -0.006000 0.022961
v -0.059352 -0.004243 0.024585
v -0.054877 0.000000 0.036668
v -0.053416 0.004243 0.035691
v -0.049888 0.006000 0.033334
v -0.046361 0.004243 0.030977
v -0.044899 0.000000 0.030001
v -0.046361 -0.004243 0.030977
v -0.049888 -0.006000 0.033334
v -0.053416 -0.004243 0.035691
v -0.046669 0.000000 0.046669
v -0.045426 0.004243 0.045426
v -0.042426 0.006000 0.042426
v -0.039426 0.004243 0.039426
v -0.038184 0.000000 0.038184
v -0.039426 -0.004243 0.039426
v -0.042426 -0.006000 0.042426
v -0.045426 -0.004243 0.045426
v -0.036668 0.000000 0.054877
v -0.035691 0.004243 0.053416
v -0.033334 0.006000 0.049888
v -0.030977 0.004243 0.046361
v -0.030001 0.000000 0.044899
v -0.030977 -0.004243 0.046361
v -0.033334 -0.006000 0.049888
v -0.035691 -0.004243 0.053416
v -0.025257 0.000000 0.060976
v -0.024585 0.004243 0.059352
v -0.022961 0.006000 0.055433
v -0.021337 0.004243 0.051513
v -0.020665 0.000000 0.049889
v -0.021337 -0.004243 0.051513
v -0.022961 -0.006000 0.055433
v -0.024585 -0.004243 0.059352
v -0.012876 0.000000 0.064732
v -0.012533 0.004243 0.063008
v -0.011705 0.006000 0.058847
v -0.010878 0.004243 0.054686
v -0.010535 0.000000 0.052962
v -0.010878 -0.004243 0.054686
v -0.011705 -0.006000 0.058847
v -0.012533 -0.004243 0.063008
v 0.000000 0.000000 0.066000
v 0.000000 0.004243 0.064243
v 0.000000 0.006000 0.060000
v 0.000000 0.004243 0.055757
v 0.000000 0.000000 0.054000
v 0.000000 -0.004243 0.055757
v 0.000000 -0.006000 0.060000
v 0.000000 -0.004243 0.064243
v 0.012876 0.000000 0.064732
v 0.012533 0.004243 0.063008
v 0.011705 0.006000 0.058847
v 0.010878 0.004243 0.054686
v 0.010535 0.000000 0.052962
v 0.010878 -0.004243 0.054686
v 0.011705 -0.006000 0.058847
v 0.012533 -0.004243 0.063008
v 0.025257 0.000000 0.060976
v 0.024585 0.004243 0.059352
v 0.022961 0.006000 0.055433
v 0.021337 0.004243 0.051513
v 0.020665 0.000000 0.049889
v 0.021337 -0.004243 0.051513
v 0.022961 -0.006000 0.055433
v 0.024585 -0.004243 0.059352
v 0.036668 0.000000 0.054877
v 0.035691 0.004243 0.053416
v 0.033334 0.006000 0.049888
v 0.030977 0.004243 0.046361
v 0.030001 0.000000 0.044899
v 0.030977 -0.004243 0.046361
v 0.033334 -0.006000 0.049888
v 0.035691 -0.004243 0.053416
v 0.046669 0.000000 0.046669
v 0.045426 0.004243 0.045426
v 0.042426 0.006000 0.042426
v 0.039426 0.004243 0.039426
v 0.038184 0.000000 0.038184
v 0.039426 -0.004243 0.039426
v 0.042426 -0.006000 0.042426
v 0.045426 -0.004243 0.045426
v 0.054877 0.000000 0.036668
v 0.053416 0.004243 0.035691
v 0.049888 0.006000 0.033334
v 0.046361 0.004243 0.030977
v 0.044899 0.000000 0.030001
v 0.046361 -0.004243 0.030977
v 0.049888 -0.006000 0.033334
v 0.053416 -0.004243 0.035691
v 0.060976 0.000000 0.025257
v 0.059352 0.004243 0.024585
v 0.055433 0.006000 0.022961
v 0.051513 0.004243 0.021337
v 0.049889 0.000000 0.020665
v 0.051513 -0.004243 0.021337
v 0.055433 -0.006000 0.022961
v 0.059352 -0.004243 0.024585
v 0.064732 0.000000 0.012876
v 0.063008 0.004243 0.012533
v 0.058847 0.006000 0.011705
v 0.054686 0.004243 0.010878
v 0.052962 0.000000 0.010535
v 0.054686 -0.004243 0.010878
v 0.058847 -0.006000 0.011705
v 0.063008 -0.004243 0.012533
vn 1.0000 -0.0000 -0.0000
vn 0.7187 0.6954 -0.0000
vn 0.0239 0.9997 -0.0000
vn -0.6948 0.7192 -0.0000
vn -1.0000 -0.0000 -0.0000
vn -0.6948 -0.7192 -0.0000
vn 0.0239 -0.9997 -0.0000
vn 0.7187 -0.6954 -0.0000
vn 0.9808 -0.0000 -0.1951
vn 0.7049 0.6954 -0.1402
vn 0.0234 0.9997 -0.0047
vn -0.6814 0.7192 0.1355
vn -0.9808 -0.0000 0.1951
vn -0.6814 -0.7192 0.1355
vn 0.0234 -0.9997 -0.0047
vn 0.7049 -0.6954 -0.1402
vn 0.9239 -0.0000 -0.3827
vn 0.6640 0.6954 -0.2750
vn 0.0221 0.9997 -0.0091
vn -0.6419 0.7192 0.2659
vn -0.9239 -0.0000 0.3827
vn -0.6419 -0.7192 0.2659
vn 0.0221 -0.9997 -0.0091
vn 0.6640 -0.6954 -0.2750
vn 0.8315 -0.0000 -0.5556
vn 0.5975 0.6954 -0.3993
vn 0.0199 0.9997 -0.0133
vn -0.5777 0.7192 0.3860
vn -0.8315 -0.0000 0.5556
vn -0.5777 -0.7192 0.3860
vn 0.0199 -0.9997 -0.0133
vn 0.5975 -0.6954 -0.3993
vn 0.7071 -0.0000 -0.7071
vn 0.5082 0.6954 -0.5082
vn 0.0169 0.9997 -0.0169
vn -0.4913 0.7192 0.4913
vn -0.7071 -0.0000 0.7071
vn -0.4913 -0.7192 0.4913
vn 0.0169 -0.9997 -0.0169
vn 0.5082 -0.6954 -0.5082
vn 0.5556 -0.0000 -0.8315
vn 0.3993 0.6954 -0.5975
vn 0.0133 0.9997 -0.0199
vn -0.3860 0.7192 0.5777
vn -0.5556 -0.0000 0.8315
vn -0.3860 -0.7192 0.5777
vn 0.0133 -0.9997 -0.0199
vn 0.3993 -0.6954 -0.5975
vn 0.3827 -0.0000 -0.9239
vn 0.2750 0.6954 -0.6640
vn 0.0091 0.9997 -0.0221
vn -0.2659 0.7192 0.6419
vn -0.3827 -0.0000 0.9239
vn -0.2659 -0.7192 0.6419
vn 0.0091 -0.9997 -0.0221
vn 0.2750 -0.6954 -0.6640
vn 0.1951 -0.0000 -0.9808
vn 0.1402 0.6954 -0.7049
vn 0.0047 0.9997 -0.0234
vn -0.1355 0.7192 0.6814
vn -0.1951 -0.0000 0.9808
vn -0.1355 -0.7192 0.6814
vn 0.0047 -0.9997 -0.0234
vn 0.1402 -0.6954 -0.7049
vn -0.0000 -0.0000 -1.0000
vn -0.0000 0.6954 -0.7187
vn -0.0000 0.9997 -0.0239
vn -0.0000 0.7192 0.6948
vn -0.0000 -0.0000 1.0000
vn -0.0000 -0.7192 0.6948
vn -0.0000 -0.9997 -0.0239
vn -0.0000 -0.6954 -0.7187
vn -0.1951 -0.0000 -0.9808
vn -0.1402 0.6954 -0.7049
vn -0.0047 0.9997 -0.0234
vn 0.1355 0.7192 0.6814
vn 0.1951 -0.0000 0.9808
vn 0.1355 -0.7192 0.6814
vn -0.0047 -0.9997 -0.0234
vn -0.1402 -0.6954 -0.7049
vn -0.3827 -0.0000 -0.9239
vn -0.2750 0.6954 -0.6640
vn -0.0091 0.9997 -0.0221
vn 0.2659 0.7192 0.6419
vn 0.3827 -0.0000 0.9239
vn 0.2659 -0.7192 0.6419
vn -0.0091 -0.9997 -0.0221
vn -0.2750 -0.6954 -0.6640
vn -0.5556 -0.0000 -0.8315
vn -0.3993 0.6954 -0.5975
vn -0.0133 0.9997 -0.0199
vn 0.3860 0.7192 0.5777
vn 0.5556 -0.0000 0.8315
vn 0.3860 -0.7192 0.5777
vn -0.0133 -0.9997 -0.0199
vn -0.3993 -0.6954 -0.5975
vn -0.7071 -0.0000 -0.7071
vn -0.5082 0.6954 -0.5082
vn -0.0169 0.9997 -0.0169
vn 0.4913 0.7192 0.4913
vn 0.7071 -0.0000 0.7071
vn 0.4913 -0.7192 0.4913
vn -0.0169 -0.9997 -0.0169
vn -0.5082 -0.6954 -0.5082
vn -0.8315 -0.0000 -0.5556
vn -0.5975 0.6954 -0.3993
vn -0.0199 0.9997 -0.0133
vn 0.5777 0.7192 0.3860
vn 0.8315 -0.0000 0.5556
vn 0.5777 -0.7192 0.3860
vn -0.0199 -0.9997 -0.0133
vn -0.5975 -0.6954 -0.3993
vn -0.9239 -0.0000 -0.3827
vn -0.6640 0.6954 -0.2750
vn -0.0221 0.9997 -0.0091
vn 0.6419 0.7192 0.2659
vn 0.9239 -0.0000 0.3827
vn 0.6419 -0.7192 0.2659
vn -0.0221 -0.9997 -0.0091
vn -0.6640 -0.6954 -0.2750
vn -0.9808 -0.0000 -0.1951
vn -0.7049 0.6954 -0.1402
vn -0.0234 0.9997 -0.0047
vn 0.6814 0.7192 0.1355
vn 0.9808 -0.0000 0.1951
vn 0.6814 -0.7192 0.1355
vn -0.0234 -0.9997 -0.0047
vn -0.7049 -0.6954 -0.1402
vn -0.7187 0.6954 -0.0000
vn -0.0239 0.9997 -0.0000
vn 0.6948 0.7192 -0.0000
vn 0.6948 -0.7192 -0.0000
vn -0.0239 -0.9997 -0.0000
vn -0.7187 -0.6954 -0.0000
vn -0.7049 0.6954 0.1402
vn -0.0234 0.9997 0.0047
vn 0.6814 0.7192 -0.1355
vn 0.6814 -0.7192 -0.1355
vn -0.0234 -0.9997 0.0047
vn -0.7049 -0.6954 0.1402
vn -0.6640 0.6954 0.2750
vn -0.0221 0.9997 0.0091
vn 0.6419 0.7192 -0.2659
vn 0.6419 -0.7192 -0.2659
vn -0.0221 -0.9997 0.0091
vn -0.6640 -0.6954 0.2750
vn -0.5975 0.6954 0.3993
vn -0.0199 0.9997 0.0133
vn 0.5777 0.7192 -0.3860
vn 0.5777 -0.7192 -0.3860
vn -0.0199 -0.9997 0.0133
vn -0.5975 -0.6954 0.3993
vn -0.5082 0.6954 0.5082
vn -0.0169 0.9997 0.0169
vn 0.4913 0.7192 -0.4913
vn 0.4913 -0.7192 -0.4913
vn -0.0169 -0.9997 0.0169
vn -0.5082 -0.6954 0.5082
vn -0.3993 0.6954 0.5975
vn -0.0133 0.9997 0.0199
vn 0.3860 0.7192 -0.5777
vn 0.3860 -0.7192 -0.5777
vn -0.0133 -0.9997 0.0199
vn -0.3993 -0.6954 0.5975
vn -0.2750 0.6954 0.6640
vn -0.0091 0.9997 0.0221
vn 0.2659 0.7192 -0.6419
vn 0.2659 -0.7192 -0.6419
vn -0.0091 -0.9997 0.0221
vn -0.2750 -0.6954 0.6640
vn -0.1402 0.6954 0.7049
vn -0.0047 0.9997 0.0234
vn 0.1355 0.7192 -0.6814
vn 0.1355 -0.7192 -0.6814
vn -0.0047 -0.9997 0.0234
vn -0.1402 -0.6954 0.7049
vn -0.0000 0.6954 0.7187
vn -0.0000 0.9997 0.0239
vn -0.0000 0.7192 -0.6948
vn -0.0000 -0.7192 -0.6948
vn -0.0000 -0.9997 0.0239
vn -0.0000 -0.6954 0.7187
vn 0.1402 0.6954 0.7049
vn 0.0047 0.9997 0.0234
vn -0.1355 0.7192 -0.6814
vn -0.1355 -0.7192 -0.6814
vn 0.0047 -0.9997 0.0234
vn 0.1402 -0.6954 0.7049
vn 0.2750 0.6954 0.6640
vn 0.0091 0.9997 0.0221
vn -0.2659 0.7192 -0.6419
vn -0.2659 -0.7192 -0.6419
vn 0.0091 -0.9997 0.0221
vn 0.2750 -0.6954 0.6640
vn 0.3993 0.6954 0.5975
vn 0.0133 0.9997 0.0199
vn -0.3860 0.7192 -0.5777
vn -0.3860 -0.7192 -0.5777
vn 0.0133 -0.9997 0.0199
vn 0.3993 -0.6954 0.5975
vn 0.5082 0.6954 0.5082
vn 0.0169 0.9997 0.0169
vn -0.4913 0.7192 -0.4913
vn -0.4913 -0.7192 -0.4913
vn 0.0169 -0.9997 0.0169
vn 0.5082 -0.6954 0.5082
vn 0.5975 0.6954 0.3993
vn 0.0199 0.9997 0.0133
vn -0.5777 0.7192 -0.3860
vn -0.5777 -0.7192 -0.3860
vn 0.0199 -0.9997 0.0133
vn 0.5975 -0.6954 0.3993
vn 0.6640 0.6954 0.2750
vn 0.0221 0.9997 0.0091
vn -0.6419 0.7192 -0.2659
vn -0.6419 -0.7192 -0.2659
vn 0.0221 -0.9997 0.0091
vn 0.6640 -0.6954 0.2750
vn 0.7049 0.6954 0.1402
vn 0.0234 0.9997 0.0047
vn -0.6814 0.7192 -0.1355
vn -0.6814 -0.7192 -0.1355
vn 0.0234 -0.9997 0.0047
vn 0.7049 -0.6954 0.1402
vt 0.500000 0.500000
vt 0.531250 0.500000
vt 0.531250 0.625000
vt 0.500000 0.625000
vt 0.531250 0.750000
vt 0.500000 0.750000
vt 0.531250 0.875000
vt 0.500000 0.875000
vt 0.531250 1.000000
vt 0.500000 1.000000
vt 0.500000 0.000000
vt 0.531250 0.000000
vt 0.531250 0.125000
vt 0.500000 0.125000
vt 0.531250 0.250000
vt 0.500000 0.250000
vt 0.531250 0.375000
vt 0.500000 0.375000
vt 0.562500 0.500000
vt 0.562500 0.625000
vt 0.562500 0.750000
vt 0.562500 0.875000
vt 0.562500 1.000000
vt 0.562500 0.000000
vt 0.562500 0.125000
vt 0.562500 0.250000
vt 0.562500 0.375000
vt 0.593750 0.500000
vt 0.593750 0.625000
vt 0.593750 0.750000
vt 0.593750 0.875000
vt 0.593750 1.000000
vt 0.593750 0.000000
vt 0.593750 0.125000
vt 0.593750 0.250000
vt 0.593750 0.375000
vt 0.625000 0.500000
vt 0.625000 0.625000
vt 0.625000 0.750000
vt 0.625000 0.875000
vt 0.625000 1.000000
vt 0.625000 0.000000
vt 0.625000 0.125000
vt 0.625000 0.250000
vt 0.625000 0.375000
vt 0.656250 0.500000
vt 0.656250 0.625000
vt 0.656250 0.750000
vt 0.656250 0.875000
vt 0.656250 1.000000
vt 0.656250 0.000000
vt 0.656250 0.125000
vt 0.656250 0.250000
vt 0.656250 0.375000
vt 0.687500 0.500000
vt 0.687500 0.625000
vt 0.687500 0.750000
vt 0.687500 0.875000
vt 0.687500 1.000000
vt 0.687500 0.000000
vt 0.687500 0.125000
vt 0.687500 0.250000
vt 0.687500 0.375000
vt 0.718750 0.500000
vt 0.718750 0.625000
vt 0.718750 0.750000
vt 0.718750 0.875000
vt 0.718750 1.000000
vt 0.718750 0.000000
vt 0.718750 0.125000
vt 0.718750 0.250000
vt 0.718750 0.375000
vt 0.750000 0.500000
vt 0.750000 0.625000
vt 0.750000 0.750000
vt 0.750000 0.875000
vt 0.750000 1.000000
vt 0.750000 0.000000
vt 0.750000 0.125000
vt 0.750000 0.250000
vt 0.750000 0.375000
vt 0.781250 0.500000
vt 0.781250 0.625000
vt 0.781250 0.750000
vt 0.781250 0.875000
vt 0.781250 1.000000
vt 0.781250 0.000000
vt 0.781250 0.125000
vt 0.781250 0.250000
vt 0.781250 0.375000
vt 0.812500 0.500000
vt 0.812500 0.625000
vt 0.812500 0.750000
vt 0.812500 0.875000
vt 0.812500 1.000000
vt 0.812500 0.000000
vt 0.812500 0.125000
vt 0.812500 0.250000
vt 0.812500 0.375000
vt 0.843750 0.500000
vt 0.843750 0.625000
vt 0.843750 0.750000
vt 0.843750 0.875000
vt 0.843750 1.000000
vt 0.843750 0.000000
vt 0.843750 0.125000
vt 0.843750 0.250000
vt 0.843750 0.375000
vt 0.875000 0.500000
vt 0.875000 0.625000
vt 0.875000 0.750000
vt 0.875000 0.875000
vt 0.875000 1.000000
vt 0.875000 0.000000
vt 0.875000 0.125000
vt 0.875000 0.250000
vt 0.875000 0.375000
vt 0.906250 0.500000
vt 0.906250 0.625000
vt 0.906250 0.750000
vt 0.906250 0.875000
vt 0.906250 1.000000
vt 0.906250 0.000000
vt 0.906250 0.125000
vt 0.906250 0.250000
vt 0.906250 0.375000
vt 0.937500 0.500000
vt 0.937500 0.625000
vt 0.937500 0.750000
vt 0.937500 0.875000
vt 0.937500 1.000000
vt 0.937500 0.000000
vt 0.937500 0.125000
vt 0.937500 0.250000
vt 0.937500 0.375000
vt 0.968750 0.500000
vt 0.968750 0.625000
vt 0.968750 0.750000
vt 0.968750 0.875000
vt 0.968750 1.000000
vt 0.968750 0.000000
vt 0.968750 0.125000
vt 0.968750 0.250000
vt 0.968750 0.375000
vt 1.000000 0.500000
vt 1.000000 0.625000
vt 1.000000 0.750000
vt 1.000000 0.875000
vt 1.000000 1.000000
vt 1.000000 0.000000
vt 1.000000 0.125000
vt 1.000000 0.250000
vt 1.000000 0.375000
vt 0.000000 0.500000
vt 0.031250 0.500000
vt 0.031250 0.625000
vt 0.000000 0.625000
vt 0.031250 0.750000
vt 0.000000 0.750000
vt 0.031250 0.875000
vt 0.000000 0.875000
vt 0.031250 1.000000
vt 0.000000 1.000000
vt 0.000000 0.000000
vt 0.031250 0.000000
vt 0.031250 0.125000
vt 0.000000 0.125000
vt 0.031250 0.250000
vt 0.000000 0.250000
vt 0.031250 0.375000
vt 0.000000 0.375000
vt 0.062500 0.500000
vt 0.062500 0.625000
vt 0.062500 0.750000
vt 0.062500 0.875000
vt 0.062500 1.000000
vt 0.062500 0.000000
vt 0.062500 0.125000
vt 0.062500 0.250000
vt 0.062500 0.375000
vt 0.093750 0.500000
vt 0.093750 0.625000
vt 0.093750 0.750000
vt 0.093750 0.875000
vt 0.093750 1.000000
vt 0.093750 0.000000
vt 0.093750 0.125000
vt 0.093750 0.250000
vt 0.093750 0.375000
vt 0.125000 0.500000
vt 0.125000 0.625000
vt 0.125000 0.750000
vt 0.125000 0.875000
vt 0.125000 1.000000
vt 0.125000 0.000000
vt 0.125000 0.125000
vt 0.125000 0.250000
vt 0.125000 0.375000
vt 0.156250 0.500000
vt 0.156250 0.625000
vt 0.156250 0.750000
vt 0.156250 0.875000
vt 0.156250 1.000000
vt 0.156250 0.000000
vt 0.156250 0.125000
vt 0.156250 0.250000
vt 0.156250 0.375000
vt 0.187500 0.500000
vt 0.187500 0.625000
vt 0.187500 0.750000
vt 0.187500 0.875000
vt 0.187500 1.000000
vt 0.187500 0.000000
vt 0.187500 0.125000
vt 0.187500 0.250000
vt 0.187500 0.375000
vt 0.218750 0.500000
vt 0.218750 0.625000
vt 0.218750 0.750000
vt 0.218750 0.875000
vt 0.218750 1.000000
vt 0.218750 0.000000
vt 0.218750 0.125000
vt 0.218750 0.250000
vt 0.218750 0.375000
vt 0.250000 0.500000
vt 0.250000 0.625000
vt 0.250000 0.750000
vt 0.250000 0.875000
vt 0.250000 1.000000
vt 0.250000 0.000000
vt 0.250000 0.125000
vt 0.250000 0.250000
vt 0.250000 0.375000
vt 0.281250 0.500000
vt 0.281250 0.625000
vt 0.281250 0.750000
vt 0.281250 0.875000
vt 0.281250 1.000000
vt 0.281250 0.000000
vt 0.281250 0.125000
vt 0.281250 0.250000
vt 0.281250 0.375000
vt 0.312500 0.500000
vt 0.312500 0.625000
vt 0.312500 0.750000
vt 0.312500 0.875000
vt 0.312500 1.000000
vt 0.312500 0.000000
vt 0.312500 0.125000
vt 0.312500 0.250000
vt 0.312500 0.375000
vt 0.343750 0.500000
vt 0.343750 0.625000
vt 0.343750 0.750000
vt 0.343750 0.875000
vt 0.343750 1.000000
vt 0.343750 0.000000
vt 0.343750 0.125000
vt 0.343750 0.250000
vt 0.343750 0.375000
vt 0.375000 0.500000
vt 0.375000 0.625000
vt 0.375000 0.750000
vt 0.375000 0.875000
vt 0.375000 1.000000
vt 0.375000 0.000000
vt 0.375000 0.125000
vt 0.375000 0.250000
vt 0.375000 0.375000
vt 0.406250 0.500000
vt 0.406250 0.625000
vt 0.406250 0.750000
vt 0.406250 0.875000
vt 0.406250 1.000000
vt 0.406250 0.000000
vt 0.406250 0.125000
vt 0.406250 0.250000
vt 0.406250 0.375000
vt 0.437500 0.500000
vt 0.437500 0.625000
vt 0.437500 0.750000
vt 0.437500 0.875000
vt 0.437500 1.000000
vt 0.437500 0.000000
vt 0.437500 0.125000
vt 0.437500 0.250000
vt 0.437500 0.375000
vt 0.468750 0.500000
vt 0.468750 0.625000
vt 0.468750 0.750000
vt 0.468750 0.875000
vt 0.468750 1.000000
vt 0.468750 0.000000
vt 0.468750 0.125000
vt 0.468750 0.250000
vt 0.468750 0.375000
s 1
usemtl M_Cyan_Emission
f 1/1/1 9/2/9 10/3/10 2/4/2
f 2/4/2 10/3/10 11/5/11 3/6/3
f 3/6/3 11/5/11 12/7/12 4/8/4
f 4/8/4 12/7/12 13/9/13 5/10/5
f 5/11/5 13/12/13 14/13/14 6/14/6
f 6/14/6 14/13/14 15/15/15 7/16/7
f 7/16/7 15/15/15 16/17/16 8/18/8
f 8/18/8 16/17/16 9/2/9 1/1/1
f 9/2/9 17/19/17 18/20/18 10/3/10
f 10/3/10 18/20/18 19/21/19 11/5/11
f 11/5/11 19/21/19 20/22/20 12/7/12
f 12/7/12 20/22/20 21/23/21 13/9/13
f 13/12/13 21/24/21 22/25/22 14/13/14
f 14/13/14 22/25/22 23/26/23 15/15/15
f 15/15/15 23/26/23 24/27/24 16/17/16
f 16/17/16 24/27/24 17/19/17 9/2/9
f 17/19/17 25/28/25 26/29/26 18/20/18
f 18/20/18 26/29/26 27/30/27 19/21/19
f 19/21/19 27/30/27 28/31/28 20/22/20
f 20/22/20 28/31/28 29/32/29 21/23/21
f 21/24/21 29/33/29 30/34/30 22/25/22
f 22/25/22 30/34/30 31/35/31 23/26/23
f 23/26/23 31/35/31 32/36/32 24/27/24
f 24/27/24 32/36/32 25/28/25 17/19/17
f 25/28/25 33/37/33 34/38/34 26/29/26
f 26/29/26 34/38/34 35/39/35 27/30/27
f 27/30/27 35/39/35 36/40/36 28/31/28
f 28/31/28 36/40/36 37/41/37 29/32/29
f 29/33/29 37/42/37 38/43/38 30/34/30
f 30/34/30 38/43/38 39/44/39 31/35/31
f 31/35/31 39/44/39 40/45/40 32/36/32
f 32/36/32 40/45/40 33/37/33 25/28/25
f 33/37/33 41/46/41 42/47/42 34/38/34
f 34/38/34 42/47/42 43/48/43 35/39/35
f 35/39/35 43/48/43 44/49/44 36/40/36
f 36/40/36 44/49/44 45/50/45 37/41/37
f 37/42/37 45/51/45 46/52/46 38/43/38
f 38/43/38 46/52/46 47/53/47 39/44/39
f 39/44/39 47/53/47 48/54/48 40/45/40
f 40/45/40 48/54/48 41/46/41 33/37/33
f 41/46/41 49/55/49 50/56/50 42/47/42
f 42/47/42 50/56/50 51/57/51 43/48/43
f 43/48/43 51/57/51 52/58/52 44/49/44
f 44/49/44 52/58/52 53/59/53 45/50/45
f 45/51/45 53/60/53 54/61/54 46/52/46
f 46/52/46 54/61/54 55/62/55 47/53/47
f 47/53/47 55/62/55 56/63/56 48/54/48
f 48/54/48 56/63/56 49/55/49 41/46/41
f 49/55/49 57/64/57 58/65/58 50/56/50
f 50/56/50 58/65/58 59/66/59 51/57/51
f 51/57/51 59/66/59 60/67/60 52/58/52
f 52/58/52 60/67/60 61/68/61 53/59/53
f 53/60/53 61/69/61 62/70/62 54/61/54
f 54/61/54 62/70/62 63/71/63 55/62/55
f 55/62/55 63/71/63 64/72/64 56/63/56
f 56/63/56 64/72/64 57/64/57 49/55/49
f 57/64/57 65/73/65 66/74/66 58/65/58
f 58/65/58 66/74/66 67/75/67 59/66/59
f 59/66/59 67/75/67 68/76/68 60/67/60
f 60/67/60 68/76/68 69/77/69 61/68/61
f 61/69/61 69/78/69 70/79/70 62/70/62
f 62/70/62 70/79/70 71/80/71 63/71/63
f 63/71/63 71/80/71 72/81/72 64/72/64
f 64/72/64 72/81/72 65/73/65 57/64/57
f 65/73/65 73/82/73 74/83/74 66/74/66
f 66/74/66 74/83/74 75/84/75 67/75/67
f 67/75/67 75/84/75 76/85/76 68/76/68
f 68/76/68 76/85/76 77/86/77 69/77/69
f 69/78/69 77/87/77 78/88/78 70/79/70
f 70/79/70 78/88/78 79/89/79 71/80/71
f 71/80/71 79/89/79 80/90/80 72/81/72
f 72/81/72 80/90/80 73/82/73 65/73/65
f 73/82/73 81/91/81 82/92/82 74/83/74
f 74/83/74 82/92/82 83/93/83 75/84/75
f 75/84/75 83/93/83 84/94/84 76/85/76
f 76/85/76 84/94/84 85/95/85 77/86/77
f 77/87/77 85/96/85 86/97/86 78/88/78
f 78/88/78 86/97/86 87/98/87 79/89/79
f 79/89/79 87/98/87 88/99/88 80/90/80
f 80/90/80 88/99/88 81/91/81 73/82/73
f 81/91/81 89/100/89 90/101/90 82/92/82
f 82/92/82 90/101/90 91/102/91 83/93/83
f 83/93/83 91/102/91 92/103/92 84/94/84
f 84/94/84 92/103/92 93/104/93 85/95/85
f 85/96/85 93/105/93 94/106/94 86/97/86
f 86/97/86 94/106/94 95/107/95 87/98/87
f 87/98/87 95/107/95 96/108/96 88/99/88
f 88/99/88 96/108/96 89/100/89 81/91/81
f 89/100/89 97/109/97 98/110/98 90/101/90
f 90/101/90 98/110/98 99/111/99 91/102/91
f 91/102/91 99/111/99 100/112/100 92/103/92
f 92/103/92 100/112/100 101/113/101 93/104/93
f 93/105/93 101/114/101 102/115/102 94/106/94
f 94/106/94 102/115/102 103/116/103 95/107/95
f 95/107/95 103/116/103 104/117/104 96/108/96
f 96/108/96 104/117/104 97/109/97 89/100/89
f 97/109/97 105/118/105 106/119/106 98/110/98
f 98/110/98 106/119/106 107/120/107 99/111/99
f 99/111/99 107/120/107 108/121/108 100/112/100
f 100/112/100 108/121/108 109/122/109 101/113/101
f 101/114/101 109/123/109 110/124/110 102/115/102
f 102/115/102 110/124/110 111/125/111 103/116/103
f 103/116/103 111/125/111 112/126/112 104/117/104
f 104/117/104 112/126/112 105/118/105 97/109/97
f 105/118/105 113/127/113 114/128/114 106/119/106
f 106/119/106 114/128/114 115/129/115 107/120/107
f 107/120/107 115/129/115 116/130/116 108/121/108
f 108/121/108 116/130/116 117/131/117 109/122/109
f 109/123/109 117/132/117 118/133/118 110/124/110
f 110/124/110 118/133/118 119/134/119 111/125/111
f 111/125/111 119/134/119 120/135/120 112/126/112
f 112/126/112 120/135/120 113/127/113 105/118/105
f 113/127/113 121/136/121 122/137/122 114/128/114
f 114/128/114 122/137/122 123/138/123 115/129/115
f 115/129/115 123/138/123 124/139/124 116/130/116
f 116/130/116 124/139/124 125/140/125 117/131/117
f 117/132/117 125/141/125 126/142/126 118/133/118
f 118/133/118 126/142/126 127/143/127 119/134/119
f 119/134/119 127/143/127 128/144/128 120/135/120
f 120/135/120 128/144/128 121/136/121 113/127/113
f 121/136/121 129/145/5 130/146/129 122/137/122
f 122/137/122 130/146/129 131/147/130 123/138/123
f 123/138/123 131/147/130 132/148/131 124/139/124
f 124/139/124 132/148/131 133/149/1 125/140/125
f 125/141/125 133/150/1 134/151/132 126/142/126
f 126/142/126 134/151/132 135/152/133 127/143/127
f 127/143/127 135/152/133 136/153/134 128/144/128
f 128/144/128 136/153/134 129/145/5 121/136/121
f 129/154/5 137/155/13 138/156/135 130/157/129
f 130/157/129 138/156/135 139/158/136 131/159/130
f 131/159/130 139/158/136 140/160/137 132/161/131
f 132/161/131 140/160/137 141/162/9 133/163/1
f 133/164/1 141/165/9 142/166/138 134/167/132
f 134/167/132 142/166/138 143/168/139 135/169/133
f 135/169/133 143/168/139 144/170/140 136/171/134
f 136/171/134 144/170/140 137/155/13 129/154/5
f 137/155/13 145/172/21 146/173/141 138/156/135
f 138/156/135 146/173/141 147/174/142 139/158/136
f 139/158/136 147/174/142 148/175/143 140/160/137
f 140/160/137 148/175/143 149/176/17 141/162/9
f 141/165/9 149/177/17 150/178/144 142/166/138
f 142/166/138 150/178/144 151/179/145 143/168/139
f 143/168/139 151/179/145 152/180/146 144/170/140
f 144/170/140 152/180/146 145/172/21 137/155/13
f 145/172/21 153/181/29 154/182/147 146/173/141
f 146/173/141 154/182/147 155/183/148 147/174/142
f 147/174/142 155/183/148 156/184/149 148/175/143
f 148/175/143 156/184/149 157/185/25 149/176/17
f 149/177/17 157/186/25 158/187/150 150/178/144
f 150/178/144 158/187/150 159/188/151 151/179/145
f 151/179/145 159/188/151 160/189/152 152/180/146
f 152/180/146 160/189/152 153/181/29 145/172/21
f 153/181/29 161/190/37 162/191/153 154/182/147
f 154/182/147 162/191/153 163/192/154 155/183/148
f 155/183/148 163/192/154 164/193/155 156/184/149
f 156/184/149 164/193/155 165/194/33 157/185/25
f 157/186/25 165/195/33 166/196/156 158/187/150
f 158/187/150 166/196/156 167/197/157 159/188/151
f 159/188/151 167/197/157 168/198/158 160/189/152
f 160/189/152 168/198/158 161/190/37 153/181/29
f 161/190/37 169/199/45 170/200/159 162/191/153
f 162/191/153 170/200/159 171/201/160 163/192/154
f 163/192/154 171/201/160 172/202/161 164/193/155
f 164/193/155 172/202/161 173/203/41 165/194/33
f 165/195/33 173/204/41 174/205/162 166/196/156
f 166/196/156 174/205/162 175/206/163 167/197/157
f 167/197/157 175/206/163 176/207/164 168/198/158
f 168/198/158 176/207/164 169/199/45 161/190/37
f 169/199/45 177/208/53 178/209/165 170/200/159
f 170/200/159 178/209/165 179/210/166 171/201/160
f 171/201/160 179/210/166 180/211/167 172/202/161
f 172/202/161 180/211/167 181/212/49 173/203/41
f 173/204/41 181/213/49 182/214/168 174/205/162
f 174/205/162 182/214/168 183/215/169 175/206/163
f 175/206/163 183/215/169 184/216/170 176/207/164
f 176/207/164 184/216/170 177/208/53 169/199/45
f 177/208/53 185/217/61 186/218/171 178/209/165
f 178/209/165 186/218/171 187/219/172 179/210/166
f 179/210/166 187/219/172 188/220/173 180/211/167
f 180/211/167 188/220/173 189/221/57 181/212/49
f 181/213/49 189/222/57 190/223/174 182/214/168
f 182/214/168 190/223/174 191/224/175 183/215/169
f 183/215/169 191/224/175 192/225/176 184/216/170
f 184/216/170 192/225/176 185/217/61 177/208/53
f 185/217/61 193/226/69 194/227/177 186/218/171
f 186/218/171 194/227/177 195/228/178 187/219/172
f 187/219/172 195/228/178 196/229/179 188/220/173
f 188/220/173 196/229/179 197/230/65 189/221/57
f 189/222/57 197/231/65 198/232/180 190/223/174
f 190/223/174 198/232/180 199/233/181 191/224/175
f 191/224/175 199/233/181 200/234/182 192/225/176
f 192/225/176 200/234/182 193/226/69 185/217/61
f 193/226/69 201/235/77 202/236/183 194/227/177
f 194/227/177 202/236/183 203/237/184 195/228/178
f 195/228/178 203/237/184 204/238/185 196/229/179
f 196/229/179 204/238/185 205/239/73 197/230/65
f 197/231/65 205/240/73 206/241/186 198/232/180
f 198/232/180 206/241/186 207/242/187 199/233/181
f 199/233/181 207/242/187 208/243/188 200/234/182
f 200/234/182 208/243/188 201/235/77 193/226/69
f 201/235/77 209/244/85 210/245/189 202/236/183
f 202/236/183 210/245/189 211/246/190 203/237/184
f 203/237/184 211/246/190 212/247/191 204/238/185
f 204/238/185 212/247/191 213/248/81 205/239/73
f 205/240/73 213/249/81 214/250/192 206/241/186
f 206/241/186 214/250/192 215/251/193 207/242/187
f 207/242/187 215/251/193 216/252/194 208/243/188
f 208/243/188 216/252/194 209/244/85 201/235/77
f 209/244/85 217/253/93 218/254/195 210/245/189
f 210/245/189 218/254/195 219/255/196 211/246/190
f 211/246/190 219/255/196 220/256/197 212/247/191
f 212/247/191 220/256/197 221/257/89 213/248/81
f 213/249/81 221/258/89 222/259/198 214/250/192
f 214/250/192 222/259/198 223/260/199 215/251/193
f 215/251/193 223/260/199 224/261/200 216/252/194
f 216/252/194 224/261/200 217/253/93 209/244/85
f 217/253/93 225/262/101 226/263/201 218/254/195
f 218/254/195 226/263/201 227/264/202 219/255/196
f 219/255/196 227/264/202 228/265/203 220/256/197
f 220/256/197 228/265/203 229/266/97 221/257/89
f 221/258/89 229/267/97 230/268/204 222/259/198
f 222/259/198 230/268/204 231/269/205 223/260/199
f 223/260/199 231/269/205 232/270/206 224/261/200
f 224/261/200 232/270/206 225/262/101 217/253/93
f 225/262/101 233/271/109 234/272/207 226/263/201
f 226/263/201 234/272/207 235/273/208 227/264/202
f 227/264/202 235/273/208 236/274/209 228/265/203
f 228/265/203 236/274/209 237/275/105 229/266/97
f 229/267/97 237/276/105 238/277/210 230/268/204
f 230/268/204 238/277/210 239/278/211 231/269/205
f 231/269/205 239/278/211 240/279/212 232/270/206
f 232/270/206 240/279/212 233/271/109 225/262/101
f 233/271/109 241/280/117 242/281/213 234/272/207
f 234/272/207 242/281/213 243/282/214 235/273/208
f 235/273/208 243/282/214 244/283/215 236/274/209
f 236/274/209 244/283/215 245/284/113 237/275/105
f 237/276/105 245/285/113 246/286/216 238/277/210
f 238/277/210 246/286/216 247/287/217 239/278/211
f 239/278/211 247/287/217 248/288/218 240/279/212
f 240/279/212 248/288/218 241/280/117 233/271/109
f 241/280/117 249/289/125 250/290/219 242/281/213
f 242/281/213 250/290/219 251/291/220 243/282/214
f 243/282/214 251/291/220 252/292/221 244/283/215
f 244/283/215 252/292/221 253/293/121 245/284/113
f 245/285/113 253/294/121 254/295/222 246/286/216
f 246/286/216 254/295/222 255/296/223 247/287/217
f 247/287/217 255/296/223 256/297/224 248/288/218
f 248/288/218 256/297/224 249/289/125 241/280/117
f 249/289/125 1/1/1 2/4/2 250/290/219
f 250/290/219 2/4/2 3/6/3 251/291/220
f 251/291/220 3/6/3 4/8/4 252/292/221
f 252/292/221 4/8/4 5/10/5 253/293/121
f 253/294/121 5/11/5 6/14/6 254/295/222
f 254/295/222 6/14/6 7/16/7 255/296/223
f 255/296/223 7/16/7 8/18/8 256/297/224
f 256/297/224 8/18/8 1/1/1 249/289/125
o Marker.002
v -0.005000 -0.009000 0.061000
v -0.005000 -0.005000 0.065000
v -0.009000 -0.005000 0.061000
v -0.005000 -0.007828 0.063828
v -0.007309 -0.007309 0.063309
v -0.007828 -0.005000 0.063828
v -0.007828 -0.007828 0.061000
v -0.005000 0.005000 0.065000
v -0.005000 0.009000 0.061000
v -0.009000 0.005000 0.061000
v -0.005000 0.007828 0.063828
v -0.007309 0.007309 0.063309
v -0.007828 0.007828 0.061000
v -0.007828 0.005000 0.063828
v -0.005000 -0.009000 0.059000
v -0.009000 -0.005000 0.059000
v -0.005000 -0.005000 0.055000
v -0.007828 -0.007828 0.059000
v -0.007309 -0.007309 0.056691
v -0.007828 -0.005000 0.056172
v -0.005000 -0.007828 0.056172
v -0.005000 0.009000 0.059000
v -0.005000 0.005000 0.055000
v -0.009000 0.005000 0.059000
v -0.005000 0.007828 0.056172
v -0.007309 0.007309 0.056691
v -0.007828 0.005000 0.056172
v -0.007828 0.007828 0.059000
v 0.005000 -0.009000 0.061000
v 0.009000 -0.005000 0.061000
v 0.005000 -0.005000 0.065000
v 0.007828 -0.007828 0.061000
v 0.007309 -0.007309 0.063309
v 0.007828 -0.005000 0.063828
v 0.005000 -0.007828 0.063828
v 0.005000 0.009000 0.061000
v 0.005000 0.005000 0.065000
v 0.009000 0.005000 0.061000
v 0.005000 0.007828 0.063828
v 0.007309 0.007309 0.063309
v 0.007828 0.005000 0.063828
v 0.007828 0.007828 0.061000
v 0.005000 -0.009000 0.059000
v 0.005000 -0.005000 0.055000
v 0.009000 -0.005000 0.059000
v 0.005000 -0.007828 0.056172
v 0.007309 -0.007309 0.056691
v 0.007828 -0.005000 0.056172
v 0.007828 -0.007828 0.059000
v 0.005000 0.009000 0.059000
v 0.009000 0.005000 0.059000
v 0.005000 0.005000 0.055000
v 0.007828 0.007828 0.059000
v 0.007309 0.007309 0.056691
v 0.007828 0.005000 0.056172
v 0.005000 0.007828 0.056172
vn -0.3251 -0.8881 0.3251
vn -0.3251 -0.3251 0.8881
vn -0.8881 -0.3251 0.3251
vn -0.3251 0.3251 0.8881
vn -0.3251 0.8881 0.3251
vn -0.8881 0.3251 0.3251
vn -0.3251 -0.8881 -0.3251
vn -0.8881 -0.3251 -0.3251
vn -0.3251 -0.3251 -0.8881
vn -0.3251 0.8881 -0.3251
vn -0.3251 0.3251 -0.8881
vn -0.8881 0.3251 -0.3251
vn 0.3251 -0.8881 0.3251
vn 0.8881 -0.3251 0.3251
vn 0.3251 -0.3251 0.8881
vn 0.3251 0.8881 0.3251
vn 0.3251 0.3251 0.8881
vn 0.8881 0.3251 0.3251
vn 0.3251 -0.8881 -0.3251
vn 0.3251 -0.3251 -0.8881
vn 0.8881 -0.3251 -0.3251
vn 0.3251 0.8881 -0.3251
vn 0.8881 0.3251 -0.3251
vn 0.3251 0.3251 -0.8881
vn -0.3827 -0.9239 -0.0000
vn -0.9239 -0.3827 -0.0000
vn -0.3827 -0.0000 0.9239
vn -0.9239 -0.0000 0.3827
vn -0.3827 0.9239 -0.0000
vn -0.9239 0.3827 -0.0000
vn -0.3827 -0.0000 -0.9239
vn -0.9239 -0.0000 -0.3827
vn -0.0000 -0.9239 -0.3827
vn -0.0000 -0.3827 -0.9239
vn -0.0000 0.9239 -0.3827
vn -0.0000 0.3827 -0.9239
vn 0.9239 -0.0000 -0.3827
vn 0.3827 -0.0000 -0.9239
vn 0.3827 -0.9239 -0.0000
vn 0.9239 -0.3827 -0.0000
vn 0.3827 0.9239 -0.0000
vn 0.9239 0.3827 -0.0000
vn 0.3827 -0.0000 0.9239
vn 0.9239 -0.0000 0.3827
vn -0.0000 -0.9239 0.3827
vn -0.0000 -0.3827 0.9239
vn -0.0000 0.9239 0.3827
vn -0.0000 0.3827 0.9239
vn -0.0000 -1.0000 -0.0000
vn -1.0000 -0.0000 -0.0000
vn -0.0000 -0.0000 1.0000
vn -0.0000 1.0000 -0.0000
vn -0.0000 -0.0000 -1.0000
vn 1.0000 -0.0000 -0.0000
vt 0.180556 0.650000
vt 0.180556 0.750000
vt 0.148481 0.750000
vt 0.125000 0.650000
vt 0.430556 0.944444
vt 0.430556 1.000000
vt 0.398481 1.000000
vt 0.375000 0.944444
vt 0.430556 0.100000
vt 0.375000 0.100000
vt 0.375000 0.042265
vt 0.430556 0.000000
vt 0.569444 0.944444
vt 0.625000 0.944444
vt 0.625000 0.976519
vt 0.569444 1.000000
vt 0.819445 0.650000
vt 0.875000 0.650000
vt 0.875000 0.707735
vt 0.819444 0.750000
vt 0.569444 0.100000
vt 0.569444 0.000000
vt 0.601519 0.000000
vt 0.625000 0.100000
vt 0.180556 0.600000
vt 0.125000 0.600000
vt 0.125000 0.542265
vt 0.180556 0.500000
vt 0.430556 0.150000
vt 0.430556 0.250000
vt 0.386740 0.261740
vt 0.375000 0.150000
vt 0.430556 0.305556
vt 0.375000 0.305556
vt 0.819444 0.600000
vt 0.819444 0.500000
vt 0.851519 0.500000
vt 0.875000 0.600000
vt 0.569444 0.305556
vt 0.569444 0.250000
vt 0.613260 0.228868
vt 0.625000 0.305556
vt 0.569444 0.150000
vt 0.625000 0.150000
vt 0.319444 0.650000
vt 0.375000 0.650000
vt 0.382827 0.743739
vt 0.347222 0.777778
vt 0.430556 0.650000
vt 0.430556 0.750000
vt 0.430556 0.805556
vt 0.680556 0.650000
vt 0.652778 0.777778
vt 0.625000 0.735912
vt 0.625000 0.650000
vt 0.569444 0.805556
vt 0.569444 0.750000
vt 0.569444 0.650000
vt 0.319444 0.600000
vt 0.347222 0.472222
vt 0.375000 0.514088
vt 0.375000 0.600000
vt 0.430555 0.444444
vt 0.430556 0.500000
vt 0.430556 0.600000
vt 0.680556 0.600000
vt 0.625000 0.600000
vt 0.617173 0.506261
vt 0.652778 0.472222
vt 0.569444 0.600000
vt 0.569444 0.500000
vt 0.569444 0.444444
s 0
usemtl M_Graphite
f 257/298/225 260/299/225 261/300/225 263/301/225
f 258/302/226 262/303/226 261/304/226 260/305/226
f 259/306/227 263/307/227 261/308/227 262/309/227
f 264/310/228 267/311/228 268/312/228 270/313/228
f 265/314/229 269/315/229 268/316/229 267/317/229
f 266/318/230 270/319/230 268/320/230 269/321/230
f 271/322/231 274/323/231 275/324/231 277/325/231
f 272/326/232 276/327/232 275/328/232 274/329/232
f 273/330/233 277/331/233 275/328/233 276/327/233
f 278/332/234 281/333/234 282/334/234 284/335/234
f 279/336/235 283/337/235 282/338/235 281/339/235
f 280/340/236 284/341/236 282/338/236 283/337/236
f 285/342/237 288/343/237 289/344/237 291/345/237
f 286/346/238 290/347/238 289/344/238 288/343/238
f 287/348/239 291/345/239 289/344/239 290/347/239
f 292/349/240 295/350/240 296/351/240 298/352/240
f 293/353/241 297/354/241 296/351/241 295/350/241
f 294/355/242 298/352/242 296/351/242 297/354/242
f 299/356/243 302/357/243 303/358/243 305/359/243
f 300/360/244 304/361/244 303/358/244 302/357/244
f 301/362/245 305/359/245 303/358/245 304/361/245
f 306/363/246 309/364/246 310/365/246 312/366/246
f 307/367/247 311/368/247 310/365/247 309/364/247
f 308/369/248 312/366/248 310/365/248 311/368/248
f 271/322/249 257/298/249 263/301/249 274/323/249
f 274/329/250 263/307/250 259/306/250 272/326/250
f 258/302/251 264/310/251 270/313/251 262/303/251
f 262/309/252 270/319/252 266/318/252 259/306/252
f 265/314/253 278/332/253 284/335/253 269/315/253
f 269/321/254 284/341/254 280/340/254 266/318/254
f 279/336/255 273/330/255 276/327/255 283/337/255
f 283/337/256 276/327/256 272/326/256 280/340/256
f 299/356/257 271/322/257 277/325/257 302/357/257
f 302/357/258 277/331/258 273/330/258 300/360/258
f 278/332/259 306/363/259 312/366/259 281/333/259
f 281/339/260 312/366/260 308/369/260 279/336/260
f 307/367/261 301/362/261 304/361/261 311/368/261
f 311/368/262 304/361/262 300/360/262 308/369/262
f 285/342/263 299/356/263 305/359/263 288/343/263
f 288/343/264 305/359/264 301/362/264 286/346/264
f 306/363/265 292/349/265 298/352/265 309/364/265
f 309/364/266 298/352/266 294/355/266 307/367/266
f 293/353/267 287/348/267 290/347/267 297/354/267
f 297/354/268 290/347/268 286/346/268 294/355/268
f 257/298/269 285/342/269 291/345/269 260/299/269
f 260/305/270 291/345/270 287/348/270 258/302/270
f 292/349/271 265/314/271 267/317/271 295/350/271
f 295/350/272 267/311/272 264/310/272 293/353/272
f 271/322/273 299/356/273 285/342/273 257/298/273
f 259/306/274 266/318/274 280/340/274 272/326/274
f 287/348/275 293/353/275 264/310/275 258/302/275
f 306/363/276 278/332/276 265/314/276 292/349/276
f 273/330/277 279/336/277 308/369/277 300/360/277
f 301/362/278 307/367/278 294/355/278 286/346/278
