# Blender 4.5.11 LTS
# www.blender.org
mtllib WristHUD.mtl
o HUD_Housing
v -0.038500 -0.001000 0.012000
v -0.038500 0.008000 0.021000
v -0.047500 0.008000 0.012000
v -0.038500 0.001636 0.018364
v -0.043696 0.002804 0.017196
v -0.044864 0.008000 0.018364
v -0.044864 0.001636 0.012000
v -0.038500 0.042000 0.021000
v -0.038500 0.051000 0.012000
v -0.047500 0.042000 0.012000
v -0.038500 0.048364 0.018364
v -0.043696 0.047196 0.017196
v -0.044864 0.048364 0.012000
v -0.044864 0.042000 0.018364
v -0.038500 -0.001000 -0.012000
v -0.047500 0.008000 -0.012000
v -0.038500 0.008000 -0.021000
v -0.044864 0.001636 -0.012000
v -0.043696 0.002804 -0.017196
v -0.044864 0.008000 -0.018364
v -0.038500 0.001636 -0.018364
v -0.038500 0.051000 -0.012000
v -0.038500 0.042000 -0.021000
v -0.047500 0.042000 -0.012000
v -0.038500 0.048364 -0.018364
v -0.043696 0.047196 -0.017196
v -0.044864 0.042000 -0.018364
v -0.044864 0.048364 -0.012000
v 0.038500 -0.001000 0.012000
v 0.047500 0.008000 0.012000
v 0.038500 0.008000 0.021000
v 0.044864 0.001636 0.012000
v 0.043696 0.002804 0.017196
v 0.044864 0.008000 0.018364
v 0.038500 0.001636 0.018364
v 0.038500 0.051000 0.012000
v 0.038500 0.042000 0.021000
v 0.047500 0.042000 0.012000
v 0.038500 0.048364 0.018364
v 0.043696 0.047196 0.017196
v 0.044864 0.042000 0.018364
v 0.044864 0.048364 0.012000
v 0.038500 -0.001000 -0.012000
v 0.038500 0.008000 -0.021000
v 0.047500 0.008000 -0.012000
v 0.038500 0.001636 -0.018364
v 0.043696 0.002804 -0.017196
v 0.044864 0.008000 -0.018364
v 0.044864 0.001636 -0.012000
v 0.038500 0.051000 -0.012000
v 0.047500 0.042000 -0.012000
v 0.038500 0.042000 -0.021000
v 0.044864 0.048364 -0.012000
v 0.043696 0.047196 -0.017196
v 0.044864 0.042000 -0.018364
v 0.038500 0.048364 -0.018364
vn -0.3251 -0.8881 0.3251
vn -0.3251 -0.3251 0.8881
vn -0.8881 -0.3251 0.3251
vn -0.3251 0.3251 0.8881
vn -0.3251 0.8881 0.3251
vn -0.8881 0.3251 0.3251
vn -0.3251 -0.8881 -0.3251
vn -0.8881 -0.3251 -0.3251
vn -0.3251 -0.3251 -0.8881
vn -0.3251 0.8881 -0.3251
vn -0.3251 0.3251 -0.8881
vn -0.8881 0.3251 -0.3251
vn 0.3251 -0.8881 0.3251
vn 0.8881 -0.3251 0.3251
vn 0.3251 -0.3251 0.8881
vn 0.3251 0.8881 0.3251
vn 0.3251 0.3251 0.8881
vn 0.8881 0.3251 0.3251
vn 0.3251 -0.8881 -0.3251
vn 0.3251 -0.3251 -0.8881
vn 0.8881 -0.3251 -0.3251
vn 0.3251 0.8881 -0.3251
vn 0.8881 0.3251 -0.3251
vn 0.3251 0.3251 -0.8881
vn -0.3827 -0.9239 -0.0000
vn -0.9239 -0.3827 -0.0000
vn -0.3827 -0.0000 0.9239
vn -0.9239 -0.0000 0.3827
vn -0.3827 0.9239 -0.0000
vn -0.9239 0.3827 -0.0000
vn -0.3827 -0.0000 -0.9239
vn -0.9239 -0.0000 -0.3827
vn -0.0000 -0.9239 -0.3827
vn -0.0000 -0.3827 -0.9239
vn -0.0000 0.9239 -0.3827
vn -0.0000 0.3827 -0.9239
vn 0.9239 -0.0000 -0.3827
vn 0.3827 -0.0000 -0.9239
vn 0.3827 -0.9239 -0.0000
vn 0.9239 -0.3827 -0.0000
vn 0.3827 0.9239 -0.0000
vn 0.9239 0.3827 -0.0000
vn 0.3827 -0.0000 0.9239
vn 0.9239 -0.0000 0.3827
vn -0.0000 -0.9239 0.3827
vn -0.0000 -0.3827 0.9239
vn -0.0000 0.9239 0.3827
vn -0.0000 0.3827 0.9239
vn -0.0000 -1.0000 -0.0000
vn -1.0000 -0.0000 -0.0000
vn -0.0000 -0.0000 1.0000
vn -0.0000 1.0000 -0.0000
vn -0.0000 -0.0000 -1.0000
vn 1.0000 -0.0000 -0.0000
vt 0.148684 0.696429
vt 0.148684 0.750000
vt 0.135010 0.750000
vt 0.125000 0.696429
vt 0.418269 0.976316
vt 0.418269 1.000000
vt 0.393288 1.000000
vt 0.375000 0.976316
vt 0.418269 0.053571
vt 0.375000 0.053571
vt 0.375000 0.022642
vt 0.418269 0.000000
vt 0.581731 0.976316
vt 0.625000 0.976316
vt 0.625000 0.989990
vt 0.581731 1.000000
vt 0.851316 0.696429
vt 0.875000 0.696429
vt 0.875000 0.727358
vt 0.851316 0.750000
vt 0.581731 0.053571
vt 0.581731 0.000000
vt 0.606712 0.000000
vt 0.625000 0.053571
vt 0.148684 0.553572
vt 0.125000 0.553571
vt 0.125000 0.522642
vt 0.148684 0.500000
vt 0.418269 0.196429
vt 0.418269 0.250000
vt 0.384144 0.255005
vt 0.375000 0.196429
vt 0.418269 0.273684
vt 0.375000 0.273684
vt 0.851316 0.553571
vt 0.851316 0.500000
vt 0.864990 0.500000
vt 0.875000 0.553571
vt 0.581731 0.273684
vt 0.581731 0.250000
vt 0.615856 0.238679
vt 0.625000 0.273684
vt 0.581731 0.196429
vt 0.625000 0.196429
vt 0.351316 0.696428
vt 0.375000 0.696429
vt 0.381096 0.745789
vt 0.363158 0.761842
vt 0.418269 0.696429
vt 0.418269 0.750000
vt 0.418269 0.773684
vt 0.648684 0.696429
vt 0.636842 0.761842
vt 0.622241 0.742453
vt 0.625000 0.696429
vt 0.581731 0.773684
vt 0.581731 0.750000
vt 0.581731 0.696429
vt 0.351316 0.553571
vt 0.363158 0.488158
vt 0.377759 0.507547
vt 0.375000 0.553571
vt 0.418269 0.476316
vt 0.418269 0.500000
vt 0.418269 0.553571
vt 0.648684 0.553571
vt 0.625000 0.553571
vt 0.618904 0.504211
vt 0.636842 0.488158
vt 0.581731 0.553571
vt 0.581731 0.500000
vt 0.581731 0.476316
s 0
usemtl M_Graphite
f 1/1/1 4/2/1 5/3/1 7/4/1
f 2/5/2 6/6/2 5/7/2 4/8/2
f 3/9/3 7/10/3 5/11/3 6/12/3
f 8/13/4 11/14/4 12/15/4 14/16/4
f 9/17/5 13/18/5 12/19/5 11/20/5
f 10/21/6 14/22/6 12/23/6 13/24/6
f 15/25/7 18/26/7 19/27/7 21/28/7
f 16/29/8 20/30/8 19/31/8 18/32/8
f 17/33/9 21/34/9 19/31/9 20/30/9
f 22/35/10 25/36/10 26/37/10 28/38/10
f 23/39/11 27/40/11 26/41/11 25/42/11
f 24/43/12 28/44/12 26/41/12 27/40/12
f 29/45/13 32/46/13 33/47/13 35/48/13
f 30/49/14 34/50/14 33/47/14 32/46/14
f 31/51/15 35/48/15 33/47/15 34/50/15
f 36/52/16 39/53/16 40/54/16 42/55/16
f 37/56/17 41/57/17 40/54/17 39/53/17
f 38/58/18 42/55/18 40/54/18 41/57/18
f 43/59/19 46/60/19 47/61/19 49/62/19
f 44/63/20 48/64/20 47/61/20 46/60/20
f 45/65/21 49/62/21 47/61/21 48/64/21
f 50/66/22 53/67/22 54/68/22 56/69/22
f 51/70/23 55/71/23 54/68/23 53/67/23
f 52/72/24 56/69/24 54/68/24 55/71/24
f 15/25/25 1/1/25 7/4/25 18/26/25
f 18/32/26 7/10/26 3/9/26 16/29/26
f 2/5/27 8/13/27 14/16/27 6/6/27
f 6/12/28 14/22/28 10/21/28 3/9/28
f 9/17/29 22/35/29 28/38/29 13/18/29
f 13/24/30 28/44/30 24/43/30 10/21/30
f 23/39/31 17/33/31 20/30/31 27/40/31
f 27/40/32 20/30/32 16/29/32 24/43/32
f 43/59/33 15/25/33 21/28/33 46/60/33
f 46/60/34 21/34/34 17/33/34 44/63/34
f 22/35/35 50/66/35 56/69/35 25/36/35
f 25/42/36 56/69/36 52/72/36 23/39/36
f 51/70/37 45/65/37 48/64/37 55/71/37
f 55/71/38 48/64/38 44/63/38 52/72/38
f 29/45/39 43/59/39 49/62/39 32/46/39
f 32/46/40 49/62/40 45/65/40 30/49/40
f 50/66/41 36/52/41 42/55/41 53/67/41
f 53/67/42 42/55/42 38/58/42 51/70/42
f 37/56/43 31/51/43 34/50/43 41/57/43
f 41/57/44 34/50/44 30/49/44 38/58/44
f 1/1/45 29/45/45 35/48/45 4/2/45
f 4/8/46 35/48/46 31/51/46 2/5/46
f 36/52/47 9/17/47 11/20/47 39/53/47
f 39/53/48 11/14/48 8/13/48 37/56/48
f 15/25/49 43/59/49 29/45/49 1/1/49
f 3/9/50 10/21/50 24/43/50 16/29/50
f 31/51/51 37/56/51 8/13/51 2/5/51
f 50/66/52 22/35/52 9/17/52 36/52/52
f 17/33/53 23/39/53 52/72/53 44/63/53
f 45/65/54 51/70/54 38/58/54 30/49/54
o HUD_Glass
v -0.033000 0.011000 0.024000
v -0.033000 0.014000 0.027000
v -0.036000 0.014000 0.024000
v -0.033000 0.011879 0.026121
v -0.034732 0.012268 0.025732
v -0.035121 0.014000 0.026121
v -0.035121 0.011879 0.024000
v -0.033000 0.042000 0.027000
v -0.033000 0.045000 0.024000
v -0.036000 0.042000 0.024000
v -0.033000 0.044121 0.026121
v -0.034732 0.043732 0.025732
v -0.035121 0.044121 0.024000
v -0.035121 0.042000 0.026121
v -0.033000 0.011000 0.024000
v -0.036000 0.014000 0.024000
v -0.033000 0.014000 0.021000
v -0.035121 0.011879 0.024000
v -0.034732 0.012268 0.022268
v -0.035121 0.014000 0.021879
v -0.033000 0.011879 0.021879
v -0.033000 0.045000 0.024000
v -0.033000 0.042000 0.021000
v -0.036000 0.042000 0.024000
v -0.033000 0.044121 0.021879
v -0.034732 0.043732 0.022268
v -0.035121 0.042000 0.021879
v -0.035121 0.044121 0.024000
v 0.033000 0.011000 0.024000
v 0.036000 0.014000 0.024000
v 0.033000 0.014000 0.027000
v 0.035121 0.011879 0.024000
v 0.034732 0.012268 0.025732
v 0.035121 0.014000 0.026121
v 0.033000 0.011879 0.026121
v 0.033000 0.045000 0.024000
v 0.033000 0.042000 0.027000
v 0.036000 0.042000 0.024000
v 0.033000 0.044121 0.026121
v 0.034732 0.043732 0.025732
v 0.035121 0.042000 0.026121
v 0.035121 0.044121 0.024000
v 0.033000 0.011000 0.024000
v 0.033000 0.014000 0.021000
v 0.036000 0.014000 0.024000
v 0.033000 0.011879 0.021879
v 0.034732 0.012268 0.022268
v 0.035121 0.014000 0.021879
v 0.035121 0.011879 0.024000
v 0.033000 0.045000 0.024000
v 0.036000 0.042000 0.024000
v 0.033000 0.042000 0.021000
v 0.035121 0.044121 0.024000
v 0.034732 0.043732 0.022268
v 0.035121 0.042000 0.021879
v 0.033000 0.044121 0.021879
vn -0.3251 -0.8881 0.3251
vn -0.3251 -0.3251 0.8881
vn -0.8881 -0.3251 0.3251
vn -0.3251 0.3251 0.8881
vn -0.3251 0.8881 0.3251
vn -0.8881 0.3251 0.3251
vn -0.3251 -0.8881 -0.3251
vn -0.8881 -0.3251 -0.3251
vn -0.3251 -0.3251 -0.8881
vn -0.3251 0.8881 -0.3251
vn -0.3251 0.3251 -0.8881
vn -0.8881 0.3251 -0.3251
vn 0.3251 -0.8881 0.3251
vn 0.8881 -0.3251 0.3251
vn 0.3251 -0.3251 0.8881
vn 0.3251 0.8881 0.3251
vn 0.3251 0.3251 0.8881
vn 0.8881 0.3251 0.3251
vn 0.3251 -0.8881 -0.3251
vn 0.3251 -0.3251 -0.8881
vn 0.8881 -0.3251 -0.3251
vn 0.3251 0.8881 -0.3251
vn 0.8881 0.3251 -0.3251
vn 0.3251 0.3251 -0.8881
vn -0.3827 -0.9239 -0.0000
vn -0.9239 -0.3827 -0.0000
vn -0.3827 -0.0000 0.9239
vn -0.9239 -0.0000 0.3827
vn -0.3827 0.9239 -0.0000
vn -0.9239 0.3827 -0.0000
vn -0.3827 -0.0000 -0.9239
vn -0.9239 -0.0000 -0.3827
vn -0.0000 -0.9239 -0.3827
vn -0.0000 -0.3827 -0.9239
vn -0.0000 0.9239 -0.3827
vn -0.0000 0.3827 -0.9239
vn 0.9239 -0.0000 -0.3827
vn 0.3827 -0.0000 -0.9239
vn 0.3827 -0.9239 -0.0000
vn 0.9239 -0.3827 -0.0000
vn 0.3827 0.9239 -0.0000
vn 0.9239 0.3827 -0.0000
vn 0.3827 -0.0000 0.9239
vn 0.9239 -0.0000 0.3827
vn -0.0000 -0.9239 0.3827
vn -0.0000 -0.3827 0.9239
vn -0.0000 0.9239 0.3827
vn -0.0000 0.3827 0.9239
vn -0.0000 -1.0000 -0.0000
vn -1.0000 -0.0000 -0.0000
vn -0.0000 -0.0000 1.0000
vn -0.0000 1.0000 -0.0000
vn -0.0000 -0.0000 -1.0000
vn 1.0000 -0.0000 -0.0000
vt 0.135417 0.625000
vt 0.135417 0.750000
vt 0.129403 0.750000
vt 0.125000 0.625000
vt 0.397059 0.989583
vt 0.397059 1.000000
vt 0.384323 1.000000
vt 0.375000 0.989583
vt 0.397059 0.125000
vt 0.375000 0.125000
vt 0.375000 0.052831
vt 0.397059 0.000000
vt 0.602941 0.989583
vt 0.625000 0.989583
vt 0.625000 0.995597
vt 0.602941 1.000000
vt 0.864583 0.625000
vt 0.875000 0.625000
vt 0.875000 0.697169
vt 0.864583 0.750000
vt 0.602941 0.125000
vt 0.602941 0.000000
vt 0.615677 0.000000
vt 0.625000 0.125000
vt 0.125000 0.625000
vt 0.125000 0.552831
vt 0.135417 0.500000
vt 0.397059 0.125000
vt 0.397059 0.250000
vt 0.379662 0.252201
vt 0.375000 0.125000
vt 0.397059 0.260417
vt 0.375000 0.260417
vt 0.864583 0.625000
vt 0.864583 0.500000
vt 0.870597 0.500000
vt 0.875000 0.625000
vt 0.602941 0.260417
vt 0.602941 0.250000
vt 0.620338 0.223584
vt 0.625000 0.260417
vt 0.602941 0.125000
vt 0.625000 0.125000
vt 0.364583 0.625000
vt 0.375000 0.625000
vt 0.378108 0.733857
vt 0.369792 0.755208
vt 0.397059 0.625000
vt 0.397059 0.750000
vt 0.397059 0.760417
vt 0.635417 0.625000
vt 0.630208 0.755208
vt 0.623360 0.732390
vt 0.625000 0.625000
vt 0.602941 0.760417
vt 0.602941 0.750000
vt 0.602941 0.625000
vt 0.369792 0.494792
vt 0.376640 0.517610
vt 0.375000 0.625000
vt 0.397059 0.489583
vt 0.397059 0.500000
vt 0.625000 0.625000
vt 0.621892 0.516143
vt 0.630208 0.494792
vt 0.602941 0.500000
vt 0.602941 0.489583
s 0
usemtl M_Cyan_Emission
f 57/73/55 60/74/55 61/75/55 63/76/55
f 58/77/56 62/78/56 61/79/56 60/80/56
f 59/81/57 63/82/57 61/83/57 62/84/57
f 64/85/58 67/86/58 68/87/58 70/88/58
f 65/89/59 69/90/59 68/91/59 67/92/59
f 66/93/60 70/94/60 68/95/60 69/96/60
f 71/73/61 74/97/61 75/98/61 77/99/61
f 72/100/62 76/101/62 75/102/62 74/103/62
f 73/104/63 77/105/63 75/102/63 76/101/63
f 78/106/64 81/107/64 82/108/64 84/109/64
f 79/110/65 83/111/65 82/112/65 81/113/65
f 80/114/66 84/115/66 82/112/66 83/111/66
f 85/116/67 88/117/67 89/118/67 91/119/67
f 86/120/68 90/121/68 89/118/68 88/117/68
f 87/122/69 91/119/69 89/118/69 90/121/69
f 92/123/70 95/124/70 96/125/70 98/126/70
f 93/127/71 97/128/71 96/125/71 95/124/71
f 94/129/72 98/126/72 96/125/72 97/128/72
f 99/116/73 102/130/73 103/131/73 105/132/73
f 100/133/74 104/134/74 103/131/74 102/130/74
f 101/120/75 105/132/75 103/131/75 104/134/75
f 106/123/76 109/135/76 110/136/76 112/137/76
f 107/129/77 111/138/77 110/136/77 109/135/77
f 108/139/78 112/137/78 110/136/78 111/138/78
f 71/73/79 57/73/79 63/76/79 74/97/79
f 74/103/80 63/82/80 59/81/80 72/100/80
f 58/77/81 64/85/81 70/88/81 62/78/81
f 62/84/82 70/94/82 66/93/82 59/81/82
f 65/89/83 78/106/83 84/109/83 69/90/83
f 69/96/84 84/115/84 80/114/84 66/93/84
f 79/110/85 73/104/85 76/101/85 83/111/85
f 83/111/86 76/101/86 72/100/86 80/114/86
f 99/116/87 71/73/87 77/99/87 102/130/87
f 102/130/88 77/105/88 73/104/88 100/133/88
f 78/106/89 106/123/89 112/137/89 81/107/89
f 81/113/90 112/137/90 108/139/90 79/110/90
f 107/129/91 101/120/91 104/134/91 111/138/91
f 111/138/92 104/134/92 100/133/92 108/139/92
f 85/116/93 99/116/93 105/132/93 88/117/93
f 88/117/94 105/132/94 101/120/94 86/120/94
f 106/123/95 92/123/95 98/126/95 109/135/95
f 109/135/96 98/126/96 94/129/96 107/129/96
f 93/127/97 87/122/97 90/121/97 97/128/97
f 97/128/98 90/121/98 86/120/98 94/129/98
f 57/73/99 85/116/99 91/119/99 60/74/99
f 60/80/100 91/119/100 87/122/100 58/77/100
f 92/123/101 65/89/101 67/92/101 95/124/101
f 95/124/102 67/86/102 64/85/102 93/127/102
f 71/73/103 99/116/103 85/116/103 57/73/103
f 59/81/104 66/93/104 80/114/104 72/100/104
f 87/122/105 93/127/105 64/85/105 58/77/105
f 106/123/106 78/106/106 65/89/106 92/123/106
f 73/104/107 79/110/107 108/139/107 100/133/107
f 101/120/108 107/129/108 94/129/108 86/120/108
o Wrist_Strap
v 0.048000 0.000000 -0.020000
v 0.045657 0.005657 -0.020000
v 0.040000 0.008000 -0.020000
v 0.034343 0.005657 -0.020000
v 0.032000 0.000000 -0.020000
v 0.034343 -0.005657 -0.020000
v 0.040000 -0.008000 -0.020000
v 0.045657 -0.005657 -0.020000
v 0.047078 0.000000 -0.029364
v 0.044780 0.005657 -0.028907
v 0.039231 0.008000 -0.027804
v 0.033683 0.005657 -0.026700
v 0.031385 0.000000 -0.026243
v 0.033683 -0.005657 -0.026700
v 0.039231 -0.008000 -0.027804
v 0.044780 -0.005657 -0.028907
v 0.044346 0.000000 -0.038369
v 0.042181 0.005657 -0.037472
v 0.036955 0.008000 -0.035307
v 0.031729 0.005657 -0.033143
v 0.029564 0.000000 -0.032246
v 0.031729 -0.005657 -0.033143
v 0.036955 -0.008000 -0.035307
v 0.042181 -0.005657 -0.037472
v 0.039911 0.000000 -0.046667
v 0.037962 0.005657 -0.045366
v 0.033259 0.008000 -0.042223
v 0.028555 0.005657 -0.039080
v 0.026607 0.000000 -0.037778
v 0.028555 -0.005657 -0.039080
v 0.033259 -0.008000 -0.042223
v 0.037962 -0.005657 -0.045366
v 0.033941 0.000000 -0.053941
v 0.032284 0.005657 -0.052284
v 0.028284 0.008000 -0.048284
v 0.024284 0.005657 -0.044284
v 0.022627 0.000000 -0.042627
v 0.024284 -0.005657 -0.044284
v 0.028284 -0.008000 -0.048284
v 0.032284 -0.005657 -0.052284
v 0.026667 0.000000 -0.059911
v 0.025366 0.005657 -0.057962
v 0.022223 0.008000 -0.053259
v 0.019080 0.005657 -0.048555
v 0.017778 0.000000 -0.046607
v 0.019080 -0.005657 -0.048555
v 0.022223 -0.008000 -0.053259
v 0.025366 -0.005657 -0.057962
v 0.018369 0.000000 -0.064346
v 0.017472 0.005657 -0.062181
v 0.015307 0.008000 -0.056955
v 0.013143 0.005657 -0.051729
v 0.012246 0.000000 -0.049564
v 0.013143 -0.005657 -0.051729
v 0.015307 -0.008000 -0.056955
v 0.017472 -0.005657 -0.062181
v 0.009364 0.000000 -0.067078
v 0.008907 0.005657 -0.064780
v 0.007804 0.008000 -0.059231
v 0.006700 0.005657 -0.053683
v 0.006243 0.000000 -0.051385
v 0.006700 -0.005657 -0.053683
v 0.007804 -0.008000 -0.059231
v 0.008907 -0.005657 -0.064780
v 0.000000 0.000000 -0.068000
v 0.000000 0.005657 -0.065657
v 0.000000 0.008000 -0.060000
v 0.000000 0.005657 -0.054343
v 0.000000 0.000000 -0.052000
v 0.000000 -0.005657 -0.054343
v 0.000000 -0.008000 -0.060000
v 0.000000 -0.005657 -0.065657
v -0.009364 0.000000 -0.067078
v -0.008907 0.005657 -0.064780
v -0.007804 0.008000 -0.059231
v -0.006700 0.005657 -0.053683
v -0.006243 0.000000 -0.051385
v -0.006700 -0.005657 -0.053683
v -0.007804 -0.008000 -0.059231
v -0.008907 -0.005657 -0.064780
v -0.018369 0.000000 -0.064346
v -0.017472 0.005657 -0.062181
v -0.015307 0.008000 -0.056955
v -0.013143 0.005657 -0.051729
v -0.012246 0.000000 -0.049564
v -0.013143 -0.005657 -0.051729
v -0.015307 -0.008000 -0.056955
v -0.017472 -0.005657 -0.062181
v -0.026667 0.000000 -0.059911
v -0.025366 0.005657 -0.057962
v -0.022223 0.008000 -0.053259
v -0.019080 0.005657 -0.048555
v -0.017778 0.000000 -0.046607
v -0.019080 -0.005657 -0.048555
v -0.022223 -0.008000 -0.053259
v -0.025366 -0.005657 -0.057962
v -0.033941 0.000000 -0.053941
v -0.032284 0.005657 -0.052284
v -0.028284 0.008000 -0.048284
v -0.024284 0.005657 -0.044284
v -0.022627 0.000000 -0.042627
v -0.024284 -0.005657 -0.044284
v -0.028284 -0.008000 -0.048284
v -0.032284 -0.005657 -0.052284
v -0.039911 0.000000 -0.046667
v -0.037962 0.005657 -0.045366
v -0.033259 0.008000 -0.042223
v -0.028555 0.005657 -0.039080
v -0.026607 0.000000 -0.037778
v -0.028555 -0.005657 -0.039080
v -0.033259 -0.008000 -0.042223
v -0.037962 -0.005657 -0.045366
v -0.044346 0.000000 -0.038369
v -0.042181 0.005657 -0.037472
v -0.036955 0.008000 -0.035307
v -0.031729 0.005657 -0.033143
v -0.029564 0.000000 -0.032246
v -0.031729 -0.005657 -0.033143
v -0.036955 -0.008000 -0.035307
v -0.042181 -0.005657 -0.037472
v -0.047078 0.000000 -0.029364
v -0.044780 0.005657 -0.028907
v -0.039231 0.008000 -0.027804
v -0.033683 0.005657 -0.026700
v -0.031385 0.000000 -0.026243
v -0.033683 -0.005657 -0.026700
v -0.039231 -0.008000 -0.027804
v -0.044780 -0.005657 -0.028907
v -0.048000 0.000000 -0.020000
v -0.045657 0.005657 -0.020000
v -0.040000 0.008000 -0.020000
v -0.034343 0.005657 -0.020000
v -0.032000 0.000000 -0.020000
v -0.034343 -0.005657 -0.020000
v -0.040000 -0.008000 -0.020000
v -0.045657 -0.005657 -0.020000
v -0.047078 0.000000 -0.010636
v -0.044780 0.005657 -0.011093
v -0.039231 0.008000 -0.012196
v -0.033683 0.005657 -0.013300
v -0.031385 0.000000 -0.013757
v -0.033683 -0.005657 -0.013300
v -0.039231 -0.008000 -0.012196
v -0.044780 -0.005657 -0.011093
v -0.044346 0.000000 -0.001631
v -0.042181 0.005657 -0.002528
v -0.036955 0.008000 -0.004693
v -0.031729 0.005657 -0.006857
v -0.029564 0.000000 -0.007754
v -0.031729 -0.005657 -0.006857
v -0.036955 -0.008000 -0.004693
v -0.042181 -0.005657 -0.002528
v -0.039911 0.000000 0.006667
v -0.037962 0.005657 0.005366
v -0.033259 0.008000 0.002223
v -0.028555 0.005657 -0.000920
v -0.026607 0.000000 -0.002222
v -0.028555 -0.005657 -0.000920
v -0.033259 -0.008000 0.002223
v -0.037962 -0.005657 0.005366
v -0.033941 0.000000 0.013941
v -0.032284 0.005657 0.012284
v -0.028284 0.008000 0.008284
v -0.024284 0.005657 0.004284
v -0.022627 0.000000 0.002627
v -0.024284 -0.005657 0.004284
v -0.028284 -0.008000 0.008284
v -0.032284 -0.005657 0.012284
v -0.026667 0.000000 0.019911
v -0.025366 0.005657 0.017962
v -0.022223 0.008000 0.013259
v -0.019080 0.005657 0.008555
v -0.017778 0.000000 0.006607
v -0.019080 -0.005657 0.008555
v -0.022223 -0.008000 0.013259
v -0.025366 -0.005657 0.017962
v -0.018369 0.000000 0.024346
v -0.017472 0.005657 0.022181
v -0.015307 0.008000 0.016955
v -0.013143 0.005657 0.011729
v -0.012246 0.000000 0.009564
v -0.013143 -0.005657 0.011729
v -0.015307 -0.008000 0.016955
v -0.017472 -0.005657 0.022181
v -0.009364 0.000000 0.027078
v -0.008907 0.005657 0.024780
v -0.007804 0.008000 0.019231
v -0.006700 0.005657 0.013683
v -0.006243 0.000000 0.011385
v -0.006700 -0.005657 0.013683
v -0.007804 -0.008000 0.019231
v -0.008907 -0.005657 0.024780
v 0.000000 0.000000 0.028000
v 0.000000 0.005657 0.025657
v 0.000000 0.008000 0.020000
v 0.000000 0.005657 0.014343
v 0.000000 0.000000 0.012000
v 0.000000 -0.005657 0.014343
v 0.000000 -0.008000 0.020000
v 0.000000 -0.005657 0.025657
v 0.009364 0.000000 0.027078
v 0.008907 0.005657 0.024780
v 0.007804 0.008000 0.019231
v 0.006700 0.005657 0.013683
v 0.006243 0.000000 0.011385
v 0.006700 -0.005657 0.013683
v 0.007804 -0.008000 0.019231
v 0.008907 -0.005657 0.024780
v 0.018369 0.000000 0.024346
v 0.017472 0.005657 0.022181
v 0.015307 0.008000 0.016955
v 0.013143 0.005657 0.011729
v 0.012246 0.000000 0.009564
v 0.013143 -0.005657 0.011729
v 0.015307 -0.008000 0.016955
v 0.017472 -0.005657 0.022181
v 0.026667 0.000000 0.019911
v 0.025366 0.005657 0.017962
v 0.022223 0.008000 0.013259
v 0.019080 0.005657 0.008555
v 0.017778 0.000000 0.006607
v 0.019080 -0.005657 0.008555
v 0.022223 -0.008000 0.013259
v 0.025366 -0.005657 0.017962
v 0.033941 0.000000 0.013941
v 0.032284 0.005657 0.012284
v 0.028284 0.008000 0.008284
v 0.024284 0.005657 0.004284
v 0.022627 0.000000 0.002627
v 0.024284 -0.005657 0.004284
v 0.028284 -0.008000 0.008284
v 0.032284 -0.005657 0.012284
v 0.039911 0.000000 0.006667
v 0.037962 0.005657 0.005366
v 0.033259 0.008000 0.002223
v 0.028555 0.005657 -0.000920
v 0.026607 0.000000 -0.002222
v 0.028555 -0.005657 -0.000920
v 0.033259 -0.008000 0.002223
v 0.037962 -0.005657 0.005366
v 0.044346 0.000000 -0.001631
v 0.042181 0.005657 -0.002528
v 0.036955 0.008000 -0.004693
v 0.031729 0.005657 -0.006857
v 0.029564 0.000000 -0.007754
v 0.031729 -0.005657 -0.006857
v 0.036955 -0.008000 -0.004693
v 0.042181 -0.005657 -0.002528
v 0.047078 0.000000 -0.010636
v 0.044780 0.005657 -0.011093
v 0.039231 0.008000 -0.012196
v 0.033683 0.005657 -0.013300
v 0.031385 0.000000 -0.013757
v 0.033683 -0.005657 -0.013300
v 0.039231 -0.008000 -0.012196
v 0.044780 -0.005657 -0.011093
vn 1.0000 -0.0000 -0.0000
vn 0.7187 0.6954 -0.0000
vn 0.0239 0.9997 -0.0000
vn -0.6948 0.7192 -0.0000
vn -1.0000 -0.0000 -0.0000
vn -0.6948 -0.7192 -0.0000
vn 0.0239 -0.9997 -0.0000
vn 0.7187 -0.6954 -0.0000
vn 0.9808 -0.0000 -0.1951
vn 0.7049 0.6954 -0.1402
vn 0.0234 0.9997 -0.0047
vn -0.6814 0.7192 0.1355
vn -0.9808 -0.0000 0.1951
vn -0.6814 -0.7192 0.1355
vn 0.0234 -0.9997 -0.0047
vn 0.7049 -0.6954 -0.1402
vn 0.9239 -0.0000 -0.3827
vn 0.6640 0.6954 -0.2750
vn 0.0221 0.9997 -0.0091
vn -0.6419 0.7192 0.2659
vn -0.9239 -0.0000 0.3827
vn -0.6419 -0.7192 0.2659
vn 0.0221 -0.9997 -0.0091
vn 0.6640 -0.6954 -0.2750
vn 0.8315 -0.0000 -0.5556
vn 0.5975 0.6954 -0.3993
vn 0.0199 0.9997 -0.0133
vn -0.5777 0.7192 0.3860
vn -0.8315 -0.0000 0.5556
vn -0.5777 -0.7192 0.3860
vn 0.0199 -0.9997 -0.0133
vn 0.5975 -0.6954 -0.3993
vn 0.7071 -0.0000 -0.7071
vn 0.5082 0.6954 -0.5082
vn 0.0169 0.9997 -0.0169
vn -0.4913 0.7192 0.4913
vn -0.7071 -0.0000 0.7071
vn -0.4913 -0.7192 0.4913
vn 0.0169 -0.9997 -0.0169
vn 0.5082 -0.6954 -0.5082
vn 0.5556 -0.0000 -0.8315
vn 0.3993 0.6954 -0.5975
vn 0.0133 0.9997 -0.0199
vn -0.3860 0.7192 0.5777
vn -0.5556 -0.0000 0.8315
vn -0.3860 -0.7192 0.5777
vn 0.0133 -0.9997 -0.0199
vn 0.3993 -0.6954 -0.5975
vn 0.3827 -0.0000 -0.9239
vn 0.2750 0.6954 -0.6640
vn 0.0091 0.9997 -0.0221
vn -0.2659 0.7192 0.6419
vn -0.3827 -0.0000 0.9239
vn -0.2659 -0.7192 0.6419
vn 0.0091 -0.9997 -0.0221
vn 0.2750 -0.6954 -0.6640
vn 0.1951 -0.0000 -0.9808
vn 0.1402 0.6954 -0.7049
vn 0.0047 0.9997 -0.0234
vn -0.1355 0.7192 0.6814
vn -0.1951 -0.0000 0.9808
vn -0.1355 -0.7192 0.6814
vn 0.0047 -0.9997 -0.0234
vn 0.1402 -0.6954 -0.7049
vn -0.0000 -0.0000 -1.0000
vn -0.0000 0.6954 -0.7187
vn -0.0000 0.9997 -0.0239
vn -0.0000 0.7192 0.6948
vn -0.0000 -0.0000 1.0000
vn -0.0000 -0.7192 0.6948
vn -0.0000 -0.9997 -0.0239
vn -0.0000 -0.6954 -0.7187
vn -0.1951 -0.0000 -0.9808
vn -0.1402 0.6954 -0.7049
vn -0.0047 0.9997 -0.0234
vn 0.1355 0.7192 0.6814
vn 0.1951 -0.0000 0.9808
vn 0.1355 -0.7192 0.6814
vn -0.0047 -0.9997 -0.0234
vn -0.1402 -0.6954 -0.7049
vn -0.3827 -0.0000 -0.9239
vn -0.2750 0.6954 -0.6640
vn -0.0091 0.9997 -0.0221
vn 0.2659 0.7192 0.6419
vn 0.3827 -0.0000 0.9239
vn 0.2659 -0.7192 0.6419
vn -0.0091 -0.9997 -0.0221
vn -0.2750 -0.6954 -0.6640
vn -0.5556 -0.0000 -0.8315
vn -0.3993 0.6954 -0.5975
vn -0.0133 0.9997 -0.0199
vn 0.3860 0.7192 0.5777
vn 0.5556 -0.0000 0.8315
vn 0.3860 -0.7192 0.5777
vn -0.0133 -0.9997 -0.0199
vn -0.3993 -0.6954 -0.5975
vn -0.7071 -0.0000 -0.7071
vn -0.5082 0.6954 -0.5082
vn -0.0169 0.9997 -0.0169
vn 0.4913 0.7192 0.4913
vn 0.7071 -0.0000 0.7071
vn 0.4913 -0.7192 0.4913
vn -0.0169 -0.9997 -0.0169
vn -0.5082 -0.6954 -0.5082
vn -0.8315 -0.0000 -0.5556
vn -0.5975 0.6954 -0.3993
vn -0.0199 0.9997 -0.0133
vn 0.5777 0.7192 0.3860
vn 0.8315 -0.0000 0.5556
vn 0.5777 -0.7192 0.3860
vn -0.0199 -0.9997 -0.0133
vn -0.5975 -0.6954 -0.3993
vn -0.9239 -0.0000 -0.3827
vn -0.6640 0.6954 -0.2750
vn -0.0221 0.9997 -0.0091
vn 0.6419 0.7192 0.2659
vn 0.9239 -0.0000 0.3827
vn 0.6419 -0.7192 0.2659
vn -0.0221 -0.9997 -0.0091
vn -0.6640 -0.6954 -0.2750
vn -0.9808 -0.0000 -0.1951
vn -0.7049 0.6954 -0.1402
vn -0.0234 0.9997 -0.0047
vn 0.6814 0.7192 0.1355
vn 0.9808 -0.0000 0.1951
vn 0.6814 -0.7192 0.1355
vn -0.0234 -0.9997 -0.0047
vn -0.7049 -0.6954 -0.1402
vn -0.7187 0.6954 -0.0000
vn -0.0239 0.9997 -0.0000
vn 0.6948 0.7192 -0.0000
vn 0.6948 -0.7192 -0.0000
vn -0.0239 -0.9997 -0.0000
vn -0.7187 -0.6954 -0.0000
vn -0.7049 0.6954 0.1402
vn -0.0234 0.9997 0.0047
vn 0.6814 0.7192 -0.1355
vn 0.6814 -0.7192 -0.1355
vn -0.0234 -0.9997 0.0047
vn -0.7049 -0.6954 0.1402
vn -0.6640 0.6954 0.2750
vn -0.0221 0.9997 0.0091
vn 0.6419 0.7192 -0.2659
vn 0.6419 -0.7192 -0.2659
vn -0.0221 -0.9997 0.0091
vn -0.6640 -0.6954 0.2750
vn -0.5975 0.6954 0.3993
vn -0.0199 0.9997 0.0133
vn 0.5777 0.7192 -0.3860
vn 0.5777 -0.7192 -0.3860
vn -0.0199 -0.9997 0.0133
vn -0.5975 -0.6954 0.3993
vn -0.5082 0.6954 0.5082
vn -0.0169 0.9997 0.0169
vn 0.4913 0.7192 -0.4913
vn 0.4913 -0.7192 -0.4913
vn -0.0169 -0.9997 0.0169
vn -0.5082 -0.6954 0.5082
vn -0.3993 0.6954 0.5975
vn -0.0133 0.9997 0.0199
vn 0.3860 0.7192 -0.5777
vn 0.3860 -0.7192 -0.5777
vn -0.0133 -0.9997 0.0199
vn -0.3993 -0.6954 0.5975
vn -0.2750 0.6954 0.6640
vn -0.0091 0.9997 0.0221
vn 0.2659 0.7192 -0.6419
vn 0.2659 -0.7192 -0.6419
vn -0.0091 -0.9997 0.0221
vn -0.2750 -0.6954 0.6640
vn -0.1402 0.6954 0.7049
vn -0.0047 0.9997 0.0234
vn 0.1355 0.7192 -0.6814
vn 0.1355 -0.7192 -0.6814
vn -0.0047 -0.9997 0.0234
vn -0.1402 -0.6954 0.7049
vn -0.0000 0.6954 0.7187
vn -0.0000 0.9997 0.0239
vn -0.0000 0.7192 -0.6948
vn -0.0000 -0.7192 -0.6948
vn -0.0000 -0.9997 0.0239
vn -0.0000 -0.6954 0.7187
vn 0.1402 0.6954 0.7049
vn 0.0047 0.9997 0.0234
vn -0.1355 0.7192 -0.6814
vn -0.1355 -0.7192 -0.6814
vn 0.0047 -0.9997 0.0234
vn 0.1402 -0.6954 0.7049
vn 0.2750 0.6954 0.6640
vn 0.0091 0.9997 0.0221
vn -0.2659 0.7192 -0.6419
vn -0.2659 -0.7192 -0.6419
vn 0.0091 -0.9997 0.0221
vn 0.2750 -0.6954 0.6640
vn 0.3993 0.6954 0.5975
vn 0.0133 0.9997 0.0199
vn -0.3860 0.7192 -0.5777
vn -0.3860 -0.7192 -0.5777
vn 0.0133 -0.9997 0.0199
vn 0.3993 -0.6954 0.5975
vn 0.5082 0.6954 0.5082
vn 0.0169 0.9997 0.0169
vn -0.4913 0.7192 -0.4913
vn -0.4913 -0.7192 -0.4913
vn 0.0169 -0.9997 0.0169
vn 0.5082 -0.6954 0.5082
vn 0.5975 0.6954 0.3993
vn 0.0199 0.9997 0.0133
vn -0.5777 0.7192 -0.3860
vn -0.5777 -0.7192 -0.3860
vn 0.0199 -0.9997 0.0133
vn 0.5975 -0.6954 0.3993
vn 0.6640 0.6954 0.2750
vn 0.0221 0.9997 0.0091
vn -0.6419 0.7192 -0.2659
vn -0.6419 -0.7192 -0.2659
vn 0.0221 -0.9997 0.0091
vn 0.6640 -0.6954 0.2750
vn 0.7049 0.6954 0.1402
vn 0.0234 0.9997 0.0047
vn -0.6814 0.7192 -0.1355
vn -0.6814 -0.7192 -0.1355
vn 0.0234 -0.9997 0.0047
vn 0.7049 -0.6954 0.1402
vt 0.500000 0.500000
vt 0.531250 0.500000
vt 0.531250 0.625000
vt 0.500000 0.625000
vt 0.531250 0.750000
vt 0.500000 0.750000
vt 0.531250 0.875000
vt 0.500000 0.875000
vt 0.531250 1.000000
vt 0.500000 1.000000
vt 0.500000 0.000000
vt 0.531250 0.000000
vt 0.531250 0.125000
vt 0.500000 0.125000
vt 0.531250 0.250000
vt 0.500000 0.250000
vt 0.531250 0.375000
vt 0.500000 0.375000
vt 0.562500 0.500000
vt 0.562500 0.625000
vt 0.562500 0.750000
vt 0.562500 0.875000
vt 0.562500 1.000000
vt 0.562500 0.000000
vt 0.562500 0.125000
vt 0.562500 0.250000
vt 0.562500 0.375000
vt 0.593750 0.500000
vt 0.593750 0.625000
vt 0.593750 0.750000
vt 0.593750 0.875000
vt 0.593750 1.000000
vt 0.593750 0.000000
vt 0.593750 0.125000
vt 0.593750 0.250000
vt 0.593750 0.375000
vt 0.625000 0.500000
vt 0.625000 0.625000
vt 0.625000 0.750000
vt 0.625000 0.875000
vt 0.625000 1.000000
vt 0.625000 0.000000
vt 0.625000 0.125000
vt 0.625000 0.250000
vt 0.625000 0.375000
vt 0.656250 0.500000
vt 0.656250 0.625000
vt 0.656250 0.750000
vt 0.656250 0.875000
vt 0.656250 1.000000
vt 0.656250 0.000000
vt 0.656250 0.125000
vt 0.656250 0.250000
vt 0.656250 0.375000
vt 0.687500 0.500000
vt 0.687500 0.625000
vt 0.687500 0.750000
vt 0.687500 0.875000
vt 0.687500 1.000000
vt 0.687500 0.000000
vt 0.687500 0.125000
vt 0.687500 0.250000
vt 0.687500 0.375000
vt 0.718750 0.500000
vt 0.718750 0.625000
vt 0.718750 0.750000
vt 0.718750 0.875000
vt 0.718750 1.000000
vt 0.718750 0.000000
vt 0.718750 0.125000
vt 0.718750 0.250000
vt 0.718750 0.375000
vt 0.750000 0.500000
vt 0.750000 0.625000
vt 0.750000 0.750000
vt 0.750000 0.875000
vt 0.750000 1.000000
vt 0.750000 0.000000
vt 0.750000 0.125000
vt 0.750000 0.250000
vt 0.750000 0.375000
vt 0.781250 0.500000
vt 0.781250 0.625000
vt 0.781250 0.750000
vt 0.781250 0.875000
vt 0.781250 1.000000
vt 0.781250 0.000000
vt 0.781250 0.125000
vt 0.781250 0.250000
vt 0.781250 0.375000
vt 0.812500 0.500000
vt 0.812500 0.625000
vt 0.812500 0.750000
vt 0.812500 0.875000
vt 0.812500 1.000000
vt 0.812500 0.000000
vt 0.812500 0.125000
vt 0.812500 0.250000
vt 0.812500 0.375000
vt 0.843750 0.500000
vt 0.843750 0.625000
vt 0.843750 0.750000
vt 0.843750 0.875000
vt 0.843750 1.000000
vt 0.843750 0.000000
vt 0.843750 0.125000
vt 0.843750 0.250000
vt 0.843750 0.375000
vt 0.875000 0.500000
vt 0.875000 0.625000
vt 0.875000 0.750000
vt 0.875000 0.875000
vt 0.875000 1.000000
vt 0.875000 0.000000
vt 0.875000 0.125000
vt 0.875000 0.250000
vt 0.875000 0.375000
vt 0.906250 0.500000
vt 0.906250 0.625000
vt 0.906250 0.750000
vt 0.906250 0.875000
vt 0.906250 1.000000
vt 0.906250 0.000000
vt 0.906250 0.125000
vt 0.906250 0.250000
vt 0.906250 0.375000
vt 0.937500 0.500000
vt 0.937500 0.625000
vt 0.937500 0.750000
vt 0.937500 0.875000
vt 0.937500 1.000000
vt 0.937500 0.000000
vt 0.937500 0.125000
vt 0.937500 0.250000
vt 0.937500 0.375000
vt 0.968750 0.500000
vt 0.968750 0.625000
vt 0.968750 0.750000
vt 0.968750 0.875000
vt 0.968750 1.000000
vt 0.968750 0.000000
vt 0.968750 0.125000
vt 0.968750 0.250000
vt 0.968750 0.375000
vt 1.000000 0.500000
vt 1.000000 0.625000
vt 1.000000 0.750000
vt 1.000000 0.875000
vt 1.000000 1.000000
vt 1.000000 0.000000
vt 1.000000 0.125000
vt 1.000000 0.250000
vt 1.000000 0.375000
vt 0.000000 0.500000
vt 0.031250 0.500000
vt 0.031250 0.625000
vt 0.000000 0.625000
vt 0.031250 0.750000
vt 0.000000 0.750000
vt 0.031250 0.875000
vt 0.000000 0.875000
vt 0.031250 1.000000
vt 0.000000 1.000000
vt 0.000000 0.000000
vt 0.031250 0.000000
vt 0.031250 0.125000
vt 0.000000 0.125000
vt 0.031250 0.250000
vt 0.000000 0.250000
vt 0.031250 0.375000
vt 0.000000 0.375000
vt 0.062500 0.500000
vt 0.062500 0.625000
vt 0.062500 0.750000
vt 0.062500 0.875000
vt 0.062500 1.000000
vt 0.062500 0.000000
vt 0.062500 0.125000
vt 0.062500 0.250000
vt 0.062500 0.375000
vt 0.093750 0.500000
vt 0.093750 0.625000
vt 0.093750 0.750000
vt 0.093750 0.875000
vt 0.093750 1.000000
vt 0.093750 0.000000
vt 0.093750 0.125000
vt 0.093750 0.250000
vt 0.093750 0.375000
vt 0.125000 0.500000
vt 0.125000 0.625000
vt 0.125000 0.750000
vt 0.125000 0.875000
vt 0.125000 1.000000
vt 0.125000 0.000000
vt 0.125000 0.125000
vt 0.125000 0.250000
vt 0.125000 0.375000
vt 0.156250 0.500000
vt 0.156250 0.625000
vt 0.156250 0.750000
vt 0.156250 0.875000
vt 0.156250 1.000000
vt 0.156250 0.000000
vt 0.156250 0.125000
vt 0.156250 0.250000
vt 0.156250 0.375000
vt 0.187500 0.500000
vt 0.187500 0.625000
vt 0.187500 0.750000
vt 0.187500 0.875000
vt 0.187500 1.000000
vt 0.187500 0.000000
vt 0.187500 0.125000
vt 0.187500 0.250000
vt 0.187500 0.375000
vt 0.218750 0.500000
vt 0.218750 0.625000
vt 0.218750 0.750000
vt 0.218750 0.875000
vt 0.218750 1.000000
vt 0.218750 0.000000
vt 0.218750 0.125000
vt 0.218750 0.250000
vt 0.218750 0.375000
vt 0.250000 0.500000
vt 0.250000 0.625000
vt 0.250000 0.750000
vt 0.250000 0.875000
vt 0.250000 1.000000
vt 0.250000 0.000000
vt 0.250000 0.125000
vt 0.250000 0.250000
vt 0.250000 0.375000
vt 0.281250 0.500000
vt 0.281250 0.625000
vt 0.281250 0.750000
vt 0.281250 0.875000
vt 0.281250 1.000000
vt 0.281250 0.000000
vt 0.281250 0.125000
vt 0.281250 0.250000
vt 0.281250 0.375000
vt 0.312500 0.500000
vt 0.312500 0.625000
vt 0.312500 0.750000
vt 0.312500 0.875000
vt 0.312500 1.000000
vt 0.312500 0.000000
vt 0.312500 0.125000
vt 0.312500 0.250000
vt 0.312500 0.375000
vt 0.343750 0.500000
vt 0.343750 0.625000
vt 0.343750 0.750000
vt 0.343750 0.875000
vt 0.343750 1.000000
vt 0.343750 0.000000
vt 0.343750 0.125000
vt 0.343750 0.250000
vt 0.343750 0.375000
vt 0.375000 0.500000
vt 0.375000 0.625000
vt 0.375000 0.750000
vt 0.375000 0.875000
vt 0.375000 1.000000
vt 0.375000 0.000000
vt 0.375000 0.125000
vt 0.375000 0.250000
vt 0.375000 0.375000
vt 0.406250 0.500000
vt 0.406250 0.625000
vt 0.406250 0.750000
vt 0.406250 0.875000
vt 0.406250 1.000000
vt 0.406250 0.000000
vt 0.406250 0.125000
vt 0.406250 0.250000
vt 0.406250 0.375000
vt 0.437500 0.500000
vt 0.437500 0.625000
vt 0.437500 0.750000
vt 0.437500 0.875000
vt 0.437500 1.000000
vt 0.437500 0.000000
vt 0.437500 0.125000
vt 0.437500 0.250000
vt 0.437500 0.375000
vt 0.468750 0.500000
vt 0.468750 0.625000
vt 0.468750 0.750000
vt 0.468750 0.875000
vt 0.468750 1.000000
vt 0.468750 0.000000
vt 0.468750 0.125000
vt 0.468750 0.250000
vt 0.468750 0.375000
s 1
usemtl M_Black_Rubber
f 113/140/109 121/141/117 122/142/118 114/143/110
f 114/143/110 122/142/118 123/144/119 115/145/111
f 115/145/111 123/144/119 124/146/120 116/147/112
f 116/147/112 124/146/120 125/148/121 117/149/113
f 117/150/113 125/151/121 126/152/122 118/153/114
f 118/153/114 126/152/122 127/154/123 119/155/115
f 119/155/115 127/154/123 128/156/124 120/157/116
f 120/157/116 128/156/124 121/141/117 113/140/109
f 121/141/117 129/158/125 130/159/126 122/142/118
f 122/142/118 130/159/126 131/160/127 123/144/119
f 123/144/119 131/160/127 132/161/128 124/146/120
f 124/146/120 132/161/128 133/162/129 125/148/121
f 125/151/121 133/163/129 134/164/130 126/152/122
f 126/152/122 134/164/130 135/165/131 127/154/123
f 127/154/123 135/165/131 136/166/132 128/156/124
f 128/156/124 136/166/132 129/158/125 121/141/117
f 129/158/125 137/167/133 138/168/134 130/159/126
f 130/159/126 138/168/134 139/169/135 131/160/127
f 131/160/127 139/169/135 140/170/136 132/161/128
f 132/161/128 140/170/136 141/171/137 133/162/129
f 133/163/129 141/172/137 142/173/138 134/164/130
f 134/164/130 142/173/138 143/174/139 135/165/131
f 135/165/131 143/174/139 144/175/140 136/166/132
f 136/166/132 144/175/140 137/167/133 129/158/125
f 137/167/133 145/176/141 146/177/142 138/168/134
f 138/168/134 146/177/142 147/178/143 139/169/135
f 139/169/135 147/178/143 148/179/144 140/170/136
f 140/170/136 148/179/144 149/180/145 141/171/137
f 141/172/137 149/181/145 150/182/146 142/173/138
f 142/173/138 150/182/146 151/183/147 143/174/139
f 143/174/139 151/183/147 152/184/148 144/175/140
f 144/175/140 152/184/148 145/176/141 137/167/133
f 145/176/141 153/185/149 154/186/150 146/177/142
f 146/177/142 154/186/150 155/187/151 147/178/143
f 147/178/143 155/187/151 156/188/152 148/179/144
f 148/179/144 156/188/152 157/189/153 149/180/145
f 149/181/145 157/190/153 158/191/154 150/182/146
f 150/182/146 158/191/154 159/192/155 151/183/147
f 151/183/147 159/192/155 160/193/156 152/184/148
f 152/184/148 160/193/156 153/185/149 145/176/141
f 153/185/149 161/194/157 162/195/158 154/186/150
f 154/186/150 162/195/158 163/196/159 155/187/151
f 155/187/151 163/196/159 164/197/160 156/188/152
f 156/188/152 164/197/160 165/198/161 157/189/153
f 157/190/153 165/199/161 166/200/162 158/191/154
f 158/191/154 166/200/162 167/201/163 159/192/155
f 159/192/155 167/201/163 168/202/164 160/193/156
f 160/193/156 168/202/164 161/194/157 153/185/149
f 161/194/157 169/203/165 170/204/166 162/195/158
f 162/195/158 170/204/166 171/205/167 163/196/159
f 163/196/159 171/205/167 172/206/168 164/197/160
f 164/197/160 172/206/168 173/207/169 165/198/161
f 165/199/161 173/208/169 174/209/170 166/200/162
f 166/200/162 174/209/170 175/210/171 167/201/163
f 167/201/163 175/210/171 176/211/172 168/202/164
f 168/202/164 176/211/172 169/203/165 161/194/157
f 169/203/165 177/212/173 178/213/174 170/204/166
f 170/204/166 178/213/174 179/214/175 171/205/167
f 171/205/167 179/214/175 180/215/176 172/206/168
f 172/206/168 180/215/176 181/216/177 173/207/169
f 173/208/169 181/217/177 182/218/178 174/209/170
f 174/209/170 182/218/178 183/219/179 175/210/171
f 175/210/171 183/219/179 184/220/180 176/211/172
f 176/211/172 184/220/180 177/212/173 169/203/165
f 177/212/173 185/221/181 186/222/182 178/213/174
f 178/213/174 186/222/182 187/223/183 179/214/175
f 179/214/175 187/223/183 188/224/184 180/215/176
f 180/215/176 188/224/184 189/225/185 181/216/177
f 181/217/177 189/226/185 190/227/186 182/218/178
f 182/218/178 190/227/186 191/228/187 183/219/179
f 183/219/179 191/228/187 192/229/188 184/220/180
f 184/220/180 192/229/188 185/221/181 177/212/173
f 185/221/181 193/230/189 194/231/190 186/222/182
f 186/222/182 194/231/190 195/232/191 187/223/183
f 187/223/183 195/232/191 196/233/192 188/224/184
f 188/224/184 196/233/192 197/234/193 189/225/185
f 189/226/185 197/235/193 198/236/194 190/227/186
f 190/227/186 198/236/194 199/237/195 191/228/187
f 191/228/187 199/237/195 200/238/196 192/229/188
f 192/229/188 200/238/196 193/230/189 185/221/181
f 193/230/189 201/239/197 202/240/198 194/231/190
f 194/231/190 202/240/198 203/241/199 195/232/191
f 195/232/191 203/241/199 204/242/200 196/233/192
f 196/233/192 204/242/200 205/243/201 197/234/193
f 197/235/193 205/244/201 206/245/202 198/236/194
f 198/236/194 206/245/202 207/246/203 199/237/195
f 199/237/195 207/246/203 208/247/204 200/238/196
f 200/238/196 208/247/204 201/239/197 193/230/189
f 201/239/197 209/248/205 210/249/206 202/240/198
f 202/240/198 210/249/206 211/250/207 203/241/199
f 203/241/199 211/250/207 212/251/208 204/242/200
f 204/242/200 212/251/208 213/252/209 205/243/201
f 205/244/201 213/253/209 214/254/210 206/245/202
f 206/245/202 214/254/210 215/255/211 207/246/203
f 207/246/203 215/255/211 216/256/212 208/247/204
f 208/247/204 216/256/212 209/248/205 201/239/197
f 209/248/205 217/257/213 218/258/214 210/249/206
f 210/249/206 218/258/214 219/259/215 211/250/207
f 211/250/207 219/259/215 220/260/216 212/251/208
f 212/251/208 220/260/216 221/261/217 213/252/209
f 213/253/209 221/262/217 222/263/218 214/254/210
f 214/254/210 222/263/218 223/264/219 215/255/211
f 215/255/211 223/264/219 224/265/220 216/256/212
f 216/256/212 224/265/220 217/257/213 209/248/205
f 217/257/213 225/266/221 226/267/222 218/258/214
f 218/258/214 226/267/222 227/268/223 219/259/215
f 219/259/215 227/268/223 228/269/224 220/260/216
f 220/260/216 228/269/224 229/270/225 221/261/217
f 221/262/217 229/271/225 230/272/226 222/263/218
f 222/263/218 230/272/226 231/273/227 223/264/219
f 223/264/219 231/273/227 232/274/228 224/265/220
f 224/265/220 232/274/228 225/266/221 217/257/213
f 225/266/221 233/275/229 234/276/230 226/267/222
f 226/267/222 234/276/230 235/277/231 227/268/223
f 227/268/223 235/277/231 236/278/232 228/269/224
f 228/269/224 236/278/232 237/279/233 229/270/225
f 229/271/225 237/280/233 238/281/234 230/272/226
f 230/272/226 238/281/234 239/282/235 231/273/227
f 231/273/227 239/282/235 240/283/236 232/274/228
f 232/274/228 240/283/236 233/275/229 225/266/221
f 233/275/229 241/284/113 242/285/237 234/276/230
f 234/276/230 242/285/237 243/286/238 235/277/231
f 235/277/231 243/286/238 244/287/239 236/278/232
f 236/278/232 244/287/239 245/288/109 237/279/233
f 237/280/233 245/289/109 246/290/240 238/281/234
f 238/281/234 246/290/240 247/291/241 239/282/235
f 239/282/235 247/291/241 248/292/242 240/283/236
f 240/283/236 248/292/242 241/284/113 233/275/229
f 241/293/113 249/294/121 250/295/243 242/296/237
f 242/296/237 250/295/243 251/297/244 243/298/238
f 243/298/238 251/297/244 252/299/245 244/300/239
f 244/300/239 252/299/245 253/301/117 245/302/109
f 245/303/109 253/304/117 254/305/246 246/306/240
f 246/306/240 254/305/246 255/307/247 247/308/241
f 247/308/241 255/307/247 256/309/248 248/310/242
f 248/310/242 256/309/248 249/294/121 241/293/113
f 249/294/121 257/311/129 258/312/249 250/295/243
f 250/295/243 258/312/249 259/313/250 251/297/244
f 251/297/244 259/313/250 260/314/251 252/299/245
f 252/299/245 260/314/251 261/315/125 253/301/117
f 253/304/117 261/316/125 262/317/252 254/305/246
f 254/305/246 262/317/252 263/318/253 255/307/247
f 255/307/247 263/318/253 264/319/254 256/309/248
f 256/309/248 264/319/254 257/311/129 249/294/121
f 257/311/129 265/320/137 266/321/255 258/312/249
f 258/312/249 266/321/255 267/322/256 259/313/250
f 259/313/250 267/322/256 268/323/257 260/314/251
f 260/314/251 268/323/257 269/324/133 261/315/125
f 261/316/125 269/325/133 270/326/258 262/317/252
f 262/317/252 270/326/258 271/327/259 263/318/253
f 263/318/253 271/327/259 272/328/260 264/319/254
f 264/319/254 272/328/260 265/320/137 257/311/129
f 265/320/137 273/329/145 274/330/261 266/321/255
f 266/321/255 274/330/261 275/331/262 267/322/256
f 267/322/256 275/331/262 276/332/263 268/323/257
f 268/323/257 276/332/263 277/333/141 269/324/133
f 269/325/133 277/334/141 278/335/264 270/326/258
f 270/326/258 278/335/264 279/336/265 271/327/259
f 271/327/259 279/336/265 280/337/266 272/328/260
f 272/328/260 280/337/266 273/329/145 265/320/137
f 273/329/145 281/338/153 282/339/267 274/330/261
f 274/330/261 282/339/267 283/340/268 275/331/262
f 275/331/262 283/340/268 284/341/269 276/332/263
f 276/332/263 284/341/269 285/342/149 277/333/141
f 277/334/141 285/343/149 286/344/270 278/335/264
f 278/335/264 286/344/270 287/345/271 279/336/265
f 279/336/265 287/345/271 288/346/272 280/337/266
f 280/337/266 288/346/272 281/338/153 273/329/145
f 281/338/153 289/347/161 290/348/273 282/339/267
f 282/339/267 290/348/273 291/349/274 283/340/268
f 283/340/268 291/349/274 292/350/275 284/341/269
f 284/341/269 292/350/275 293/351/157 285/342/149
f 285/343/149 293/352/157 294/353/276 286/344/270
f 286/344/270 294/353/276 295/354/277 287/345/271
f 287/345/271 295/354/277 296/355/278 288/346/272
f 288/346/272 296/355/278 289/347/161 281/338/153
f 289/347/161 297/356/169 298/357/279 290/348/273
f 290/348/273 298/357/279 299/358/280 291/349/274
f 291/349/274 299/358/280 300/359/281 292/350/275
f 292/350/275 300/359/281 301/360/165 293/351/157
f 293/352/157 301/361/165 302/362/282 294/353/276
f 294/353/276 302/362/282 303/363/283 295/354/277
f 295/354/277 303/363/283 304/364/284 296/355/278
f 296/355/278 304/364/284 297/356/169 289/347/161
f 297/356/169 305/365/177 306/366/285 298/357/279
f 298/357/279 306/366/285 307/367/286 299/358/280
f 299/358/280 307/367/286 308/368/287 300/359/281
f 300/359/281 308/368/287 309/369/173 301/360/165
f 301/361/165 309/370/173 310/371/288 302/362/282
f 302/362/282 310/371/288 311/372/289 303/363/283
f 303/363/283 311/372/289 312/373/290 304/364/284
f 304/364/284 312/373/290 305/365/177 297/356/169
f 305/365/177 313/374/185 314/375/291 306/366/285
f 306/366/285 314/375/291 315/376/292 307/367/286
f 307/367/286 315/376/292 316/377/293 308/368/287
f 308/368/287 316/377/293 317/378/181 309/369/173
f 309/370/173 317/379/181 318/380/294 310/371/288
f 310/371/288 318/380/294 319/381/295 311/372/289
f 311/372/289 319/381/295 320/382/296 312/373/290
f 312/373/290 320/382/296 313/374/185 305/365/177
f 313/374/185 321/383/193 322/384/297 314/375/291
f 314/375/291 322/384/297 323/385/298 315/376/292
f 315/376/292 323/385/298 324/386/299 316/377/293
f 316/377/293 324/386/299 325/387/189 317/378/181
f 317/379/181 325/388/189 326/389/300 318/380/294
f 318/380/294 326/389/300 327/390/301 319/381/295
f 319/381/295 327/390/301 328/391/302 320/382/296
f 320/382/296 328/391/302 321/383/193 313/374/185
f 321/383/193 329/392/201 330/393/303 322/384/297
f 322/384/297 330/393/303 331/394/304 323/385/298
f 323/385/298 331/394/304 332/395/305 324/386/299
f 324/386/299 332/395/305 333/396/197 325/387/189
f 325/388/189 333/397/197 334/398/306 326/389/300
f 326/389/300 334/398/306 335/399/307 327/390/301
f 327/390/301 335/399/307 336/400/308 328/391/302
f 328/391/302 336/400/308 329/392/201 321/383/193
f 329/392/201 337/401/209 338/402/309 330/393/303
f 330/393/303 338/402/309 339/403/310 331/394/304
f 331/394/304 339/403/310 340/404/311 332/395/305
f 332/395/305 340/404/311 341/405/205 333/396/197
f 333/397/197 341/406/205 342/407/312 334/398/306
f 334/398/306 342/407/312 343/408/313 335/399/307
f 335/399/307 343/408/313 344/409/314 336/400/308
f 336/400/308 344/409/314 337/401/209 329/392/201
f 337/401/209 345/410/217 346/411/315 338/402/309
f 338/402/309 346/411/315 347/412/316 339/403/310
f 339/403/310 347/412/316 348/413/317 340/404/311
f 340/404/311 348/413/317 349/414/213 341/405/205
f 341/406/205 349/415/213 350/416/318 342/407/312
f 342/407/312 350/416/318 351/417/319 343/408/313
f 343/408/313 351/417/319 352/418/320 344/409/314
f 344/409/314 352/418/320 345/410/217 337/401/209
f 345/410/217 353/419/225 354/420/321 346/411/315
f 346/411/315 354/420/321 355/421/322 347/412/316
f 347/412/316 355/421/322 356/422/323 348/413/317
f 348/413/317 356/422/323 357/423/221 349/414/213
f 349/415/213 357/424/221 358/425/324 350/416/318
f 350/416/318 358/425/324 359/426/325 351/417/319
f 351/417/319 359/426/325 360/427/326 352/418/320
f 352/418/320 360/427/326 353/419/225 345/410/217
f 353/419/225 361/428/233 362/429/327 354/420/321
f 354/420/321 362/429/327 363/430/328 355/421/322
f 355/421/322 363/430/328 364/431/329 356/422/323
f 356/422/323 364/431/329 365/432/229 357/423/221
f 357/424/221 365/433/229 366/434/330 358/425/324
f 358/425/324 366/434/330 367/435/331 359/426/325
f 359/426/325 367/435/331 368/436/332 360/427/326
f 360/427/326 368/436/332 361/428/233 353/419/225
f 361/428/233 113/140/109 114/143/110 362/429/327
f 362/429/327 114/143/110 115/145/111 363/430/328
f 363/430/328 115/145/111 116/147/112 364/431/329
f 364/431/329 116/147/112 117/149/113 365/432/229
f 365/433/229 117/150/113 118/153/114 366/434/330
f 366/434/330 118/153/114 119/155/115 367/435/331
f 367/435/331 119/155/115 120/157/116 368/436/332
f 368/436/332 120/157/116 113/140/109 361/428/233
o Fastener
v -0.041000 0.050000 0.024500
v -0.041000 0.050000 0.029500
v -0.039000 0.049464 0.024500
v -0.039000 0.049464 0.029500
v -0.037536 0.048000 0.024500
v -0.037536 0.048000 0.029500
v -0.037000 0.046000 0.024500
v -0.037000 0.046000 0.029500
v -0.037536 0.044000 0.024500
v -0.037536 0.044000 0.029500
v -0.039000 0.042536 0.024500
v -0.039000 0.042536 0.029500
v -0.041000 0.042000 0.024500
v -0.041000 0.042000 0.029500
v -0.043000 0.042536 0.024500
v -0.043000 0.042536 0.029500
v -0.044464 0.044000 0.024500
v -0.044464 0.044000 0.029500
v -0.045000 0.046000 0.024500
v -0.045000 0.046000 0.029500
v -0.044464 0.048000 0.024500
v -0.044464 0.048000 0.029500
v -0.043000 0.049464 0.024500
v -0.043000 0.049464 0.029500
vn -0.0000 0.7572 -0.6532
vn -0.0000 0.7572 0.6532
vn 0.3786 0.6557 -0.6532
vn 0.3786 0.6557 0.6532
vn 0.6557 0.3786 -0.6532
vn 0.6557 0.3786 0.6532
vn 0.7572 -0.0000 -0.6532
vn 0.7572 -0.0000 0.6532
vn 0.6557 -0.3786 -0.6532
vn 0.6557 -0.3786 0.6532
vn 0.3786 -0.6557 -0.6532
vn 0.3786 -0.6557 0.6532
vn -0.0000 -0.7572 -0.6532
vn -0.0000 -0.7572 0.6532
vn -0.3786 -0.6557 -0.6532
vn -0.3786 -0.6557 0.6532
vn -0.6557 -0.3786 -0.6532
vn -0.6557 -0.3786 0.6532
vn -0.7572 -0.0000 -0.6532
vn -0.7572 -0.0000 0.6532
vn -0.6557 0.3786 -0.6532
vn -0.6557 0.3786 0.6532
vn -0.3786 0.6557 -0.6532
vn -0.3786 0.6557 0.6532
vt 1.000000 0.500000
vt 1.000000 1.000000
vt 0.916667 1.000000
vt 0.916667 0.500000
vt 0.833333 1.000000
vt 0.833333 0.500000
vt 0.750000 1.000000
vt 0.750000 0.500000
vt 0.666667 1.000000
vt 0.666667 0.500000
vt 0.583333 1.000000
vt 0.583333 0.500000
vt 0.500000 1.000000
vt 0.500000 0.500000
vt 0.416667 1.000000
vt 0.416667 0.500000
vt 0.333333 1.000000
vt 0.333333 0.500000
vt 0.250000 1.000000
vt 0.250000 0.500000
vt 0.166667 1.000000
vt 0.166667 0.500000
vt 0.370000 0.457846
vt 0.250000 0.490000
vt 0.130000 0.457846
vt 0.042154 0.370000
vt 0.010000 0.250000
vt 0.042154 0.130000
vt 0.130000 0.042154
vt 0.250000 0.010000
vt 0.370000 0.042154
vt 0.457846 0.130000
vt 0.490000 0.250000
vt 0.457846 0.370000
vt 0.083333 1.000000
vt 0.083333 0.500000
vt 0.000000 1.000000
vt 0.000000 0.500000
vt 0.750000 0.490000
vt 0.870000 0.457846
vt 0.957846 0.370000
vt 0.990000 0.250000
vt 0.957846 0.130000
vt 0.870000 0.042154
vt 0.750000 0.010000
vt 0.630000 0.042154
vt 0.542154 0.130000
vt 0.510000 0.250000
vt 0.542154 0.370000
vt 0.630000 0.457846
s 1
usemtl M_Brushed_Metal
f 369/437/333 370/438/334 372/439/336 371/440/335
f 371/440/335 372/439/336 374/441/338 373/442/337
f 373/442/337 374/441/338 376/443/340 375/444/339
f 375/444/339 376/443/340 378/445/342 377/446/341
f 377/446/341 378/445/342 380/447/344 379/448/343
f 379/448/343 380/447/344 382/449/346 381/450/345
f 381/450/345 382/449/346 384/451/348 383/452/347
f 383/452/347 384/451/348 386/453/350 385/454/349
f 385/454/349 386/453/350 388/455/352 387/456/351
f 387/456/351 388/455/352 390/457/354 389/458/353
f 372/459/336 370/460/334 392/461/356 390/462/354 388/463/352 386/464/350 384/465/348 382/466/346 380/467/344 378/468/342 376/469/340 374/470/338
f 389/458/353 390/457/354 392/471/356 391/472/355
f 391/472/355 392/471/356 370/473/334 369/474/333
f 369/475/333 371/476/335 373/477/337 375/478/339 377/479/341 379/480/343 381/481/345 383/482/347 385/483/349 387/484/351 389/485/353 391/486/355
o Fastener.001
v 0.041000 0.050000 0.024500
v 0.041000 0.050000 0.029500
v 0.043000 0.049464 0.024500
v 0.043000 0.049464 0.029500
v 0.044464 0.048000 0.024500
v 0.044464 0.048000 0.029500
v 0.045000 0.046000 0.024500
v 0.045000 0.046000 0.029500
v 0.044464 0.044000 0.024500
v 0.044464 0.044000 0.029500
v 0.043000 0.042536 0.024500
v 0.043000 0.042536 0.029500
v 0.041000 0.042000 0.024500
v 0.041000 0.042000 0.029500
v 0.039000 0.042536 0.024500
v 0.039000 0.042536 0.029500
v 0.037536 0.044000 0.024500
v 0.037536 0.044000 0.029500
v 0.037000 0.046000 0.024500
v 0.037000 0.046000 0.029500
v 0.037536 0.048000 0.024500
v 0.037536 0.048000 0.029500
v 0.039000 0.049464 0.024500
v 0.039000 0.049464 0.029500
vn -0.0000 0.7572 -0.6532
vn -0.0000 0.7572 0.6532
vn 0.3786 0.6557 -0.6532
vn 0.3786 0.6557 0.6532
vn 0.6557 0.3786 -0.6532
vn 0.6557 0.3786 0.6532
vn 0.7572 -0.0000 -0.6532
vn 0.7572 -0.0000 0.6532
vn 0.6557 -0.3786 -0.6532
vn 0.6557 -0.3786 0.6532
vn 0.3786 -0.6557 -0.6532
vn 0.3786 -0.6557 0.6532
vn -0.0000 -0.7572 -0.6532
vn -0.0000 -0.7572 0.6532
vn -0.3786 -0.6557 -0.6532
vn -0.3786 -0.6557 0.6532
vn -0.6557 -0.3786 -0.6532
vn -0.6557 -0.3786 0.6532
vn -0.7572 -0.0000 -0.6532
vn -0.7572 -0.0000 0.6532
vn -0.6557 0.3786 -0.6532
vn -0.6557 0.3786 0.6532
vn -0.3786 0.6557 -0.6532
vn -0.3786 0.6557 0.6532
vt 1.000000 0.500000
vt 1.000000 1.000000
vt 0.916667 1.000000
vt 0.916667 0.500000
vt 0.833333 1.000000
vt 0.833333 0.500000
vt 0.750000 1.000000
vt 0.750000 0.500000
vt 0.666667 1.000000
vt 0.666667 0.500000
vt 0.583333 1.000000
vt 0.583333 0.500000
vt 0.500000 1.000000
vt 0.500000 0.500000
vt 0.416667 1.000000
vt 0.416667 0.500000
vt 0.333333 1.000000
vt 0.333333 0.500000
vt 0.250000 1.000000
vt 0.250000 0.500000
vt 0.166667 1.000000
vt 0.166667 0.500000
vt 0.370000 0.457846
vt 0.250000 0.490000
vt 0.130000 0.457846
vt 0.042154 0.370000
vt 0.010000 0.250000
vt 0.042154 0.130000
vt 0.130000 0.042154
vt 0.250000 0.010000
vt 0.370000 0.042154
vt 0.457846 0.130000
vt 0.490000 0.250000
vt 0.457846 0.370000
vt 0.083333 1.000000
vt 0.083333 0.500000
vt 0.000000 1.000000
vt 0.000000 0.500000
vt 0.750000 0.490000
vt 0.870000 0.457846
vt 0.957846 0.370000
vt 0.990000 0.250000
vt 0.957846 0.130000
vt 0.870000 0.042154
vt 0.750000 0.010000
vt 0.630000 0.042154
vt 0.542154 0.130000
vt 0.510000 0.250000
vt 0.542154 0.370000
vt 0.630000 0.457846
s 1
usemtl M_Brushed_Metal
f 393/487/357 394/488/358 396/489/360 395/490/359
f 395/490/359 396/489/360 398/491/362 397/492/361
f 397/492/361 398/491/362 400/493/364 399/494/363
f 399/494/363 400/493/364 402/495/366 401/496/365
f 401/496/365 402/495/366 404/497/368 403/498/367
f 403/498/367 404/497/368 406/499/370 405/500/369
f 405/500/369 406/499/370 408/501/372 407/502/371
f 407/502/371 408/501/372 410/503/374 409/504/373
f 409/504/373 410/503/374 412/505/376 411/506/375
f 411/506/375 412/505/376 414/507/378 413/508/377
f 396/509/360 394/510/358 416/511/380 414/512/378 412/513/376 410/514/374 408/515/372 406/516/370 404/517/368 402/518/366 400/519/364 398/520/362
f 413/508/377 414/507/378 416/521/380 415/522/379
f 415/522/379 416/521/380 394/523/358 393/524/357
f 393/525/357 395/526/359 397/527/361 399/528/363 401/529/365 403/530/367 405/531/369 407/532/371 409/533/373 411/534/375 413/535/377 415/536/379
