# Blender 4.5.11 LTS
# www.blender.org
mtllib CautionBadge.mtl
o Badge.001
v 0.000000 -0.006000 -0.035000
v 0.000000 0.006000 -0.035000
v 0.006828 -0.006000 -0.034327
v 0.006828 0.006000 -0.034327
v 0.013394 -0.006000 -0.032336
v 0.013394 0.006000 -0.032336
v 0.019445 -0.006000 -0.029101
v 0.019445 0.006000 -0.029101
v 0.024749 -0.006000 -0.024749
v 0.024749 0.006000 -0.024749
v 0.029101 -0.006000 -0.019445
v 0.029101 0.006000 -0.019445
v 0.032336 -0.006000 -0.013394
v 0.032336 0.006000 -0.013394
v 0.034327 -0.006000 -0.006828
v 0.034327 0.006000 -0.006828
v 0.035000 -0.006000 0.000000
v 0.035000 0.006000 0.000000
v 0.034327 -0.006000 0.006828
v 0.034327 0.006000 0.006828
v 0.032336 -0.006000 0.013394
v 0.032336 0.006000 0.013394
v 0.029101 -0.006000 0.019445
v 0.029101 0.006000 0.019445
v 0.024749 -0.006000 0.024749
v 0.024749 0.006000 0.024749
v 0.019445 -0.006000 0.029101
v 0.019445 0.006000 0.029101
v 0.013394 -0.006000 0.032336
v 0.013394 0.006000 0.032336
v 0.006828 -0.006000 0.034327
v 0.006828 0.006000 0.034327
v 0.000000 -0.006000 0.035000
v 0.000000 0.006000 0.035000
v -0.006828 -0.006000 0.034327
v -0.006828 0.006000 0.034327
v -0.013394 -0.006000 0.032336
v -0.013394 0.006000 0.032336
v -0.019445 -0.006000 0.029101
v -0.019445 0.006000 0.029101
v -0.024749 -0.006000 0.024749
v -0.024749 0.006000 0.024749
v -0.029101 -0.006000 0.019445
v -0.029101 0.006000 0.019445
v -0.032336 -0.006000 0.013394
v -0.032336 0.006000 0.013394
v -0.034327 -0.006000 0.006828
v -0.034327 0.006000 0.006828
v -0.035000 -0.006000 0.000000
v -0.035000 0.006000 0.000000
v -0.034327 -0.006000 -0.006828
v -0.034327 0.006000 -0.006828
v -0.032336 -0.006000 -0.013394
v -0.032336 0.006000 -0.013394
v -0.029101 -0.006000 -0.019445
v -0.029101 0.006000 -0.019445
v -0.024749 -0.006000 -0.024749
v -0.024749 0.006000 -0.024749
v -0.019445 -0.006000 -0.029101
v -0.019445 0.006000 -0.029101
v -0.013394 -0.006000 -0.032336
v -0.013394 0.006000 -0.032336
v -0.006828 -0.006000 -0.034327
v -0.006828 0.006000 -0.034327
vn -0.0000 -0.6857 -0.7279
vn -0.0000 0.6857 -0.7279
vn 0.1420 -0.6857 -0.7139
vn 0.1420 0.6857 -0.7139
vn 0.2785 -0.6857 -0.6725
vn 0.2785 0.6857 -0.6725
vn 0.4044 -0.6857 -0.6052
vn 0.4044 0.6857 -0.6052
vn 0.5147 -0.6857 -0.5147
vn 0.5147 0.6857 -0.5147
vn 0.6052 -0.6857 -0.4044
vn 0.6052 0.6857 -0.4044
vn 0.6725 -0.6857 -0.2785
vn 0.6725 0.6857 -0.2785
vn 0.7139 -0.6857 -0.1420
vn 0.7139 0.6857 -0.1420
vn 0.7279 -0.6857 -0.0000
vn 0.7279 0.6857 -0.0000
vn 0.7139 -0.6857 0.1420
vn 0.7139 0.6857 0.1420
vn 0.6725 -0.6857 0.2785
vn 0.6725 0.6857 0.2785
vn 0.6052 -0.6857 0.4044
vn 0.6052 0.6857 0.4044
vn 0.5147 -0.6857 0.5147
vn 0.5147 0.6857 0.5147
vn 0.4044 -0.6857 0.6052
vn 0.4044 0.6857 0.6052
vn 0.2785 -0.6857 0.6725
vn 0.2785 0.6857 0.6725
vn 0.1420 -0.6857 0.7139
vn 0.1420 0.6857 0.7139
vn -0.0000 -0.6857 0.7279
vn -0.0000 0.6857 0.7279
vn -0.1420 -0.6857 0.7139
vn -0.1420 0.6857 0.7139
vn -0.2785 -0.6857 0.6725
vn -0.2785 0.6857 0.6725
vn -0.4044 -0.6857 0.6052
vn -0.4044 0.6857 0.6052
vn -0.5147 -0.6857 0.5147
vn -0.5147 0.6857 0.5147
vn -0.6052 -0.6857 0.4044
vn -0.6052 0.6857 0.4044
vn -0.6725 -0.6857 0.2785
vn -0.6725 0.6857 0.2785
vn -0.7139 -0.6857 0.1420
vn -0.7139 0.6857 0.1420
vn -0.7279 -0.6857 -0.0000
vn -0.7279 0.6857 -0.0000
vn -0.7139 -0.6857 -0.1420
vn -0.7139 0.6857 -0.1420
vn -0.6725 -0.6857 -0.2785
vn -0.6725 0.6857 -0.2785
vn -0.6052 -0.6857 -0.4044
vn -0.6052 0.6857 -0.4044
vn -0.5147 -0.6857 -0.5147
vn -0.5147 0.6857 -0.5147
vn -0.4044 -0.6857 -0.6052
vn -0.4044 0.6857 -0.6052
vn -0.2785 -0.6857 -0.6725
vn -0.2785 0.6857 -0.6725
vn -0.1420 -0.6857 -0.7139
vn -0.1420 0.6857 -0.7139
vt 1.000000 0.500000
vt 1.000000 1.000000
vt 0.968750 1.000000
vt 0.968750 0.500000
vt 0.937500 1.000000
vt 0.937500 0.500000
vt 0.906250 1.000000
vt 0.906250 0.500000
vt 0.875000 1.000000
vt 0.875000 0.500000
vt 0.843750 1.000000
vt 0.843750 0.500000
vt 0.812500 1.000000
vt 0.812500 0.500000
vt 0.781250 1.000000
vt 0.781250 0.500000
vt 0.750000 1.000000
vt 0.750000 0.500000
vt 0.718750 1.000000
vt 0.718750 0.500000
vt 0.687500 1.000000
vt 0.687500 0.500000
vt 0.656250 1.000000
vt 0.656250 0.500000
vt 0.625000 1.000000
vt 0.625000 0.500000
vt 0.593750 1.000000
vt 0.593750 0.500000
vt 0.562500 1.000000
vt 0.562500 0.500000
vt 0.531250 1.000000
vt 0.531250 0.500000
vt 0.500000 1.000000
vt 0.500000 0.500000
vt 0.468750 1.000000
vt 0.468750 0.500000
vt 0.437500 1.000000
vt 0.437500 0.500000
vt 0.406250 1.000000
vt 0.406250 0.500000
vt 0.375000 1.000000
vt 0.375000 0.500000
vt 0.343750 1.000000
vt 0.343750 0.500000
vt 0.312500 1.000000
vt 0.312500 0.500000
vt 0.281250 1.000000
vt 0.281250 0.500000
vt 0.250000 1.000000
vt 0.250000 0.500000
vt 0.218750 1.000000
vt 0.218750 0.500000
vt 0.187500 1.000000
vt 0.187500 0.500000
vt 0.156250 1.000000
vt 0.156250 0.500000
vt 0.125000 1.000000
vt 0.125000 0.500000
vt 0.093750 1.000000
vt 0.093750 0.500000
vt 0.062500 1.000000
vt 0.062500 0.500000
vt 0.296822 0.485388
vt 0.250000 0.490000
vt 0.203178 0.485388
vt 0.158156 0.471731
vt 0.116663 0.449553
vt 0.080294 0.419706
vt 0.050447 0.383337
vt 0.028269 0.341844
vt 0.014612 0.296822
vt 0.010000 0.250000
vt 0.014612 0.203178
vt 0.028269 0.158156
vt 0.050447 0.116663
vt 0.080294 0.080294
vt 0.116663 0.050447
vt 0.158156 0.028269
vt 0.203178 0.014612
vt 0.250000 0.010000
vt 0.296822 0.014612
vt 0.341844 0.028269
vt 0.383337 0.050447
vt 0.419706 0.080294
vt 0.449553 0.116663
vt 0.471731 0.158156
vt 0.485388 0.203178
vt 0.490000 0.250000
vt 0.485388 0.296822
vt 0.471731 0.341844
vt 0.449553 0.383337
vt 0.419706 0.419706
vt 0.383337 0.449553
vt 0.341844 0.471731
vt 0.031250 1.000000
vt 0.031250 0.500000
vt 0.000000 1.000000
vt 0.000000 0.500000
vt 0.750000 0.490000
vt 0.796822 0.485388
vt 0.841844 0.471731
vt 0.883337 0.449553
vt 0.919706 0.419706
vt 0.949553 0.383337
vt 0.971731 0.341844
vt 0.985388 0.296822
vt 0.990000 0.250000
vt 0.985388 0.203178
vt 0.971731 0.158156
vt 0.949553 0.116663
vt 0.919706 0.080294
vt 0.883337 0.050447
vt 0.841844 0.028269
vt 0.796822 0.014612
vt 0.750000 0.010000
vt 0.703178 0.014612
vt 0.658156 0.028269
vt 0.616663 0.050447
vt 0.580294 0.080294
vt 0.550447 0.116663
vt 0.528269 0.158156
vt 0.514612 0.203178
vt 0.510000 0.250000
vt 0.514612 0.296822
vt 0.528269 0.341844
vt 0.550447 0.383337
vt 0.580294 0.419706
vt 0.616663 0.449553
vt 0.658156 0.471731
vt 0.703178 0.485388
s 1
usemtl M_Graphite
f 1/1/1 2/2/2 4/3/4 3/4/3
f 3/4/3 4/3/4 6/5/6 5/6/5
f 5/6/5 6/5/6 8/7/8 7/8/7
f 7/8/7 8/7/8 10/9/10 9/10/9
f 9/10/9 10/9/10 12/11/12 11/12/11
f 11/12/11 12/11/12 14/13/14 13/14/13
f 13/14/13 14/13/14 16/15/16 15/16/15
f 15/16/15 16/15/16 18/17/18 17/18/17
f 17/18/17 18/17/18 20/19/20 19/20/19
f 19/20/19 20/19/20 22/21/22 21/22/21
f 21/22/21 22/21/22 24/23/24 23/24/23
f 23/24/23 24/23/24 26/25/26 25/26/25
f 25/26/25 26/25/26 28/27/28 27/28/27
f 27/28/27 28/27/28 30/29/30 29/30/29
f 29/30/29 30/29/30 32/31/32 31/32/31
f 31/32/31 32/31/32 34/33/34 33/34/33
f 33/34/33 34/33/34 36/35/36 35/36/35
f 35/36/35 36/35/36 38/37/38 37/38/37
f 37/38/37 38/37/38 40/39/40 39/40/39
f 39/40/39 40/39/40 42/41/42 41/42/41
f 41/42/41 42/41/42 44/43/44 43/44/43
f 43/44/43 44/43/44 46/45/46 45/46/45
f 45/46/45 46/45/46 48/47/48 47/48/47
f 47/48/47 48/47/48 50/49/50 49/50/49
f 49/50/49 50/49/50 52/51/52 51/52/51
f 51/52/51 52/51/52 54/53/54 53/54/53
f 53/54/53 54/53/54 56/55/56 55/56/55
f 55/56/55 56/55/56 58/57/58 57/58/57
f 57/58/57 58/57/58 60/59/60 59/60/59
f 59/60/59 60/59/60 62/61/62 61/62/61
f 4/63/4 2/64/2 64/65/64 62/66/62 60/67/60 58/68/58 56/69/56 54/70/54 52/71/52 50/72/50 48/73/48 46/74/46 44/75/44 42/76/42 40/77/40 38/78/38 36/79/36 34/80/34 32/81/32 30/82/30 28/83/28 26/84/26 24/85/24 22/86/22 20/87/20 18/88/18 16/89/16 14/90/14 12/91/12 10/92/10 8/93/8 6/94/6
f 61/62/61 62/61/62 64/95/64 63/96/63
f 63/96/63 64/95/64 2/97/2 1/98/1
f 1/99/1 3/100/3 5/101/5 7/102/7 9/103/9 11/104/11 13/105/13 15/106/15 17/107/17 19/108/19 21/109/21 23/110/23 25/111/25 27/112/27 29/113/29 31/114/31 33/115/33 35/116/35 37/117/37 39/118/39 41/119/41 43/120/43 45/121/45 47/122/47 49/123/49 51/124/51 53/125/53 55/126/55 57/127/57 59/128/59 61/129/61 63/130/63
o Emissive_Border.001
v 0.032000 0.008000 0.000000
v 0.030828 0.010828 0.000000
v 0.028000 0.012000 0.000000
v 0.025172 0.010828 0.000000
v 0.024000 0.008000 0.000000
v 0.025172 0.005172 0.000000
v 0.028000 0.004000 0.000000
v 0.030828 0.005172 0.000000
v 0.031385 0.008000 -0.006243
v 0.030236 0.010828 -0.006014
v 0.027462 0.012000 -0.005463
v 0.024688 0.010828 -0.004911
v 0.023539 0.008000 -0.004682
v 0.024688 0.005172 -0.004911
v 0.027462 0.004000 -0.005463
v 0.030236 0.005172 -0.006014
v 0.029564 0.008000 -0.012246
v 0.028482 0.010828 -0.011798
v 0.025869 0.012000 -0.010715
v 0.023256 0.010828 -0.009633
v 0.022173 0.008000 -0.009184
v 0.023256 0.005172 -0.009633
v 0.025869 0.004000 -0.010715
v 0.028482 0.005172 -0.011798
v 0.026607 0.008000 -0.017778
v 0.025633 0.010828 -0.017127
v 0.023281 0.012000 -0.015556
v 0.020929 0.010828 -0.013985
v 0.019955 0.008000 -0.013334
v 0.020929 0.005172 -0.013985
v 0.023281 0.004000 -0.015556
v 0.025633 0.005172 -0.017127
v 0.022627 0.008000 -0.022627
v 0.021799 0.010828 -0.021799
v 0.019799 0.012000 -0.019799
v 0.017799 0.010828 -0.017799
v 0.016971 0.008000 -0.016971
v 0.017799 0.005172 -0.017799
v 0.019799 0.004000 -0.019799
v 0.021799 0.005172 -0.021799
v 0.017778 0.008000 -0.026607
v 0.017127 0.010828 -0.025633
v 0.015556 0.012000 -0.023281
v 0.013985 0.010828 -0.020929
v 0.013334 0.008000 -0.019955
v 0.013985 0.005172 -0.020929
v 0.015556 0.004000 -0.023281
v 0.017127 0.005172 -0.025633
v 0.012246 0.008000 -0.029564
v 0.011798 0.010828 -0.028482
v 0.010715 0.012000 -0.025869
v 0.009633 0.010828 -0.023255
v 0.009184 0.008000 -0.022173
v 0.009633 0.005172 -0.023255
v 0.010715 0.004000 -0.025869
v 0.011798 0.005172 -0.028482
v 0.006243 0.008000 -0.031385
v 0.006014 0.010828 -0.030236
v 0.005463 0.012000 -0.027462
v 0.004911 0.010828 -0.024688
v 0.004682 0.008000 -0.023539
v 0.004911 0.005172 -0.024688
v 0.005463 0.004000 -0.027462
v 0.006014 0.005172 -0.030236
v 0.000000 0.008000 -0.032000
v 0.000000 0.010828 -0.030828
v 0.000000 0.012000 -0.028000
v 0.000000 0.010828 -0.025172
v 0.000000 0.008000 -0.024000
v 0.000000 0.005172 -0.025172
v 0.000000 0.004000 -0.028000
v 0.000000 0.005172 -0.030828
v -0.006243 0.008000 -0.031385
v -0.006014 0.010828 -0.030236
v -0.005463 0.012000 -0.027462
v -0.004911 0.010828 -0.024688
v -0.004682 0.008000 -0.023539
v -0.004911 0.005172 -0.024688
v -0.005463 0.004000 -0.027462
v -0.006014 0.005172 -0.030236
v -0.012246 0.008000 -0.029564
v -0.011798 0.010828 -0.028482
v -0.010715 0.012000 -0.025869
v -0.009633 0.010828 -0.023256
v -0.009184 0.008000 -0.022173
v -0.009633 0.005172 -0.023256
v -0.010715 0.004000 -0.025869
v -0.011798 0.005172 -0.028482
v -0.017778 0.008000 -0.026607
v -0.017127 0.010828 -0.025633
v -0.015556 0.012000 -0.023281
v -0.013985 0.010828 -0.020929
v -0.013334 0.008000 -0.019955
v -0.013985 0.005172 -0.020929
v -0.015556 0.004000 -0.023281
v -0.017127 0.005172 -0.025633
v -0.022627 0.008000 -0.022627
v -0.021799 0.010828 -0.021799
v -0.019799 0.012000 -0.019799
v -0.017799 0.010828 -0.017799
v -0.016971 0.008000 -0.016971
v -0.017799 0.005172 -0.017799
v -0.019799 0.004000 -0.019799
v -0.021799 0.005172 -0.021799
v -0.026607 0.008000 -0.017778
v -0.025633 0.010828 -0.017127
v -0.023281 0.012000 -0.015556
v -0.020929 0.010828 -0.013985
v -0.019955 0.008000 -0.013334
v -0.020929 0.005172 -0.013985
v -0.023281 0.004000 -0.015556
v -0.025633 0.005172 -0.017127
v -0.029564 0.008000 -0.012246
v -0.028482 0.010828 -0.011798
v -0.025869 0.012000 -0.010715
v -0.023256 0.010828 -0.009633
v -0.022173 0.008000 -0.009184
v -0.023256 0.005172 -0.009633
v -0.025869 0.004000 -0.010715
v -0.028482 0.005172 -0.011798
v -0.031385 0.008000 -0.006243
v -0.030236 0.010828 -0.006014
v -0.027462 0.012000 -0.005463
v -0.024688 0.010828 -0.004911
v -0.023539 0.008000 -0.004682
v -0.024688 0.005172 -0.004911
v -0.027462 0.004000 -0.005463
v -0.030236 0.005172 -0.006014
v -0.032000 0.008000 -0.000000
v -0.030828 0.010828 -0.000000
v -0.028000 0.012000 -0.000000
v -0.025172 0.010828 -0.000000
v -0.024000 0.008000 -0.000000
v -0.025172 0.005172 -0.000000
v -0.028000 0.004000 -0.000000
v -0.030828 0.005172 -0.000000
v -0.031385 0.008000 0.006243
v -0.030236 0.010828 0.006014
v -0.027462 0.012000 0.005463
v -0.024688 0.010828 0.004911
v -0.023539 0.008000 0.004682
v -0.024688 0.005172 0.004911
v -0.027462 0.004000 0.005463
v -0.030236 0.005172 0.006014
v -0.029564 0.008000 0.012246
v -0.028482 0.010828 0.011798
v -0.025869 0.012000 0.010715
v -0.023256 0.010828 0.009633
v -0.022173 0.008000 0.009184
v -0.023256 0.005172 0.009633
v -0.025869 0.004000 0.010715
v -0.028482 0.005172 0.011798
v -0.026607 0.008000 0.017778
v -0.025633 0.010828 0.017127
v -0.023281 0.012000 0.015556
v -0.020929 0.010828 0.013985
v -0.019955 0.008000 0.013334
v -0.020929 0.005172 0.013985
v -0.023281 0.004000 0.015556
v -0.025633 0.005172 0.017127
v -0.022627 0.008000 0.022627
v -0.021799 0.010828 0.021799
v -0.019799 0.012000 0.019799
v -0.017799 0.010828 0.017799
v -0.016971 0.008000 0.016971
v -0.017799 0.005172 0.017799
v -0.019799 0.004000 0.019799
v -0.021799 0.005172 0.021799
v -0.017778 0.008000 0.026607
v -0.017127 0.010828 0.025633
v -0.015556 0.012000 0.023281
v -0.013985 0.010828 0.020929
v -0.013334 0.008000 0.019955
v -0.013985 0.005172 0.020929
v -0.015556 0.004000 0.023281
v -0.017127 0.005172 0.025633
v -0.012246 0.008000 0.029564
v -0.011798 0.010828 0.028482
v -0.010715 0.012000 0.025869
v -0.009633 0.010828 0.023256
v -0.009184 0.008000 0.022173
v -0.009633 0.005172 0.023256
v -0.010715 0.004000 0.025869
v -0.011798 0.005172 0.028482
v -0.006243 0.008000 0.031385
v -0.006014 0.010828 0.030236
v -0.005463 0.012000 0.027462
v -0.004911 0.010828 0.024688
v -0.004682 0.008000 0.023539
v -0.004911 0.005172 0.024688
v -0.005463 0.004000 0.027462
v -0.006014 0.005172 0.030236
v 0.000000 0.008000 0.032000
v 0.000000 0.010828 0.030828
v 0.000000 0.012000 0.028000
v 0.000000 0.010828 0.025172
v 0.000000 0.008000 0.024000
v 0.000000 0.005172 0.025172
v 0.000000 0.004000 0.028000
v 0.000000 0.005172 0.030828
v 0.006243 0.008000 0.031385
v 0.006014 0.010828 0.030236
v 0.005463 0.012000 0.027462
v 0.004911 0.010828 0.024688
v 0.004682 0.008000 0.023539
v 0.004911 0.005172 0.024688
v 0.005463 0.004000 0.027462
v 0.006014 0.005172 0.030236
v 0.012246 0.008000 0.029564
v 0.011798 0.010828 0.028482
v 0.010715 0.012000 0.025869
v 0.009633 0.010828 0.023255
v 0.009184 0.008000 0.022173
v 0.009633 0.005172 0.023255
v 0.010715 0.004000 0.025869
v 0.011798 0.005172 0.028482
v 0.017778 0.008000 0.026607
v 0.017127 0.010828 0.025633
v 0.015556 0.012000 0.023281
v 0.013985 0.010828 0.020929
v 0.013334 0.008000 0.019955
v 0.013985 0.005172 0.020929
v 0.015556 0.004000 0.023281
v 0.017127 0.005172 0.025633
v 0.022627 0.008000 0.022627
v 0.021799 0.010828 0.021799
v 0.019799 0.012000 0.019799
v 0.017799 0.010828 0.017799
v 0.016971 0.008000 0.016971
v 0.017799 0.005172 0.017799
v 0.019799 0.004000 0.019799
v 0.021799 0.005172 0.021799
v 0.026607 0.008000 0.017778
v 0.025633 0.010828 0.017127
v 0.023281 0.012000 0.015556
v 0.020929 0.010828 0.013985
v 0.019955 0.008000 0.013334
v 0.020929 0.005172 0.013985
v 0.023281 0.004000 0.015556
v 0.025633 0.005172 0.017127
v 0.029564 0.008000 0.012246
v 0.028482 0.010828 0.011798
v 0.025869 0.012000 0.010715
v 0.023255 0.010828 0.009633
v 0.022173 0.008000 0.009184
v 0.023255 0.005172 0.009633
v 0.025869 0.004000 0.010715
v 0.028482 0.005172 0.011798
v 0.031385 0.008000 0.006243
v 0.030236 0.010828 0.006014
v 0.027462 0.012000 0.005463
v 0.024688 0.010828 0.004911
v 0.023539 0.008000 0.004682
v 0.024688 0.005172 0.004911
v 0.027462 0.004000 0.005463
v 0.030236 0.005172 0.006014
vn 1.0000 -0.0000 -0.0000
vn 0.7187 0.6954 -0.0000
vn 0.0239 0.9997 -0.0000
vn -0.6948 0.7192 -0.0000
vn -1.0000 -0.0000 -0.0000
vn -0.6948 -0.7192 -0.0000
vn 0.0239 -0.9997 -0.0000
vn 0.7187 -0.6954 -0.0000
vn 0.9808 -0.0000 -0.1951
vn 0.7049 0.6954 -0.1402
vn 0.0234 0.9997 -0.0047
vn -0.6814 0.7192 0.1355
vn -0.9808 -0.0000 0.1951
vn -0.6814 -0.7192 0.1355
vn 0.0234 -0.9997 -0.0047
vn 0.7049 -0.6954 -0.1402
vn 0.9239 -0.0000 -0.3827
vn 0.6640 0.6954 -0.2750
vn 0.0221 0.9997 -0.0091
vn -0.6419 0.7192 0.2659
vn -0.9239 -0.0000 0.3827
vn -0.6419 -0.7192 0.2659
vn 0.0221 -0.9997 -0.0091
vn 0.6640 -0.6954 -0.2750
vn 0.8315 -0.0000 -0.5556
vn 0.5975 0.6954 -0.3993
vn 0.0199 0.9997 -0.0133
vn -0.5777 0.7192 0.3860
vn -0.8315 -0.0000 0.5556
vn -0.5777 -0.7192 0.3860
vn 0.0199 -0.9997 -0.0133
vn 0.5975 -0.6954 -0.3993
vn 0.7071 -0.0000 -0.7071
vn 0.5082 0.6954 -0.5082
vn 0.0169 0.9997 -0.0169
vn -0.4913 0.7192 0.4913
vn -0.7071 -0.0000 0.7071
vn -0.4913 -0.7192 0.4913
vn 0.0169 -0.9997 -0.0169
vn 0.5082 -0.6954 -0.5082
vn 0.5556 -0.0000 -0.8315
vn 0.3993 0.6954 -0.5975
vn 0.0133 0.9997 -0.0199
vn -0.3860 0.7192 0.5777
vn -0.5556 -0.0000 0.8315
vn -0.3860 -0.7192 0.5777
vn 0.0133 -0.9997 -0.0199
vn 0.3993 -0.6954 -0.5975
vn 0.3827 -0.0000 -0.9239
vn 0.2750 0.6954 -0.6640
vn 0.0091 0.9997 -0.0221
vn -0.2659 0.7192 0.6419
vn -0.3827 -0.0000 0.9239
vn -0.2659 -0.7192 0.6419
vn 0.0091 -0.9997 -0.0221
vn 0.2750 -0.6954 -0.6640
vn 0.1951 -0.0000 -0.9808
vn 0.1402 0.6954 -0.7049
vn 0.0047 0.9997 -0.0234
vn -0.1355 0.7192 0.6814
vn -0.1951 -0.0000 0.9808
vn -0.1355 -0.7192 0.6814
vn 0.0047 -0.9997 -0.0234
vn 0.1402 -0.6954 -0.7049
vn -0.0000 -0.0000 -1.0000
vn -0.0000 0.6954 -0.7187
vn -0.0000 0.9997 -0.0239
vn -0.0000 0.7192 0.6948
vn -0.0000 -0.0000 1.0000
vn -0.0000 -0.7192 0.6948
vn -0.0000 -0.9997 -0.0239
vn -0.0000 -0.6954 -0.7187
vn -0.1951 -0.0000 -0.9808
vn -0.1402 0.6954 -0.7049
vn -0.0047 0.9997 -0.0234
vn 0.1355 0.7192 0.6814
vn 0.1951 -0.0000 0.9808
vn 0.1355 -0.7192 0.6814
vn -0.0047 -0.9997 -0.0234
vn -0.1402 -0.6954 -0.7049
vn -0.3827 -0.0000 -0.9239
vn -0.2750 0.6954 -0.6640
vn -0.0091 0.9997 -0.0221
vn 0.2659 0.7192 0.6419
vn 0.3827 -0.0000 0.9239
vn 0.2659 -0.7192 0.6419
vn -0.0091 -0.9997 -0.0221
vn -0.2750 -0.6954 -0.6640
vn -0.5556 -0.0000 -0.8315
vn -0.3993 0.6954 -0.5975
vn -0.0133 0.9997 -0.0199
vn 0.3860 0.7192 0.5777
vn 0.5556 -0.0000 0.8315
vn 0.3860 -0.7192 0.5777
vn -0.0133 -0.9997 -0.0199
vn -0.3993 -0.6954 -0.5975
vn -0.7071 -0.0000 -0.7071
vn -0.5082 0.6954 -0.5082
vn -0.0169 0.9997 -0.0169
vn 0.4913 0.7192 0.4913
vn 0.7071 -0.0000 0.7071
vn 0.4913 -0.7192 0.4913
vn -0.0169 -0.9997 -0.0169
vn -0.5082 -0.6954 -0.5082
vn -0.8315 -0.0000 -0.5556
vn -0.5975 0.6954 -0.3993
vn -0.0199 0.9997 -0.0133
vn 0.5777 0.7192 0.3860
vn 0.8315 -0.0000 0.5556
vn 0.5777 -0.7192 0.3860
vn -0.0199 -0.9997 -0.0133
vn -0.5975 -0.6954 -0.3993
vn -0.9239 -0.0000 -0.3827
vn -0.6640 0.6954 -0.2750
vn -0.0221 0.9997 -0.0091
vn 0.6419 0.7192 0.2659
vn 0.9239 -0.0000 0.3827
vn 0.6419 -0.7192 0.2659
vn -0.0221 -0.9997 -0.0091
vn -0.6640 -0.6954 -0.2750
vn -0.9808 -0.0000 -0.1951
vn -0.7049 0.6954 -0.1402
vn -0.0234 0.9997 -0.0047
vn 0.6814 0.7192 0.1355
vn 0.9808 -0.0000 0.1951
vn 0.6814 -0.7192 0.1355
vn -0.0234 -0.9997 -0.0047
vn -0.7049 -0.6954 -0.1402
vn -0.7187 0.6954 -0.0000
vn -0.0239 0.9997 -0.0000
vn 0.6948 0.7192 -0.0000
vn 0.6948 -0.7192 -0.0000
vn -0.0239 -0.9997 -0.0000
vn -0.7187 -0.6954 -0.0000
vn -0.7049 0.6954 0.1402
vn -0.0234 0.9997 0.0047
vn 0.6814 0.7192 -0.1355
vn 0.6814 -0.7192 -0.1355
vn -0.0234 -0.9997 0.0047
vn -0.7049 -0.6954 0.1402
vn -0.6640 0.6954 0.2750
vn -0.0221 0.9997 0.0091
vn 0.6419 0.7192 -0.2659
vn 0.6419 -0.7192 -0.2659
vn -0.0221 -0.9997 0.0091
vn -0.6640 -0.6954 0.2750
vn -0.5975 0.6954 0.3993
vn -0.0199 0.9997 0.0133
vn 0.5777 0.7192 -0.3860
vn 0.5777 -0.7192 -0.3860
vn -0.0199 -0.9997 0.0133
vn -0.5975 -0.6954 0.3993
vn -0.5082 0.6954 0.5082
vn -0.0169 0.9997 0.0169
vn 0.4913 0.7192 -0.4913
vn 0.4913 -0.7192 -0.4913
vn -0.0169 -0.9997 0.0169
vn -0.5082 -0.6954 0.5082
vn -0.3993 0.6954 0.5975
vn -0.0133 0.9997 0.0199
vn 0.3860 0.7192 -0.5777
vn 0.3860 -0.7192 -0.5777
vn -0.0133 -0.9997 0.0199
vn -0.3993 -0.6954 0.5975
vn -0.2750 0.6954 0.6640
vn -0.0091 0.9997 0.0221
vn 0.2659 0.7192 -0.6419
vn 0.2659 -0.7192 -0.6419
vn -0.0091 -0.9997 0.0221
vn -0.2750 -0.6954 0.6640
vn -0.1402 0.6954 0.7049
vn -0.0047 0.9997 0.0234
vn 0.1355 0.7192 -0.6814
vn 0.1355 -0.7192 -0.6814
vn -0.0047 -0.9997 0.0234
vn -0.1402 -0.6954 0.7049
vn -0.0000 0.6954 0.7187
vn -0.0000 0.9997 0.0239
vn -0.0000 0.7192 -0.6948
vn -0.0000 -0.7192 -0.6948
vn -0.0000 -0.9997 0.0239
vn -0.0000 -0.6954 0.7187
vn 0.1402 0.6954 0.7049
vn 0.0047 0.9997 0.0234
vn -0.1355 0.7192 -0.6814
vn -0.1355 -0.7192 -0.6814
vn 0.0047 -0.9997 0.0234
vn 0.1402 -0.6954 0.7049
vn 0.2750 0.6954 0.6640
vn 0.0091 0.9997 0.0221
vn -0.2659 0.7192 -0.6419
vn -0.2659 -0.7192 -0.6419
vn 0.0091 -0.9997 0.0221
vn 0.2750 -0.6954 0.6640
vn 0.3993 0.6954 0.5975
vn 0.0133 0.9997 0.0199
vn -0.3860 0.7192 -0.5777
vn -0.3860 -0.7192 -0.5777
vn 0.0133 -0.9997 0.0199
vn 0.3993 -0.6954 0.5975
vn 0.5082 0.6954 0.5082
vn 0.0169 0.9997 0.0169
vn -0.4913 0.7192 -0.4913
vn -0.4913 -0.7192 -0.4913
vn 0.0169 -0.9997 0.0169
vn 0.5082 -0.6954 0.5082
vn 0.5975 0.6954 0.3993
vn 0.0199 0.9997 0.0133
vn -0.5777 0.7192 -0.3860
vn -0.5777 -0.7192 -0.3860
vn 0.0199 -0.9997 0.0133
vn 0.5975 -0.6954 0.3993
vn 0.6640 0.6954 0.2750
vn 0.0221 0.9997 0.0091
vn -0.6419 0.7192 -0.2659
vn -0.6419 -0.7192 -0.2659
vn 0.0221 -0.9997 0.0091
vn 0.6640 -0.6954 0.2750
vn 0.7049 0.6954 0.1402
vn 0.0234 0.9997 0.0047
vn -0.6814 0.7192 -0.1355
vn -0.6814 -0.7192 -0.1355
vn 0.0234 -0.9997 0.0047
vn 0.7049 -0.6954 0.1402
vt 0.500000 0.500000
vt 0.531250 0.500000
vt 0.531250 0.625000
vt 0.500000 0.625000
vt 0.531250 0.750000
vt 0.500000 0.750000
vt 0.531250 0.875000
vt 0.500000 0.875000
vt 0.531250 1.000000
vt 0.500000 1.000000
vt 0.500000 0.000000
vt 0.531250 0.000000
vt 0.531250 0.125000
vt 0.500000 0.125000
vt 0.531250 0.250000
vt 0.500000 0.250000
vt 0.531250 0.375000
vt 0.500000 0.375000
vt 0.562500 0.500000
vt 0.562500 0.625000
vt 0.562500 0.750000
vt 0.562500 0.875000
vt 0.562500 1.000000
vt 0.562500 0.000000
vt 0.562500 0.125000
vt 0.562500 0.250000
vt 0.562500 0.375000
vt 0.593750 0.500000
vt 0.593750 0.625000
vt 0.593750 0.750000
vt 0.593750 0.875000
vt 0.593750 1.000000
vt 0.593750 0.000000
vt 0.593750 0.125000
vt 0.593750 0.250000
vt 0.593750 0.375000
vt 0.625000 0.500000
vt 0.625000 0.625000
vt 0.625000 0.750000
vt 0.625000 0.875000
vt 0.625000 1.000000
vt 0.625000 0.000000
vt 0.625000 0.125000
vt 0.625000 0.250000
vt 0.625000 0.375000
vt 0.656250 0.500000
vt 0.656250 0.625000
vt 0.656250 0.750000
vt 0.656250 0.875000
vt 0.656250 1.000000
vt 0.656250 0.000000
vt 0.656250 0.125000
vt 0.656250 0.250000
vt 0.656250 0.375000
vt 0.687500 0.500000
vt 0.687500 0.625000
vt 0.687500 0.750000
vt 0.687500 0.875000
vt 0.687500 1.000000
vt 0.687500 0.000000
vt 0.687500 0.125000
vt 0.687500 0.250000
vt 0.687500 0.375000
vt 0.718750 0.500000
vt 0.718750 0.625000
vt 0.718750 0.750000
vt 0.718750 0.875000
vt 0.718750 1.000000
vt 0.718750 0.000000
vt 0.718750 0.125000
vt 0.718750 0.250000
vt 0.718750 0.375000
vt 0.750000 0.500000
vt 0.750000 0.625000
vt 0.750000 0.750000
vt 0.750000 0.875000
vt 0.750000 1.000000
vt 0.750000 0.000000
vt 0.750000 0.125000
vt 0.750000 0.250000
vt 0.750000 0.375000
vt 0.781250 0.500000
vt 0.781250 0.625000
vt 0.781250 0.750000
vt 0.781250 0.875000
vt 0.781250 1.000000
vt 0.781250 0.000000
vt 0.781250 0.125000
vt 0.781250 0.250000
vt 0.781250 0.375000
vt 0.812500 0.500000
vt 0.812500 0.625000
vt 0.812500 0.750000
vt 0.812500 0.875000
vt 0.812500 1.000000
vt 0.812500 0.000000
vt 0.812500 0.125000
vt 0.812500 0.250000
vt 0.812500 0.375000
vt 0.843750 0.500000
vt 0.843750 0.625000
vt 0.843750 0.750000
vt 0.843750 0.875000
vt 0.843750 1.000000
vt 0.843750 0.000000
vt 0.843750 0.125000
vt 0.843750 0.250000
vt 0.843750 0.375000
vt 0.875000 0.500000
vt 0.875000 0.625000
vt 0.875000 0.750000
vt 0.875000 0.875000
vt 0.875000 1.000000
vt 0.875000 0.000000
vt 0.875000 0.125000
vt 0.875000 0.250000
vt 0.875000 0.375000
vt 0.906250 0.500000
vt 0.906250 0.625000
vt 0.906250 0.750000
vt 0.906250 0.875000
vt 0.906250 1.000000
vt 0.906250 0.000000
vt 0.906250 0.125000
vt 0.906250 0.250000
vt 0.906250 0.375000
vt 0.937500 0.500000
vt 0.937500 0.625000
vt 0.937500 0.750000
vt 0.937500 0.875000
vt 0.937500 1.000000
vt 0.937500 0.000000
vt 0.937500 0.125000
vt 0.937500 0.250000
vt 0.937500 0.375000
vt 0.968750 0.500000
vt 0.968750 0.625000
vt 0.968750 0.750000
vt 0.968750 0.875000
vt 0.968750 1.000000
vt 0.968750 0.000000
vt 0.968750 0.125000
vt 0.968750 0.250000
vt 0.968750 0.375000
vt 1.000000 0.500000
vt 1.000000 0.625000
vt 1.000000 0.750000
vt 1.000000 0.875000
vt 1.000000 1.000000
vt 1.000000 0.000000
vt 1.000000 0.125000
vt 1.000000 0.250000
vt 1.000000 0.375000
vt 0.000000 0.500000
vt 0.031250 0.500000
vt 0.031250 0.625000
vt 0.000000 0.625000
vt 0.031250 0.750000
vt 0.000000 0.750000
vt 0.031250 0.875000
vt 0.000000 0.875000
vt 0.031250 1.000000
vt 0.000000 1.000000
vt 0.000000 0.000000
vt 0.031250 0.000000
vt 0.031250 0.125000
vt 0.000000 0.125000
vt 0.031250 0.250000
vt 0.000000 0.250000
vt 0.031250 0.375000
vt 0.000000 0.375000
vt 0.062500 0.500000
vt 0.062500 0.625000
vt 0.062500 0.750000
vt 0.062500 0.875000
vt 0.062500 1.000000
vt 0.062500 0.000000
vt 0.062500 0.125000
vt 0.062500 0.250000
vt 0.062500 0.375000
vt 0.093750 0.500000
vt 0.093750 0.625000
vt 0.093750 0.750000
vt 0.093750 0.875000
vt 0.093750 1.000000
vt 0.093750 0.000000
vt 0.093750 0.125000
vt 0.093750 0.250000
vt 0.093750 0.375000
vt 0.125000 0.500000
vt 0.125000 0.625000
vt 0.125000 0.750000
vt 0.125000 0.875000
vt 0.125000 1.000000
vt 0.125000 0.000000
vt 0.125000 0.125000
vt 0.125000 0.250000
vt 0.125000 0.375000
vt 0.156250 0.500000
vt 0.156250 0.625000
vt 0.156250 0.750000
vt 0.156250 0.875000
vt 0.156250 1.000000
vt 0.156250 0.000000
vt 0.156250 0.125000
vt 0.156250 0.250000
vt 0.156250 0.375000
vt 0.187500 0.500000
vt 0.187500 0.625000
vt 0.187500 0.750000
vt 0.187500 0.875000
vt 0.187500 1.000000
vt 0.187500 0.000000
vt 0.187500 0.125000
vt 0.187500 0.250000
vt 0.187500 0.375000
vt 0.218750 0.500000
vt 0.218750 0.625000
vt 0.218750 0.750000
vt 0.218750 0.875000
vt 0.218750 1.000000
vt 0.218750 0.000000
vt 0.218750 0.125000
vt 0.218750 0.250000
vt 0.218750 0.375000
vt 0.250000 0.500000
vt 0.250000 0.625000
vt 0.250000 0.750000
vt 0.250000 0.875000
vt 0.250000 1.000000
vt 0.250000 0.000000
vt 0.250000 0.125000
vt 0.250000 0.250000
vt 0.250000 0.375000
vt 0.281250 0.500000
vt 0.281250 0.625000
vt 0.281250 0.750000
vt 0.281250 0.875000
vt 0.281250 1.000000
vt 0.281250 0.000000
vt 0.281250 0.125000
vt 0.281250 0.250000
vt 0.281250 0.375000
vt 0.312500 0.500000
vt 0.312500 0.625000
vt 0.312500 0.750000
vt 0.312500 0.875000
vt 0.312500 1.000000
vt 0.312500 0.000000
vt 0.312500 0.125000
vt 0.312500 0.250000
vt 0.312500 0.375000
vt 0.343750 0.500000
vt 0.343750 0.625000
vt 0.343750 0.750000
vt 0.343750 0.875000
vt 0.343750 1.000000
vt 0.343750 0.000000
vt 0.343750 0.125000
vt 0.343750 0.250000
vt 0.343750 0.375000
vt 0.375000 0.500000
vt 0.375000 0.625000
vt 0.375000 0.750000
vt 0.375000 0.875000
vt 0.375000 1.000000
vt 0.375000 0.000000
vt 0.375000 0.125000
vt 0.375000 0.250000
vt 0.375000 0.375000
vt 0.406250 0.500000
vt 0.406250 0.625000
vt 0.406250 0.750000
vt 0.406250 0.875000
vt 0.406250 1.000000
vt 0.406250 0.000000
vt 0.406250 0.125000
vt 0.406250 0.250000
vt 0.406250 0.375000
vt 0.437500 0.500000
vt 0.437500 0.625000
vt 0.437500 0.750000
vt 0.437500 0.875000
vt 0.437500 1.000000
vt 0.437500 0.000000
vt 0.437500 0.125000
vt 0.437500 0.250000
vt 0.437500 0.375000
vt 0.468750 0.500000
vt 0.468750 0.625000
vt 0.468750 0.750000
vt 0.468750 0.875000
vt 0.468750 1.000000
vt 0.468750 0.000000
vt 0.468750 0.125000
vt 0.468750 0.250000
vt 0.468750 0.375000
s 1
usemtl M_Amber_Emission
f 65/131/65 73/132/73 74/133/74 66/134/66
f 66/134/66 74/133/74 75/135/75 67/136/67
f 67/136/67 75/135/75 76/137/76 68/138/68
f 68/138/68 76/137/76 77/139/77 69/140/69
f 69/141/69 77/142/77 78/143/78 70/144/70
f 70/144/70 78/143/78 79/145/79 71/146/71
f 71/146/71 79/145/79 80/147/80 72/148/72
f 72/148/72 80/147/80 73/132/73 65/131/65
f 73/132/73 81/149/81 82/150/82 74/133/74
f 74/133/74 82/150/82 83/151/83 75/135/75
f 75/135/75 83/151/83 84/152/84 76/137/76
f 76/137/76 84/152/84 85/153/85 77/139/77
f 77/142/77 85/154/85 86/155/86 78/143/78
f 78/143/78 86/155/86 87/156/87 79/145/79
f 79/145/79 87/156/87 88/157/88 80/147/80
f 80/147/80 88/157/88 81/149/81 73/132/73
f 81/149/81 89/158/89 90/159/90 82/150/82
f 82/150/82 90/159/90 91/160/91 83/151/83
f 83/151/83 91/160/91 92/161/92 84/152/84
f 84/152/84 92/161/92 93/162/93 85/153/85
f 85/154/85 93/163/93 94/164/94 86/155/86
f 86/155/86 94/164/94 95/165/95 87/156/87
f 87/156/87 95/165/95 96/166/96 88/157/88
f 88/157/88 96/166/96 89/158/89 81/149/81
f 89/158/89 97/167/97 98/168/98 90/159/90
f 90/159/90 98/168/98 99/169/99 91/160/91
f 91/160/91 99/169/99 100/170/100 92/161/92
f 92/161/92 100/170/100 101/171/101 93/162/93
f 93/163/93 101/172/101 102/173/102 94/164/94
f 94/164/94 102/173/102 103/174/103 95/165/95
f 95/165/95 103/174/103 104/175/104 96/166/96
f 96/166/96 104/175/104 97/167/97 89/158/89
f 97/167/97 105/176/105 106/177/106 98/168/98
f 98/168/98 106/177/106 107/178/107 99/169/99
f 99/169/99 107/178/107 108/179/108 100/170/100
f 100/170/100 108/179/108 109/180/109 101/171/101
f 101/172/101 109/181/109 110/182/110 102/173/102
f 102/173/102 110/182/110 111/183/111 103/174/103
f 103/174/103 111/183/111 112/184/112 104/175/104
f 104/175/104 112/184/112 105/176/105 97/167/97
f 105/176/105 113/185/113 114/186/114 106/177/106
f 106/177/106 114/186/114 115/187/115 107/178/107
f 107/178/107 115/187/115 116/188/116 108/179/108
f 108/179/108 116/188/116 117/189/117 109/180/109
f 109/181/109 117/190/117 118/191/118 110/182/110
f 110/182/110 118/191/118 119/192/119 111/183/111
f 111/183/111 119/192/119 120/193/120 112/184/112
f 112/184/112 120/193/120 113/185/113 105/176/105
f 113/185/113 121/194/121 122/195/122 114/186/114
f 114/186/114 122/195/122 123/196/123 115/187/115
f 115/187/115 123/196/123 124/197/124 116/188/116
f 116/188/116 124/197/124 125/198/125 117/189/117
f 117/190/117 125/199/125 126/200/126 118/191/118
f 118/191/118 126/200/126 127/201/127 119/192/119
f 119/192/119 127/201/127 128/202/128 120/193/120
f 120/193/120 128/202/128 121/194/121 113/185/113
f 121/194/121 129/203/129 130/204/130 122/195/122
f 122/195/122 130/204/130 131/205/131 123/196/123
f 123/196/123 131/205/131 132/206/132 124/197/124
f 124/197/124 132/206/132 133/207/133 125/198/125
f 125/199/125 133/208/133 134/209/134 126/200/126
f 126/200/126 134/209/134 135/210/135 127/201/127
f 127/201/127 135/210/135 136/211/136 128/202/128
f 128/202/128 136/211/136 129/203/129 121/194/121
f 129/203/129 137/212/137 138/213/138 130/204/130
f 130/204/130 138/213/138 139/214/139 131/205/131
f 131/205/131 139/214/139 140/215/140 132/206/132
f 132/206/132 140/215/140 141/216/141 133/207/133
f 133/208/133 141/217/141 142/218/142 134/209/134
f 134/209/134 142/218/142 143/219/143 135/210/135
f 135/210/135 143/219/143 144/220/144 136/211/136
f 136/211/136 144/220/144 137/212/137 129/203/129
f 137/212/137 145/221/145 146/222/146 138/213/138
f 138/213/138 146/222/146 147/223/147 139/214/139
f 139/214/139 147/223/147 148/224/148 140/215/140
f 140/215/140 148/224/148 149/225/149 141/216/141
f 141/217/141 149/226/149 150/227/150 142/218/142
f 142/218/142 150/227/150 151/228/151 143/219/143
f 143/219/143 151/228/151 152/229/152 144/220/144
f 144/220/144 152/229/152 145/221/145 137/212/137
f 145/221/145 153/230/153 154/231/154 146/222/146
f 146/222/146 154/231/154 155/232/155 147/223/147
f 147/223/147 155/232/155 156/233/156 148/224/148
f 148/224/148 156/233/156 157/234/157 149/225/149
f 149/226/149 157/235/157 158/236/158 150/227/150
f 150/227/150 158/236/158 159/237/159 151/228/151
f 151/228/151 159/237/159 160/238/160 152/229/152
f 152/229/152 160/238/160 153/230/153 145/221/145
f 153/230/153 161/239/161 162/240/162 154/231/154
f 154/231/154 162/240/162 163/241/163 155/232/155
f 155/232/155 163/241/163 164/242/164 156/233/156
f 156/233/156 164/242/164 165/243/165 157/234/157
f 157/235/157 165/244/165 166/245/166 158/236/158
f 158/236/158 166/245/166 167/246/167 159/237/159
f 159/237/159 167/246/167 168/247/168 160/238/160
f 160/238/160 168/247/168 161/239/161 153/230/153
f 161/239/161 169/248/169 170/249/170 162/240/162
f 162/240/162 170/249/170 171/250/171 163/241/163
f 163/241/163 171/250/171 172/251/172 164/242/164
f 164/242/164 172/251/172 173/252/173 165/243/165
f 165/244/165 173/253/173 174/254/174 166/245/166
f 166/245/166 174/254/174 175/255/175 167/246/167
f 167/246/167 175/255/175 176/256/176 168/247/168
f 168/247/168 176/256/176 169/248/169 161/239/161
f 169/248/169 177/257/177 178/258/178 170/249/170
f 170/249/170 178/258/178 179/259/179 171/250/171
f 171/250/171 179/259/179 180/260/180 172/251/172
f 172/251/172 180/260/180 181/261/181 173/252/173
f 173/253/173 181/262/181 182/263/182 174/254/174
f 174/254/174 182/263/182 183/264/183 175/255/175
f 175/255/175 183/264/183 184/265/184 176/256/176
f 176/256/176 184/265/184 177/257/177 169/248/169
f 177/257/177 185/266/185 186/267/186 178/258/178
f 178/258/178 186/267/186 187/268/187 179/259/179
f 179/259/179 187/268/187 188/269/188 180/260/180
f 180/260/180 188/269/188 189/270/189 181/261/181
f 181/262/181 189/271/189 190/272/190 182/263/182
f 182/263/182 190/272/190 191/273/191 183/264/183
f 183/264/183 191/273/191 192/274/192 184/265/184
f 184/265/184 192/274/192 185/266/185 177/257/177
f 185/266/185 193/275/69 194/276/193 186/267/186
f 186/267/186 194/276/193 195/277/194 187/268/187
f 187/268/187 195/277/194 196/278/195 188/269/188
f 188/269/188 196/278/195 197/279/65 189/270/189
f 189/271/189 197/280/65 198/281/196 190/272/190
f 190/272/190 198/281/196 199/282/197 191/273/191
f 191/273/191 199/282/197 200/283/198 192/274/192
f 192/274/192 200/283/198 193/275/69 185/266/185
f 193/284/69 201/285/77 202/286/199 194/287/193
f 194/287/193 202/286/199 203/288/200 195/289/194
f 195/289/194 203/288/200 204/290/201 196/291/195
f 196/291/195 204/290/201 205/292/73 197/293/65
f 197/294/65 205/295/73 206/296/202 198/297/196
f 198/297/196 206/296/202 207/298/203 199/299/197
f 199/299/197 207/298/203 208/300/204 200/301/198
f 200/301/198 208/300/204 201/285/77 193/284/69
f 201/285/77 209/302/85 210/303/205 202/286/199
f 202/286/199 210/303/205 211/304/206 203/288/200
f 203/288/200 211/304/206 212/305/207 204/290/201
f 204/290/201 212/305/207 213/306/81 205/292/73
f 205/295/73 213/307/81 214/308/208 206/296/202
f 206/296/202 214/308/208 215/309/209 207/298/203
f 207/298/203 215/309/209 216/310/210 208/300/204
f 208/300/204 216/310/210 209/302/85 201/285/77
f 209/302/85 217/311/93 218/312/211 210/303/205
f 210/303/205 218/312/211 219/313/212 211/304/206
f 211/304/206 219/313/212 220/314/213 212/305/207
f 212/305/207 220/314/213 221/315/89 213/306/81
f 213/307/81 221/316/89 222/317/214 214/308/208
f 214/308/208 222/317/214 223/318/215 215/309/209
f 215/309/209 223/318/215 224/319/216 216/310/210
f 216/310/210 224/319/216 217/311/93 209/302/85
f 217/311/93 225/320/101 226/321/217 218/312/211
f 218/312/211 226/321/217 227/322/218 219/313/212
f 219/313/212 227/322/218 228/323/219 220/314/213
f 220/314/213 228/323/219 229/324/97 221/315/89
f 221/316/89 229/325/97 230/326/220 222/317/214
f 222/317/214 230/326/220 231/327/221 223/318/215
f 223/318/215 231/327/221 232/328/222 224/319/216
f 224/319/216 232/328/222 225/320/101 217/311/93
f 225/320/101 233/329/109 234/330/223 226/321/217
f 226/321/217 234/330/223 235/331/224 227/322/218
f 227/322/218 235/331/224 236/332/225 228/323/219
f 228/323/219 236/332/225 237/333/105 229/324/97
f 229/325/97 237/334/105 238/335/226 230/326/220
f 230/326/220 238/335/226 239/336/227 231/327/221
f 231/327/221 239/336/227 240/337/228 232/328/222
f 232/328/222 240/337/228 233/329/109 225/320/101
f 233/329/109 241/338/117 242/339/229 234/330/223
f 234/330/223 242/339/229 243/340/230 235/331/224
f 235/331/224 243/340/230 244/341/231 236/332/225
f 236/332/225 244/341/231 245/342/113 237/333/105
f 237/334/105 245/343/113 246/344/232 238/335/226
f 238/335/226 246/344/232 247/345/233 239/336/227
f 239/336/227 247/345/233 248/346/234 240/337/228
f 240/337/228 248/346/234 241/338/117 233/329/109
f 241/338/117 249/347/125 250/348/235 242/339/229
f 242/339/229 250/348/235 251/349/236 243/340/230
f 243/340/230 251/349/236 252/350/237 244/341/231
f 244/341/231 252/350/237 253/351/121 245/342/113
f 245/343/113 253/352/121 254/353/238 246/344/232
f 246/344/232 254/353/238 255/354/239 247/345/233
f 247/345/233 255/354/239 256/355/240 248/346/234
f 248/346/234 256/355/240 249/347/125 241/338/117
f 249/347/125 257/356/133 258/357/241 250/348/235
f 250/348/235 258/357/241 259/358/242 251/349/236
f 251/349/236 259/358/242 260/359/243 252/350/237
f 252/350/237 260/359/243 261/360/129 253/351/121
f 253/352/121 261/361/129 262/362/244 254/353/238
f 254/353/238 262/362/244 263/363/245 255/354/239
f 255/354/239 263/363/245 264/364/246 256/355/240
f 256/355/240 264/364/246 257/356/133 249/347/125
f 257/356/133 265/365/141 266/366/247 258/357/241
f 258/357/241 266/366/247 267/367/248 259/358/242
f 259/358/242 267/367/248 268/368/249 260/359/243
f 260/359/243 268/368/249 269/369/137 261/360/129
f 261/361/129 269/370/137 270/371/250 262/362/244
f 262/362/244 270/371/250 271/372/251 263/363/245
f 263/363/245 271/372/251 272/373/252 264/364/246
f 264/364/246 272/373/252 265/365/141 257/356/133
f 265/365/141 273/374/149 274/375/253 266/366/247
f 266/366/247 274/375/253 275/376/254 267/367/248
f 267/367/248 275/376/254 276/377/255 268/368/249
f 268/368/249 276/377/255 277/378/145 269/369/137
f 269/370/137 277/379/145 278/380/256 270/371/250
f 270/371/250 278/380/256 279/381/257 271/372/251
f 271/372/251 279/381/257 280/382/258 272/373/252
f 272/373/252 280/382/258 273/374/149 265/365/141
f 273/374/149 281/383/157 282/384/259 274/375/253
f 274/375/253 282/384/259 283/385/260 275/376/254
f 275/376/254 283/385/260 284/386/261 276/377/255
f 276/377/255 284/386/261 285/387/153 277/378/145
f 277/379/145 285/388/153 286/389/262 278/380/256
f 278/380/256 286/389/262 287/390/263 279/381/257
f 279/381/257 287/390/263 288/391/264 280/382/258
f 280/382/258 288/391/264 281/383/157 273/374/149
f 281/383/157 289/392/165 290/393/265 282/384/259
f 282/384/259 290/393/265 291/394/266 283/385/260
f 283/385/260 291/394/266 292/395/267 284/386/261
f 284/386/261 292/395/267 293/396/161 285/387/153
f 285/388/153 293/397/161 294/398/268 286/389/262
f 286/389/262 294/398/268 295/399/269 287/390/263
f 287/390/263 295/399/269 296/400/270 288/391/264
f 288/391/264 296/400/270 289/392/165 281/383/157
f 289/392/165 297/401/173 298/402/271 290/393/265
f 290/393/265 298/402/271 299/403/272 291/394/266
f 291/394/266 299/403/272 300/404/273 292/395/267
f 292/395/267 300/404/273 301/405/169 293/396/161
f 293/397/161 301/406/169 302/407/274 294/398/268
f 294/398/268 302/407/274 303/408/275 295/399/269
f 295/399/269 303/408/275 304/409/276 296/400/270
f 296/400/270 304/409/276 297/401/173 289/392/165
f 297/401/173 305/410/181 306/411/277 298/402/271
f 298/402/271 306/411/277 307/412/278 299/403/272
f 299/403/272 307/412/278 308/413/279 300/404/273
f 300/404/273 308/413/279 309/414/177 301/405/169
f 301/406/169 309/415/177 310/416/280 302/407/274
f 302/407/274 310/416/280 311/417/281 303/408/275
f 303/408/275 311/417/281 312/418/282 304/409/276
f 304/409/276 312/418/282 305/410/181 297/401/173
f 305/410/181 313/419/189 314/420/283 306/411/277
f 306/411/277 314/420/283 315/421/284 307/412/278
f 307/412/278 315/421/284 316/422/285 308/413/279
f 308/413/279 316/422/285 317/423/185 309/414/177
f 309/415/177 317/424/185 318/425/286 310/416/280
f 310/416/280 318/425/286 319/426/287 311/417/281
f 311/417/281 319/426/287 320/427/288 312/418/282
f 312/418/282 320/427/288 313/419/189 305/410/181
f 313/419/189 65/131/65 66/134/66 314/420/283
f 314/420/283 66/134/66 67/136/67 315/421/284
f 315/421/284 67/136/67 68/138/68 316/422/285
f 316/422/285 68/138/68 69/140/69 317/423/185
f 317/424/185 69/141/69 70/144/70 318/425/286
f 318/425/286 70/144/70 71/146/71 319/426/287
f 319/426/287 71/146/71 72/148/72 320/427/288
f 320/427/288 72/148/72 65/131/65 313/419/189
