# Blender 4.5.11 LTS
# www.blender.org
mtllib Workbench.mtl
o Walnut_Top
v -0.882000 0.725000 0.382000
v -0.882000 0.743000 0.400000
v -0.900000 0.743000 0.382000
v -0.882000 0.730272 0.394728
v -0.892392 0.732608 0.392392
v -0.894728 0.743000 0.394728
v -0.894728 0.730272 0.382000
v -0.882000 0.777000 0.400000
v -0.882000 0.795000 0.382000
v -0.900000 0.777000 0.382000
v -0.882000 0.789728 0.394728
v -0.892392 0.787392 0.392392
v -0.894728 0.789728 0.382000
v -0.894728 0.777000 0.394728
v -0.882000 0.725000 -0.382000
v -0.900000 0.743000 -0.382000
v -0.882000 0.743000 -0.400000
v -0.894728 0.730272 -0.382000
v -0.892392 0.732608 -0.392392
v -0.894728 0.743000 -0.394728
v -0.882000 0.730272 -0.394728
v -0.882000 0.795000 -0.382000
v -0.882000 0.777000 -0.400000
v -0.900000 0.777000 -0.382000
v -0.882000 0.789728 -0.394728
v -0.892392 0.787392 -0.392392
v -0.894728 0.777000 -0.394728
v -0.894728 0.789728 -0.382000
v 0.882000 0.725000 0.382000
v 0.900000 0.743000 0.382000
v 0.882000 0.743000 0.400000
v 0.894728 0.730272 0.382000
v 0.892392 0.732608 0.392392
v 0.894728 0.743000 0.394728
v 0.882000 0.730272 0.394728
v 0.882000 0.795000 0.382000
v 0.882000 0.777000 0.400000
v 0.900000 0.777000 0.382000
v 0.882000 0.789728 0.394728
v 0.892392 0.787392 0.392392
v 0.894728 0.777000 0.394728
v 0.894728 0.789728 0.382000
v 0.882000 0.725000 -0.382000
v 0.882000 0.743000 -0.400000
v 0.900000 0.743000 -0.382000
v 0.882000 0.730272 -0.394728
v 0.892392 0.732608 -0.392392
v 0.894728 0.743000 -0.394728
v 0.894728 0.730272 -0.382000
v 0.882000 0.795000 -0.382000
v 0.900000 0.777000 -0.382000
v 0.882000 0.777000 -0.400000
v 0.894728 0.789728 -0.382000
v 0.892392 0.787392 -0.392392
v 0.894728 0.777000 -0.394728
v 0.882000 0.789728 -0.394728
vn -0.3251 -0.8881 0.3251
vn -0.3251 -0.3251 0.8881
vn -0.8881 -0.3251 0.3251
vn -0.3251 0.3251 0.8881
vn -0.3251 0.8881 0.3251
vn -0.8881 0.3251 0.3251
vn -0.3251 -0.8881 -0.3251
vn -0.8881 -0.3251 -0.3251
vn -0.3251 -0.3251 -0.8881
vn -0.3251 0.8881 -0.3251
vn -0.3251 0.3251 -0.8881
vn -0.8881 0.3251 -0.3251
vn 0.3251 -0.8881 0.3251
vn 0.8881 -0.3251 0.3251
vn 0.3251 -0.3251 0.8881
vn 0.3251 0.8881 0.3251
vn 0.3251 0.3251 0.8881
vn 0.8881 0.3251 0.3251
vn 0.3251 -0.8881 -0.3251
vn 0.3251 -0.3251 -0.8881
vn 0.8881 -0.3251 -0.3251
vn 0.3251 0.8881 -0.3251
vn 0.8881 0.3251 -0.3251
vn 0.3251 0.3251 -0.8881
vn -0.3827 -0.9239 -0.0000
vn -0.9239 -0.3827 -0.0000
vn -0.3827 -0.0000 0.9239
vn -0.9239 -0.0000 0.3827
vn -0.3827 0.9239 -0.0000
vn -0.9239 0.3827 -0.0000
vn -0.3827 -0.0000 -0.9239
vn -0.9239 -0.0000 -0.3827
vn -0.0000 -0.9239 -0.3827
vn -0.0000 -0.3827 -0.9239
vn -0.0000 0.9239 -0.3827
vn -0.0000 0.3827 -0.9239
vn 0.9239 -0.0000 -0.3827
vn 0.3827 -0.0000 -0.9239
vn 0.3827 -0.9239 -0.0000
vn 0.9239 -0.3827 -0.0000
vn 0.3827 0.9239 -0.0000
vn 0.9239 0.3827 -0.0000
vn 0.3827 -0.0000 0.9239
vn 0.9239 -0.0000 0.3827
vn -0.0000 -0.9239 0.3827
vn -0.0000 -0.3827 0.9239
vn -0.0000 0.9239 0.3827
vn -0.0000 0.3827 0.9239
vn -0.0000 -1.0000 -0.0000
vn -1.0000 -0.0000 -0.0000
vn -0.0000 -0.0000 1.0000
vn -0.0000 1.0000 -0.0000
vn -0.0000 -0.0000 -1.0000
vn 1.0000 -0.0000 -0.0000
vt 0.127500 0.744375
vt 0.127500 0.750000
vt 0.126057 0.750000
vt 0.125000 0.744375
vt 0.439286 0.997500
vt 0.439286 1.000000
vt 0.402170 1.000000
vt 0.375000 0.997500
vt 0.439286 0.005625
vt 0.375000 0.005625
vt 0.375000 0.002377
vt 0.439286 0.000000
vt 0.560714 0.997500
vt 0.625000 0.997500
vt 0.625000 0.998943
vt 0.560714 1.000000
vt 0.872500 0.744375
vt 0.875000 0.744375
vt 0.875000 0.747623
vt 0.872500 0.750000
vt 0.560714 0.005625
vt 0.560714 0.000000
vt 0.597830 0.000000
vt 0.625000 0.005625
vt 0.127500 0.505625
vt 0.125000 0.505625
vt 0.125000 0.502377
vt 0.127500 0.500000
vt 0.439286 0.244375
vt 0.439286 0.250000
vt 0.388585 0.250528
vt 0.375000 0.244375
vt 0.439286 0.252500
vt 0.375000 0.252500
vt 0.872500 0.505625
vt 0.872500 0.500000
vt 0.873943 0.500000
vt 0.875000 0.505625
vt 0.560714 0.252500
vt 0.560714 0.250000
vt 0.611415 0.248811
vt 0.625000 0.252500
vt 0.560714 0.244375
vt 0.625000 0.244375
vt 0.372500 0.744375
vt 0.375000 0.744375
vt 0.384057 0.749560
vt 0.373750 0.751250
vt 0.439286 0.744375
vt 0.439286 0.750000
vt 0.439286 0.752500
vt 0.627500 0.744375
vt 0.626250 0.751250
vt 0.616295 0.749207
vt 0.625000 0.744375
vt 0.560714 0.752500
vt 0.560714 0.750000
vt 0.560714 0.744375
vt 0.372500 0.505625
vt 0.373750 0.498750
vt 0.383705 0.500792
vt 0.375000 0.505625
vt 0.439286 0.497500
vt 0.439286 0.500000
vt 0.439286 0.505625
vt 0.627500 0.505625
vt 0.625000 0.505625
vt 0.615943 0.500440
vt 0.626250 0.498750
vt 0.560714 0.505625
vt 0.560714 0.500000
vt 0.560714 0.497500
s 0
usemtl M_Dark_Walnut
f 1/1/1 4/2/1 5/3/1 7/4/1
f 2/5/2 6/6/2 5/7/2 4/8/2
f 3/9/3 7/10/3 5/11/3 6/12/3
f 8/13/4 11/14/4 12/15/4 14/16/4
f 9/17/5 13/18/5 12/19/5 11/20/5
f 10/21/6 14/22/6 12/23/6 13/24/6
f 15/25/7 18/26/7 19/27/7 21/28/7
f 16/29/8 20/30/8 19/31/8 18/32/8
f 17/33/9 21/34/9 19/31/9 20/30/9
f 22/35/10 25/36/10 26/37/10 28/38/10
f 23/39/11 27/40/11 26/41/11 25/42/11
f 24/43/12 28/44/12 26/41/12 27/40/12
f 29/45/13 32/46/13 33/47/13 35/48/13
f 30/49/14 34/50/14 33/47/14 32/46/14
f 31/51/15 35/48/15 33/47/15 34/50/15
f 36/52/16 39/53/16 40/54/16 42/55/16
f 37/56/17 41/57/17 40/54/17 39/53/17
f 38/58/18 42/55/18 40/54/18 41/57/18
f 43/59/19 46/60/19 47/61/19 49/62/19
f 44/63/20 48/64/20 47/61/20 46/60/20
f 45/65/21 49/62/21 47/61/21 48/64/21
f 50/66/22 53/67/22 54/68/22 56/69/22
f 51/70/23 55/71/23 54/68/23 53/67/23
f 52/72/24 56/69/24 54/68/24 55/71/24
f 15/25/25 1/1/25 7/4/25 18/26/25
f 18/32/26 7/10/26 3/9/26 16/29/26
f 2/5/27 8/13/27 14/16/27 6/6/27
f 6/12/28 14/22/28 10/21/28 3/9/28
f 9/17/29 22/35/29 28/38/29 13/18/29
f 13/24/30 28/44/30 24/43/30 10/21/30
f 23/39/31 17/33/31 20/30/31 27/40/31
f 27/40/32 20/30/32 16/29/32 24/43/32
f 43/59/33 15/25/33 21/28/33 46/60/33
f 46/60/34 21/34/34 17/33/34 44/63/34
f 22/35/35 50/66/35 56/69/35 25/36/35
f 25/42/36 56/69/36 52/72/36 23/39/36
f 51/70/37 45/65/37 48/64/37 55/71/37
f 55/71/38 48/64/38 44/63/38 52/72/38
f 29/45/39 43/59/39 49/62/39 32/46/39
f 32/46/40 49/62/40 45/65/40 30/49/40
f 50/66/41 36/52/41 42/55/41 53/67/41
f 53/67/42 42/55/42 38/58/42 51/70/42
f 37/56/43 31/51/43 34/50/43 41/57/43
f 41/57/44 34/50/44 30/49/44 38/58/44
f 1/1/45 29/45/45 35/48/45 4/2/45
f 4/8/46 35/48/46 31/51/46 2/5/46
f 36/52/47 9/17/47 11/20/47 39/53/47
f 39/53/48 11/14/48 8/13/48 37/56/48
f 15/25/49 43/59/49 29/45/49 1/1/49
f 3/9/50 10/21/50 24/43/50 16/29/50
f 31/51/51 37/56/51 8/13/51 2/5/51
f 50/66/52 22/35/52 9/17/52 36/52/52
f 17/33/53 23/39/53 52/72/53 44/63/53
f 45/65/54 51/70/54 38/58/54 30/49/54
o Steel_Leg
v -0.842000 0.000000 0.342000
v -0.842000 0.008000 0.350000
v -0.850000 0.008000 0.342000
v -0.842000 0.002343 0.347657
v -0.846619 0.003381 0.346619
v -0.847657 0.008000 0.347657
v -0.847657 0.002343 0.342000
v -0.842000 0.732000 0.350000
v -0.842000 0.740000 0.342000
v -0.850000 0.732000 0.342000
v -0.842000 0.737657 0.347657
v -0.846619 0.736619 0.346619
v -0.847657 0.737657 0.342000
v -0.847657 0.732000 0.347657
v -0.842000 0.000000 0.298000
v -0.850000 0.008000 0.298000
v -0.842000 0.008000 0.290000
v -0.847657 0.002343 0.298000
v -0.846619 0.003381 0.293381
v -0.847657 0.008000 0.292343
v -0.842000 0.002343 0.292343
v -0.842000 0.740000 0.298000
v -0.842000 0.732000 0.290000
v -0.850000 0.732000 0.298000
v -0.842000 0.737657 0.292343
v -0.846619 0.736619 0.293381
v -0.847657 0.732000 0.292343
v -0.847657 0.737657 0.298000
v -0.798000 0.000000 0.342000
v -0.790000 0.008000 0.342000
v -0.798000 0.008000 0.350000
v -0.792343 0.002343 0.342000
v -0.793381 0.003381 0.346619
v -0.792343 0.008000 0.347657
v -0.798000 0.002343 0.347657
v -0.798000 0.740000 0.342000
v -0.798000 0.732000 0.350000
v -0.790000 0.732000 0.342000
v -0.798000 0.737657 0.347657
v -0.793381 0.736619 0.346619
v -0.792343 0.732000 0.347657
v -0.792343 0.737657 0.342000
v -0.798000 0.000000 0.298000
v -0.798000 0.008000 0.290000
v -0.790000 0.008000 0.298000
v -0.798000 0.002343 0.292343
v -0.793381 0.003381 0.293381
v -0.792343 0.008000 0.292343
v -0.792343 0.002343 0.298000
v -0.798000 0.740000 0.298000
v -0.790000 0.732000 0.298000
v -0.798000 0.732000 0.290000
v -0.792343 0.737657 0.298000
v -0.793381 0.736619 0.293381
v -0.792343 0.732000 0.292343
v -0.798000 0.737657 0.292343
vn -0.3251 -0.8881 0.3251
vn -0.3251 -0.3251 0.8881
vn -0.8881 -0.3251 0.3251
vn -0.3251 0.3251 0.8881
vn -0.3251 0.8881 0.3251
vn -0.8881 0.3251 0.3251
vn -0.3251 -0.8881 -0.3251
vn -0.8881 -0.3251 -0.3251
vn -0.3251 -0.3251 -0.8881
vn -0.3251 0.8881 -0.3251
vn -0.3251 0.3251 -0.8881
vn -0.8881 0.3251 -0.3251
vn 0.3251 -0.8881 0.3251
vn 0.8881 -0.3251 0.3251
vn 0.3251 -0.3251 0.8881
vn 0.3251 0.8881 0.3251
vn 0.3251 0.3251 0.8881
vn 0.8881 0.3251 0.3251
vn 0.3251 -0.8881 -0.3251
vn 0.3251 -0.3251 -0.8881
vn 0.8881 -0.3251 -0.3251
vn 0.3251 0.8881 -0.3251
vn 0.8881 0.3251 -0.3251
vn 0.3251 0.3251 -0.8881
vn -0.3827 -0.9239 -0.0000
vn -0.9239 -0.3827 -0.0000
vn -0.3827 -0.0000 0.9239
vn -0.9239 -0.0000 0.3827
vn -0.3827 0.9239 -0.0000
vn -0.9239 0.3827 -0.0000
vn -0.3827 -0.0000 -0.9239
vn -0.9239 -0.0000 -0.3827
vn -0.0000 -0.9239 -0.3827
vn -0.0000 -0.3827 -0.9239
vn -0.0000 0.9239 -0.3827
vn -0.0000 0.3827 -0.9239
vn 0.9239 -0.0000 -0.3827
vn 0.3827 -0.0000 -0.9239
vn 0.3827 -0.9239 -0.0000
vn 0.9239 -0.3827 -0.0000
vn 0.3827 0.9239 -0.0000
vn 0.9239 0.3827 -0.0000
vn 0.3827 -0.0000 0.9239
vn 0.9239 -0.0000 0.3827
vn -0.0000 -0.9239 0.3827
vn -0.0000 -0.3827 0.9239
vn -0.0000 0.9239 0.3827
vn -0.0000 0.3827 0.9239
vn -0.0000 -1.0000 -0.0000
vn -1.0000 -0.0000 -0.0000
vn -0.0000 -0.0000 1.0000
vn -0.0000 1.0000 -0.0000
vn -0.0000 -0.0000 -1.0000
vn 1.0000 -0.0000 -0.0000
vt 0.158333 0.716667
vt 0.158333 0.750000
vt 0.139088 0.750000
vt 0.125000 0.716667
vt 0.377703 0.966667
vt 0.377703 1.000000
vt 0.376142 1.000000
vt 0.375000 0.966667
vt 0.377703 0.033333
vt 0.375000 0.033333
vt 0.375000 0.014088
vt 0.377703 0.000000
vt 0.622297 0.966667
vt 0.625000 0.966667
vt 0.625000 0.985912
vt 0.622297 1.000000
vt 0.841667 0.716667
vt 0.875000 0.716667
vt 0.875000 0.735912
vt 0.841667 0.750000
vt 0.622297 0.033333
vt 0.622297 0.000000
vt 0.623858 0.000000
vt 0.625000 0.033333
vt 0.158333 0.533333
vt 0.125000 0.533333
vt 0.125000 0.514088
vt 0.158333 0.500000
vt 0.377703 0.216667
vt 0.377703 0.250000
vt 0.375571 0.257044
vt 0.375000 0.216667
vt 0.377703 0.283333
vt 0.375000 0.283333
vt 0.841667 0.533333
vt 0.841667 0.500000
vt 0.860912 0.500000
vt 0.875000 0.533333
vt 0.622297 0.283333
vt 0.622297 0.250000
vt 0.624429 0.242956
vt 0.625000 0.283333
vt 0.622297 0.216667
vt 0.625000 0.216667
vt 0.341667 0.716667
vt 0.375000 0.716667
vt 0.375381 0.750000
vt 0.358333 0.766667
vt 0.377703 0.716667
vt 0.377703 0.750000
vt 0.377703 0.783333
vt 0.658333 0.716667
vt 0.641667 0.766667
vt 0.629315 0.745304
vt 0.625000 0.716667
vt 0.622297 0.783333
vt 0.622297 0.750000
vt 0.622297 0.716667
vt 0.341667 0.533333
vt 0.358333 0.483333
vt 0.370685 0.504696
vt 0.375000 0.533333
vt 0.377703 0.466667
vt 0.377703 0.500000
vt 0.377703 0.533333
vt 0.658333 0.533333
vt 0.625000 0.533333
vt 0.624619 0.500000
vt 0.641667 0.483333
vt 0.622297 0.533333
vt 0.622297 0.500000
vt 0.622297 0.466667
s 0
usemtl M_Graphite
f 57/73/55 60/74/55 61/75/55 63/76/55
f 58/77/56 62/78/56 61/79/56 60/80/56
f 59/81/57 63/82/57 61/83/57 62/84/57
f 64/85/58 67/86/58 68/87/58 70/88/58
f 65/89/59 69/90/59 68/91/59 67/92/59
f 66/93/60 70/94/60 68/95/60 69/96/60
f 71/97/61 74/98/61 75/99/61 77/100/61
f 72/101/62 76/102/62 75/103/62 74/104/62
f 73/105/63 77/106/63 75/103/63 76/102/63
f 78/107/64 81/108/64 82/109/64 84/110/64
f 79/111/65 83/112/65 82/113/65 81/114/65
f 80/115/66 84/116/66 82/113/66 83/112/66
f 85/117/67 88/118/67 89/119/67 91/120/67
f 86/121/68 90/122/68 89/119/68 88/118/68
f 87/123/69 91/120/69 89/119/69 90/122/69
f 92/124/70 95/125/70 96/126/70 98/127/70
f 93/128/71 97/129/71 96/126/71 95/125/71
f 94/130/72 98/127/72 96/126/72 97/129/72
f 99/131/73 102/132/73 103/133/73 105/134/73
f 100/135/74 104/136/74 103/133/74 102/132/74
f 101/137/75 105/134/75 103/133/75 104/136/75
f 106/138/76 109/139/76 110/140/76 112/141/76
f 107/142/77 111/143/77 110/140/77 109/139/77
f 108/144/78 112/141/78 110/140/78 111/143/78
f 71/97/79 57/73/79 63/76/79 74/98/79
f 74/104/80 63/82/80 59/81/80 72/101/80
f 58/77/81 64/85/81 70/88/81 62/78/81
f 62/84/82 70/94/82 66/93/82 59/81/82
f 65/89/83 78/107/83 84/110/83 69/90/83
f 69/96/84 84/116/84 80/115/84 66/93/84
f 79/111/85 73/105/85 76/102/85 83/112/85
f 83/112/86 76/102/86 72/101/86 80/115/86
f 99/131/87 71/97/87 77/100/87 102/132/87
f 102/132/88 77/106/88 73/105/88 100/135/88
f 78/107/89 106/138/89 112/141/89 81/108/89
f 81/114/90 112/141/90 108/144/90 79/111/90
f 107/142/91 101/137/91 104/136/91 111/143/91
f 111/143/92 104/136/92 100/135/92 108/144/92
f 85/117/93 99/131/93 105/134/93 88/118/93
f 88/118/94 105/134/94 101/137/94 86/121/94
f 106/138/95 92/124/95 98/127/95 109/139/95
f 109/139/96 98/127/96 94/130/96 107/142/96
f 93/128/97 87/123/97 90/122/97 97/129/97
f 97/129/98 90/122/98 86/121/98 94/130/98
f 57/73/99 85/117/99 91/120/99 60/74/99
f 60/80/100 91/120/100 87/123/100 58/77/100
f 92/124/101 65/89/101 67/92/101 95/125/101
f 95/125/102 67/86/102 64/85/102 93/128/102
f 71/97/103 99/131/103 85/117/103 57/73/103
f 59/81/104 66/93/104 80/115/104 72/101/104
f 87/123/105 93/128/105 64/85/105 58/77/105
f 106/138/106 78/107/106 65/89/106 92/124/106
f 73/105/107 79/111/107 108/144/107 100/135/107
f 101/137/108 107/142/108 94/130/108 86/121/108
o Steel_Leg.001
v -0.842000 0.000000 -0.298000
v -0.842000 0.008000 -0.290000
v -0.850000 0.008000 -0.298000
v -0.842000 0.002343 -0.292343
v -0.846619 0.003381 -0.293381
v -0.847657 0.008000 -0.292343
v -0.847657 0.002343 -0.298000
v -0.842000 0.732000 -0.290000
v -0.842000 0.740000 -0.298000
v -0.850000 0.732000 -0.298000
v -0.842000 0.737657 -0.292343
v -0.846619 0.736619 -0.293381
v -0.847657 0.737657 -0.298000
v -0.847657 0.732000 -0.292343
v -0.842000 0.000000 -0.342000
v -0.850000 0.008000 -0.342000
v -0.842000 0.008000 -0.350000
v -0.847657 0.002343 -0.342000
v -0.846619 0.003381 -0.346619
v -0.847657 0.008000 -0.347657
v -0.842000 0.002343 -0.347657
v -0.842000 0.740000 -0.342000
v -0.842000 0.732000 -0.350000
v -0.850000 0.732000 -0.342000
v -0.842000 0.737657 -0.347657
v -0.846619 0.736619 -0.346619
v -0.847657 0.732000 -0.347657
v -0.847657 0.737657 -0.342000
v -0.798000 0.000000 -0.298000
v -0.790000 0.008000 -0.298000
v -0.798000 0.008000 -0.290000
v -0.792343 0.002343 -0.298000
v -0.793381 0.003381 -0.293381
v -0.792343 0.008000 -0.292343
v -0.798000 0.002343 -0.292343
v -0.798000 0.740000 -0.298000
v -0.798000 0.732000 -0.290000
v -0.790000 0.732000 -0.298000
v -0.798000 0.737657 -0.292343
v -0.793381 0.736619 -0.293381
v -0.792343 0.732000 -0.292343
v -0.792343 0.737657 -0.298000
v -0.798000 0.000000 -0.342000
v -0.798000 0.008000 -0.350000
v -0.790000 0.008000 -0.342000
v -0.798000 0.002343 -0.347657
v -0.793381 0.003381 -0.346619
v -0.792343 0.008000 -0.347657
v -0.792343 0.002343 -0.342000
v -0.798000 0.740000 -0.342000
v -0.790000 0.732000 -0.342000
v -0.798000 0.732000 -0.350000
v -0.792343 0.737657 -0.342000
v -0.793381 0.736619 -0.346619
v -0.792343 0.732000 -0.347657
v -0.798000 0.737657 -0.347657
vn -0.3251 -0.8881 0.3251
vn -0.3251 -0.3251 0.8881
vn -0.8881 -0.3251 0.3251
vn -0.3251 0.3251 0.8881
vn -0.3251 0.8881 0.3251
vn -0.8881 0.3251 0.3251
vn -0.3251 -0.8881 -0.3251
vn -0.8881 -0.3251 -0.3251
vn -0.3251 -0.3251 -0.8881
vn -0.3251 0.8881 -0.3251
vn -0.3251 0.3251 -0.8881
vn -0.8881 0.3251 -0.3251
vn 0.3251 -0.8881 0.3251
vn 0.8881 -0.3251 0.3251
vn 0.3251 -0.3251 0.8881
vn 0.3251 0.8881 0.3251
vn 0.3251 0.3251 0.8881
vn 0.8881 0.3251 0.3251
vn 0.3251 -0.8881 -0.3251
vn 0.3251 -0.3251 -0.8881
vn 0.8881 -0.3251 -0.3251
vn 0.3251 0.8881 -0.3251
vn 0.8881 0.3251 -0.3251
vn 0.3251 0.3251 -0.8881
vn -0.3827 -0.9239 -0.0000
vn -0.9239 -0.3827 -0.0000
vn -0.3827 -0.0000 0.9239
vn -0.9239 -0.0000 0.3827
vn -0.3827 0.9239 -0.0000
vn -0.9239 0.3827 -0.0000
vn -0.3827 -0.0000 -0.9239
vn -0.9239 -0.0000 -0.3827
vn -0.0000 -0.9239 -0.3827
vn -0.0000 -0.3827 -0.9239
vn -0.0000 0.9239 -0.3827
vn -0.0000 0.3827 -0.9239
vn 0.9239 -0.0000 -0.3827
vn 0.3827 -0.0000 -0.9239
vn 0.3827 -0.9239 -0.0000
vn 0.9239 -0.3827 -0.0000
vn 0.3827 0.9239 -0.0000
vn 0.9239 0.3827 -0.0000
vn 0.3827 -0.0000 0.9239
vn 0.9239 -0.0000 0.3827
vn -0.0000 -0.9239 0.3827
vn -0.0000 -0.3827 0.9239
vn -0.0000 0.9239 0.3827
vn -0.0000 0.3827 0.9239
vn -0.0000 -1.0000 -0.0000
vn -1.0000 -0.0000 -0.0000
vn -0.0000 -0.0000 1.0000
vn -0.0000 1.0000 -0.0000
vn -0.0000 -0.0000 -1.0000
vn 1.0000 -0.0000 -0.0000
vt 0.158333 0.716667
vt 0.158333 0.750000
vt 0.139088 0.750000
vt 0.125000 0.716667
vt 0.377703 0.966667
vt 0.377703 1.000000
vt 0.376142 1.000000
vt 0.375000 0.966667
vt 0.377703 0.033333
vt 0.375000 0.033333
vt 0.375000 0.014088
vt 0.377703 0.000000
vt 0.622297 0.966667
vt 0.625000 0.966667
vt 0.625000 0.985912
vt 0.622297 1.000000
vt 0.841667 0.716667
vt 0.875000 0.716667
vt 0.875000 0.735912
vt 0.841667 0.750000
vt 0.622297 0.033333
vt 0.622297 0.000000
vt 0.623858 0.000000
vt 0.625000 0.033333
vt 0.158333 0.533333
vt 0.125000 0.533333
vt 0.125000 0.514088
vt 0.158333 0.500000
vt 0.377703 0.216667
vt 0.377703 0.250000
vt 0.375571 0.257044
vt 0.375000 0.216667
vt 0.377703 0.283333
vt 0.375000 0.283333
vt 0.841667 0.533333
vt 0.841667 0.500000
vt 0.860912 0.500000
vt 0.875000 0.533333
vt 0.622297 0.283333
vt 0.622297 0.250000
vt 0.624429 0.242956
vt 0.625000 0.283333
vt 0.622297 0.216667
vt 0.625000 0.216667
vt 0.341667 0.716667
vt 0.375000 0.716667
vt 0.375381 0.750000
vt 0.358333 0.766667
vt 0.377703 0.716667
vt 0.377703 0.750000
vt 0.377703 0.783333
vt 0.658333 0.716667
vt 0.641667 0.766667
vt 0.629315 0.745304
vt 0.625000 0.716667
vt 0.622297 0.783333
vt 0.622297 0.750000
vt 0.622297 0.716667
vt 0.341667 0.533333
vt 0.358333 0.483333
vt 0.370685 0.504696
vt 0.375000 0.533333
vt 0.377703 0.466667
vt 0.377703 0.500000
vt 0.377703 0.533333
vt 0.658333 0.533333
vt 0.625000 0.533333
vt 0.624619 0.500000
vt 0.641667 0.483333
vt 0.622297 0.533333
vt 0.622297 0.500000
vt 0.622297 0.466667
s 0
usemtl M_Graphite
f 113/145/109 116/146/109 117/147/109 119/148/109
f 114/149/110 118/150/110 117/151/110 116/152/110
f 115/153/111 119/154/111 117/155/111 118/156/111
f 120/157/112 123/158/112 124/159/112 126/160/112
f 121/161/113 125/162/113 124/163/113 123/164/113
f 122/165/114 126/166/114 124/167/114 125/168/114
f 127/169/115 130/170/115 131/171/115 133/172/115
f 128/173/116 132/174/116 131/175/116 130/176/116
f 129/177/117 133/178/117 131/175/117 132/174/117
f 134/179/118 137/180/118 138/181/118 140/182/118
f 135/183/119 139/184/119 138/185/119 137/186/119
f 136/187/120 140/188/120 138/185/120 139/184/120
f 141/189/121 144/190/121 145/191/121 147/192/121
f 142/193/122 146/194/122 145/191/122 144/190/122
f 143/195/123 147/192/123 145/191/123 146/194/123
f 148/196/124 151/197/124 152/198/124 154/199/124
f 149/200/125 153/201/125 152/198/125 151/197/125
f 150/202/126 154/199/126 152/198/126 153/201/126
f 155/203/127 158/204/127 159/205/127 161/206/127
f 156/207/128 160/208/128 159/205/128 158/204/128
f 157/209/129 161/206/129 159/205/129 160/208/129
f 162/210/130 165/211/130 166/212/130 168/213/130
f 163/214/131 167/215/131 166/212/131 165/211/131
f 164/216/132 168/213/132 166/212/132 167/215/132
f 127/169/133 113/145/133 119/148/133 130/170/133
f 130/176/134 119/154/134 115/153/134 128/173/134
f 114/149/135 120/157/135 126/160/135 118/150/135
f 118/156/136 126/166/136 122/165/136 115/153/136
f 121/161/137 134/179/137 140/182/137 125/162/137
f 125/168/138 140/188/138 136/187/138 122/165/138
f 135/183/139 129/177/139 132/174/139 139/184/139
f 139/184/140 132/174/140 128/173/140 136/187/140
f 155/203/141 127/169/141 133/172/141 158/204/141
f 158/204/142 133/178/142 129/177/142 156/207/142
f 134/179/143 162/210/143 168/213/143 137/180/143
f 137/186/144 168/213/144 164/216/144 135/183/144
f 163/214/145 157/209/145 160/208/145 167/215/145
f 167/215/146 160/208/146 156/207/146 164/216/146
f 141/189/147 155/203/147 161/206/147 144/190/147
f 144/190/148 161/206/148 157/209/148 142/193/148
f 162/210/149 148/196/149 154/199/149 165/211/149
f 165/211/150 154/199/150 150/202/150 163/214/150
f 149/200/151 143/195/151 146/194/151 153/201/151
f 153/201/152 146/194/152 142/193/152 150/202/152
f 113/145/153 141/189/153 147/192/153 116/146/153
f 116/152/154 147/192/154 143/195/154 114/149/154
f 148/196/155 121/161/155 123/164/155 151/197/155
f 151/197/156 123/158/156 120/157/156 149/200/156
f 127/169/157 155/203/157 141/189/157 113/145/157
f 115/153/158 122/165/158 136/187/158 128/173/158
f 143/195/159 149/200/159 120/157/159 114/149/159
f 162/210/160 134/179/160 121/161/160 148/196/160
f 129/177/161 135/183/161 164/216/161 156/207/161
f 157/209/162 163/214/162 150/202/162 142/193/162
o Steel_Leg.002
v 0.798000 0.000000 0.342000
v 0.798000 0.008000 0.350000
v 0.790000 0.008000 0.342000
v 0.798000 0.002343 0.347657
v 0.793381 0.003381 0.346619
v 0.792343 0.008000 0.347657
v 0.792343 0.002343 0.342000
v 0.798000 0.732000 0.350000
v 0.798000 0.740000 0.342000
v 0.790000 0.732000 0.342000
v 0.798000 0.737657 0.347657
v 0.793381 0.736619 0.346619
v 0.792343 0.737657 0.342000
v 0.792343 0.732000 0.347657
v 0.798000 0.000000 0.298000
v 0.790000 0.008000 0.298000
v 0.798000 0.008000 0.290000
v 0.792343 0.002343 0.298000
v 0.793381 0.003381 0.293381
v 0.792343 0.008000 0.292343
v 0.798000 0.002343 0.292343
v 0.798000 0.740000 0.298000
v 0.798000 0.732000 0.290000
v 0.790000 0.732000 0.298000
v 0.798000 0.737657 0.292343
v 0.793381 0.736619 0.293381
v 0.792343 0.732000 0.292343
v 0.792343 0.737657 0.298000
v 0.842000 0.000000 0.342000
v 0.850000 0.008000 0.342000
v 0.842000 0.008000 0.350000
v 0.847657 0.002343 0.342000
v 0.846619 0.003381 0.346619
v 0.847657 0.008000 0.347657
v 0.842000 0.002343 0.347657
v 0.842000 0.740000 0.342000
v 0.842000 0.732000 0.350000
v 0.850000 0.732000 0.342000
v 0.842000 0.737657 0.347657
v 0.846619 0.736619 0.346619
v 0.847657 0.732000 0.347657
v 0.847657 0.737657 0.342000
v 0.842000 0.000000 0.298000
v 0.842000 0.008000 0.290000
v 0.850000 0.008000 0.298000
v 0.842000 0.002343 0.292343
v 0.846619 0.003381 0.293381
v 0.847657 0.008000 0.292343
v 0.847657 0.002343 0.298000
v 0.842000 0.740000 0.298000
v 0.850000 0.732000 0.298000
v 0.842000 0.732000 0.290000
v 0.847657 0.737657 0.298000
v 0.846619 0.736619 0.293381
v 0.847657 0.732000 0.292343
v 0.842000 0.737657 0.292343
vn -0.3251 -0.8881 0.3251
vn -0.3251 -0.3251 0.8881
vn -0.8881 -0.3251 0.3251
vn -0.3251 0.3251 0.8881
vn -0.3251 0.8881 0.3251
vn -0.8881 0.3251 0.3251
vn -0.3251 -0.8881 -0.3251
vn -0.8881 -0.3251 -0.3251
vn -0.3251 -0.3251 -0.8881
vn -0.3251 0.8881 -0.3251
vn -0.3251 0.3251 -0.8881
vn -0.8881 0.3251 -0.3251
vn 0.3251 -0.8881 0.3251
vn 0.8881 -0.3251 0.3251
vn 0.3251 -0.3251 0.8881
vn 0.3251 0.8881 0.3251
vn 0.3251 0.3251 0.8881
vn 0.8881 0.3251 0.3251
vn 0.3251 -0.8881 -0.3251
vn 0.3251 -0.3251 -0.8881
vn 0.8881 -0.3251 -0.3251
vn 0.3251 0.8881 -0.3251
vn 0.8881 0.3251 -0.3251
vn 0.3251 0.3251 -0.8881
vn -0.3827 -0.9239 -0.0000
vn -0.9239 -0.3827 -0.0000
vn -0.3827 -0.0000 0.9239
vn -0.9239 -0.0000 0.3827
vn -0.3827 0.9239 -0.0000
vn -0.9239 0.3827 -0.0000
vn -0.3827 -0.0000 -0.9239
vn -0.9239 -0.0000 -0.3827
vn -0.0000 -0.9239 -0.3827
vn -0.0000 -0.3827 -0.9239
vn -0.0000 0.9239 -0.3827
vn -0.0000 0.3827 -0.9239
vn 0.9239 -0.0000 -0.3827
vn 0.3827 -0.0000 -0.9239
vn 0.3827 -0.9239 -0.0000
vn 0.9239 -0.3827 -0.0000
vn 0.3827 0.9239 -0.0000
vn 0.9239 0.3827 -0.0000
vn 0.3827 -0.0000 0.9239
vn 0.9239 -0.0000 0.3827
vn -0.0000 -0.9239 0.3827
vn -0.0000 -0.3827 0.9239
vn -0.0000 0.9239 0.3827
vn -0.0000 0.3827 0.9239
vn -0.0000 -1.0000 -0.0000
vn -1.0000 -0.0000 -0.0000
vn -0.0000 -0.0000 1.0000
vn -0.0000 1.0000 -0.0000
vn -0.0000 -0.0000 -1.0000
vn 1.0000 -0.0000 -0.0000
vt 0.158333 0.716667
vt 0.158333 0.750000
vt 0.139088 0.750000
vt 0.125000 0.716667
vt 0.377703 0.966667
vt 0.377703 1.000000
vt 0.376142 1.000000
vt 0.375000 0.966667
vt 0.377703 0.033333
vt 0.375000 0.033333
vt 0.375000 0.014088
vt 0.377703 0.000000
vt 0.622297 0.966667
vt 0.625000 0.966667
vt 0.625000 0.985912
vt 0.622297 1.000000
vt 0.841667 0.716667
vt 0.875000 0.716667
vt 0.875000 0.735912
vt 0.841667 0.750000
vt 0.622297 0.033333
vt 0.622297 0.000000
vt 0.623858 0.000000
vt 0.625000 0.033333
vt 0.158333 0.533333
vt 0.125000 0.533333
vt 0.125000 0.514088
vt 0.158333 0.500000
vt 0.377703 0.216667
vt 0.377703 0.250000
vt 0.375571 0.257044
vt 0.375000 0.216667
vt 0.377703 0.283333
vt 0.375000 0.283333
vt 0.841667 0.533333
vt 0.841667 0.500000
vt 0.860912 0.500000
vt 0.875000 0.533333
vt 0.622297 0.283333
vt 0.622297 0.250000
vt 0.624429 0.242956
vt 0.625000 0.283333
vt 0.622297 0.216667
vt 0.625000 0.216667
vt 0.341667 0.716667
vt 0.375000 0.716667
vt 0.375381 0.750000
vt 0.358333 0.766667
vt 0.377703 0.716667
vt 0.377703 0.750000
vt 0.377703 0.783333
vt 0.658333 0.716667
vt 0.641667 0.766667
vt 0.629315 0.745304
vt 0.625000 0.716667
vt 0.622297 0.783333
vt 0.622297 0.750000
vt 0.622297 0.716667
vt 0.341667 0.533333
vt 0.358333 0.483333
vt 0.370685 0.504696
vt 0.375000 0.533333
vt 0.377703 0.466667
vt 0.377703 0.500000
vt 0.377703 0.533333
vt 0.658333 0.533333
vt 0.625000 0.533333
vt 0.624619 0.500000
vt 0.641667 0.483333
vt 0.622297 0.533333
vt 0.622297 0.500000
vt 0.622297 0.466667
s 0
usemtl M_Graphite
f 169/217/163 172/218/163 173/219/163 175/220/163
f 170/221/164 174/222/164 173/223/164 172/224/164
f 171/225/165 175/226/165 173/227/165 174/228/165
f 176/229/166 179/230/166 180/231/166 182/232/166
f 177/233/167 181/234/167 180/235/167 179/236/167
f 178/237/168 182/238/168 180/239/168 181/240/168
f 183/241/169 186/242/169 187/243/169 189/244/169
f 184/245/170 188/246/170 187/247/170 186/248/170
f 185/249/171 189/250/171 187/247/171 188/246/171
f 190/251/172 193/252/172 194/253/172 196/254/172
f 191/255/173 195/256/173 194/257/173 193/258/173
f 192/259/174 196/260/174 194/257/174 195/256/174
f 197/261/175 200/262/175 201/263/175 203/264/175
f 198/265/176 202/266/176 201/263/176 200/262/176
f 199/267/177 203/264/177 201/263/177 202/266/177
f 204/268/178 207/269/178 208/270/178 210/271/178
f 205/272/179 209/273/179 208/270/179 207/269/179
f 206/274/180 210/271/180 208/270/180 209/273/180
f 211/275/181 214/276/181 215/277/181 217/278/181
f 212/279/182 216/280/182 215/277/182 214/276/182
f 213/281/183 217/278/183 215/277/183 216/280/183
f 218/282/184 221/283/184 222/284/184 224/285/184
f 219/286/185 223/287/185 222/284/185 221/283/185
f 220/288/186 224/285/186 222/284/186 223/287/186
f 183/241/187 169/217/187 175/220/187 186/242/187
f 186/248/188 175/226/188 171/225/188 184/245/188
f 170/221/189 176/229/189 182/232/189 174/222/189
f 174/228/190 182/238/190 178/237/190 171/225/190
f 177/233/191 190/251/191 196/254/191 181/234/191
f 181/240/192 196/260/192 192/259/192 178/237/192
f 191/255/193 185/249/193 188/246/193 195/256/193
f 195/256/194 188/246/194 184/245/194 192/259/194
f 211/275/195 183/241/195 189/244/195 214/276/195
f 214/276/196 189/250/196 185/249/196 212/279/196
f 190/251/197 218/282/197 224/285/197 193/252/197
f 193/258/198 224/285/198 220/288/198 191/255/198
f 219/286/199 213/281/199 216/280/199 223/287/199
f 223/287/200 216/280/200 212/279/200 220/288/200
f 197/261/201 211/275/201 217/278/201 200/262/201
f 200/262/202 217/278/202 213/281/202 198/265/202
f 218/282/203 204/268/203 210/271/203 221/283/203
f 221/283/204 210/271/204 206/274/204 219/286/204
f 205/272/205 199/267/205 202/266/205 209/273/205
f 209/273/206 202/266/206 198/265/206 206/274/206
f 169/217/207 197/261/207 203/264/207 172/218/207
f 172/224/208 203/264/208 199/267/208 170/221/208
f 204/268/209 177/233/209 179/236/209 207/269/209
f 207/269/210 179/230/210 176/229/210 205/272/210
f 183/241/211 211/275/211 197/261/211 169/217/211
f 171/225/212 178/237/212 192/259/212 184/245/212
f 199/267/213 205/272/213 176/229/213 170/221/213
f 218/282/214 190/251/214 177/233/214 204/268/214
f 185/249/215 191/255/215 220/288/215 212/279/215
f 213/281/216 219/286/216 206/274/216 198/265/216
o Steel_Leg.003
v 0.798000 0.000000 -0.298000
v 0.798000 0.008000 -0.290000
v 0.790000 0.008000 -0.298000
v 0.798000 0.002343 -0.292343
v 0.793381 0.003381 -0.293381
v 0.792343 0.008000 -0.292343
v 0.792343 0.002343 -0.298000
v 0.798000 0.732000 -0.290000
v 0.798000 0.740000 -0.298000
v 0.790000 0.732000 -0.298000
v 0.798000 0.737657 -0.292343
v 0.793381 0.736619 -0.293381
v 0.792343 0.737657 -0.298000
v 0.792343 0.732000 -0.292343
v 0.798000 0.000000 -0.342000
v 0.790000 0.008000 -0.342000
v 0.798000 0.008000 -0.350000
v 0.792343 0.002343 -0.342000
v 0.793381 0.003381 -0.346619
v 0.792343 0.008000 -0.347657
v 0.798000 0.002343 -0.347657
v 0.798000 0.740000 -0.342000
v 0.798000 0.732000 -0.350000
v 0.790000 0.732000 -0.342000
v 0.798000 0.737657 -0.347657
v 0.793381 0.736619 -0.346619
v 0.792343 0.732000 -0.347657
v 0.792343 0.737657 -0.342000
v 0.842000 0.000000 -0.298000
v 0.850000 0.008000 -0.298000
v 0.842000 0.008000 -0.290000
v 0.847657 0.002343 -0.298000
v 0.846619 0.003381 -0.293381
v 0.847657 0.008000 -0.292343
v 0.842000 0.002343 -0.292343
v 0.842000 0.740000 -0.298000
v 0.842000 0.732000 -0.290000
v 0.850000 0.732000 -0.298000
v 0.842000 0.737657 -0.292343
v 0.846619 0.736619 -0.293381
v 0.847657 0.732000 -0.292343
v 0.847657 0.737657 -0.298000
v 0.842000 0.000000 -0.342000
v 0.842000 0.008000 -0.350000
v 0.850000 0.008000 -0.342000
v 0.842000 0.002343 -0.347657
v 0.846619 0.003381 -0.346619
v 0.847657 0.008000 -0.347657
v 0.847657 0.002343 -0.342000
v 0.842000 0.740000 -0.342000
v 0.850000 0.732000 -0.342000
v 0.842000 0.732000 -0.350000
v 0.847657 0.737657 -0.342000
v 0.846619 0.736619 -0.346619
v 0.847657 0.732000 -0.347657
v 0.842000 0.737657 -0.347657
vn -0.3251 -0.8881 0.3251
vn -0.3251 -0.3251 0.8881
vn -0.8881 -0.3251 0.3251
vn -0.3251 0.3251 0.8881
vn -0.3251 0.8881 0.3251
vn -0.8881 0.3251 0.3251
vn -0.3251 -0.8881 -0.3251
vn -0.8881 -0.3251 -0.3251
vn -0.3251 -0.3251 -0.8881
vn -0.3251 0.8881 -0.3251
vn -0.3251 0.3251 -0.8881
vn -0.8881 0.3251 -0.3251
vn 0.3251 -0.8881 0.3251
vn 0.8881 -0.3251 0.3251
vn 0.3251 -0.3251 0.8881
vn 0.3251 0.8881 0.3251
vn 0.3251 0.3251 0.8881
vn 0.8881 0.3251 0.3251
vn 0.3251 -0.8881 -0.3251
vn 0.3251 -0.3251 -0.8881
vn 0.8881 -0.3251 -0.3251
vn 0.3251 0.8881 -0.3251
vn 0.8881 0.3251 -0.3251
vn 0.3251 0.3251 -0.8881
vn -0.3827 -0.9239 -0.0000
vn -0.9239 -0.3827 -0.0000
vn -0.3827 -0.0000 0.9239
vn -0.9239 -0.0000 0.3827
vn -0.3827 0.9239 -0.0000
vn -0.9239 0.3827 -0.0000
vn -0.3827 -0.0000 -0.9239
vn -0.9239 -0.0000 -0.3827
vn -0.0000 -0.9239 -0.3827
vn -0.0000 -0.3827 -0.9239
vn -0.0000 0.9239 -0.3827
vn -0.0000 0.3827 -0.9239
vn 0.9239 -0.0000 -0.3827
vn 0.3827 -0.0000 -0.9239
vn 0.3827 -0.9239 -0.0000
vn 0.9239 -0.3827 -0.0000
vn 0.3827 0.9239 -0.0000
vn 0.9239 0.3827 -0.0000
vn 0.3827 -0.0000 0.9239
vn 0.9239 -0.0000 0.3827
vn -0.0000 -0.9239 0.3827
vn -0.0000 -0.3827 0.9239
vn -0.0000 0.9239 0.3827
vn -0.0000 0.3827 0.9239
vn -0.0000 -1.0000 -0.0000
vn -1.0000 -0.0000 -0.0000
vn -0.0000 -0.0000 1.0000
vn -0.0000 1.0000 -0.0000
vn -0.0000 -0.0000 -1.0000
vn 1.0000 -0.0000 -0.0000
vt 0.158333 0.716667
vt 0.158333 0.750000
vt 0.139088 0.750000
vt 0.125000 0.716667
vt 0.377703 0.966667
vt 0.377703 1.000000
vt 0.376142 1.000000
vt 0.375000 0.966667
vt 0.377703 0.033333
vt 0.375000 0.033333
vt 0.375000 0.014088
vt 0.377703 0.000000
vt 0.622297 0.966667
vt 0.625000 0.966667
vt 0.625000 0.985912
vt 0.622297 1.000000
vt 0.841667 0.716667
vt 0.875000 0.716667
vt 0.875000 0.735912
vt 0.841667 0.750000
vt 0.622297 0.033333
vt 0.622297 0.000000
vt 0.623858 0.000000
vt 0.625000 0.033333
vt 0.158333 0.533333
vt 0.125000 0.533333
vt 0.125000 0.514088
vt 0.158333 0.500000
vt 0.377703 0.216667
vt 0.377703 0.250000
vt 0.375571 0.257044
vt 0.375000 0.216667
vt 0.377703 0.283333
vt 0.375000 0.283333
vt 0.841667 0.533333
vt 0.841667 0.500000
vt 0.860912 0.500000
vt 0.875000 0.533333
vt 0.622297 0.283333
vt 0.622297 0.250000
vt 0.624429 0.242956
vt 0.625000 0.283333
vt 0.622297 0.216667
vt 0.625000 0.216667
vt 0.341667 0.716667
vt 0.375000 0.716667
vt 0.375381 0.750000
vt 0.358333 0.766667
vt 0.377703 0.716667
vt 0.377703 0.750000
vt 0.377703 0.783333
vt 0.658333 0.716667
vt 0.641667 0.766667
vt 0.629315 0.745304
vt 0.625000 0.716667
vt 0.622297 0.783333
vt 0.622297 0.750000
vt 0.622297 0.716667
vt 0.341667 0.533333
vt 0.358333 0.483333
vt 0.370685 0.504696
vt 0.375000 0.533333
vt 0.377703 0.466667
vt 0.377703 0.500000
vt 0.377703 0.533333
vt 0.658333 0.533333
vt 0.625000 0.533333
vt 0.624619 0.500000
vt 0.641667 0.483333
vt 0.622297 0.533333
vt 0.622297 0.500000
vt 0.622297 0.466667
s 0
usemtl M_Graphite
f 225/289/217 228/290/217 229/291/217 231/292/217
f 226/293/218 230/294/218 229/295/218 228/296/218
f 227/297/219 231/298/219 229/299/219 230/300/219
f 232/301/220 235/302/220 236/303/220 238/304/220
f 233/305/221 237/306/221 236/307/221 235/308/221
f 234/309/222 238/310/222 236/311/222 237/312/222
f 239/313/223 242/314/223 243/315/223 245/316/223
f 240/317/224 244/318/224 243/319/224 242/320/224
f 241/321/225 245/322/225 243/319/225 244/318/225
f 246/323/226 249/324/226 250/325/226 252/326/226
f 247/327/227 251/328/227 250/329/227 249/330/227
f 248/331/228 252/332/228 250/329/228 251/328/228
f 253/333/229 256/334/229 257/335/229 259/336/229
f 254/337/230 258/338/230 257/335/230 256/334/230
f 255/339/231 259/336/231 257/335/231 258/338/231
f 260/340/232 263/341/232 264/342/232 266/343/232
f 261/344/233 265/345/233 264/342/233 263/341/233
f 262/346/234 266/343/234 264/342/234 265/345/234
f 267/347/235 270/348/235 271/349/235 273/350/235
f 268/351/236 272/352/236 271/349/236 270/348/236
f 269/353/237 273/350/237 271/349/237 272/352/237
f 274/354/238 277/355/238 278/356/238 280/357/238
f 275/358/239 279/359/239 278/356/239 277/355/239
f 276/360/240 280/357/240 278/356/240 279/359/240
f 239/313/241 225/289/241 231/292/241 242/314/241
f 242/320/242 231/298/242 227/297/242 240/317/242
f 226/293/243 232/301/243 238/304/243 230/294/243
f 230/300/244 238/310/244 234/309/244 227/297/244
f 233/305/245 246/323/245 252/326/245 237/306/245
f 237/312/246 252/332/246 248/331/246 234/309/246
f 247/327/247 241/321/247 244/318/247 251/328/247
f 251/328/248 244/318/248 240/317/248 248/331/248
f 267/347/249 239/313/249 245/316/249 270/348/249
f 270/348/250 245/322/250 241/321/250 268/351/250
f 246/323/251 274/354/251 280/357/251 249/324/251
f 249/330/252 280/357/252 276/360/252 247/327/252
f 275/358/253 269/353/253 272/352/253 279/359/253
f 279/359/254 272/352/254 268/351/254 276/360/254
f 253/333/255 267/347/255 273/350/255 256/334/255
f 256/334/256 273/350/256 269/353/256 254/337/256
f 274/354/257 260/340/257 266/343/257 277/355/257
f 277/355/258 266/343/258 262/346/258 275/358/258
f 261/344/259 255/339/259 258/338/259 265/345/259
f 265/345/260 258/338/260 254/337/260 262/346/260
f 225/289/261 253/333/261 259/336/261 228/290/261
f 228/296/262 259/336/262 255/339/262 226/293/262
f 260/340/263 233/305/263 235/308/263 263/341/263
f 263/341/264 235/302/264 232/301/264 261/344/264
f 239/313/265 267/347/265 253/333/265 225/289/265
f 227/297/266 234/309/266 248/331/266 240/317/266
f 255/339/267 261/344/267 232/301/267 226/293/267
f 274/354/268 246/323/268 233/305/268 260/340/268
f 241/321/269 247/327/269 276/360/269 268/351/269
f 269/353/270 275/358/270 262/346/270 254/337/270
