# Blender 4.5.11 LTS
# www.blender.org
mtllib Potentiometer.mtl
o Body.001
v 0.000000 0.002500 -0.110000
v 0.000000 0.057500 -0.110000
v 0.021460 0.002500 -0.107886
v 0.021460 0.057500 -0.107886
v 0.042095 0.002500 -0.101627
v 0.042095 0.057500 -0.101627
v 0.061113 0.002500 -0.091462
v 0.061113 0.057500 -0.091462
v 0.077782 0.002500 -0.077782
v 0.077782 0.057500 -0.077782
v 0.091462 0.002500 -0.061113
v 0.091462 0.057500 -0.061113
v 0.101627 0.002500 -0.042095
v 0.101627 0.057500 -0.042095
v 0.107886 0.002500 -0.021460
v 0.107886 0.057500 -0.021460
v 0.110000 0.002500 0.000000
v 0.110000 0.057500 0.000000
v 0.107886 0.002500 0.021460
v 0.107886 0.057500 0.021460
v 0.101627 0.002500 0.042095
v 0.101627 0.057500 0.042095
v 0.091462 0.002500 0.061113
v 0.091462 0.057500 0.061113
v 0.077782 0.002500 0.077782
v 0.077782 0.057500 0.077782
v 0.061113 0.002500 0.091462
v 0.061113 0.057500 0.091462
v 0.042095 0.002500 0.101627
v 0.042095 0.057500 0.101627
v 0.021460 0.002500 0.107886
v 0.021460 0.057500 0.107886
v 0.000000 0.002500 0.110000
v 0.000000 0.057500 0.110000
v -0.021460 0.002500 0.107886
v -0.021460 0.057500 0.107886
v -0.042095 0.002500 0.101627
v -0.042095 0.057500 0.101627
v -0.061113 0.002500 0.091462
v -0.061113 0.057500 0.091462
v -0.077782 0.002500 0.077782
v -0.077782 0.057500 0.077782
v -0.091462 0.002500 0.061113
v -0.091462 0.057500 0.061113
v -0.101627 0.002500 0.042095
v -0.101627 0.057500 0.042095
v -0.107886 0.002500 0.021460
v -0.107886 0.057500 0.021460
v -0.110000 0.002500 0.000000
v -0.110000 0.057500 0.000000
v -0.107886 0.002500 -0.021460
v -0.107886 0.057500 -0.021460
v -0.101627 0.002500 -0.042095
v -0.101627 0.057500 -0.042095
v -0.091462 0.002500 -0.061113
v -0.091462 0.057500 -0.061113
v -0.077782 0.002500 -0.077782
v -0.077782 0.057500 -0.077782
v -0.061113 0.002500 -0.091462
v -0.061113 0.057500 -0.091462
v -0.042095 0.002500 -0.101627
v -0.042095 0.057500 -0.101627
v -0.021460 0.002500 -0.107886
v -0.021460 0.057500 -0.107886
vn -0.0000 -0.6857 -0.7279
vn -0.0000 0.6857 -0.7279
vn 0.1420 -0.6857 -0.7139
vn 0.1420 0.6857 -0.7139
vn 0.2785 -0.6857 -0.6725
vn 0.2785 0.6857 -0.6725
vn 0.4044 -0.6857 -0.6052
vn 0.4044 0.6857 -0.6052
vn 0.5147 -0.6857 -0.5147
vn 0.5147 0.6857 -0.5147
vn 0.6052 -0.6857 -0.4044
vn 0.6052 0.6857 -0.4044
vn 0.6725 -0.6857 -0.2785
vn 0.6725 0.6857 -0.2785
vn 0.7139 -0.6857 -0.1420
vn 0.7139 0.6857 -0.1420
vn 0.7279 -0.6857 -0.0000
vn 0.7279 0.6857 -0.0000
vn 0.7139 -0.6857 0.1420
vn 0.7139 0.6857 0.1420
vn 0.6725 -0.6857 0.2785
vn 0.6725 0.6857 0.2785
vn 0.6052 -0.6857 0.4044
vn 0.6052 0.6857 0.4044
vn 0.5147 -0.6857 0.5147
vn 0.5147 0.6857 0.5147
vn 0.4044 -0.6857 0.6052
vn 0.4044 0.6857 0.6052
vn 0.2785 -0.6857 0.6725
vn 0.2785 0.6857 0.6725
vn 0.1420 -0.6857 0.7139
vn 0.1420 0.6857 0.7139
vn -0.0000 -0.6857 0.7279
vn -0.0000 0.6857 0.7279
vn -0.1420 -0.6857 0.7139
vn -0.1420 0.6857 0.7139
vn -0.2785 -0.6857 0.6725
vn -0.2785 0.6857 0.6725
vn -0.4044 -0.6857 0.6052
vn -0.4044 0.6857 0.6052
vn -0.5147 -0.6857 0.5147
vn -0.5147 0.6857 0.5147
vn -0.6052 -0.6857 0.4044
vn -0.6052 0.6857 0.4044
vn -0.6725 -0.6857 0.2785
vn -0.6725 0.6857 0.2785
vn -0.7139 -0.6857 0.1420
vn -0.7139 0.6857 0.1420
vn -0.7279 -0.6857 -0.0000
vn -0.7279 0.6857 -0.0000
vn -0.7139 -0.6857 -0.1420
vn -0.7139 0.6857 -0.1420
vn -0.6725 -0.6857 -0.2785
vn -0.6725 0.6857 -0.2785
vn -0.6052 -0.6857 -0.4044
vn -0.6052 0.6857 -0.4044
vn -0.5147 -0.6857 -0.5147
vn -0.5147 0.6857 -0.5147
vn -0.4044 -0.6857 -0.6052
vn -0.4044 0.6857 -0.6052
vn -0.2785 -0.6857 -0.6725
vn -0.2785 0.6857 -0.6725
vn -0.1420 -0.6857 -0.7139
vn -0.1420 0.6857 -0.7139
vt 1.000000 0.500000
vt 1.000000 1.000000
vt 0.968750 1.000000
vt 0.968750 0.500000
vt 0.937500 1.000000
vt 0.937500 0.500000
vt 0.906250 1.000000
vt 0.906250 0.500000
vt 0.875000 1.000000
vt 0.875000 0.500000
vt 0.843750 1.000000
vt 0.843750 0.500000
vt 0.812500 1.000000
vt 0.812500 0.500000
vt 0.781250 1.000000
vt 0.781250 0.500000
vt 0.750000 1.000000
vt 0.750000 0.500000
vt 0.718750 1.000000
vt 0.718750 0.500000
vt 0.687500 1.000000
vt 0.687500 0.500000
vt 0.656250 1.000000
vt 0.656250 0.500000
vt 0.625000 1.000000
vt 0.625000 0.500000
vt 0.593750 1.000000
vt 0.593750 0.500000
vt 0.562500 1.000000
vt 0.562500 0.500000
vt 0.531250 1.000000
vt 0.531250 0.500000
vt 0.500000 1.000000
vt 0.500000 0.500000
vt 0.468750 1.000000
vt 0.468750 0.500000
vt 0.437500 1.000000
vt 0.437500 0.500000
vt 0.406250 1.000000
vt 0.406250 0.500000
vt 0.375000 1.000000
vt 0.375000 0.500000
vt 0.343750 1.000000
vt 0.343750 0.500000
vt 0.312500 1.000000
vt 0.312500 0.500000
vt 0.281250 1.000000
vt 0.281250 0.500000
vt 0.250000 1.000000
vt 0.250000 0.500000
vt 0.218750 1.000000
vt 0.218750 0.500000
vt 0.187500 1.000000
vt 0.187500 0.500000
vt 0.156250 1.000000
vt 0.156250 0.500000
vt 0.125000 1.000000
vt 0.125000 0.500000
vt 0.093750 1.000000
vt 0.093750 0.500000
vt 0.062500 1.000000
vt 0.062500 0.500000
vt 0.296822 0.485388
vt 0.250000 0.490000
vt 0.203178 0.485388
vt 0.158156 0.471731
vt 0.116663 0.449553
vt 0.080294 0.419706
vt 0.050447 0.383337
vt 0.028269 0.341844
vt 0.014612 0.296822
vt 0.010000 0.250000
vt 0.014612 0.203178
vt 0.028269 0.158156
vt 0.050447 0.116663
vt 0.080294 0.080294
vt 0.116663 0.050447
vt 0.158156 0.028269
vt 0.203178 0.014612
vt 0.250000 0.010000
vt 0.296822 0.014612
vt 0.341844 0.028269
vt 0.383337 0.050447
vt 0.419706 0.080294
vt 0.449553 0.116663
vt 0.471731 0.158156
vt 0.485388 0.203178
vt 0.490000 0.250000
vt 0.485388 0.296822
vt 0.471731 0.341844
vt 0.449553 0.383337
vt 0.419706 0.419706
vt 0.383337 0.449553
vt 0.341844 0.471731
vt 0.031250 1.000000
vt 0.031250 0.500000
vt 0.000000 1.000000
vt 0.000000 0.500000
vt 0.750000 0.490000
vt 0.796822 0.485388
vt 0.841844 0.471731
vt 0.883337 0.449553
vt 0.919706 0.419706
vt 0.949553 0.383337
vt 0.971731 0.341844
vt 0.985388 0.296822
vt 0.990000 0.250000
vt 0.985388 0.203178
vt 0.971731 0.158156
vt 0.949553 0.116663
vt 0.919706 0.080294
vt 0.883337 0.050447
vt 0.841844 0.028269
vt 0.796822 0.014612
vt 0.750000 0.010000
vt 0.703178 0.014612
vt 0.658156 0.028269
vt 0.616663 0.050447
vt 0.580294 0.080294
vt 0.550447 0.116663
vt 0.528269 0.158156
vt 0.514612 0.203178
vt 0.510000 0.250000
vt 0.514612 0.296822
vt 0.528269 0.341844
vt 0.550447 0.383337
vt 0.580294 0.419706
vt 0.616663 0.449553
vt 0.658156 0.471731
vt 0.703178 0.485388
s 1
usemtl M_Brushed_Metal
f 1/1/1 2/2/2 4/3/4 3/4/3
f 3/4/3 4/3/4 6/5/6 5/6/5
f 5/6/5 6/5/6 8/7/8 7/8/7
f 7/8/7 8/7/8 10/9/10 9/10/9
f 9/10/9 10/9/10 12/11/12 11/12/11
f 11/12/11 12/11/12 14/13/14 13/14/13
f 13/14/13 14/13/14 16/15/16 15/16/15
f 15/16/15 16/15/16 18/17/18 17/18/17
f 17/18/17 18/17/18 20/19/20 19/20/19
f 19/20/19 20/19/20 22/21/22 21/22/21
f 21/22/21 22/21/22 24/23/24 23/24/23
f 23/24/23 24/23/24 26/25/26 25/26/25
f 25/26/25 26/25/26 28/27/28 27/28/27
f 27/28/27 28/27/28 30/29/30 29/30/29
f 29/30/29 30/29/30 32/31/32 31/32/31
f 31/32/31 32/31/32 34/33/34 33/34/33
f 33/34/33 34/33/34 36/35/36 35/36/35
f 35/36/35 36/35/36 38/37/38 37/38/37
f 37/38/37 38/37/38 40/39/40 39/40/39
f 39/40/39 40/39/40 42/41/42 41/42/41
f 41/42/41 42/41/42 44/43/44 43/44/43
f 43/44/43 44/43/44 46/45/46 45/46/45
f 45/46/45 46/45/46 48/47/48 47/48/47
f 47/48/47 48/47/48 50/49/50 49/50/49
f 49/50/49 50/49/50 52/51/52 51/52/51
f 51/52/51 52/51/52 54/53/54 53/54/53
f 53/54/53 54/53/54 56/55/56 55/56/55
f 55/56/55 56/55/56 58/57/58 57/58/57
f 57/58/57 58/57/58 60/59/60 59/60/59
f 59/60/59 60/59/60 62/61/62 61/62/61
f 4/63/4 2/64/2 64/65/64 62/66/62 60/67/60 58/68/58 56/69/56 54/70/54 52/71/52 50/72/50 48/73/48 46/74/46 44/75/44 42/76/42 40/77/40 38/78/38 36/79/36 34/80/34 32/81/32 30/82/30 28/83/28 26/84/26 24/85/24 22/86/22 20/87/20 18/88/18 16/89/16 14/90/14 12/91/12 10/92/10 8/93/8 6/94/6
f 61/62/61 62/61/62 64/95/64 63/96/63
f 63/96/63 64/95/64 2/97/2 1/98/1
f 1/99/1 3/100/3 5/101/5 7/102/7 9/103/9 11/104/11 13/105/13 15/106/15 17/107/17 19/108/19 21/109/21 23/110/23 25/111/25 27/112/27 29/113/29 31/114/31 33/115/33 35/116/35 37/117/37 39/118/39 41/119/41 43/120/43 45/121/45 47/122/47 49/123/49 51/124/51 53/125/53 55/126/55 57/127/57 59/128/59 61/129/61 63/130/63
o Shaft
v 0.000000 0.050000 -0.035000
v 0.000000 0.210000 -0.035000
v 0.010816 0.050000 -0.033287
v 0.010816 0.210000 -0.033287
v 0.020572 0.050000 -0.028316
v 0.020572 0.210000 -0.028316
v 0.028316 0.050000 -0.020572
v 0.028316 0.210000 -0.020572
v 0.033287 0.050000 -0.010816
v 0.033287 0.210000 -0.010816
v 0.035000 0.050000 0.000000
v 0.035000 0.210000 0.000000
v 0.033287 0.050000 0.010816
v 0.033287 0.210000 0.010816
v 0.028316 0.050000 0.020572
v 0.028316 0.210000 0.020572
v 0.020572 0.050000 0.028316
v 0.020572 0.210000 0.028316
v 0.010816 0.050000 0.033287
v 0.010816 0.210000 0.033287
v 0.000000 0.050000 0.035000
v 0.000000 0.210000 0.035000
v -0.010816 0.050000 0.033287
v -0.010816 0.210000 0.033287
v -0.020572 0.050000 0.028316
v -0.020572 0.210000 0.028316
v -0.028316 0.050000 0.020572
v -0.028316 0.210000 0.020572
v -0.033287 0.050000 0.010816
v -0.033287 0.210000 0.010816
v -0.035000 0.050000 0.000000
v -0.035000 0.210000 0.000000
v -0.033287 0.050000 -0.010816
v -0.033287 0.210000 -0.010816
v -0.028316 0.050000 -0.020572
v -0.028316 0.210000 -0.020572
v -0.020572 0.050000 -0.028316
v -0.020572 0.210000 -0.028316
v -0.010816 0.050000 -0.033287
v -0.010816 0.210000 -0.033287
vn -0.0000 -0.6735 -0.7392
vn -0.0000 0.6735 -0.7392
vn 0.2284 -0.6735 -0.7030
vn 0.2284 0.6735 -0.7030
vn 0.4345 -0.6735 -0.5980
vn 0.4345 0.6735 -0.5980
vn 0.5980 -0.6735 -0.4345
vn 0.5980 0.6735 -0.4345
vn 0.7030 -0.6735 -0.2284
vn 0.7030 0.6735 -0.2284
vn 0.7392 -0.6735 -0.0000
vn 0.7392 0.6735 -0.0000
vn 0.7030 -0.6735 0.2284
vn 0.7030 0.6735 0.2284
vn 0.5980 -0.6735 0.4345
vn 0.5980 0.6735 0.4345
vn 0.4345 -0.6735 0.5980
vn 0.4345 0.6735 0.5980
vn 0.2284 -0.6735 0.7030
vn 0.2284 0.6735 0.7030
vn -0.0000 -0.6735 0.7392
vn -0.0000 0.6735 0.7392
vn -0.2284 -0.6735 0.7030
vn -0.2284 0.6735 0.7030
vn -0.4345 -0.6735 0.5980
vn -0.4345 0.6735 0.5980
vn -0.5980 -0.6735 0.4345
vn -0.5980 0.6735 0.4345
vn -0.7030 -0.6735 0.2284
vn -0.7030 0.6735 0.2284
vn -0.7392 -0.6735 -0.0000
vn -0.7392 0.6735 -0.0000
vn -0.7030 -0.6735 -0.2284
vn -0.7030 0.6735 -0.2284
vn -0.5980 -0.6735 -0.4345
vn -0.5980 0.6735 -0.4345
vn -0.4345 -0.6735 -0.5980
vn -0.4345 0.6735 -0.5980
vn -0.2284 -0.6735 -0.7030
vn -0.2284 0.6735 -0.7030
vt 1.000000 0.500000
vt 1.000000 1.000000
vt 0.950000 1.000000
vt 0.950000 0.500000
vt 0.900000 1.000000
vt 0.900000 0.500000
vt 0.850000 1.000000
vt 0.850000 0.500000
vt 0.800000 1.000000
vt 0.800000 0.500000
vt 0.750000 1.000000
vt 0.750000 0.500000
vt 0.700000 1.000000
vt 0.700000 0.500000
vt 0.650000 1.000000
vt 0.650000 0.500000
vt 0.600000 1.000000
vt 0.600000 0.500000
vt 0.550000 1.000000
vt 0.550000 0.500000
vt 0.500000 1.000000
vt 0.500000 0.500000
vt 0.450000 1.000000
vt 0.450000 0.500000
vt 0.400000 1.000000
vt 0.400000 0.500000
vt 0.350000 1.000000
vt 0.350000 0.500000
vt 0.300000 1.000000
vt 0.300000 0.500000
vt 0.250000 1.000000
vt 0.250000 0.500000
vt 0.200000 1.000000
vt 0.200000 0.500000
vt 0.150000 1.000000
vt 0.150000 0.500000
vt 0.100000 1.000000
vt 0.100000 0.500000
vt 0.324164 0.478254
vt 0.250000 0.490000
vt 0.175836 0.478254
vt 0.108932 0.444164
vt 0.055836 0.391068
vt 0.021746 0.324164
vt 0.010000 0.250000
vt 0.021746 0.175836
vt 0.055836 0.108932
vt 0.108932 0.055836
vt 0.175836 0.021746
vt 0.250000 0.010000
vt 0.324164 0.021746
vt 0.391068 0.055836
vt 0.444164 0.108932
vt 0.478254 0.175836
vt 0.490000 0.250000
vt 0.478254 0.324164
vt 0.444164 0.391068
vt 0.391068 0.444164
vt 0.050000 1.000000
vt 0.050000 0.500000
vt -0.000000 1.000000
vt -0.000000 0.500000
vt 0.750000 0.490000
vt 0.824164 0.478254
vt 0.891068 0.444164
vt 0.944164 0.391068
vt 0.978254 0.324164
vt 0.990000 0.250000
vt 0.978254 0.175836
vt 0.944164 0.108932
vt 0.891068 0.055836
vt 0.824164 0.021746
vt 0.750000 0.010000
vt 0.675836 0.021746
vt 0.608932 0.055836
vt 0.555836 0.108932
vt 0.521746 0.175836
vt 0.510000 0.250000
vt 0.521746 0.324164
vt 0.555836 0.391068
vt 0.608932 0.444164
vt 0.675836 0.478254
s 1
usemtl M_Brushed_Metal
f 65/131/65 66/132/66 68/133/68 67/134/67
f 67/134/67 68/133/68 70/135/70 69/136/69
f 69/136/69 70/135/70 72/137/72 71/138/71
f 71/138/71 72/137/72 74/139/74 73/140/73
f 73/140/73 74/139/74 76/141/76 75/142/75
f 75/142/75 76/141/76 78/143/78 77/144/77
f 77/144/77 78/143/78 80/145/80 79/146/79
f 79/146/79 80/145/80 82/147/82 81/148/81
f 81/148/81 82/147/82 84/149/84 83/150/83
f 83/150/83 84/149/84 86/151/86 85/152/85
f 85/152/85 86/151/86 88/153/88 87/154/87
f 87/154/87 88/153/88 90/155/90 89/156/89
f 89/156/89 90/155/90 92/157/92 91/158/91
f 91/158/91 92/157/92 94/159/94 93/160/93
f 93/160/93 94/159/94 96/161/96 95/162/95
f 95/162/95 96/161/96 98/163/98 97/164/97
f 97/164/97 98/163/98 100/165/100 99/166/99
f 99/166/99 100/165/100 102/167/102 101/168/101
f 68/169/68 66/170/66 104/171/104 102/172/102 100/173/100 98/174/98 96/175/96 94/176/94 92/177/92 90/178/90 88/179/88 86/180/86 84/181/84 82/182/82 80/183/80 78/184/78 76/185/76 74/186/74 72/187/72 70/188/70
f 101/168/101 102/167/102 104/189/104 103/190/103
f 103/190/103 104/189/104 66/191/66 65/192/65
f 65/193/65 67/194/67 69/195/69 71/196/71 73/197/73 75/198/75 77/199/77 79/200/79 81/201/81 83/202/83 85/203/85 87/204/87 89/205/89 91/206/91 93/207/93 95/208/95 97/209/97 99/210/99 101/211/101 103/212/103
o Knob
v 0.000000 0.180000 -0.070000
v 0.000000 0.280000 -0.070000
v 0.018117 0.180000 -0.067615
v 0.018117 0.280000 -0.067615
v 0.035000 0.180000 -0.060622
v 0.035000 0.280000 -0.060622
v 0.049497 0.180000 -0.049497
v 0.049497 0.280000 -0.049497
v 0.060622 0.180000 -0.035000
v 0.060622 0.280000 -0.035000
v 0.067615 0.180000 -0.018117
v 0.067615 0.280000 -0.018117
v 0.070000 0.180000 0.000000
v 0.070000 0.280000 0.000000
v 0.067615 0.180000 0.018117
v 0.067615 0.280000 0.018117
v 0.060622 0.180000 0.035000
v 0.060622 0.280000 0.035000
v 0.049497 0.180000 0.049497
v 0.049497 0.280000 0.049497
v 0.035000 0.180000 0.060622
v 0.035000 0.280000 0.060622
v 0.018117 0.180000 0.067615
v 0.018117 0.280000 0.067615
v 0.000000 0.180000 0.070000
v 0.000000 0.280000 0.070000
v -0.018117 0.180000 0.067615
v -0.018117 0.280000 0.067615
v -0.035000 0.180000 0.060622
v -0.035000 0.280000 0.060622
v -0.049497 0.180000 0.049497
v -0.049497 0.280000 0.049497
v -0.060622 0.180000 0.035000
v -0.060622 0.280000 0.035000
v -0.067615 0.180000 0.018117
v -0.067615 0.280000 0.018117
v -0.070000 0.180000 0.000000
v -0.070000 0.280000 0.000000
v -0.067615 0.180000 -0.018117
v -0.067615 0.280000 -0.018117
v -0.060622 0.180000 -0.035000
v -0.060622 0.280000 -0.035000
v -0.049497 0.180000 -0.049497
v -0.049497 0.280000 -0.049497
v -0.035000 0.180000 -0.060622
v -0.035000 0.280000 -0.060622
v -0.018117 0.180000 -0.067615
v -0.018117 0.280000 -0.067615
vn -0.0000 -0.6789 -0.7342
vn -0.0000 0.6789 -0.7342
vn 0.1900 -0.6789 -0.7092
vn 0.1900 0.6789 -0.7092
vn 0.3671 -0.6789 -0.6359
vn 0.3671 0.6789 -0.6359
vn 0.5192 -0.6789 -0.5192
vn 0.5192 0.6789 -0.5192
vn 0.6359 -0.6789 -0.3671
vn 0.6359 0.6789 -0.3671
vn 0.7092 -0.6789 -0.1900
vn 0.7092 0.6789 -0.1900
vn 0.7342 -0.6789 -0.0000
vn 0.7342 0.6789 -0.0000
vn 0.7092 -0.6789 0.1900
vn 0.7092 0.6789 0.1900
vn 0.6359 -0.6789 0.3671
vn 0.6359 0.6789 0.3671
vn 0.5192 -0.6789 0.5192
vn 0.5192 0.6789 0.5192
vn 0.3671 -0.6789 0.6359
vn 0.3671 0.6789 0.6359
vn 0.1900 -0.6789 0.7092
vn 0.1900 0.6789 0.7092
vn -0.0000 -0.6789 0.7342
vn -0.0000 0.6789 0.7342
vn -0.1900 -0.6789 0.7092
vn -0.1900 0.6789 0.7092
vn -0.3671 -0.6789 0.6359
vn -0.3671 0.6789 0.6359
vn -0.5192 -0.6789 0.5192
vn -0.5192 0.6789 0.5192
vn -0.6359 -0.6789 0.3671
vn -0.6359 0.6789 0.3671
vn -0.7092 -0.6789 0.1900
vn -0.7092 0.6789 0.1900
vn -0.7342 -0.6789 -0.0000
vn -0.7342 0.6789 -0.0000
vn -0.7092 -0.6789 -0.1900
vn -0.7092 0.6789 -0.1900
vn -0.6359 -0.6789 -0.3671
vn -0.6359 0.6789 -0.3671
vn -0.5192 -0.6789 -0.5192
vn -0.5192 0.6789 -0.5192
vn -0.3671 -0.6789 -0.6359
vn -0.3671 0.6789 -0.6359
vn -0.1900 -0.6789 -0.7092
vn -0.1900 0.6789 -0.7092
vt 1.000000 0.500000
vt 1.000000 1.000000
vt 0.958333 1.000000
vt 0.958333 0.500000
vt 0.916667 1.000000
vt 0.916667 0.500000
vt 0.875000 1.000000
vt 0.875000 0.500000
vt 0.833333 1.000000
vt 0.833333 0.500000
vt 0.791667 1.000000
vt 0.791667 0.500000
vt 0.750000 1.000000
vt 0.750000 0.500000
vt 0.708333 1.000000
vt 0.708333 0.500000
vt 0.666667 1.000000
vt 0.666667 0.500000
vt 0.625000 1.000000
vt 0.625000 0.500000
vt 0.583333 1.000000
vt 0.583333 0.500000
vt 0.541666 1.000000
vt 0.541666 0.500000
vt 0.500000 1.000000
vt 0.500000 0.500000
vt 0.458333 1.000000
vt 0.458333 0.500000
vt 0.416666 1.000000
vt 0.416666 0.500000
vt 0.375000 1.000000
vt 0.375000 0.500000
vt 0.333333 1.000000
vt 0.333333 0.500000
vt 0.291667 1.000000
vt 0.291667 0.500000
vt 0.250000 1.000000
vt 0.250000 0.500000
vt 0.208333 1.000000
vt 0.208333 0.500000
vt 0.166666 1.000000
vt 0.166666 0.500000
vt 0.125000 1.000000
vt 0.125000 0.500000
vt 0.083333 1.000000
vt 0.083333 0.500000
vt 0.312117 0.481822
vt 0.250000 0.490000
vt 0.187883 0.481822
vt 0.130000 0.457846
vt 0.080294 0.419706
vt 0.042154 0.370000
vt 0.018178 0.312117
vt 0.010000 0.250000
vt 0.018178 0.187883
vt 0.042154 0.130000
vt 0.080294 0.080294
vt 0.130000 0.042154
vt 0.187883 0.018178
vt 0.250000 0.010000
vt 0.312117 0.018178
vt 0.370000 0.042154
vt 0.419706 0.080294
vt 0.457846 0.130000
vt 0.481822 0.187883
vt 0.490000 0.250000
vt 0.481822 0.312117
vt 0.457846 0.370000
vt 0.419706 0.419706
vt 0.370000 0.457846
vt 0.041666 1.000000
vt 0.041666 0.500000
vt -0.000000 1.000000
vt -0.000000 0.500000
vt 0.750000 0.490000
vt 0.812117 0.481822
vt 0.870000 0.457846
vt 0.919706 0.419706
vt 0.957846 0.370000
vt 0.981822 0.312117
vt 0.990000 0.250000
vt 0.981822 0.187883
vt 0.957846 0.130000
vt 0.919706 0.080294
vt 0.870000 0.042154
vt 0.812117 0.018178
vt 0.750000 0.010000
vt 0.687883 0.018178
vt 0.630000 0.042154
vt 0.580294 0.080294
vt 0.542154 0.130000
vt 0.518178 0.187883
vt 0.510000 0.250000
vt 0.518178 0.312117
vt 0.542154 0.370000
vt 0.580294 0.419706
vt 0.630000 0.457846
vt 0.687883 0.481822
s 1
usemtl M_Graphite
f 105/213/105 106/214/106 108/215/108 107/216/107
f 107/216/107 108/215/108 110/217/110 109/218/109
f 109/218/109 110/217/110 112/219/112 111/220/111
f 111/220/111 112/219/112 114/221/114 113/222/113
f 113/222/113 114/221/114 116/223/116 115/224/115
f 115/224/115 116/223/116 118/225/118 117/226/117
f 117/226/117 118/225/118 120/227/120 119/228/119
f 119/228/119 120/227/120 122/229/122 121/230/121
f 121/230/121 122/229/122 124/231/124 123/232/123
f 123/232/123 124/231/124 126/233/126 125/234/125
f 125/234/125 126/233/126 128/235/128 127/236/127
f 127/236/127 128/235/128 130/237/130 129/238/129
f 129/238/129 130/237/130 132/239/132 131/240/131
f 131/240/131 132/239/132 134/241/134 133/242/133
f 133/242/133 134/241/134 136/243/136 135/244/135
f 135/244/135 136/243/136 138/245/138 137/246/137
f 137/246/137 138/245/138 140/247/140 139/248/139
f 139/248/139 140/247/140 142/249/142 141/250/141
f 141/250/141 142/249/142 144/251/144 143/252/143
f 143/252/143 144/251/144 146/253/146 145/254/145
f 145/254/145 146/253/146 148/255/148 147/256/147
f 147/256/147 148/255/148 150/257/150 149/258/149
f 108/259/108 106/260/106 152/261/152 150/262/150 148/263/148 146/264/146 144/265/144 142/266/142 140/267/140 138/268/138 136/269/136 134/270/134 132/271/132 130/272/130 128/273/128 126/274/126 124/275/124 122/276/122 120/277/120 118/278/118 116/279/116 114/280/114 112/281/112 110/282/110
f 149/258/149 150/257/150 152/283/152 151/284/151
f 151/284/151 152/283/152 106/285/106 105/286/105
f 105/287/105 107/288/107 109/289/109 111/290/111 113/291/113 115/292/115 117/293/117 119/294/119 121/295/121 123/296/123 125/297/125 127/298/127 129/299/129 131/300/131 133/301/133 135/302/135 137/303/137 139/304/139 141/305/141 143/306/143 145/307/145 147/308/147 149/309/149 151/310/151
o Terminal
v -0.067000 -0.070000 -0.072000
v -0.067000 -0.068000 -0.070000
v -0.069000 -0.068000 -0.072000
v -0.067000 -0.069414 -0.070586
v -0.068155 -0.069155 -0.070845
v -0.068414 -0.068000 -0.070586
v -0.068414 -0.069414 -0.072000
v -0.067000 0.008000 -0.070000
v -0.067000 0.010000 -0.072000
v -0.069000 0.008000 -0.072000
v -0.067000 0.009414 -0.070586
v -0.068155 0.009155 -0.070845
v -0.068414 0.009414 -0.072000
v -0.068414 0.008000 -0.070586
v -0.067000 -0.070000 -0.108000
v -0.069000 -0.068000 -0.108000
v -0.067000 -0.068000 -0.110000
v -0.068414 -0.069414 -0.108000
v -0.068155 -0.069155 -0.109155
v -0.068414 -0.068000 -0.109414
v -0.067000 -0.069414 -0.109414
v -0.067000 0.010000 -0.108000
v -0.067000 0.008000 -0.110000
v -0.069000 0.008000 -0.108000
v -0.067000 0.009414 -0.109414
v -0.068155 0.009155 -0.109155
v -0.068414 0.008000 -0.109414
v -0.068414 0.009414 -0.108000
v -0.053000 -0.070000 -0.072000
v -0.051000 -0.068000 -0.072000
v -0.053000 -0.068000 -0.070000
v -0.051586 -0.069414 -0.072000
v -0.051845 -0.069155 -0.070845
v -0.051586 -0.068000 -0.070586
v -0.053000 -0.069414 -0.070586
v -0.053000 0.010000 -0.072000
v -0.053000 0.008000 -0.070000
v -0.051000 0.008000 -0.072000
v -0.053000 0.009414 -0.070586
v -0.051845 0.009155 -0.070845
v -0.051586 0.008000 -0.070586
v -0.051586 0.009414 -0.072000
v -0.053000 -0.070000 -0.108000
v -0.053000 -0.068000 -0.110000
v -0.051000 -0.068000 -0.108000
v -0.053000 -0.069414 -0.109414
v -0.051845 -0.069155 -0.109155
v -0.051586 -0.068000 -0.109414
v -0.051586 -0.069414 -0.108000
v -0.053000 0.010000 -0.108000
v -0.051000 0.008000 -0.108000
v -0.053000 0.008000 -0.110000
v -0.051586 0.009414 -0.108000
v -0.051845 0.009155 -0.109155
v -0.051586 0.008000 -0.109414
v -0.053000 0.009414 -0.109414
vn -0.3251 -0.8881 0.3251
vn -0.3251 -0.3251 0.8881
vn -0.8881 -0.3251 0.3251
vn -0.3251 0.3251 0.8881
vn -0.3251 0.8881 0.3251
vn -0.8881 0.3251 0.3251
vn -0.3251 -0.8881 -0.3251
vn -0.8881 -0.3251 -0.3251
vn -0.3251 -0.3251 -0.8881
vn -0.3251 0.8881 -0.3251
vn -0.3251 0.3251 -0.8881
vn -0.8881 0.3251 -0.3251
vn 0.3251 -0.8881 0.3251
vn 0.8881 -0.3251 0.3251
vn 0.3251 -0.3251 0.8881
vn 0.3251 0.8881 0.3251
vn 0.3251 0.3251 0.8881
vn 0.8881 0.3251 0.3251
vn 0.3251 -0.8881 -0.3251
vn 0.3251 -0.3251 -0.8881
vn 0.8881 -0.3251 -0.3251
vn 0.3251 0.8881 -0.3251
vn 0.8881 0.3251 -0.3251
vn 0.3251 0.3251 -0.8881
vn -0.3827 -0.9239 -0.0000
vn -0.9239 -0.3827 -0.0000
vn -0.3827 -0.0000 0.9239
vn -0.9239 -0.0000 0.3827
vn -0.3827 0.9239 -0.0000
vn -0.9239 0.3827 -0.0000
vn -0.3827 -0.0000 -0.9239
vn -0.9239 -0.0000 -0.3827
vn -0.0000 -0.9239 -0.3827
vn -0.0000 -0.3827 -0.9239
vn -0.0000 0.9239 -0.3827
vn -0.0000 0.3827 -0.9239
vn 0.9239 -0.0000 -0.3827
vn 0.3827 -0.0000 -0.9239
vn 0.3827 -0.9239 -0.0000
vn 0.9239 -0.3827 -0.0000
vn 0.3827 0.9239 -0.0000
vn 0.9239 0.3827 -0.0000
vn 0.3827 -0.0000 0.9239
vn 0.9239 -0.0000 0.3827
vn -0.0000 -0.9239 0.3827
vn -0.0000 -0.3827 0.9239
vn -0.0000 0.9239 0.3827
vn -0.0000 0.3827 0.9239
vn -0.0000 -1.0000 -0.0000
vn -1.0000 -0.0000 -0.0000
vn -0.0000 -0.0000 1.0000
vn -0.0000 1.0000 -0.0000
vn -0.0000 -0.0000 -1.0000
vn 1.0000 -0.0000 -0.0000
vt 0.152778 0.737500
vt 0.152778 0.750000
vt 0.136740 0.750000
vt 0.125000 0.737500
vt 0.381250 0.972222
vt 0.381250 1.000000
vt 0.377642 1.000000
vt 0.375000 0.972222
vt 0.381250 0.012500
vt 0.375000 0.012500
vt 0.375000 0.005283
vt 0.381250 0.000000
vt 0.618750 0.972222
vt 0.625000 0.972222
vt 0.625000 0.988260
vt 0.618750 1.000000
vt 0.847222 0.737500
vt 0.875000 0.737500
vt 0.875000 0.744717
vt 0.847222 0.750000
vt 0.618750 0.012500
vt 0.618750 0.000000
vt 0.622358 0.000000
vt 0.625000 0.012500
vt 0.152778 0.512500
vt 0.125000 0.512500
vt 0.125000 0.505283
vt 0.152778 0.500000
vt 0.381250 0.237500
vt 0.381250 0.250000
vt 0.376321 0.255870
vt 0.375000 0.237500
vt 0.381250 0.277778
vt 0.375000 0.277778
vt 0.847222 0.512500
vt 0.847222 0.500000
vt 0.863260 0.500000
vt 0.875000 0.512500
vt 0.618750 0.277778
vt 0.618750 0.250000
vt 0.623679 0.247358
vt 0.625000 0.277778
vt 0.618750 0.237500
vt 0.625000 0.237500
vt 0.347222 0.737500
vt 0.375000 0.737500
vt 0.375881 0.752152
vt 0.361111 0.763889
vt 0.381250 0.737500
vt 0.381250 0.750000
vt 0.381250 0.777778
vt 0.652778 0.737500
vt 0.638889 0.763889
vt 0.628033 0.748239
vt 0.625000 0.737500
vt 0.618750 0.777778
vt 0.618750 0.750000
vt 0.618750 0.737500
vt 0.347222 0.512500
vt 0.361111 0.486111
vt 0.371967 0.501761
vt 0.375000 0.512500
vt 0.381250 0.472222
vt 0.381250 0.500000
vt 0.381250 0.512500
vt 0.652778 0.512500
vt 0.625000 0.512500
vt 0.624119 0.497848
vt 0.638889 0.486111
vt 0.618750 0.512500
vt 0.618750 0.500000
vt 0.618750 0.472222
s 0
usemtl M_Brushed_Metal
f 153/311/153 156/312/153 157/313/153 159/314/153
f 154/315/154 158/316/154 157/317/154 156/318/154
f 155/319/155 159/320/155 157/321/155 158/322/155
f 160/323/156 163/324/156 164/325/156 166/326/156
f 161/327/157 165/328/157 164/329/157 163/330/157
f 162/331/158 166/332/158 164/333/158 165/334/158
f 167/335/159 170/336/159 171/337/159 173/338/159
f 168/339/160 172/340/160 171/341/160 170/342/160
f 169/343/161 173/344/161 171/341/161 172/340/161
f 174/345/162 177/346/162 178/347/162 180/348/162
f 175/349/163 179/350/163 178/351/163 177/352/163
f 176/353/164 180/354/164 178/351/164 179/350/164
f 181/355/165 184/356/165 185/357/165 187/358/165
f 182/359/166 186/360/166 185/357/166 184/356/166
f 183/361/167 187/358/167 185/357/167 186/360/167
f 188/362/168 191/363/168 192/364/168 194/365/168
f 189/366/169 193/367/169 192/364/169 191/363/169
f 190/368/170 194/365/170 192/364/170 193/367/170
f 195/369/171 198/370/171 199/371/171 201/372/171
f 196/373/172 200/374/172 199/371/172 198/370/172
f 197/375/173 201/372/173 199/371/173 200/374/173
f 202/376/174 205/377/174 206/378/174 208/379/174
f 203/380/175 207/381/175 206/378/175 205/377/175
f 204/382/176 208/379/176 206/378/176 207/381/176
f 167/335/177 153/311/177 159/314/177 170/336/177
f 170/342/178 159/320/178 155/319/178 168/339/178
f 154/315/179 160/323/179 166/326/179 158/316/179
f 158/322/180 166/332/180 162/331/180 155/319/180
f 161/327/181 174/345/181 180/348/181 165/328/181
f 165/334/182 180/354/182 176/353/182 162/331/182
f 175/349/183 169/343/183 172/340/183 179/350/183
f 179/350/184 172/340/184 168/339/184 176/353/184
f 195/369/185 167/335/185 173/338/185 198/370/185
f 198/370/186 173/344/186 169/343/186 196/373/186
f 174/345/187 202/376/187 208/379/187 177/346/187
f 177/352/188 208/379/188 204/382/188 175/349/188
f 203/380/189 197/375/189 200/374/189 207/381/189
f 207/381/190 200/374/190 196/373/190 204/382/190
f 181/355/191 195/369/191 201/372/191 184/356/191
f 184/356/192 201/372/192 197/375/192 182/359/192
f 202/376/193 188/362/193 194/365/193 205/377/193
f 205/377/194 194/365/194 190/368/194 203/380/194
f 189/366/195 183/361/195 186/360/195 193/367/195
f 193/367/196 186/360/196 182/359/196 190/368/196
f 153/311/197 181/355/197 187/358/197 156/312/197
f 156/318/198 187/358/198 183/361/198 154/315/198
f 188/362/199 161/327/199 163/330/199 191/363/199
f 191/363/200 163/324/200 160/323/200 189/366/200
f 167/335/201 195/369/201 181/355/201 153/311/201
f 155/319/202 162/331/202 176/353/202 168/339/202
f 183/361/203 189/366/203 160/323/203 154/315/203
f 202/376/204 174/345/204 161/327/204 188/362/204
f 169/343/205 175/349/205 204/382/205 196/373/205
f 197/375/206 203/380/206 190/368/206 182/359/206
o Terminal.001
v -0.007000 -0.070000 -0.072000
v -0.007000 -0.068000 -0.070000
v -0.009000 -0.068000 -0.072000
v -0.007000 -0.069414 -0.070586
v -0.008155 -0.069155 -0.070845
v -0.008414 -0.068000 -0.070586
v -0.008414 -0.069414 -0.072000
v -0.007000 0.008000 -0.070000
v -0.007000 0.010000 -0.072000
v -0.009000 0.008000 -0.072000
v -0.007000 0.009414 -0.070586
v -0.008155 0.009155 -0.070845
v -0.008414 0.009414 -0.072000
v -0.008414 0.008000 -0.070586
v -0.007000 -0.070000 -0.108000
v -0.009000 -0.068000 -0.108000
v -0.007000 -0.068000 -0.110000
v -0.008414 -0.069414 -0.108000
v -0.008155 -0.069155 -0.109155
v -0.008414 -0.068000 -0.109414
v -0.007000 -0.069414 -0.109414
v -0.007000 0.010000 -0.108000
v -0.007000 0.008000 -0.110000
v -0.009000 0.008000 -0.108000
v -0.007000 0.009414 -0.109414
v -0.008155 0.009155 -0.109155
v -0.008414 0.008000 -0.109414
v -0.008414 0.009414 -0.108000
v 0.007000 -0.070000 -0.072000
v 0.009000 -0.068000 -0.072000
v 0.007000 -0.068000 -0.070000
v 0.008414 -0.069414 -0.072000
v 0.008155 -0.069155 -0.070845
v 0.008414 -0.068000 -0.070586
v 0.007000 -0.069414 -0.070586
v 0.007000 0.010000 -0.072000
v 0.007000 0.008000 -0.070000
v 0.009000 0.008000 -0.072000
v 0.007000 0.009414 -0.070586
v 0.008155 0.009155 -0.070845
v 0.008414 0.008000 -0.070586
v 0.008414 0.009414 -0.072000
v 0.007000 -0.070000 -0.108000
v 0.007000 -0.068000 -0.110000
v 0.009000 -0.068000 -0.108000
v 0.007000 -0.069414 -0.109414
v 0.008155 -0.069155 -0.109155
v 0.008414 -0.068000 -0.109414
v 0.008414 -0.069414 -0.108000
v 0.007000 0.010000 -0.108000
v 0.009000 0.008000 -0.108000
v 0.007000 0.008000 -0.110000
v 0.008414 0.009414 -0.108000
v 0.008155 0.009155 -0.109155
v 0.008414 0.008000 -0.109414
v 0.007000 0.009414 -0.109414
vn -0.3251 -0.8881 0.3251
vn -0.3251 -0.3251 0.8881
vn -0.8881 -0.3251 0.3251
vn -0.3251 0.3251 0.8881
vn -0.3251 0.8881 0.3251
vn -0.8881 0.3251 0.3251
vn -0.3251 -0.8881 -0.3251
vn -0.8881 -0.3251 -0.3251
vn -0.3251 -0.3251 -0.8881
vn -0.3251 0.8881 -0.3251
vn -0.3251 0.3251 -0.8881
vn -0.8881 0.3251 -0.3251
vn 0.3251 -0.8881 0.3251
vn 0.8881 -0.3251 0.3251
vn 0.3251 -0.3251 0.8881
vn 0.3251 0.8881 0.3251
vn 0.3251 0.3251 0.8881
vn 0.8881 0.3251 0.3251
vn 0.3251 -0.8881 -0.3251
vn 0.3251 -0.3251 -0.8881
vn 0.8881 -0.3251 -0.3251
vn 0.3251 0.8881 -0.3251
vn 0.8881 0.3251 -0.3251
vn 0.3251 0.3251 -0.8881
vn -0.3827 -0.9239 -0.0000
vn -0.9239 -0.3827 -0.0000
vn -0.3827 -0.0000 0.9239
vn -0.9239 -0.0000 0.3827
vn -0.3827 0.9239 -0.0000
vn -0.9239 0.3827 -0.0000
vn -0.3827 -0.0000 -0.9239
vn -0.9239 -0.0000 -0.3827
vn -0.0000 -0.9239 -0.3827
vn -0.0000 -0.3827 -0.9239
vn -0.0000 0.9239 -0.3827
vn -0.0000 0.3827 -0.9239
vn 0.9239 -0.0000 -0.3827
vn 0.3827 -0.0000 -0.9239
vn 0.3827 -0.9239 -0.0000
vn 0.9239 -0.3827 -0.0000
vn 0.3827 0.9239 -0.0000
vn 0.9239 0.3827 -0.0000
vn 0.3827 -0.0000 0.9239
vn 0.9239 -0.0000 0.3827
vn -0.0000 -0.9239 0.3827
vn -0.0000 -0.3827 0.9239
vn -0.0000 0.9239 0.3827
vn -0.0000 0.3827 0.9239
vn -0.0000 -1.0000 -0.0000
vn -1.0000 -0.0000 -0.0000
vn -0.0000 -0.0000 1.0000
vn -0.0000 1.0000 -0.0000
vn -0.0000 -0.0000 -1.0000
vn 1.0000 -0.0000 -0.0000
vt 0.152778 0.737500
vt 0.152778 0.750000
vt 0.136740 0.750000
vt 0.125000 0.737500
vt 0.381250 0.972222
vt 0.381250 1.000000
vt 0.377642 1.000000
vt 0.375000 0.972222
vt 0.381250 0.012500
vt 0.375000 0.012500
vt 0.375000 0.005283
vt 0.381250 0.000000
vt 0.618750 0.972222
vt 0.625000 0.972222
vt 0.625000 0.988260
vt 0.618750 1.000000
vt 0.847222 0.737500
vt 0.875000 0.737500
vt 0.875000 0.744717
vt 0.847222 0.750000
vt 0.618750 0.012500
vt 0.618750 0.000000
vt 0.622358 0.000000
vt 0.625000 0.012500
vt 0.152778 0.512500
vt 0.125000 0.512500
vt 0.125000 0.505283
vt 0.152778 0.500000
vt 0.381250 0.237500
vt 0.381250 0.250000
vt 0.376321 0.255870
vt 0.375000 0.237500
vt 0.381250 0.277778
vt 0.375000 0.277778
vt 0.847222 0.512500
vt 0.847222 0.500000
vt 0.863260 0.500000
vt 0.875000 0.512500
vt 0.618750 0.277778
vt 0.618750 0.250000
vt 0.623679 0.247358
vt 0.625000 0.277778
vt 0.618750 0.237500
vt 0.625000 0.237500
vt 0.347222 0.737500
vt 0.375000 0.737500
vt 0.375881 0.752152
vt 0.361111 0.763889
vt 0.381250 0.737500
vt 0.381250 0.750000
vt 0.381250 0.777778
vt 0.652778 0.737500
vt 0.638889 0.763889
vt 0.628033 0.748239
vt 0.625000 0.737500
vt 0.618750 0.777778
vt 0.618750 0.750000
vt 0.618750 0.737500
vt 0.347222 0.512500
vt 0.361111 0.486111
vt 0.371967 0.501761
vt 0.375000 0.512500
vt 0.381250 0.472222
vt 0.381250 0.500000
vt 0.381250 0.512500
vt 0.652778 0.512500
vt 0.625000 0.512500
vt 0.624119 0.497848
vt 0.638889 0.486111
vt 0.618750 0.512500
vt 0.618750 0.500000
vt 0.618750 0.472222
s 0
usemtl M_Brushed_Metal
f 209/383/207 212/384/207 213/385/207 215/386/207
f 210/387/208 214/388/208 213/389/208 212/390/208
f 211/391/209 215/392/209 213/393/209 214/394/209
f 216/395/210 219/396/210 220/397/210 222/398/210
f 217/399/211 221/400/211 220/401/211 219/402/211
f 218/403/212 222/404/212 220/405/212 221/406/212
f 223/407/213 226/408/213 227/409/213 229/410/213
f 224/411/214 228/412/214 227/413/214 226/414/214
f 225/415/215 229/416/215 227/413/215 228/412/215
f 230/417/216 233/418/216 234/419/216 236/420/216
f 231/421/217 235/422/217 234/423/217 233/424/217
f 232/425/218 236/426/218 234/423/218 235/422/218
f 237/427/219 240/428/219 241/429/219 243/430/219
f 238/431/220 242/432/220 241/429/220 240/428/220
f 239/433/221 243/430/221 241/429/221 242/432/221
f 244/434/222 247/435/222 248/436/222 250/437/222
f 245/438/223 249/439/223 248/436/223 247/435/223
f 246/440/224 250/437/224 248/436/224 249/439/224
f 251/441/225 254/442/225 255/443/225 257/444/225
f 252/445/226 256/446/226 255/443/226 254/442/226
f 253/447/227 257/444/227 255/443/227 256/446/227
f 258/448/228 261/449/228 262/450/228 264/451/228
f 259/452/229 263/453/229 262/450/229 261/449/229
f 260/454/230 264/451/230 262/450/230 263/453/230
f 223/407/231 209/383/231 215/386/231 226/408/231
f 226/414/232 215/392/232 211/391/232 224/411/232
f 210/387/233 216/395/233 222/398/233 214/388/233
f 214/394/234 222/404/234 218/403/234 211/391/234
f 217/399/235 230/417/235 236/420/235 221/400/235
f 221/406/236 236/426/236 232/425/236 218/403/236
f 231/421/237 225/415/237 228/412/237 235/422/237
f 235/422/238 228/412/238 224/411/238 232/425/238
f 251/441/239 223/407/239 229/410/239 254/442/239
f 254/442/240 229/416/240 225/415/240 252/445/240
f 230/417/241 258/448/241 264/451/241 233/418/241
f 233/424/242 264/451/242 260/454/242 231/421/242
f 259/452/243 253/447/243 256/446/243 263/453/243
f 263/453/244 256/446/244 252/445/244 260/454/244
f 237/427/245 251/441/245 257/444/245 240/428/245
f 240/428/246 257/444/246 253/447/246 238/431/246
f 258/448/247 244/434/247 250/437/247 261/449/247
f 261/449/248 250/437/248 246/440/248 259/452/248
f 245/438/249 239/433/249 242/432/249 249/439/249
f 249/439/250 242/432/250 238/431/250 246/440/250
f 209/383/251 237/427/251 243/430/251 212/384/251
f 212/390/252 243/430/252 239/433/252 210/387/252
f 244/434/253 217/399/253 219/402/253 247/435/253
f 247/435/254 219/396/254 216/395/254 245/438/254
f 223/407/255 251/441/255 237/427/255 209/383/255
f 211/391/256 218/403/256 232/425/256 224/411/256
f 239/433/257 245/438/257 216/395/257 210/387/257
f 258/448/258 230/417/258 217/399/258 244/434/258
f 225/415/259 231/421/259 260/454/259 252/445/259
f 253/447/260 259/452/260 246/440/260 238/431/260
o Terminal.002
v 0.053000 -0.070000 -0.072000
v 0.053000 -0.068000 -0.070000
v 0.051000 -0.068000 -0.072000
v 0.053000 -0.069414 -0.070586
v 0.051845 -0.069155 -0.070845
v 0.051586 -0.068000 -0.070586
v 0.051586 -0.069414 -0.072000
v 0.053000 0.008000 -0.070000
v 0.053000 0.010000 -0.072000
v 0.051000 0.008000 -0.072000
v 0.053000 0.009414 -0.070586
v 0.051845 0.009155 -0.070845
v 0.051586 0.009414 -0.072000
v 0.051586 0.008000 -0.070586
v 0.053000 -0.070000 -0.108000
v 0.051000 -0.068000 -0.108000
v 0.053000 -0.068000 -0.110000
v 0.051586 -0.069414 -0.108000
v 0.051845 -0.069155 -0.109155
v 0.051586 -0.068000 -0.109414
v 0.053000 -0.069414 -0.109414
v 0.053000 0.010000 -0.108000
v 0.053000 0.008000 -0.110000
v 0.051000 0.008000 -0.108000
v 0.053000 0.009414 -0.109414
v 0.051845 0.009155 -0.109155
v 0.051586 0.008000 -0.109414
v 0.051586 0.009414 -0.108000
v 0.067000 -0.070000 -0.072000
v 0.069000 -0.068000 -0.072000
v 0.067000 -0.068000 -0.070000
v 0.068414 -0.069414 -0.072000
v 0.068155 -0.069155 -0.070845
v 0.068414 -0.068000 -0.070586
v 0.067000 -0.069414 -0.070586
v 0.067000 0.010000 -0.072000
v 0.067000 0.008000 -0.070000
v 0.069000 0.008000 -0.072000
v 0.067000 0.009414 -0.070586
v 0.068155 0.009155 -0.070845
v 0.068414 0.008000 -0.070586
v 0.068414 0.009414 -0.072000
v 0.067000 -0.070000 -0.108000
v 0.067000 -0.068000 -0.110000
v 0.069000 -0.068000 -0.108000
v 0.067000 -0.069414 -0.109414
v 0.068155 -0.069155 -0.109155
v 0.068414 -0.068000 -0.109414
v 0.068414 -0.069414 -0.108000
v 0.067000 0.010000 -0.108000
v 0.069000 0.008000 -0.108000
v 0.067000 0.008000 -0.110000
v 0.068414 0.009414 -0.108000
v 0.068155 0.009155 -0.109155
v 0.068414 0.008000 -0.109414
v 0.067000 0.009414 -0.109414
vn -0.3251 -0.8881 0.3251
vn -0.3251 -0.3251 0.8881
vn -0.8881 -0.3251 0.3251
vn -0.3251 0.3251 0.8881
vn -0.3251 0.8881 0.3251
vn -0.8881 0.3251 0.3251
vn -0.3251 -0.8881 -0.3251
vn -0.8881 -0.3251 -0.3251
vn -0.3251 -0.3251 -0.8881
vn -0.3251 0.8881 -0.3251
vn -0.3251 0.3251 -0.8881
vn -0.8881 0.3251 -0.3251
vn 0.3251 -0.8881 0.3251
vn 0.8881 -0.3251 0.3251
vn 0.3251 -0.3251 0.8881
vn 0.3251 0.8881 0.3251
vn 0.3251 0.3251 0.8881
vn 0.8881 0.3251 0.3251
vn 0.3251 -0.8881 -0.3251
vn 0.3251 -0.3251 -0.8881
vn 0.8881 -0.3251 -0.3251
vn 0.3251 0.8881 -0.3251
vn 0.8881 0.3251 -0.3251
vn 0.3251 0.3251 -0.8881
vn -0.3827 -0.9239 -0.0000
vn -0.9239 -0.3827 -0.0000
vn -0.3827 -0.0000 0.9239
vn -0.9239 -0.0000 0.3827
vn -0.3827 0.9239 -0.0000
vn -0.9239 0.3827 -0.0000
vn -0.3827 -0.0000 -0.9239
vn -0.9239 -0.0000 -0.3827
vn -0.0000 -0.9239 -0.3827
vn -0.0000 -0.3827 -0.9239
vn -0.0000 0.9239 -0.3827
vn -0.0000 0.3827 -0.9239
vn 0.9239 -0.0000 -0.3827
vn 0.3827 -0.0000 -0.9239
vn 0.3827 -0.9239 -0.0000
vn 0.9239 -0.3827 -0.0000
vn 0.3827 0.9239 -0.0000
vn 0.9239 0.3827 -0.0000
vn 0.3827 -0.0000 0.9239
vn 0.9239 -0.0000 0.3827
vn -0.0000 -0.9239 0.3827
vn -0.0000 -0.3827 0.9239
vn -0.0000 0.9239 0.3827
vn -0.0000 0.3827 0.9239
vn -0.0000 -1.0000 -0.0000
vn -1.0000 -0.0000 -0.0000
vn -0.0000 -0.0000 1.0000
vn -0.0000 1.0000 -0.0000
vn -0.0000 -0.0000 -1.0000
vn 1.0000 -0.0000 -0.0000
vt 0.152778 0.737500
vt 0.152778 0.750000
vt 0.136740 0.750000
vt 0.125000 0.737500
vt 0.381250 0.972222
vt 0.381250 1.000000
vt 0.377642 1.000000
vt 0.375000 0.972222
vt 0.381250 0.012500
vt 0.375000 0.012500
vt 0.375000 0.005283
vt 0.381250 0.000000
vt 0.618750 0.972222
vt 0.625000 0.972222
vt 0.625000 0.988260
vt 0.618750 1.000000
vt 0.847222 0.737500
vt 0.875000 0.737500
vt 0.875000 0.744717
vt 0.847222 0.750000
vt 0.618750 0.012500
vt 0.618750 0.000000
vt 0.622358 0.000000
vt 0.625000 0.012500
vt 0.152778 0.512500
vt 0.125000 0.512500
vt 0.125000 0.505283
vt 0.152778 0.500000
vt 0.381250 0.237500
vt 0.381250 0.250000
vt 0.376321 0.255870
vt 0.375000 0.237500
vt 0.381250 0.277778
vt 0.375000 0.277778
vt 0.847222 0.512500
vt 0.847222 0.500000
vt 0.863260 0.500000
vt 0.875000 0.512500
vt 0.618750 0.277778
vt 0.618750 0.250000
vt 0.623679 0.247358
vt 0.625000 0.277778
vt 0.618750 0.237500
vt 0.625000 0.237500
vt 0.347222 0.737500
vt 0.375000 0.737500
vt 0.375881 0.752152
vt 0.361111 0.763889
vt 0.381250 0.737500
vt 0.381250 0.750000
vt 0.381250 0.777778
vt 0.652778 0.737500
vt 0.638889 0.763889
vt 0.628033 0.748239
vt 0.625000 0.737500
vt 0.618750 0.777778
vt 0.618750 0.750000
vt 0.618750 0.737500
vt 0.347222 0.512500
vt 0.361111 0.486111
vt 0.371967 0.501761
vt 0.375000 0.512500
vt 0.381250 0.472222
vt 0.381250 0.500000
vt 0.381250 0.512500
vt 0.652778 0.512500
vt 0.625000 0.512500
vt 0.624119 0.497848
vt 0.638889 0.486111
vt 0.618750 0.512500
vt 0.618750 0.500000
vt 0.618750 0.472222
s 0
usemtl M_Brushed_Metal
f 265/455/261 268/456/261 269/457/261 271/458/261
f 266/459/262 270/460/262 269/461/262 268/462/262
f 267/463/263 271/464/263 269/465/263 270/466/263
f 272/467/264 275/468/264 276/469/264 278/470/264
f 273/471/265 277/472/265 276/473/265 275/474/265
f 274/475/266 278/476/266 276/477/266 277/478/266
f 279/479/267 282/480/267 283/481/267 285/482/267
f 280/483/268 284/484/268 283/485/268 282/486/268
f 281/487/269 285/488/269 283/485/269 284/484/269
f 286/489/270 289/490/270 290/491/270 292/492/270
f 287/493/271 291/494/271 290/495/271 289/496/271
f 288/497/272 292/498/272 290/495/272 291/494/272
f 293/499/273 296/500/273 297/501/273 299/502/273
f 294/503/274 298/504/274 297/501/274 296/500/274
f 295/505/275 299/502/275 297/501/275 298/504/275
f 300/506/276 303/507/276 304/508/276 306/509/276
f 301/510/277 305/511/277 304/508/277 303/507/277
f 302/512/278 306/509/278 304/508/278 305/511/278
f 307/513/279 310/514/279 311/515/279 313/516/279
f 308/517/280 312/518/280 311/515/280 310/514/280
f 309/519/281 313/516/281 311/515/281 312/518/281
f 314/520/282 317/521/282 318/522/282 320/523/282
f 315/524/283 319/525/283 318/522/283 317/521/283
f 316/526/284 320/523/284 318/522/284 319/525/284
f 279/479/285 265/455/285 271/458/285 282/480/285
f 282/486/286 271/464/286 267/463/286 280/483/286
f 266/459/287 272/467/287 278/470/287 270/460/287
f 270/466/288 278/476/288 274/475/288 267/463/288
f 273/471/289 286/489/289 292/492/289 277/472/289
f 277/478/290 292/498/290 288/497/290 274/475/290
f 287/493/291 281/487/291 284/484/291 291/494/291
f 291/494/292 284/484/292 280/483/292 288/497/292
f 307/513/293 279/479/293 285/482/293 310/514/293
f 310/514/294 285/488/294 281/487/294 308/517/294
f 286/489/295 314/520/295 320/523/295 289/490/295
f 289/496/296 320/523/296 316/526/296 287/493/296
f 315/524/297 309/519/297 312/518/297 319/525/297
f 319/525/298 312/518/298 308/517/298 316/526/298
f 293/499/299 307/513/299 313/516/299 296/500/299
f 296/500/300 313/516/300 309/519/300 294/503/300
f 314/520/301 300/506/301 306/509/301 317/521/301
f 317/521/302 306/509/302 302/512/302 315/524/302
f 301/510/303 295/505/303 298/504/303 305/511/303
f 305/511/304 298/504/304 294/503/304 302/512/304
f 265/455/305 293/499/305 299/502/305 268/456/305
f 268/462/306 299/502/306 295/505/306 266/459/306
f 300/506/307 273/471/307 275/474/307 303/507/307
f 303/507/308 275/468/308 272/467/308 301/510/308
f 279/479/309 307/513/309 293/499/309 265/455/309
f 267/463/310 274/475/310 288/497/310 280/483/310
f 295/505/311 301/510/311 272/467/311 266/459/311
f 314/520/312 286/489/312 273/471/312 300/506/312
f 281/487/313 287/493/313 316/526/313 308/517/313
f 309/519/314 315/524/314 302/512/314 294/503/314
