# Blender 4.5.11 LTS
# www.blender.org
mtllib Multimeter.mtl
o Meter_Body
v -0.165000 0.000000 0.045000
v -0.165000 0.045000 0.090000
v -0.210000 0.045000 0.045000
v -0.165000 0.013180 0.076820
v -0.190981 0.019019 0.070981
v -0.196820 0.045000 0.076820
v -0.196820 0.013180 0.045000
v -0.165000 0.635000 0.090000
v -0.165000 0.680000 0.045000
v -0.210000 0.635000 0.045000
v -0.165000 0.666820 0.076820
v -0.190981 0.660981 0.070981
v -0.196820 0.666820 0.045000
v -0.196820 0.635000 0.076820
v -0.165000 0.000000 -0.045000
v -0.210000 0.045000 -0.045000
v -0.165000 0.045000 -0.090000
v -0.196820 0.013180 -0.045000
v -0.190981 0.019019 -0.070981
v -0.196820 0.045000 -0.076820
v -0.165000 0.013180 -0.076820
v -0.165000 0.680000 -0.045000
v -0.165000 0.635000 -0.090000
v -0.210000 0.635000 -0.045000
v -0.165000 0.666820 -0.076820
v -0.190981 0.660981 -0.070981
v -0.196820 0.635000 -0.076820
v -0.196820 0.666820 -0.045000
v 0.165000 0.000000 0.045000
v 0.210000 0.045000 0.045000
v 0.165000 0.045000 0.090000
v 0.196820 0.013180 0.045000
v 0.190981 0.019019 0.070981
v 0.196820 0.045000 0.076820
v 0.165000 0.013180 0.076820
v 0.165000 0.680000 0.045000
v 0.165000 0.635000 0.090000
v 0.210000 0.635000 0.045000
v 0.165000 0.666820 0.076820
v 0.190981 0.660981 0.070981
v 0.196820 0.635000 0.076820
v 0.196820 0.666820 0.045000
v 0.165000 0.000000 -0.045000
v 0.165000 0.045000 -0.090000
v 0.210000 0.045000 -0.045000
v 0.165000 0.013180 -0.076820
v 0.190981 0.019019 -0.070981
v 0.196820 0.045000 -0.076820
v 0.196820 0.013180 -0.045000
v 0.165000 0.680000 -0.045000
v 0.210000 0.635000 -0.045000
v 0.165000 0.635000 -0.090000
v 0.196820 0.666820 -0.045000
v 0.190981 0.660981 -0.070981
v 0.196820 0.635000 -0.076820
v 0.165000 0.666820 -0.076820
vn -0.3251 -0.8881 0.3251
vn -0.3251 -0.3251 0.8881
vn -0.8881 -0.3251 0.3251
vn -0.3251 0.3251 0.8881
vn -0.3251 0.8881 0.3251
vn -0.8881 0.3251 0.3251
vn -0.3251 -0.8881 -0.3251
vn -0.8881 -0.3251 -0.3251
vn -0.3251 -0.3251 -0.8881
vn -0.3251 0.8881 -0.3251
vn -0.3251 0.3251 -0.8881
vn -0.8881 0.3251 -0.3251
vn 0.3251 -0.8881 0.3251
vn 0.8881 -0.3251 0.3251
vn 0.3251 -0.3251 0.8881
vn 0.3251 0.8881 0.3251
vn 0.3251 0.3251 0.8881
vn 0.8881 0.3251 0.3251
vn 0.3251 -0.8881 -0.3251
vn 0.3251 -0.3251 -0.8881
vn 0.8881 -0.3251 -0.3251
vn 0.3251 0.8881 -0.3251
vn 0.8881 0.3251 -0.3251
vn 0.3251 0.3251 -0.8881
vn -0.3827 -0.9239 -0.0000
vn -0.9239 -0.3827 -0.0000
vn -0.3827 -0.0000 0.9239
vn -0.9239 -0.0000 0.3827
vn -0.3827 0.9239 -0.0000
vn -0.9239 0.3827 -0.0000
vn -0.3827 -0.0000 -0.9239
vn -0.9239 -0.0000 -0.3827
vn -0.0000 -0.9239 -0.3827
vn -0.0000 -0.3827 -0.9239
vn -0.0000 0.9239 -0.3827
vn -0.0000 0.3827 -0.9239
vn 0.9239 -0.0000 -0.3827
vn 0.3827 -0.0000 -0.9239
vn 0.3827 -0.9239 -0.0000
vn 0.9239 -0.3827 -0.0000
vn 0.3827 0.9239 -0.0000
vn 0.9239 0.3827 -0.0000
vn 0.3827 -0.0000 0.9239
vn 0.9239 -0.0000 0.3827
vn -0.0000 -0.9239 0.3827
vn -0.0000 -0.3827 0.9239
vn -0.0000 0.9239 0.3827
vn -0.0000 0.3827 0.9239
vn -0.0000 -1.0000 -0.0000
vn -1.0000 -0.0000 -0.0000
vn -0.0000 -0.0000 1.0000
vn -0.0000 1.0000 -0.0000
vn -0.0000 -0.0000 -1.0000
vn 1.0000 -0.0000 -0.0000
vt 0.151786 0.687500
vt 0.151786 0.750000
vt 0.136321 0.750000
vt 0.125000 0.687500
vt 0.391544 0.973214
vt 0.391544 1.000000
vt 0.381992 1.000000
vt 0.375000 0.973214
vt 0.391544 0.062500
vt 0.375000 0.062500
vt 0.375000 0.026416
vt 0.391544 0.000000
vt 0.608456 0.973214
vt 0.625000 0.973214
vt 0.625000 0.988679
vt 0.608456 1.000000
vt 0.848214 0.687500
vt 0.875000 0.687500
vt 0.875000 0.723584
vt 0.848214 0.750000
vt 0.608456 0.062500
vt 0.608456 0.000000
vt 0.618008 0.000000
vt 0.625000 0.062500
vt 0.151786 0.562500
vt 0.125000 0.562500
vt 0.125000 0.526416
vt 0.151786 0.500000
vt 0.391544 0.187500
vt 0.391544 0.250000
vt 0.378496 0.255660
vt 0.375000 0.187500
vt 0.391544 0.276786
vt 0.375000 0.276786
vt 0.848214 0.562500
vt 0.848214 0.500000
vt 0.863679 0.500000
vt 0.875000 0.562500
vt 0.608456 0.276786
vt 0.608456 0.250000
vt 0.621504 0.236792
vt 0.625000 0.276786
vt 0.608456 0.187500
vt 0.625000 0.187500
vt 0.348214 0.687500
vt 0.375000 0.687500
vt 0.377331 0.744968
vt 0.361607 0.763393
vt 0.391544 0.687500
vt 0.391544 0.750000
vt 0.391544 0.776786
vt 0.651786 0.687500
vt 0.638393 0.763393
vt 0.626443 0.741195
vt 0.625000 0.687500
vt 0.608456 0.776786
vt 0.608456 0.750000
vt 0.608456 0.687500
vt 0.348214 0.562500
vt 0.361607 0.486607
vt 0.373557 0.508805
vt 0.375000 0.562500
vt 0.391544 0.473214
vt 0.391544 0.500000
vt 0.391544 0.562500
vt 0.651786 0.562500
vt 0.625000 0.562500
vt 0.622669 0.505032
vt 0.638393 0.486607
vt 0.608456 0.562500
vt 0.608456 0.500000
vt 0.608456 0.473214
s 0
usemtl M_Yellow
f 1/1/1 4/2/1 5/3/1 7/4/1
f 2/5/2 6/6/2 5/7/2 4/8/2
f 3/9/3 7/10/3 5/11/3 6/12/3
f 8/13/4 11/14/4 12/15/4 14/16/4
f 9/17/5 13/18/5 12/19/5 11/20/5
f 10/21/6 14/22/6 12/23/6 13/24/6
f 15/25/7 18/26/7 19/27/7 21/28/7
f 16/29/8 20/30/8 19/31/8 18/32/8
f 17/33/9 21/34/9 19/31/9 20/30/9
f 22/35/10 25/36/10 26/37/10 28/38/10
f 23/39/11 27/40/11 26/41/11 25/42/11
f 24/43/12 28/44/12 26/41/12 27/40/12
f 29/45/13 32/46/13 33/47/13 35/48/13
f 30/49/14 34/50/14 33/47/14 32/46/14
f 31/51/15 35/48/15 33/47/15 34/50/15
f 36/52/16 39/53/16 40/54/16 42/55/16
f 37/56/17 41/57/17 40/54/17 39/53/17
f 38/58/18 42/55/18 40/54/18 41/57/18
f 43/59/19 46/60/19 47/61/19 49/62/19
f 44/63/20 48/64/20 47/61/20 46/60/20
f 45/65/21 49/62/21 47/61/21 48/64/21
f 50/66/22 53/67/22 54/68/22 56/69/22
f 51/70/23 55/71/23 54/68/23 53/67/23
f 52/72/24 56/69/24 54/68/24 55/71/24
f 15/25/25 1/1/25 7/4/25 18/26/25
f 18/32/26 7/10/26 3/9/26 16/29/26
f 2/5/27 8/13/27 14/16/27 6/6/27
f 6/12/28 14/22/28 10/21/28 3/9/28
f 9/17/29 22/35/29 28/38/29 13/18/29
f 13/24/30 28/44/30 24/43/30 10/21/30
f 23/39/31 17/33/31 20/30/31 27/40/31
f 27/40/32 20/30/32 16/29/32 24/43/32
f 43/59/33 15/25/33 21/28/33 46/60/33
f 46/60/34 21/34/34 17/33/34 44/63/34
f 22/35/35 50/66/35 56/69/35 25/36/35
f 25/42/36 56/69/36 52/72/36 23/39/36
f 51/70/37 45/65/37 48/64/37 55/71/37
f 55/71/38 48/64/38 44/63/38 52/72/38
f 29/45/39 43/59/39 49/62/39 32/46/39
f 32/46/40 49/62/40 45/65/40 30/49/40
f 50/66/41 36/52/41 42/55/41 53/67/41
f 53/67/42 42/55/42 38/58/42 51/70/42
f 37/56/43 31/51/43 34/50/43 41/57/43
f 41/57/44 34/50/44 30/49/44 38/58/44
f 1/1/45 29/45/45 35/48/45 4/2/45
f 4/8/46 35/48/46 31/51/46 2/5/46
f 36/52/47 9/17/47 11/20/47 39/53/47
f 39/53/48 11/14/48 8/13/48 37/56/48
f 15/25/49 43/59/49 29/45/49 1/1/49
f 3/9/50 10/21/50 24/43/50 16/29/50
f 31/51/51 37/56/51 8/13/51 2/5/51
f 50/66/52 22/35/52 9/17/52 36/52/52
f 17/33/53 23/39/53 52/72/53 44/63/53
f 45/65/54 51/70/54 38/58/54 30/49/54
o Meter_Face
v -0.174000 0.050000 0.096000
v -0.174000 0.056000 0.102000
v -0.180000 0.056000 0.096000
v -0.174000 0.051757 0.100243
v -0.177464 0.052536 0.099464
v -0.178243 0.056000 0.100243
v -0.178243 0.051757 0.096000
v -0.174000 0.644000 0.102000
v -0.174000 0.650000 0.096000
v -0.180000 0.644000 0.096000
v -0.174000 0.648243 0.100243
v -0.177464 0.647464 0.099464
v -0.178243 0.648243 0.096000
v -0.178243 0.644000 0.100243
v -0.174000 0.050000 0.096000
v -0.180000 0.056000 0.096000
v -0.174000 0.056000 0.090000
v -0.178243 0.051757 0.096000
v -0.177464 0.052536 0.092536
v -0.178243 0.056000 0.091757
v -0.174000 0.051757 0.091757
v -0.174000 0.650000 0.096000
v -0.174000 0.644000 0.090000
v -0.180000 0.644000 0.096000
v -0.174000 0.648243 0.091757
v -0.177464 0.647464 0.092536
v -0.178243 0.644000 0.091757
v -0.178243 0.648243 0.096000
v 0.174000 0.050000 0.096000
v 0.180000 0.056000 0.096000
v 0.174000 0.056000 0.102000
v 0.178243 0.051757 0.096000
v 0.177464 0.052536 0.099464
v 0.178243 0.056000 0.100243
v 0.174000 0.051757 0.100243
v 0.174000 0.650000 0.096000
v 0.174000 0.644000 0.102000
v 0.180000 0.644000 0.096000
v 0.174000 0.648243 0.100243
v 0.177464 0.647464 0.099464
v 0.178243 0.644000 0.100243
v 0.178243 0.648243 0.096000
v 0.174000 0.050000 0.096000
v 0.174000 0.056000 0.090000
v 0.180000 0.056000 0.096000
v 0.174000 0.051757 0.091757
v 0.177464 0.052536 0.092536
v 0.178243 0.056000 0.091757
v 0.178243 0.051757 0.096000
v 0.174000 0.650000 0.096000
v 0.180000 0.644000 0.096000
v 0.174000 0.644000 0.090000
v 0.178243 0.648243 0.096000
v 0.177464 0.647464 0.092536
v 0.178243 0.644000 0.091757
v 0.174000 0.648243 0.091757
vn -0.3251 -0.8881 0.3251
vn -0.3251 -0.3251 0.8881
vn -0.8881 -0.3251 0.3251
vn -0.3251 0.3251 0.8881
vn -0.3251 0.8881 0.3251
vn -0.8881 0.3251 0.3251
vn -0.3251 -0.8881 -0.3251
vn -0.8881 -0.3251 -0.3251
vn -0.3251 -0.3251 -0.8881
vn -0.3251 0.8881 -0.3251
vn -0.3251 0.3251 -0.8881
vn -0.8881 0.3251 -0.3251
vn 0.3251 -0.8881 0.3251
vn 0.8881 -0.3251 0.3251
vn 0.3251 -0.3251 0.8881
vn 0.3251 0.8881 0.3251
vn 0.3251 0.3251 0.8881
vn 0.8881 0.3251 0.3251
vn 0.3251 -0.8881 -0.3251
vn 0.3251 -0.3251 -0.8881
vn 0.8881 -0.3251 -0.3251
vn 0.3251 0.8881 -0.3251
vn 0.8881 0.3251 -0.3251
vn 0.3251 0.3251 -0.8881
vn -0.0556 -0.1343 0.9894
vn -0.0339 -0.0140 0.9993
vn -0.3827 -0.0000 0.9239
vn -0.9239 -0.0000 0.3827
vn -0.3827 0.9239 -0.0000
vn -0.9239 0.3827 -0.0000
vn -0.3827 -0.0000 -0.9239
vn -0.9239 -0.0000 -0.3827
vn -0.0000 -0.9239 -0.3827
vn -0.0000 -0.3827 -0.9239
vn -0.0000 0.9239 -0.3827
vn -0.0000 0.3827 -0.9239
vn 0.9239 -0.0000 -0.3827
vn 0.3827 -0.0000 -0.9239
vn 0.0556 -0.1343 -0.9894
vn 0.0339 -0.0140 -0.9993
vn 0.0556 0.1343 0.9894
vn 0.0339 0.0140 0.9993
vn 0.3827 -0.0000 0.9239
vn 0.9239 -0.0000 0.3827
vn -0.0000 -0.9239 0.3827
vn -0.0000 -0.3827 0.9239
vn -0.0000 0.9239 0.3827
vn -0.0000 0.3827 0.9239
vn -0.0000 -1.0000 -0.0000
vn -1.0000 -0.0000 -0.0000
vn -0.0000 -0.0000 1.0000
vn -0.0000 1.0000 -0.0000
vn -0.0000 -0.0000 -1.0000
vn 1.0000 -0.0000 -0.0000
vt 0.129167 0.625000
vt 0.129167 0.750000
vt 0.126761 0.750000
vt 0.125000 0.625000
vt 0.377500 0.995833
vt 0.377500 1.000000
vt 0.376057 1.000000
vt 0.375000 0.995833
vt 0.377500 0.125000
vt 0.375000 0.125000
vt 0.375000 0.052831
vt 0.377500 0.000000
vt 0.622500 0.995833
vt 0.625000 0.995833
vt 0.625000 0.998239
vt 0.622500 1.000000
vt 0.870833 0.625000
vt 0.875000 0.625000
vt 0.875000 0.697169
vt 0.870833 0.750000
vt 0.622500 0.125000
vt 0.622500 0.000000
vt 0.623943 0.000000
vt 0.625000 0.125000
vt 0.129167 0.625000
vt 0.125000 0.625000
vt 0.125000 0.552831
vt 0.129167 0.500000
vt 0.377500 0.125000
vt 0.377500 0.250000
vt 0.375528 0.250881
vt 0.375000 0.125000
vt 0.377500 0.254167
vt 0.375000 0.254167
vt 0.870833 0.625000
vt 0.870833 0.500000
vt 0.873239 0.500000
vt 0.622500 0.254167
vt 0.622500 0.250000
vt 0.624472 0.223584
vt 0.625000 0.254167
vt 0.622500 0.125000
vt 0.625000 0.125000
vt 0.370833 0.625000
vt 0.375000 0.625000
vt 0.375352 0.732977
vt 0.372917 0.752083
vt 0.377500 0.625000
vt 0.377500 0.750000
vt 0.377500 0.754167
vt 0.629167 0.625000
vt 0.627083 0.752083
vt 0.625235 0.732390
vt 0.625000 0.625000
vt 0.622500 0.754167
vt 0.622500 0.750000
vt 0.622500 0.625000
vt 0.370833 0.625000
vt 0.372917 0.497917
vt 0.374765 0.517610
vt 0.375000 0.625000
vt 0.377500 0.495833
vt 0.377500 0.500000
vt 0.377500 0.625000
vt 0.624648 0.517023
vt 0.627083 0.497917
vt 0.622500 0.625000
vt 0.622500 0.500000
vt 0.622500 0.495833
s 0
usemtl M_Graphite
f 57/73/55 60/74/55 61/75/55 63/76/55
f 58/77/56 62/78/56 61/79/56 60/80/56
f 59/81/57 63/82/57 61/83/57 62/84/57
f 64/85/58 67/86/58 68/87/58 70/88/58
f 65/89/59 69/90/59 68/91/59 67/92/59
f 66/93/60 70/94/60 68/95/60 69/96/60
f 71/97/61 74/98/61 75/99/61 77/100/61
f 72/101/62 76/102/62 75/103/62 74/104/62
f 73/105/63 77/106/63 75/103/63 76/102/63
f 78/107/64 81/108/64 82/109/64 84/90/64
f 79/110/65 83/111/65 82/112/65 81/113/65
f 80/114/66 84/115/66 82/112/66 83/111/66
f 85/116/67 88/117/67 89/118/67 91/119/67
f 86/120/68 90/121/68 89/118/68 88/117/68
f 87/122/69 91/119/69 89/118/69 90/121/69
f 92/123/70 95/124/70 96/125/70 98/126/70
f 93/127/71 97/128/71 96/125/71 95/124/71
f 94/129/72 98/126/72 96/125/72 97/128/72
f 99/130/73 102/131/73 103/132/73 105/133/73
f 100/134/74 104/135/74 103/132/74 102/131/74
f 101/136/75 105/133/75 103/132/75 104/135/75
f 106/123/76 109/126/76 110/137/76 112/138/76
f 107/139/77 111/140/77 110/137/77 109/126/77
f 108/141/78 112/138/78 110/137/78 111/140/78
f 71/97/79 57/73/79 63/76/79 74/98/79
f 74/104/80 63/82/80 59/81/80 72/101/80
f 58/77/81 64/85/81 70/88/81 62/78/81
f 62/84/82 70/94/82 66/93/82 59/81/82
f 65/89/83 78/107/83 84/90/83 69/90/83
f 69/96/84 84/115/84 80/114/84 66/93/84
f 79/110/85 73/105/85 76/102/85 83/111/85
f 83/111/86 76/102/86 72/101/86 80/114/86
f 99/130/87 71/97/87 77/100/87 102/131/87
f 102/131/88 77/106/88 73/105/88 100/134/88
f 78/107/89 106/123/89 112/138/89 81/108/89
f 81/113/90 112/138/90 108/141/90 79/110/90
f 107/139/91 101/136/91 104/135/91 111/140/91
f 111/140/92 104/135/92 100/134/92 108/141/92
f 85/116/93 99/130/93 105/133/93 88/117/93
f 88/117/94 105/133/94 101/136/94 86/120/94
f 106/123/95 92/123/95 98/126/95 109/126/95
f 109/126/96 98/126/96 94/129/96 107/139/96
f 93/127/97 87/122/97 90/121/97 97/128/97
f 97/128/98 90/121/98 86/120/98 94/129/98
f 57/73/99 85/116/99 91/119/99 60/74/99
f 60/80/100 91/119/100 87/122/100 58/77/100
f 92/123/101 65/89/101 67/92/101 95/124/101
f 95/124/102 67/86/102 64/85/102 93/127/102
f 71/97/103 99/130/103 85/116/103 57/73/103
f 59/81/104 66/93/104 80/114/104 72/101/104
f 87/122/105 93/127/105 64/85/105 58/77/105
f 106/123/106 78/107/106 65/89/106 92/123/106
f 73/105/107 79/110/107 108/141/107 100/134/107
f 101/136/108 107/139/108 94/129/108 86/120/108
o Display
v -0.131000 0.475000 0.105000
v -0.131000 0.479000 0.109000
v -0.135000 0.479000 0.105000
v -0.131000 0.476172 0.107828
v -0.133309 0.476691 0.107309
v -0.133828 0.479000 0.107828
v -0.133828 0.476172 0.105000
v -0.131000 0.601000 0.109000
v -0.131000 0.605000 0.105000
v -0.135000 0.601000 0.105000
v -0.131000 0.603828 0.107828
v -0.133309 0.603309 0.107309
v -0.133828 0.603828 0.105000
v -0.133828 0.601000 0.107828
v -0.131000 0.475000 0.105000
v -0.135000 0.479000 0.105000
v -0.131000 0.479000 0.101000
v -0.133828 0.476172 0.105000
v -0.133309 0.476691 0.102691
v -0.133828 0.479000 0.102172
v -0.131000 0.476172 0.102172
v -0.131000 0.605000 0.105000
v -0.131000 0.601000 0.101000
v -0.135000 0.601000 0.105000
v -0.131000 0.603828 0.102172
v -0.133309 0.603309 0.102691
v -0.133828 0.601000 0.102172
v -0.133828 0.603828 0.105000
v 0.131000 0.475000 0.105000
v 0.135000 0.479000 0.105000
v 0.131000 0.479000 0.109000
v 0.133828 0.476172 0.105000
v 0.133309 0.476691 0.107309
v 0.133828 0.479000 0.107828
v 0.131000 0.476172 0.107828
v 0.131000 0.605000 0.105000
v 0.131000 0.601000 0.109000
v 0.135000 0.601000 0.105000
v 0.131000 0.603828 0.107828
v 0.133309 0.603309 0.107309
v 0.133828 0.601000 0.107828
v 0.133828 0.603828 0.105000
v 0.131000 0.475000 0.105000
v 0.131000 0.479000 0.101000
v 0.135000 0.479000 0.105000
v 0.131000 0.476172 0.102172
v 0.133309 0.476691 0.102691
v 0.133828 0.479000 0.102172
v 0.133828 0.476172 0.105000
v 0.131000 0.605000 0.105000
v 0.135000 0.601000 0.105000
v 0.131000 0.601000 0.101000
v 0.133828 0.603828 0.105000
v 0.133309 0.603309 0.102691
v 0.133828 0.601000 0.102172
v 0.131000 0.603828 0.102172
vn -0.3251 -0.8881 0.3251
vn -0.3251 -0.3251 0.8881
vn -0.8881 -0.3251 0.3251
vn -0.3251 0.3251 0.8881
vn -0.3251 0.8881 0.3251
vn -0.8881 0.3251 0.3251
vn -0.3251 -0.8881 -0.3251
vn -0.8881 -0.3251 -0.3251
vn -0.3251 -0.3251 -0.8881
vn -0.3251 0.8881 -0.3251
vn -0.3251 0.3251 -0.8881
vn -0.8881 0.3251 -0.3251
vn 0.3251 -0.8881 0.3251
vn 0.8881 -0.3251 0.3251
vn 0.3251 -0.3251 0.8881
vn 0.3251 0.8881 0.3251
vn 0.3251 0.3251 0.8881
vn 0.8881 0.3251 0.3251
vn 0.3251 -0.8881 -0.3251
vn 0.3251 -0.3251 -0.8881
vn 0.8881 -0.3251 -0.3251
vn 0.3251 0.8881 -0.3251
vn 0.8881 0.3251 -0.3251
vn 0.3251 0.3251 -0.8881
vn -0.3827 -0.9239 -0.0000
vn -0.9239 -0.3827 -0.0000
vn -0.3827 -0.0000 0.9239
vn -0.9239 -0.0000 0.3827
vn -0.3827 0.9239 -0.0000
vn -0.9239 0.3827 -0.0000
vn -0.3827 -0.0000 -0.9239
vn -0.9239 -0.0000 -0.3827
vn -0.0000 -0.9239 -0.3827
vn -0.0000 -0.3827 -0.9239
vn -0.0000 0.9239 -0.3827
vn -0.0000 0.3827 -0.9239
vn 0.9239 -0.0000 -0.3827
vn 0.3827 -0.0000 -0.9239
vn 0.3827 -0.9239 -0.0000
vn 0.9239 -0.3827 -0.0000
vn 0.3827 0.9239 -0.0000
vn 0.9239 0.3827 -0.0000
vn 0.3827 -0.0000 0.9239
vn 0.9239 -0.0000 0.3827
vn -0.0000 -0.9239 0.3827
vn -0.0000 -0.3827 0.9239
vn -0.0000 0.9239 0.3827
vn -0.0000 0.3827 0.9239
vn -0.0000 -1.0000 -0.0000
vn -1.0000 -0.0000 -0.0000
vn -0.0000 -0.0000 1.0000
vn -0.0000 1.0000 -0.0000
vn -0.0000 -0.0000 -1.0000
vn 1.0000 -0.0000 -0.0000
vt 0.128704 0.625000
vt 0.128704 0.750000
vt 0.126565 0.750000
vt 0.125000 0.625000
vt 0.382692 0.996296
vt 0.382692 1.000000
vt 0.378251 1.000000
vt 0.375000 0.996296
vt 0.382692 0.125000
vt 0.375000 0.125000
vt 0.375000 0.052831
vt 0.382692 0.000000
vt 0.617308 0.996296
vt 0.625000 0.996296
vt 0.625000 0.998435
vt 0.617308 1.000000
vt 0.871296 0.625000
vt 0.875000 0.625000
vt 0.875000 0.697169
vt 0.871296 0.750000
vt 0.617308 0.125000
vt 0.617308 0.000000
vt 0.621749 0.000000
vt 0.625000 0.125000
vt 0.128704 0.625000
vt 0.125000 0.625000
vt 0.125000 0.552831
vt 0.128704 0.500000
vt 0.382692 0.125000
vt 0.382692 0.250000
vt 0.376626 0.250783
vt 0.375000 0.125000
vt 0.382692 0.253704
vt 0.375000 0.253704
vt 0.871296 0.500000
vt 0.873435 0.500000
vt 0.875000 0.625000
vt 0.617308 0.253704
vt 0.617308 0.250000
vt 0.623374 0.223584
vt 0.625000 0.253704
vt 0.617308 0.125000
vt 0.625000 0.125000
vt 0.371296 0.625000
vt 0.375000 0.625000
vt 0.376084 0.732911
vt 0.373148 0.751852
vt 0.382692 0.625000
vt 0.382692 0.750000
vt 0.382692 0.753704
vt 0.628704 0.625000
vt 0.626852 0.751852
vt 0.624438 0.732390
vt 0.625000 0.625000
vt 0.617308 0.753704
vt 0.617308 0.750000
vt 0.617308 0.625000
vt 0.371296 0.625000
vt 0.373148 0.498148
vt 0.375562 0.517610
vt 0.375000 0.625000
vt 0.382692 0.496296
vt 0.382692 0.500000
vt 0.628704 0.625000
vt 0.625000 0.625000
vt 0.623916 0.517089
vt 0.626852 0.498148
vt 0.617308 0.500000
vt 0.617308 0.496296
s 0
usemtl M_Cyan_Emission
f 113/142/109 116/143/109 117/144/109 119/145/109
f 114/146/110 118/147/110 117/148/110 116/149/110
f 115/150/111 119/151/111 117/152/111 118/153/111
f 120/154/112 123/155/112 124/156/112 126/157/112
f 121/158/113 125/159/113 124/160/113 123/161/113
f 122/162/114 126/163/114 124/164/114 125/165/114
f 127/166/115 130/167/115 131/168/115 133/169/115
f 128/170/116 132/171/116 131/172/116 130/173/116
f 129/174/117 133/175/117 131/172/117 132/171/117
f 134/158/118 137/176/118 138/177/118 140/178/118
f 135/179/119 139/180/119 138/181/119 137/182/119
f 136/183/120 140/184/120 138/181/120 139/180/120
f 141/185/121 144/186/121 145/187/121 147/188/121
f 142/189/122 146/190/122 145/187/122 144/186/122
f 143/191/123 147/188/123 145/187/123 146/190/123
f 148/192/124 151/193/124 152/194/124 154/195/124
f 149/196/125 153/197/125 152/194/125 151/193/125
f 150/198/126 154/195/126 152/194/126 153/197/126
f 155/199/127 158/200/127 159/201/127 161/202/127
f 156/203/128 160/204/128 159/201/128 158/200/128
f 157/189/129 161/202/129 159/201/129 160/204/129
f 162/205/130 165/206/130 166/207/130 168/208/130
f 163/198/131 167/209/131 166/207/131 165/206/131
f 164/210/132 168/208/132 166/207/132 167/209/132
f 127/166/133 113/142/133 119/145/133 130/167/133
f 130/173/134 119/151/134 115/150/134 128/170/134
f 114/146/135 120/154/135 126/157/135 118/147/135
f 118/153/136 126/163/136 122/162/136 115/150/136
f 121/158/137 134/158/137 140/178/137 125/159/137
f 125/165/138 140/184/138 136/183/138 122/162/138
f 135/179/139 129/174/139 132/171/139 139/180/139
f 139/180/140 132/171/140 128/170/140 136/183/140
f 155/199/141 127/166/141 133/169/141 158/200/141
f 158/200/142 133/175/142 129/174/142 156/203/142
f 134/158/143 162/205/143 168/208/143 137/176/143
f 137/182/144 168/208/144 164/210/144 135/179/144
f 163/198/145 157/189/145 160/204/145 167/209/145
f 167/209/146 160/204/146 156/203/146 164/210/146
f 141/185/147 155/199/147 161/202/147 144/186/147
f 144/186/148 161/202/148 157/189/148 142/189/148
f 162/205/149 148/192/149 154/195/149 165/206/149
f 165/206/150 154/195/150 150/198/150 163/198/150
f 149/196/151 143/191/151 146/190/151 153/197/151
f 153/197/152 146/190/152 142/189/152 150/198/152
f 113/142/153 141/185/153 147/188/153 116/143/153
f 116/149/154 147/188/154 143/191/154 114/146/154
f 148/192/155 121/158/155 123/161/155 151/193/155
f 151/193/156 123/155/156 120/154/156 149/196/156
f 127/166/157 155/199/157 141/185/157 113/142/157
f 115/150/158 122/162/158 136/183/158 128/170/158
f 143/191/159 149/196/159 120/154/159 114/146/159
f 162/205/160 134/158/160 121/158/160 148/192/160
f 129/174/161 135/179/161 164/210/161 156/203/161
f 157/189/162 163/198/162 150/198/162 142/189/162
o Selector
v 0.000000 0.365000 0.102500
v 0.000000 0.365000 0.137500
v 0.022000 0.362104 0.102500
v 0.022000 0.362104 0.137500
v 0.042500 0.353612 0.102500
v 0.042500 0.353612 0.137500
v 0.060104 0.340104 0.102500
v 0.060104 0.340104 0.137500
v 0.073612 0.322500 0.102500
v 0.073612 0.322500 0.137500
v 0.082104 0.302000 0.102500
v 0.082104 0.302000 0.137500
v 0.085000 0.280000 0.102500
v 0.085000 0.280000 0.137500
v 0.082104 0.258000 0.102500
v 0.082104 0.258000 0.137500
v 0.073612 0.237500 0.102500
v 0.073612 0.237500 0.137500
v 0.060104 0.219896 0.102500
v 0.060104 0.219896 0.137500
v 0.042500 0.206388 0.102500
v 0.042500 0.206388 0.137500
v 0.022000 0.197896 0.102500
v 0.022000 0.197896 0.137500
v 0.000000 0.195000 0.102500
v 0.000000 0.195000 0.137500
v -0.022000 0.197896 0.102500
v -0.022000 0.197896 0.137500
v -0.042500 0.206388 0.102500
v -0.042500 0.206388 0.137500
v -0.060104 0.219896 0.102500
v -0.060104 0.219896 0.137500
v -0.073612 0.237500 0.102500
v -0.073612 0.237500 0.137500
v -0.082104 0.258000 0.102500
v -0.082104 0.258000 0.137500
v -0.085000 0.280000 0.102500
v -0.085000 0.280000 0.137500
v -0.082104 0.302000 0.102500
v -0.082104 0.302000 0.137500
v -0.073612 0.322500 0.102500
v -0.073612 0.322500 0.137500
v -0.060104 0.340104 0.102500
v -0.060104 0.340104 0.137500
v -0.042500 0.353612 0.102500
v -0.042500 0.353612 0.137500
v -0.022000 0.362104 0.102500
v -0.022000 0.362104 0.137500
vn -0.0000 0.7342 -0.6789
vn -0.0000 0.7342 0.6789
vn 0.1900 0.7092 -0.6789
vn 0.1900 0.7092 0.6789
vn 0.3671 0.6359 -0.6789
vn 0.3671 0.6359 0.6789
vn 0.5192 0.5192 -0.6789
vn 0.5192 0.5192 0.6789
vn 0.6359 0.3671 -0.6789
vn 0.6359 0.3671 0.6789
vn 0.7092 0.1900 -0.6789
vn 0.7092 0.1900 0.6789
vn 0.7342 -0.0000 -0.6789
vn 0.7342 -0.0000 0.6789
vn 0.7092 -0.1900 -0.6789
vn 0.7092 -0.1900 0.6789
vn 0.6359 -0.3671 -0.6789
vn 0.6359 -0.3671 0.6789
vn 0.5192 -0.5192 -0.6789
vn 0.5192 -0.5192 0.6789
vn 0.3671 -0.6359 -0.6789
vn 0.3671 -0.6359 0.6789
vn 0.1900 -0.7092 -0.6789
vn 0.1900 -0.7092 0.6789
vn -0.0000 -0.7342 -0.6789
vn -0.0000 -0.7342 0.6789
vn -0.1900 -0.7092 -0.6789
vn -0.1900 -0.7092 0.6789
vn -0.3671 -0.6359 -0.6789
vn -0.3671 -0.6359 0.6789
vn -0.5192 -0.5192 -0.6789
vn -0.5192 -0.5192 0.6789
vn -0.6359 -0.3671 -0.6789
vn -0.6359 -0.3671 0.6789
vn -0.7092 -0.1900 -0.6789
vn -0.7092 -0.1900 0.6789
vn -0.7342 -0.0000 -0.6789
vn -0.7342 -0.0000 0.6789
vn -0.7092 0.1900 -0.6789
vn -0.7092 0.1900 0.6789
vn -0.6359 0.3671 -0.6789
vn -0.6359 0.3671 0.6789
vn -0.5192 0.5192 -0.6789
vn -0.5192 0.5192 0.6789
vn -0.3671 0.6359 -0.6789
vn -0.3671 0.6359 0.6789
vn -0.1900 0.7092 -0.6789
vn -0.1900 0.7092 0.6789
vt 1.000000 0.500000
vt 1.000000 1.000000
vt 0.958333 1.000000
vt 0.958333 0.500000
vt 0.916667 1.000000
vt 0.916667 0.500000
vt 0.875000 1.000000
vt 0.875000 0.500000
vt 0.833333 1.000000
vt 0.833333 0.500000
vt 0.791667 1.000000
vt 0.791667 0.500000
vt 0.750000 1.000000
vt 0.750000 0.500000
vt 0.708333 1.000000
vt 0.708333 0.500000
vt 0.666667 1.000000
vt 0.666667 0.500000
vt 0.625000 1.000000
vt 0.625000 0.500000
vt 0.583333 1.000000
vt 0.583333 0.500000
vt 0.541666 1.000000
vt 0.541666 0.500000
vt 0.500000 1.000000
vt 0.500000 0.500000
vt 0.458333 1.000000
vt 0.458333 0.500000
vt 0.416666 1.000000
vt 0.416666 0.500000
vt 0.375000 1.000000
vt 0.375000 0.500000
vt 0.333333 1.000000
vt 0.333333 0.500000
vt 0.291667 1.000000
vt 0.291667 0.500000
vt 0.250000 1.000000
vt 0.250000 0.500000
vt 0.208333 1.000000
vt 0.208333 0.500000
vt 0.166666 1.000000
vt 0.166666 0.500000
vt 0.125000 1.000000
vt 0.125000 0.500000
vt 0.083333 1.000000
vt 0.083333 0.500000
vt 0.312117 0.481822
vt 0.250000 0.490000
vt 0.187883 0.481822
vt 0.130000 0.457846
vt 0.080294 0.419706
vt 0.042154 0.370000
vt 0.018178 0.312117
vt 0.010000 0.250000
vt 0.018178 0.187883
vt 0.042154 0.130000
vt 0.080294 0.080294
vt 0.130000 0.042154
vt 0.187883 0.018178
vt 0.250000 0.010000
vt 0.312117 0.018178
vt 0.370000 0.042154
vt 0.419706 0.080294
vt 0.457846 0.130000
vt 0.481822 0.187883
vt 0.490000 0.250000
vt 0.481822 0.312117
vt 0.457846 0.370000
vt 0.419706 0.419706
vt 0.370000 0.457846
vt 0.041666 1.000000
vt 0.041666 0.500000
vt -0.000000 1.000000
vt -0.000000 0.500000
vt 0.750000 0.490000
vt 0.812117 0.481822
vt 0.870000 0.457846
vt 0.919706 0.419706
vt 0.957846 0.370000
vt 0.981822 0.312117
vt 0.990000 0.250000
vt 0.981822 0.187883
vt 0.957846 0.130000
vt 0.919706 0.080294
vt 0.870000 0.042154
vt 0.812117 0.018178
vt 0.750000 0.010000
vt 0.687883 0.018178
vt 0.630000 0.042154
vt 0.580294 0.080294
vt 0.542154 0.130000
vt 0.518178 0.187883
vt 0.510000 0.250000
vt 0.518178 0.312117
vt 0.542154 0.370000
vt 0.580294 0.419706
vt 0.630000 0.457846
vt 0.687883 0.481822
s 1
usemtl M_Black_Rubber
f 169/211/163 170/212/164 172/213/166 171/214/165
f 171/214/165 172/213/166 174/215/168 173/216/167
f 173/216/167 174/215/168 176/217/170 175/218/169
f 175/218/169 176/217/170 178/219/172 177/220/171
f 177/220/171 178/219/172 180/221/174 179/222/173
f 179/222/173 180/221/174 182/223/176 181/224/175
f 181/224/175 182/223/176 184/225/178 183/226/177
f 183/226/177 184/225/178 186/227/180 185/228/179
f 185/228/179 186/227/180 188/229/182 187/230/181
f 187/230/181 188/229/182 190/231/184 189/232/183
f 189/232/183 190/231/184 192/233/186 191/234/185
f 191/234/185 192/233/186 194/235/188 193/236/187
f 193/236/187 194/235/188 196/237/190 195/238/189
f 195/238/189 196/237/190 198/239/192 197/240/191
f 197/240/191 198/239/192 200/241/194 199/242/193
f 199/242/193 200/241/194 202/243/196 201/244/195
f 201/244/195 202/243/196 204/245/198 203/246/197
f 203/246/197 204/245/198 206/247/200 205/248/199
f 205/248/199 206/247/200 208/249/202 207/250/201
f 207/250/201 208/249/202 210/251/204 209/252/203
f 209/252/203 210/251/204 212/253/206 211/254/205
f 211/254/205 212/253/206 214/255/208 213/256/207
f 172/257/166 170/258/164 216/259/210 214/260/208 212/261/206 210/262/204 208/263/202 206/264/200 204/265/198 202/266/196 200/267/194 198/268/192 196/269/190 194/270/188 192/271/186 190/272/184 188/273/182 186/274/180 184/275/178 182/276/176 180/277/174 178/278/172 176/279/170 174/280/168
f 213/256/207 214/255/208 216/281/210 215/282/209
f 215/282/209 216/281/210 170/283/164 169/284/163
f 169/285/163 171/286/165 173/287/167 175/288/169 177/289/171 179/290/173 181/291/175 183/292/177 185/293/179 187/294/181 189/295/183 191/296/185 193/297/187 195/298/189 197/299/191 199/300/193 201/301/195 203/302/197 205/303/199 207/304/201 209/305/203 211/306/205 213/307/207 215/308/209
o Probe_Port
v -0.090000 0.122000 0.110000
v -0.090000 0.122000 0.130000
v -0.083202 0.120923 0.110000
v -0.083202 0.120923 0.130000
v -0.077069 0.117798 0.110000
v -0.077069 0.117798 0.130000
v -0.072202 0.112931 0.110000
v -0.072202 0.112931 0.130000
v -0.069077 0.106798 0.110000
v -0.069077 0.106798 0.130000
v -0.068000 0.100000 0.110000
v -0.068000 0.100000 0.130000
v -0.069077 0.093202 0.110000
v -0.069077 0.093202 0.130000
v -0.072202 0.087069 0.110000
v -0.072202 0.087069 0.130000
v -0.077069 0.082202 0.110000
v -0.077069 0.082202 0.130000
v -0.083202 0.079077 0.110000
v -0.083202 0.079077 0.130000
v -0.090000 0.078000 0.110000
v -0.090000 0.078000 0.130000
v -0.096798 0.079077 0.110000
v -0.096798 0.079077 0.130000
v -0.102931 0.082202 0.110000
v -0.102931 0.082202 0.130000
v -0.107798 0.087069 0.110000
v -0.107798 0.087069 0.130000
v -0.110923 0.093202 0.110000
v -0.110923 0.093202 0.130000
v -0.112000 0.100000 0.110000
v -0.112000 0.100000 0.130000
v -0.110923 0.106798 0.110000
v -0.110923 0.106798 0.130000
v -0.107798 0.112931 0.110000
v -0.107798 0.112931 0.130000
v -0.102931 0.117798 0.110000
v -0.102931 0.117798 0.130000
v -0.096798 0.120923 0.110000
v -0.096798 0.120923 0.130000
vn -0.0000 0.7392 -0.6735
vn -0.0000 0.7392 0.6735
vn 0.2284 0.7030 -0.6735
vn 0.2284 0.7030 0.6735
vn 0.4345 0.5980 -0.6735
vn 0.4345 0.5980 0.6735
vn 0.5980 0.4345 -0.6735
vn 0.5980 0.4345 0.6735
vn 0.7030 0.2284 -0.6735
vn 0.7030 0.2284 0.6735
vn 0.7392 -0.0000 -0.6735
vn 0.7392 -0.0000 0.6735
vn 0.7030 -0.2284 -0.6735
vn 0.7030 -0.2284 0.6735
vn 0.5980 -0.4345 -0.6735
vn 0.5980 -0.4345 0.6735
vn 0.4345 -0.5980 -0.6735
vn 0.4345 -0.5980 0.6735
vn 0.2284 -0.7030 -0.6735
vn 0.2284 -0.7030 0.6735
vn -0.0000 -0.7392 -0.6735
vn -0.0000 -0.7392 0.6735
vn -0.2284 -0.7030 -0.6735
vn -0.2284 -0.7030 0.6735
vn -0.4345 -0.5980 -0.6735
vn -0.4345 -0.5980 0.6735
vn -0.5980 -0.4345 -0.6735
vn -0.5980 -0.4345 0.6735
vn -0.7030 -0.2284 -0.6735
vn -0.7030 -0.2284 0.6735
vn -0.7392 -0.0000 -0.6735
vn -0.7392 -0.0000 0.6735
vn -0.7030 0.2284 -0.6735
vn -0.7030 0.2284 0.6735
vn -0.5980 0.4345 -0.6735
vn -0.5980 0.4345 0.6735
vn -0.4345 0.5980 -0.6735
vn -0.4345 0.5980 0.6735
vn -0.2284 0.7030 -0.6735
vn -0.2284 0.7030 0.6735
vt 1.000000 0.500000
vt 1.000000 1.000000
vt 0.950000 1.000000
vt 0.950000 0.500000
vt 0.900000 1.000000
vt 0.900000 0.500000
vt 0.850000 1.000000
vt 0.850000 0.500000
vt 0.800000 1.000000
vt 0.800000 0.500000
vt 0.750000 1.000000
vt 0.750000 0.500000
vt 0.700000 1.000000
vt 0.700000 0.500000
vt 0.650000 1.000000
vt 0.650000 0.500000
vt 0.600000 1.000000
vt 0.600000 0.500000
vt 0.550000 1.000000
vt 0.550000 0.500000
vt 0.500000 1.000000
vt 0.500000 0.500000
vt 0.450000 1.000000
vt 0.450000 0.500000
vt 0.400000 1.000000
vt 0.400000 0.500000
vt 0.350000 1.000000
vt 0.350000 0.500000
vt 0.300000 1.000000
vt 0.300000 0.500000
vt 0.250000 1.000000
vt 0.250000 0.500000
vt 0.200000 1.000000
vt 0.200000 0.500000
vt 0.150000 1.000000
vt 0.150000 0.500000
vt 0.100000 1.000000
vt 0.100000 0.500000
vt 0.324164 0.478254
vt 0.250000 0.490000
vt 0.175836 0.478254
vt 0.108932 0.444164
vt 0.055836 0.391068
vt 0.021746 0.324164
vt 0.010000 0.250000
vt 0.021746 0.175836
vt 0.055836 0.108932
vt 0.108932 0.055836
vt 0.175836 0.021746
vt 0.250000 0.010000
vt 0.324164 0.021746
vt 0.391068 0.055836
vt 0.444164 0.108932
vt 0.478254 0.175836
vt 0.490000 0.250000
vt 0.478254 0.324164
vt 0.444164 0.391068
vt 0.391068 0.444164
vt 0.050000 1.000000
vt 0.050000 0.500000
vt -0.000000 1.000000
vt -0.000000 0.500000
vt 0.750000 0.490000
vt 0.824164 0.478254
vt 0.891068 0.444164
vt 0.944164 0.391068
vt 0.978254 0.324164
vt 0.990000 0.250000
vt 0.978254 0.175836
vt 0.944164 0.108932
vt 0.891068 0.055836
vt 0.824164 0.021746
vt 0.750000 0.010000
vt 0.675836 0.021746
vt 0.608932 0.055836
vt 0.555836 0.108932
vt 0.521746 0.175836
vt 0.510000 0.250000
vt 0.521746 0.324164
vt 0.555836 0.391068
vt 0.608932 0.444164
vt 0.675836 0.478254
s 1
usemtl M_Black_Rubber
f 217/309/211 218/310/212 220/311/214 219/312/213
f 219/312/213 220/311/214 222/313/216 221/314/215
f 221/314/215 222/313/216 224/315/218 223/316/217
f 223/316/217 224/315/218 226/317/220 225/318/219
f 225/318/219 226/317/220 228/319/222 227/320/221
f 227/320/221 228/319/222 230/321/224 229/322/223
f 229/322/223 230/321/224 232/323/226 231/324/225
f 231/324/225 232/323/226 234/325/228 233/326/227
f 233/326/227 234/325/228 236/327/230 235/328/229
f 235/328/229 236/327/230 238/329/232 237/330/231
f 237/330/231 238/329/232 240/331/234 239/332/233
f 239/332/233 240/331/234 242/333/236 241/334/235
f 241/334/235 242/333/236 244/335/238 243/336/237
f 243/336/237 244/335/238 246/337/240 245/338/239
f 245/338/239 246/337/240 248/339/242 247/340/241
f 247/340/241 248/339/242 250/341/244 249/342/243
f 249/342/243 250/341/244 252/343/246 251/344/245
f 251/344/245 252/343/246 254/345/248 253/346/247
f 220/347/214 218/348/212 256/349/250 254/350/248 252/351/246 250/352/244 248/353/242 246/354/240 244/355/238 242/356/236 240/357/234 238/358/232 236/359/230 234/360/228 232/361/226 230/362/224 228/363/222 226/364/220 224/365/218 222/366/216
f 253/346/247 254/345/248 256/367/250 255/368/249
f 255/368/249 256/367/250 218/369/212 217/370/211
f 217/371/211 219/372/213 221/373/215 223/374/217 225/375/219 227/376/221 229/377/223 231/378/225 233/379/227 235/380/229 237/381/231 239/382/233 241/383/235 243/384/237 245/385/239 247/386/241 249/387/243 251/388/245 253/389/247 255/390/249
o Probe_Port.001
v 0.090000 0.122000 0.110000
v 0.090000 0.122000 0.130000
v 0.096798 0.120923 0.110000
v 0.096798 0.120923 0.130000
v 0.102931 0.117798 0.110000
v 0.102931 0.117798 0.130000
v 0.107798 0.112931 0.110000
v 0.107798 0.112931 0.130000
v 0.110923 0.106798 0.110000
v 0.110923 0.106798 0.130000
v 0.112000 0.100000 0.110000
v 0.112000 0.100000 0.130000
v 0.110923 0.093202 0.110000
v 0.110923 0.093202 0.130000
v 0.107798 0.087069 0.110000
v 0.107798 0.087069 0.130000
v 0.102931 0.082202 0.110000
v 0.102931 0.082202 0.130000
v 0.096798 0.079077 0.110000
v 0.096798 0.079077 0.130000
v 0.090000 0.078000 0.110000
v 0.090000 0.078000 0.130000
v 0.083202 0.079077 0.110000
v 0.083202 0.079077 0.130000
v 0.077069 0.082202 0.110000
v 0.077069 0.082202 0.130000
v 0.072202 0.087069 0.110000
v 0.072202 0.087069 0.130000
v 0.069077 0.093202 0.110000
v 0.069077 0.093202 0.130000
v 0.068000 0.100000 0.110000
v 0.068000 0.100000 0.130000
v 0.069077 0.106798 0.110000
v 0.069077 0.106798 0.130000
v 0.072202 0.112931 0.110000
v 0.072202 0.112931 0.130000
v 0.077069 0.117798 0.110000
v 0.077069 0.117798 0.130000
v 0.083202 0.120923 0.110000
v 0.083202 0.120923 0.130000
vn -0.0000 0.7392 -0.6735
vn -0.0000 0.7392 0.6735
vn 0.2284 0.7030 -0.6735
vn 0.2284 0.7030 0.6735
vn 0.4345 0.5980 -0.6735
vn 0.4345 0.5980 0.6735
vn 0.5980 0.4345 -0.6735
vn 0.5980 0.4345 0.6735
vn 0.7030 0.2284 -0.6735
vn 0.7030 0.2284 0.6735
vn 0.7392 -0.0000 -0.6735
vn 0.7392 -0.0000 0.6735
vn 0.7030 -0.2284 -0.6735
vn 0.7030 -0.2284 0.6735
vn 0.5980 -0.4345 -0.6735
vn 0.5980 -0.4345 0.6735
vn 0.4345 -0.5980 -0.6735
vn 0.4345 -0.5980 0.6735
vn 0.2284 -0.7030 -0.6735
vn 0.2284 -0.7030 0.6735
vn -0.0000 -0.7392 -0.6735
vn -0.0000 -0.7392 0.6735
vn -0.2284 -0.7030 -0.6735
vn -0.2284 -0.7030 0.6735
vn -0.4345 -0.5980 -0.6735
vn -0.4345 -0.5980 0.6735
vn -0.5980 -0.4345 -0.6735
vn -0.5980 -0.4345 0.6735
vn -0.7030 -0.2284 -0.6735
vn -0.7030 -0.2284 0.6735
vn -0.7392 -0.0000 -0.6735
vn -0.7392 -0.0000 0.6735
vn -0.7030 0.2284 -0.6735
vn -0.7030 0.2284 0.6735
vn -0.5980 0.4345 -0.6735
vn -0.5980 0.4345 0.6735
vn -0.4345 0.5980 -0.6735
vn -0.4345 0.5980 0.6735
vn -0.2284 0.7030 -0.6735
vn -0.2284 0.7030 0.6735
vt 1.000000 0.500000
vt 1.000000 1.000000
vt 0.950000 1.000000
vt 0.950000 0.500000
vt 0.900000 1.000000
vt 0.900000 0.500000
vt 0.850000 1.000000
vt 0.850000 0.500000
vt 0.800000 1.000000
vt 0.800000 0.500000
vt 0.750000 1.000000
vt 0.750000 0.500000
vt 0.700000 1.000000
vt 0.700000 0.500000
vt 0.650000 1.000000
vt 0.650000 0.500000
vt 0.600000 1.000000
vt 0.600000 0.500000
vt 0.550000 1.000000
vt 0.550000 0.500000
vt 0.500000 1.000000
vt 0.500000 0.500000
vt 0.450000 1.000000
vt 0.450000 0.500000
vt 0.400000 1.000000
vt 0.400000 0.500000
vt 0.350000 1.000000
vt 0.350000 0.500000
vt 0.300000 1.000000
vt 0.300000 0.500000
vt 0.250000 1.000000
vt 0.250000 0.500000
vt 0.200000 1.000000
vt 0.200000 0.500000
vt 0.150000 1.000000
vt 0.150000 0.500000
vt 0.100000 1.000000
vt 0.100000 0.500000
vt 0.324164 0.478254
vt 0.250000 0.490000
vt 0.175836 0.478254
vt 0.108932 0.444164
vt 0.055836 0.391068
vt 0.021746 0.324164
vt 0.010000 0.250000
vt 0.021746 0.175836
vt 0.055836 0.108932
vt 0.108932 0.055836
vt 0.175836 0.021746
vt 0.250000 0.010000
vt 0.324164 0.021746
vt 0.391068 0.055836
vt 0.444164 0.108932
vt 0.478254 0.175836
vt 0.490000 0.250000
vt 0.478254 0.324164
vt 0.444164 0.391068
vt 0.391068 0.444164
vt 0.050000 1.000000
vt 0.050000 0.500000
vt -0.000000 1.000000
vt -0.000000 0.500000
vt 0.750000 0.490000
vt 0.824164 0.478254
vt 0.891068 0.444164
vt 0.944164 0.391068
vt 0.978254 0.324164
vt 0.990000 0.250000
vt 0.978254 0.175836
vt 0.944164 0.108932
vt 0.891068 0.055836
vt 0.824164 0.021746
vt 0.750000 0.010000
vt 0.675836 0.021746
vt 0.608932 0.055836
vt 0.555836 0.108932
vt 0.521746 0.175836
vt 0.510000 0.250000
vt 0.521746 0.324164
vt 0.555836 0.391068
vt 0.608932 0.444164
vt 0.675836 0.478254
s 1
usemtl M_Red
f 257/391/251 258/392/252 260/393/254 259/394/253
f 259/394/253 260/393/254 262/395/256 261/396/255
f 261/396/255 262/395/256 264/397/258 263/398/257
f 263/398/257 264/397/258 266/399/260 265/400/259
f 265/400/259 266/399/260 268/401/262 267/402/261
f 267/402/261 268/401/262 270/403/264 269/404/263
f 269/404/263 270/403/264 272/405/266 271/406/265
f 271/406/265 272/405/266 274/407/268 273/408/267
f 273/408/267 274/407/268 276/409/270 275/410/269
f 275/410/269 276/409/270 278/411/272 277/412/271
f 277/412/271 278/411/272 280/413/274 279/414/273
f 279/414/273 280/413/274 282/415/276 281/416/275
f 281/416/275 282/415/276 284/417/278 283/418/277
f 283/418/277 284/417/278 286/419/280 285/420/279
f 285/420/279 286/419/280 288/421/282 287/422/281
f 287/422/281 288/421/282 290/423/284 289/424/283
f 289/424/283 290/423/284 292/425/286 291/426/285
f 291/426/285 292/425/286 294/427/288 293/428/287
f 260/429/254 258/430/252 296/431/290 294/432/288 292/433/286 290/434/284 288/435/282 286/436/280 284/437/278 282/438/276 280/439/274 278/440/272 276/441/270 274/442/268 272/443/266 270/444/264 268/445/262 266/446/260 264/447/258 262/448/256
f 293/428/287 294/427/288 296/449/290 295/450/289
f 295/450/289 296/449/290 258/451/252 257/452/251
f 257/453/251 259/454/253 261/455/255 263/456/257 265/457/259 267/458/261 269/459/263 271/460/265 273/461/267 275/462/269 277/463/271 279/464/273 281/465/275 283/466/277 285/467/279 287/468/281 289/469/283 291/470/285 293/471/287 295/472/289
