# Blender 4.5.11 LTS
# www.blender.org
mtllib Resistor.mtl
o Body
v -0.110000 0.000000 -0.040000
v 0.110000 -0.000000 -0.040000
v -0.110000 -0.012361 -0.038042
v 0.110000 -0.012361 -0.038042
v -0.110000 -0.023511 -0.032361
v 0.110000 -0.023511 -0.032361
v -0.110000 -0.032361 -0.023511
v 0.110000 -0.032361 -0.023511
v -0.110000 -0.038042 -0.012361
v 0.110000 -0.038042 -0.012361
v -0.110000 -0.040000 0.000000
v 0.110000 -0.040000 0.000000
v -0.110000 -0.038042 0.012361
v 0.110000 -0.038042 0.012361
v -0.110000 -0.032361 0.023511
v 0.110000 -0.032361 0.023511
v -0.110000 -0.023511 0.032361
v 0.110000 -0.023511 0.032361
v -0.110000 -0.012361 0.038042
v 0.110000 -0.012361 0.038042
v -0.110000 0.000000 0.040000
v 0.110000 -0.000000 0.040000
v -0.110000 0.012361 0.038042
v 0.110000 0.012361 0.038042
v -0.110000 0.023511 0.032361
v 0.110000 0.023511 0.032361
v -0.110000 0.032361 0.023511
v 0.110000 0.032361 0.023511
v -0.110000 0.038042 0.012361
v 0.110000 0.038042 0.012361
v -0.110000 0.040000 0.000000
v 0.110000 0.040000 0.000000
v -0.110000 0.038042 -0.012361
v 0.110000 0.038042 -0.012361
v -0.110000 0.032361 -0.023511
v 0.110000 0.032361 -0.023511
v -0.110000 0.023511 -0.032361
v 0.110000 0.023511 -0.032361
v -0.110000 0.012361 -0.038042
v 0.110000 0.012361 -0.038042
vn -0.6735 -0.0000 -0.7392
vn 0.6735 -0.0000 -0.7392
vn -0.6735 -0.2284 -0.7030
vn 0.6735 -0.2284 -0.7030
vn -0.6735 -0.4345 -0.5980
vn 0.6735 -0.4345 -0.5980
vn -0.6735 -0.5980 -0.4345
vn 0.6735 -0.5980 -0.4345
vn -0.6735 -0.7030 -0.2284
vn 0.6735 -0.7030 -0.2284
vn -0.6735 -0.7392 -0.0000
vn 0.6735 -0.7392 -0.0000
vn -0.6735 -0.7030 0.2284
vn 0.6735 -0.7030 0.2284
vn -0.6735 -0.5980 0.4345
vn 0.6735 -0.5980 0.4345
vn -0.6735 -0.4345 0.5980
vn 0.6735 -0.4345 0.5980
vn -0.6735 -0.2284 0.7030
vn 0.6735 -0.2284 0.7030
vn -0.6735 -0.0000 0.7392
vn 0.6735 -0.0000 0.7392
vn -0.6735 0.2284 0.7030
vn 0.6735 0.2284 0.7030
vn -0.6735 0.4345 0.5980
vn 0.6735 0.4345 0.5980
vn -0.6735 0.5980 0.4345
vn 0.6735 0.5980 0.4345
vn -0.6735 0.7030 0.2284
vn 0.6735 0.7030 0.2284
vn -0.6735 0.7392 -0.0000
vn 0.6735 0.7392 -0.0000
vn -0.6735 0.7030 -0.2284
vn 0.6735 0.7030 -0.2284
vn -0.6735 0.5980 -0.4345
vn 0.6735 0.5980 -0.4345
vn -0.6735 0.4345 -0.5980
vn 0.6735 0.4345 -0.5980
vn -0.6735 0.2284 -0.7030
vn 0.6735 0.2284 -0.7030
vt 1.000000 0.500000
vt 1.000000 1.000000
vt 0.950000 1.000000
vt 0.950000 0.500000
vt 0.900000 1.000000
vt 0.900000 0.500000
vt 0.850000 1.000000
vt 0.850000 0.500000
vt 0.800000 1.000000
vt 0.800000 0.500000
vt 0.750000 1.000000
vt 0.750000 0.500000
vt 0.700000 1.000000
vt 0.700000 0.500000
vt 0.650000 1.000000
vt 0.650000 0.500000
vt 0.600000 1.000000
vt 0.600000 0.500000
vt 0.550000 1.000000
vt 0.550000 0.500000
vt 0.500000 1.000000
vt 0.500000 0.500000
vt 0.450000 1.000000
vt 0.450000 0.500000
vt 0.400000 1.000000
vt 0.400000 0.500000
vt 0.350000 1.000000
vt 0.350000 0.500000
vt 0.300000 1.000000
vt 0.300000 0.500000
vt 0.250000 1.000000
vt 0.250000 0.500000
vt 0.200000 1.000000
vt 0.200000 0.500000
vt 0.150000 1.000000
vt 0.150000 0.500000
vt 0.100000 1.000000
vt 0.100000 0.500000
vt 0.324164 0.478254
vt 0.250000 0.490000
vt 0.175836 0.478254
vt 0.108932 0.444164
vt 0.055836 0.391068
vt 0.021746 0.324164
vt 0.010000 0.250000
vt 0.021746 0.175836
vt 0.055836 0.108932
vt 0.108932 0.055836
vt 0.175836 0.021746
vt 0.250000 0.010000
vt 0.324164 0.021746
vt 0.391068 0.055836
vt 0.444164 0.108932
vt 0.478254 0.175836
vt 0.490000 0.250000
vt 0.478254 0.324164
vt 0.444164 0.391068
vt 0.391068 0.444164
vt 0.050000 1.000000
vt 0.050000 0.500000
vt -0.000000 1.000000
vt -0.000000 0.500000
vt 0.750000 0.490000
vt 0.824164 0.478254
vt 0.891068 0.444164
vt 0.944164 0.391068
vt 0.978254 0.324164
vt 0.990000 0.250000
vt 0.978254 0.175836
vt 0.944164 0.108932
vt 0.891068 0.055836
vt 0.824164 0.021746
vt 0.750000 0.010000
vt 0.675836 0.021746
vt 0.608932 0.055836
vt 0.555836 0.108932
vt 0.521746 0.175836
vt 0.510000 0.250000
vt 0.521746 0.324164
vt 0.555836 0.391068
vt 0.608932 0.444164
vt 0.675836 0.478254
s 1
usemtl M_Yellow
f 1/1/1 2/2/2 4/3/4 3/4/3
f 3/4/3 4/3/4 6/5/6 5/6/5
f 5/6/5 6/5/6 8/7/8 7/8/7
f 7/8/7 8/7/8 10/9/10 9/10/9
f 9/10/9 10/9/10 12/11/12 11/12/11
f 11/12/11 12/11/12 14/13/14 13/14/13
f 13/14/13 14/13/14 16/15/16 15/16/15
f 15/16/15 16/15/16 18/17/18 17/18/17
f 17/18/17 18/17/18 20/19/20 19/20/19
f 19/20/19 20/19/20 22/21/22 21/22/21
f 21/22/21 22/21/22 24/23/24 23/24/23
f 23/24/23 24/23/24 26/25/26 25/26/25
f 25/26/25 26/25/26 28/27/28 27/28/27
f 27/28/27 28/27/28 30/29/30 29/30/29
f 29/30/29 30/29/30 32/31/32 31/32/31
f 31/32/31 32/31/32 34/33/34 33/34/33
f 33/34/33 34/33/34 36/35/36 35/36/35
f 35/36/35 36/35/36 38/37/38 37/38/37
f 4/39/4 2/40/2 40/41/40 38/42/38 36/43/36 34/44/34 32/45/32 30/46/30 28/47/28 26/48/26 24/49/24 22/50/22 20/51/20 18/52/18 16/53/16 14/54/14 12/55/12 10/56/10 8/57/8 6/58/6
f 37/38/37 38/37/38 40/59/40 39/60/39
f 39/60/39 40/59/40 2/61/2 1/62/1
f 1/63/1 3/64/3 5/65/5 7/66/7 9/67/9 11/68/11 13/69/13 15/70/15 17/71/17 19/72/19 21/73/21 23/74/23 25/75/25 27/76/27 29/77/29 31/78/31 33/79/33 35/80/35 37/81/37 39/82/39
o Band
v -0.056000 0.000000 -0.041000
v -0.044000 -0.000000 -0.041000
v -0.056000 -0.012670 -0.038993
v -0.044000 -0.012670 -0.038993
v -0.056000 -0.024099 -0.033170
v -0.044000 -0.024099 -0.033170
v -0.056000 -0.033170 -0.024099
v -0.044000 -0.033170 -0.024099
v -0.056000 -0.038993 -0.012670
v -0.044000 -0.038993 -0.012670
v -0.056000 -0.041000 0.000000
v -0.044000 -0.041000 0.000000
v -0.056000 -0.038993 0.012670
v -0.044000 -0.038993 0.012670
v -0.056000 -0.033170 0.024099
v -0.044000 -0.033170 0.024099
v -0.056000 -0.024099 0.033170
v -0.044000 -0.024099 0.033170
v -0.056000 -0.012670 0.038993
v -0.044000 -0.012670 0.038993
v -0.056000 0.000000 0.041000
v -0.044000 -0.000000 0.041000
v -0.056000 0.012670 0.038993
v -0.044000 0.012670 0.038993
v -0.056000 0.024099 0.033170
v -0.044000 0.024099 0.033170
v -0.056000 0.033170 0.024099
v -0.044000 0.033170 0.024099
v -0.056000 0.038993 0.012670
v -0.044000 0.038993 0.012670
v -0.056000 0.041000 0.000000
v -0.044000 0.041000 0.000000
v -0.056000 0.038993 -0.012670
v -0.044000 0.038993 -0.012670
v -0.056000 0.033170 -0.024099
v -0.044000 0.033170 -0.024099
v -0.056000 0.024099 -0.033170
v -0.044000 0.024099 -0.033170
v -0.056000 0.012670 -0.038993
v -0.044000 0.012670 -0.038993
vn -0.6735 -0.0000 -0.7392
vn 0.6735 -0.0000 -0.7392
vn -0.6735 -0.2284 -0.7030
vn 0.6735 -0.2284 -0.7030
vn -0.6735 -0.4345 -0.5980
vn 0.6735 -0.4345 -0.5980
vn -0.6735 -0.5980 -0.4345
vn 0.6735 -0.5980 -0.4345
vn -0.6735 -0.7030 -0.2284
vn 0.6735 -0.7030 -0.2284
vn -0.6735 -0.7392 -0.0000
vn 0.6735 -0.7392 -0.0000
vn -0.6735 -0.7030 0.2284
vn 0.6735 -0.7030 0.2284
vn -0.6735 -0.5980 0.4345
vn 0.6735 -0.5980 0.4345
vn -0.6735 -0.4345 0.5980
vn 0.6735 -0.4345 0.5980
vn -0.6735 -0.2284 0.7030
vn 0.6735 -0.2284 0.7030
vn -0.6735 -0.0000 0.7392
vn 0.6735 -0.0000 0.7392
vn -0.6735 0.2284 0.7030
vn 0.6735 0.2284 0.7030
vn -0.6735 0.4345 0.5980
vn 0.6735 0.4345 0.5980
vn -0.6735 0.5980 0.4345
vn 0.6735 0.5980 0.4345
vn -0.6735 0.7030 0.2284
vn 0.6735 0.7030 0.2284
vn -0.6735 0.7392 -0.0000
vn 0.6735 0.7392 -0.0000
vn -0.6735 0.7030 -0.2284
vn 0.6735 0.7030 -0.2284
vn -0.6735 0.5980 -0.4345
vn 0.6735 0.5980 -0.4345
vn -0.6735 0.4345 -0.5980
vn 0.6735 0.4345 -0.5980
vn -0.6735 0.2284 -0.7030
vn 0.6735 0.2284 -0.7030
vt 1.000000 0.500000
vt 1.000000 1.000000
vt 0.950000 1.000000
vt 0.950000 0.500000
vt 0.900000 1.000000
vt 0.900000 0.500000
vt 0.850000 1.000000
vt 0.850000 0.500000
vt 0.800000 1.000000
vt 0.800000 0.500000
vt 0.750000 1.000000
vt 0.750000 0.500000
vt 0.700000 1.000000
vt 0.700000 0.500000
vt 0.650000 1.000000
vt 0.650000 0.500000
vt 0.600000 1.000000
vt 0.600000 0.500000
vt 0.550000 1.000000
vt 0.550000 0.500000
vt 0.500000 1.000000
vt 0.500000 0.500000
vt 0.450000 1.000000
vt 0.450000 0.500000
vt 0.400000 1.000000
vt 0.400000 0.500000
vt 0.350000 1.000000
vt 0.350000 0.500000
vt 0.300000 1.000000
vt 0.300000 0.500000
vt 0.250000 1.000000
vt 0.250000 0.500000
vt 0.200000 1.000000
vt 0.200000 0.500000
vt 0.150000 1.000000
vt 0.150000 0.500000
vt 0.100000 1.000000
vt 0.100000 0.500000
vt 0.324164 0.478254
vt 0.250000 0.490000
vt 0.175836 0.478254
vt 0.108932 0.444164
vt 0.055836 0.391068
vt 0.021746 0.324164
vt 0.010000 0.250000
vt 0.021746 0.175836
vt 0.055836 0.108932
vt 0.108932 0.055836
vt 0.175836 0.021746
vt 0.250000 0.010000
vt 0.324164 0.021746
vt 0.391068 0.055836
vt 0.444164 0.108932
vt 0.478254 0.175836
vt 0.490000 0.250000
vt 0.478254 0.324164
vt 0.444164 0.391068
vt 0.391068 0.444164
vt 0.050000 1.000000
vt 0.050000 0.500000
vt -0.000000 1.000000
vt -0.000000 0.500000
vt 0.750000 0.490000
vt 0.824164 0.478254
vt 0.891068 0.444164
vt 0.944164 0.391068
vt 0.978254 0.324164
vt 0.990000 0.250000
vt 0.978254 0.175836
vt 0.944164 0.108932
vt 0.891068 0.055836
vt 0.824164 0.021746
vt 0.750000 0.010000
vt 0.675836 0.021746
vt 0.608932 0.055836
vt 0.555836 0.108932
vt 0.521746 0.175836
vt 0.510000 0.250000
vt 0.521746 0.324164
vt 0.555836 0.391068
vt 0.608932 0.444164
vt 0.675836 0.478254
s 1
usemtl M_Red
f 41/83/41 42/84/42 44/85/44 43/86/43
f 43/86/43 44/85/44 46/87/46 45/88/45
f 45/88/45 46/87/46 48/89/48 47/90/47
f 47/90/47 48/89/48 50/91/50 49/92/49
f 49/92/49 50/91/50 52/93/52 51/94/51
f 51/94/51 52/93/52 54/95/54 53/96/53
f 53/96/53 54/95/54 56/97/56 55/98/55
f 55/98/55 56/97/56 58/99/58 57/100/57
f 57/100/57 58/99/58 60/101/60 59/102/59
f 59/102/59 60/101/60 62/103/62 61/104/61
f 61/104/61 62/103/62 64/105/64 63/106/63
f 63/106/63 64/105/64 66/107/66 65/108/65
f 65/108/65 66/107/66 68/109/68 67/110/67
f 67/110/67 68/109/68 70/111/70 69/112/69
f 69/112/69 70/111/70 72/113/72 71/114/71
f 71/114/71 72/113/72 74/115/74 73/116/73
f 73/116/73 74/115/74 76/117/76 75/118/75
f 75/118/75 76/117/76 78/119/78 77/120/77
f 44/121/44 42/122/42 80/123/80 78/124/78 76/125/76 74/126/74 72/127/72 70/128/70 68/129/68 66/130/66 64/131/64 62/132/62 60/133/60 58/134/58 56/135/56 54/136/54 52/137/52 50/138/50 48/139/48 46/140/46
f 77/120/77 78/119/78 80/141/80 79/142/79
f 79/142/79 80/141/80 42/143/42 41/144/41
f 41/145/41 43/146/43 45/147/45 47/148/47 49/149/49 51/150/51 53/151/53 55/152/55 57/153/57 59/154/59 61/155/61 63/156/63 65/157/65 67/158/67 69/159/69 71/160/71 73/161/73 75/162/75 77/163/77 79/164/79
o Band.001
v -0.021000 0.000000 -0.041000
v -0.009000 -0.000000 -0.041000
v -0.021000 -0.012670 -0.038993
v -0.009000 -0.012670 -0.038993
v -0.021000 -0.024099 -0.033170
v -0.009000 -0.024099 -0.033170
v -0.021000 -0.033170 -0.024099
v -0.009000 -0.033170 -0.024099
v -0.021000 -0.038993 -0.012670
v -0.009000 -0.038993 -0.012670
v -0.021000 -0.041000 0.000000
v -0.009000 -0.041000 0.000000
v -0.021000 -0.038993 0.012670
v -0.009000 -0.038993 0.012670
v -0.021000 -0.033170 0.024099
v -0.009000 -0.033170 0.024099
v -0.021000 -0.024099 0.033170
v -0.009000 -0.024099 0.033170
v -0.021000 -0.012670 0.038993
v -0.009000 -0.012670 0.038993
v -0.021000 0.000000 0.041000
v -0.009000 -0.000000 0.041000
v -0.021000 0.012670 0.038993
v -0.009000 0.012670 0.038993
v -0.021000 0.024099 0.033170
v -0.009000 0.024099 0.033170
v -0.021000 0.033170 0.024099
v -0.009000 0.033170 0.024099
v -0.021000 0.038993 0.012670
v -0.009000 0.038993 0.012670
v -0.021000 0.041000 0.000000
v -0.009000 0.041000 0.000000
v -0.021000 0.038993 -0.012670
v -0.009000 0.038993 -0.012670
v -0.021000 0.033170 -0.024099
v -0.009000 0.033170 -0.024099
v -0.021000 0.024099 -0.033170
v -0.009000 0.024099 -0.033170
v -0.021000 0.012670 -0.038993
v -0.009000 0.012670 -0.038993
vn -0.6735 -0.0000 -0.7392
vn 0.6735 -0.0000 -0.7392
vn -0.6735 -0.2284 -0.7030
vn 0.6735 -0.2284 -0.7030
vn -0.6735 -0.4345 -0.5980
vn 0.6735 -0.4345 -0.5980
vn -0.6735 -0.5980 -0.4345
vn 0.6735 -0.5980 -0.4345
vn -0.6735 -0.7030 -0.2284
vn 0.6735 -0.7030 -0.2284
vn -0.6735 -0.7392 -0.0000
vn 0.6735 -0.7392 -0.0000
vn -0.6735 -0.7030 0.2284
vn 0.6735 -0.7030 0.2284
vn -0.6735 -0.5980 0.4345
vn 0.6735 -0.5980 0.4345
vn -0.6735 -0.4345 0.5980
vn 0.6735 -0.4345 0.5980
vn -0.6735 -0.2284 0.7030
vn 0.6735 -0.2284 0.7030
vn -0.6735 -0.0000 0.7392
vn 0.6735 -0.0000 0.7392
vn -0.6735 0.2284 0.7030
vn 0.6735 0.2284 0.7030
vn -0.6735 0.4345 0.5980
vn 0.6735 0.4345 0.5980
vn -0.6735 0.5980 0.4345
vn 0.6735 0.5980 0.4345
vn -0.6735 0.7030 0.2284
vn 0.6735 0.7030 0.2284
vn -0.6735 0.7392 -0.0000
vn 0.6735 0.7392 -0.0000
vn -0.6735 0.7030 -0.2284
vn 0.6735 0.7030 -0.2284
vn -0.6735 0.5980 -0.4345
vn 0.6735 0.5980 -0.4345
vn -0.6735 0.4345 -0.5980
vn 0.6735 0.4345 -0.5980
vn -0.6735 0.2284 -0.7030
vn 0.6735 0.2284 -0.7030
vt 1.000000 0.500000
vt 1.000000 1.000000
vt 0.950000 1.000000
vt 0.950000 0.500000
vt 0.900000 1.000000
vt 0.900000 0.500000
vt 0.850000 1.000000
vt 0.850000 0.500000
vt 0.800000 1.000000
vt 0.800000 0.500000
vt 0.750000 1.000000
vt 0.750000 0.500000
vt 0.700000 1.000000
vt 0.700000 0.500000
vt 0.650000 1.000000
vt 0.650000 0.500000
vt 0.600000 1.000000
vt 0.600000 0.500000
vt 0.550000 1.000000
vt 0.550000 0.500000
vt 0.500000 1.000000
vt 0.500000 0.500000
vt 0.450000 1.000000
vt 0.450000 0.500000
vt 0.400000 1.000000
vt 0.400000 0.500000
vt 0.350000 1.000000
vt 0.350000 0.500000
vt 0.300000 1.000000
vt 0.300000 0.500000
vt 0.250000 1.000000
vt 0.250000 0.500000
vt 0.200000 1.000000
vt 0.200000 0.500000
vt 0.150000 1.000000
vt 0.150000 0.500000
vt 0.100000 1.000000
vt 0.100000 0.500000
vt 0.324164 0.478254
vt 0.250000 0.490000
vt 0.175836 0.478254
vt 0.108932 0.444164
vt 0.055836 0.391068
vt 0.021746 0.324164
vt 0.010000 0.250000
vt 0.021746 0.175836
vt 0.055836 0.108932
vt 0.108932 0.055836
vt 0.175836 0.021746
vt 0.250000 0.010000
vt 0.324164 0.021746
vt 0.391068 0.055836
vt 0.444164 0.108932
vt 0.478254 0.175836
vt 0.490000 0.250000
vt 0.478254 0.324164
vt 0.444164 0.391068
vt 0.391068 0.444164
vt 0.050000 1.000000
vt 0.050000 0.500000
vt -0.000000 1.000000
vt -0.000000 0.500000
vt 0.750000 0.490000
vt 0.824164 0.478254
vt 0.891068 0.444164
vt 0.944164 0.391068
vt 0.978254 0.324164
vt 0.990000 0.250000
vt 0.978254 0.175836
vt 0.944164 0.108932
vt 0.891068 0.055836
vt 0.824164 0.021746
vt 0.750000 0.010000
vt 0.675836 0.021746
vt 0.608932 0.055836
vt 0.555836 0.108932
vt 0.521746 0.175836
vt 0.510000 0.250000
vt 0.521746 0.324164
vt 0.555836 0.391068
vt 0.608932 0.444164
vt 0.675836 0.478254
s 1
usemtl M_Black_Rubber
f 81/165/81 82/166/82 84/167/84 83/168/83
f 83/168/83 84/167/84 86/169/86 85/170/85
f 85/170/85 86/169/86 88/171/88 87/172/87
f 87/172/87 88/171/88 90/173/90 89/174/89
f 89/174/89 90/173/90 92/175/92 91/176/91
f 91/176/91 92/175/92 94/177/94 93/178/93
f 93/178/93 94/177/94 96/179/96 95/180/95
f 95/180/95 96/179/96 98/181/98 97/182/97
f 97/182/97 98/181/98 100/183/100 99/184/99
f 99/184/99 100/183/100 102/185/102 101/186/101
f 101/186/101 102/185/102 104/187/104 103/188/103
f 103/188/103 104/187/104 106/189/106 105/190/105
f 105/190/105 106/189/106 108/191/108 107/192/107
f 107/192/107 108/191/108 110/193/110 109/194/109
f 109/194/109 110/193/110 112/195/112 111/196/111
f 111/196/111 112/195/112 114/197/114 113/198/113
f 113/198/113 114/197/114 116/199/116 115/200/115
f 115/200/115 116/199/116 118/201/118 117/202/117
f 84/203/84 82/204/82 120/205/120 118/206/118 116/207/116 114/208/114 112/209/112 110/210/110 108/211/108 106/212/106 104/213/104 102/214/102 100/215/100 98/216/98 96/217/96 94/218/94 92/219/92 90/220/90 88/221/88 86/222/86
f 117/202/117 118/201/118 120/223/120 119/224/119
f 119/224/119 120/223/120 82/225/82 81/226/81
f 81/227/81 83/228/83 85/229/85 87/230/87 89/231/89 91/232/91 93/233/93 95/234/95 97/235/97 99/236/99 101/237/101 103/238/103 105/239/105 107/240/107 109/241/109 111/242/111 113/243/113 115/244/115 117/245/117 119/246/119
o Band.002
v 0.019000 0.000000 -0.041000
v 0.031000 -0.000000 -0.041000
v 0.019000 -0.012670 -0.038993
v 0.031000 -0.012670 -0.038993
v 0.019000 -0.024099 -0.033170
v 0.031000 -0.024099 -0.033170
v 0.019000 -0.033170 -0.024099
v 0.031000 -0.033170 -0.024099
v 0.019000 -0.038993 -0.012670
v 0.031000 -0.038993 -0.012670
v 0.019000 -0.041000 0.000000
v 0.031000 -0.041000 0.000000
v 0.019000 -0.038993 0.012670
v 0.031000 -0.038993 0.012670
v 0.019000 -0.033170 0.024099
v 0.031000 -0.033170 0.024099
v 0.019000 -0.024099 0.033170
v 0.031000 -0.024099 0.033170
v 0.019000 -0.012670 0.038993
v 0.031000 -0.012670 0.038993
v 0.019000 0.000000 0.041000
v 0.031000 -0.000000 0.041000
v 0.019000 0.012670 0.038993
v 0.031000 0.012670 0.038993
v 0.019000 0.024099 0.033170
v 0.031000 0.024099 0.033170
v 0.019000 0.033170 0.024099
v 0.031000 0.033170 0.024099
v 0.019000 0.038993 0.012670
v 0.031000 0.038993 0.012670
v 0.019000 0.041000 0.000000
v 0.031000 0.041000 0.000000
v 0.019000 0.038993 -0.012670
v 0.031000 0.038993 -0.012670
v 0.019000 0.033170 -0.024099
v 0.031000 0.033170 -0.024099
v 0.019000 0.024099 -0.033170
v 0.031000 0.024099 -0.033170
v 0.019000 0.012670 -0.038993
v 0.031000 0.012670 -0.038993
vn -0.6735 -0.0000 -0.7392
vn 0.6735 -0.0000 -0.7392
vn -0.6735 -0.2284 -0.7030
vn 0.6735 -0.2284 -0.7030
vn -0.6735 -0.4345 -0.5980
vn 0.6735 -0.4345 -0.5980
vn -0.6735 -0.5980 -0.4345
vn 0.6735 -0.5980 -0.4345
vn -0.6735 -0.7030 -0.2284
vn 0.6735 -0.7030 -0.2284
vn -0.6735 -0.7392 -0.0000
vn 0.6735 -0.7392 -0.0000
vn -0.6735 -0.7030 0.2284
vn 0.6735 -0.7030 0.2284
vn -0.6735 -0.5980 0.4345
vn 0.6735 -0.5980 0.4345
vn -0.6735 -0.4345 0.5980
vn 0.6735 -0.4345 0.5980
vn -0.6735 -0.2284 0.7030
vn 0.6735 -0.2284 0.7030
vn -0.6735 -0.0000 0.7392
vn 0.6735 -0.0000 0.7392
vn -0.6735 0.2284 0.7030
vn 0.6735 0.2284 0.7030
vn -0.6735 0.4345 0.5980
vn 0.6735 0.4345 0.5980
vn -0.6735 0.5980 0.4345
vn 0.6735 0.5980 0.4345
vn -0.6735 0.7030 0.2284
vn 0.6735 0.7030 0.2284
vn -0.6735 0.7392 -0.0000
vn 0.6735 0.7392 -0.0000
vn -0.6735 0.7030 -0.2284
vn 0.6735 0.7030 -0.2284
vn -0.6735 0.5980 -0.4345
vn 0.6735 0.5980 -0.4345
vn -0.6735 0.4345 -0.5980
vn 0.6735 0.4345 -0.5980
vn -0.6735 0.2284 -0.7030
vn 0.6735 0.2284 -0.7030
vt 1.000000 0.500000
vt 1.000000 1.000000
vt 0.950000 1.000000
vt 0.950000 0.500000
vt 0.900000 1.000000
vt 0.900000 0.500000
vt 0.850000 1.000000
vt 0.850000 0.500000
vt 0.800000 1.000000
vt 0.800000 0.500000
vt 0.750000 1.000000
vt 0.750000 0.500000
vt 0.700000 1.000000
vt 0.700000 0.500000
vt 0.650000 1.000000
vt 0.650000 0.500000
vt 0.600000 1.000000
vt 0.600000 0.500000
vt 0.550000 1.000000
vt 0.550000 0.500000
vt 0.500000 1.000000
vt 0.500000 0.500000
vt 0.450000 1.000000
vt 0.450000 0.500000
vt 0.400000 1.000000
vt 0.400000 0.500000
vt 0.350000 1.000000
vt 0.350000 0.500000
vt 0.300000 1.000000
vt 0.300000 0.500000
vt 0.250000 1.000000
vt 0.250000 0.500000
vt 0.200000 1.000000
vt 0.200000 0.500000
vt 0.150000 1.000000
vt 0.150000 0.500000
vt 0.100000 1.000000
vt 0.100000 0.500000
vt 0.324164 0.478254
vt 0.250000 0.490000
vt 0.175836 0.478254
vt 0.108932 0.444164
vt 0.055836 0.391068
vt 0.021746 0.324164
vt 0.010000 0.250000
vt 0.021746 0.175836
vt 0.055836 0.108932
vt 0.108932 0.055836
vt 0.175836 0.021746
vt 0.250000 0.010000
vt 0.324164 0.021746
vt 0.391068 0.055836
vt 0.444164 0.108932
vt 0.478254 0.175836
vt 0.490000 0.250000
vt 0.478254 0.324164
vt 0.444164 0.391068
vt 0.391068 0.444164
vt 0.050000 1.000000
vt 0.050000 0.500000
vt -0.000000 1.000000
vt -0.000000 0.500000
vt 0.750000 0.490000
vt 0.824164 0.478254
vt 0.891068 0.444164
vt 0.944164 0.391068
vt 0.978254 0.324164
vt 0.990000 0.250000
vt 0.978254 0.175836
vt 0.944164 0.108932
vt 0.891068 0.055836
vt 0.824164 0.021746
vt 0.750000 0.010000
vt 0.675836 0.021746
vt 0.608932 0.055836
vt 0.555836 0.108932
vt 0.521746 0.175836
vt 0.510000 0.250000
vt 0.521746 0.324164
vt 0.555836 0.391068
vt 0.608932 0.444164
vt 0.675836 0.478254
s 1
usemtl M_Red
f 121/247/121 122/248/122 124/249/124 123/250/123
f 123/250/123 124/249/124 126/251/126 125/252/125
f 125/252/125 126/251/126 128/253/128 127/254/127
f 127/254/127 128/253/128 130/255/130 129/256/129
f 129/256/129 130/255/130 132/257/132 131/258/131
f 131/258/131 132/257/132 134/259/134 133/260/133
f 133/260/133 134/259/134 136/261/136 135/262/135
f 135/262/135 136/261/136 138/263/138 137/264/137
f 137/264/137 138/263/138 140/265/140 139/266/139
f 139/266/139 140/265/140 142/267/142 141/268/141
f 141/268/141 142/267/142 144/269/144 143/270/143
f 143/270/143 144/269/144 146/271/146 145/272/145
f 145/272/145 146/271/146 148/273/148 147/274/147
f 147/274/147 148/273/148 150/275/150 149/276/149
f 149/276/149 150/275/150 152/277/152 151/278/151
f 151/278/151 152/277/152 154/279/154 153/280/153
f 153/280/153 154/279/154 156/281/156 155/282/155
f 155/282/155 156/281/156 158/283/158 157/284/157
f 124/285/124 122/286/122 160/287/160 158/288/158 156/289/156 154/290/154 152/291/152 150/292/150 148/293/148 146/294/146 144/295/144 142/296/142 140/297/140 138/298/138 136/299/136 134/300/134 132/301/132 130/302/130 128/303/128 126/304/126
f 157/284/157 158/283/158 160/305/160 159/306/159
f 159/306/159 160/305/160 122/307/122 121/308/121
f 121/309/121 123/310/123 125/311/125 127/312/127 129/313/129 131/314/131 133/315/133 135/316/135 137/317/137 139/318/139 141/319/141 143/320/143 145/321/145 147/322/147 149/323/149 151/324/151 153/325/153 155/326/155 157/327/157 159/328/159
o Band.003
v 0.059000 0.000000 -0.041000
v 0.071000 -0.000000 -0.041000
v 0.059000 -0.012670 -0.038993
v 0.071000 -0.012670 -0.038993
v 0.059000 -0.024099 -0.033170
v 0.071000 -0.024099 -0.033170
v 0.059000 -0.033170 -0.024099
v 0.071000 -0.033170 -0.024099
v 0.059000 -0.038993 -0.012670
v 0.071000 -0.038993 -0.012670
v 0.059000 -0.041000 0.000000
v 0.071000 -0.041000 0.000000
v 0.059000 -0.038993 0.012670
v 0.071000 -0.038993 0.012670
v 0.059000 -0.033170 0.024099
v 0.071000 -0.033170 0.024099
v 0.059000 -0.024099 0.033170
v 0.071000 -0.024099 0.033170
v 0.059000 -0.012670 0.038993
v 0.071000 -0.012670 0.038993
v 0.059000 0.000000 0.041000
v 0.071000 -0.000000 0.041000
v 0.059000 0.012670 0.038993
v 0.071000 0.012670 0.038993
v 0.059000 0.024099 0.033170
v 0.071000 0.024099 0.033170
v 0.059000 0.033170 0.024099
v 0.071000 0.033170 0.024099
v 0.059000 0.038993 0.012670
v 0.071000 0.038993 0.012670
v 0.059000 0.041000 0.000000
v 0.071000 0.041000 0.000000
v 0.059000 0.038993 -0.012670
v 0.071000 0.038993 -0.012670
v 0.059000 0.033170 -0.024099
v 0.071000 0.033170 -0.024099
v 0.059000 0.024099 -0.033170
v 0.071000 0.024099 -0.033170
v 0.059000 0.012670 -0.038993
v 0.071000 0.012670 -0.038993
vn -0.6735 -0.0000 -0.7392
vn 0.6735 -0.0000 -0.7392
vn -0.6735 -0.2284 -0.7030
vn 0.6735 -0.2284 -0.7030
vn -0.6735 -0.4345 -0.5980
vn 0.6735 -0.4345 -0.5980
vn -0.6735 -0.5980 -0.4345
vn 0.6735 -0.5980 -0.4345
vn -0.6735 -0.7030 -0.2284
vn 0.6735 -0.7030 -0.2284
vn -0.6735 -0.7392 -0.0000
vn 0.6735 -0.7392 -0.0000
vn -0.6735 -0.7030 0.2284
vn 0.6735 -0.7030 0.2284
vn -0.6735 -0.5980 0.4345
vn 0.6735 -0.5980 0.4345
vn -0.6735 -0.4345 0.5980
vn 0.6735 -0.4345 0.5980
vn -0.6735 -0.2284 0.7030
vn 0.6735 -0.2284 0.7030
vn -0.6735 -0.0000 0.7392
vn 0.6735 -0.0000 0.7392
vn -0.6735 0.2284 0.7030
vn 0.6735 0.2284 0.7030
vn -0.6735 0.4345 0.5980
vn 0.6735 0.4345 0.5980
vn -0.6735 0.5980 0.4345
vn 0.6735 0.5980 0.4345
vn -0.6735 0.7030 0.2284
vn 0.6735 0.7030 0.2284
vn -0.6735 0.7392 -0.0000
vn 0.6735 0.7392 -0.0000
vn -0.6735 0.7030 -0.2284
vn 0.6735 0.7030 -0.2284
vn -0.6735 0.5980 -0.4345
vn 0.6735 0.5980 -0.4345
vn -0.6735 0.4345 -0.5980
vn 0.6735 0.4345 -0.5980
vn -0.6735 0.2284 -0.7030
vn 0.6735 0.2284 -0.7030
vt 1.000000 0.500000
vt 1.000000 1.000000
vt 0.950000 1.000000
vt 0.950000 0.500000
vt 0.900000 1.000000
vt 0.900000 0.500000
vt 0.850000 1.000000
vt 0.850000 0.500000
vt 0.800000 1.000000
vt 0.800000 0.500000
vt 0.750000 1.000000
vt 0.750000 0.500000
vt 0.700000 1.000000
vt 0.700000 0.500000
vt 0.650000 1.000000
vt 0.650000 0.500000
vt 0.600000 1.000000
vt 0.600000 0.500000
vt 0.550000 1.000000
vt 0.550000 0.500000
vt 0.500000 1.000000
vt 0.500000 0.500000
vt 0.450000 1.000000
vt 0.450000 0.500000
vt 0.400000 1.000000
vt 0.400000 0.500000
vt 0.350000 1.000000
vt 0.350000 0.500000
vt 0.300000 1.000000
vt 0.300000 0.500000
vt 0.250000 1.000000
vt 0.250000 0.500000
vt 0.200000 1.000000
vt 0.200000 0.500000
vt 0.150000 1.000000
vt 0.150000 0.500000
vt 0.100000 1.000000
vt 0.100000 0.500000
vt 0.324164 0.478254
vt 0.250000 0.490000
vt 0.175836 0.478254
vt 0.108932 0.444164
vt 0.055836 0.391068
vt 0.021746 0.324164
vt 0.010000 0.250000
vt 0.021746 0.175836
vt 0.055836 0.108932
vt 0.108932 0.055836
vt 0.175836 0.021746
vt 0.250000 0.010000
vt 0.324164 0.021746
vt 0.391068 0.055836
vt 0.444164 0.108932
vt 0.478254 0.175836
vt 0.490000 0.250000
vt 0.478254 0.324164
vt 0.444164 0.391068
vt 0.391068 0.444164
vt 0.050000 1.000000
vt 0.050000 0.500000
vt -0.000000 1.000000
vt -0.000000 0.500000
vt 0.750000 0.490000
vt 0.824164 0.478254
vt 0.891068 0.444164
vt 0.944164 0.391068
vt 0.978254 0.324164
vt 0.990000 0.250000
vt 0.978254 0.175836
vt 0.944164 0.108932
vt 0.891068 0.055836
vt 0.824164 0.021746
vt 0.750000 0.010000
vt 0.675836 0.021746
vt 0.608932 0.055836
vt 0.555836 0.108932
vt 0.521746 0.175836
vt 0.510000 0.250000
vt 0.521746 0.324164
vt 0.555836 0.391068
vt 0.608932 0.444164
vt 0.675836 0.478254
s 1
usemtl M_Yellow
f 161/329/161 162/330/162 164/331/164 163/332/163
f 163/332/163 164/331/164 166/333/166 165/334/165
f 165/334/165 166/333/166 168/335/168 167/336/167
f 167/336/167 168/335/168 170/337/170 169/338/169
f 169/338/169 170/337/170 172/339/172 171/340/171
f 171/340/171 172/339/172 174/341/174 173/342/173
f 173/342/173 174/341/174 176/343/176 175/344/175
f 175/344/175 176/343/176 178/345/178 177/346/177
f 177/346/177 178/345/178 180/347/180 179/348/179
f 179/348/179 180/347/180 182/349/182 181/350/181
f 181/350/181 182/349/182 184/351/184 183/352/183
f 183/352/183 184/351/184 186/353/186 185/354/185
f 185/354/185 186/353/186 188/355/188 187/356/187
f 187/356/187 188/355/188 190/357/190 189/358/189
f 189/358/189 190/357/190 192/359/192 191/360/191
f 191/360/191 192/359/192 194/361/194 193/362/193
f 193/362/193 194/361/194 196/363/196 195/364/195
f 195/364/195 196/363/196 198/365/198 197/366/197
f 164/367/164 162/368/162 200/369/200 198/370/198 196/371/196 194/372/194 192/373/192 190/374/190 188/375/188 186/376/186 184/377/184 182/378/182 180/379/180 178/380/178 176/381/176 174/382/174 172/383/172 170/384/170 168/385/168 166/386/166
f 197/366/197 198/365/198 200/387/200 199/388/199
f 199/388/199 200/387/200 162/389/162 161/390/161
f 161/391/161 163/392/163 165/393/165 167/394/167 169/395/169 171/396/171 173/397/173 175/398/175 177/399/177 179/400/179 181/401/181 183/402/183 185/403/185 187/404/187 189/405/189 191/406/191 193/407/193 195/408/195 197/409/197 199/410/199
o Lead
v -0.380000 0.000000 -0.006000
v -0.100000 -0.000000 -0.006000
v -0.380000 -0.003527 -0.004854
v -0.100000 -0.003527 -0.004854
v -0.380000 -0.005706 -0.001854
v -0.100000 -0.005706 -0.001854
v -0.380000 -0.005706 0.001854
v -0.100000 -0.005706 0.001854
v -0.380000 -0.003527 0.004854
v -0.100000 -0.003527 0.004854
v -0.380000 0.000000 0.006000
v -0.100000 -0.000000 0.006000
v -0.380000 0.003527 0.004854
v -0.100000 0.003527 0.004854
v -0.380000 0.005706 0.001854
v -0.100000 0.005706 0.001854
v -0.380000 0.005706 -0.001854
v -0.100000 0.005706 -0.001854
v -0.380000 0.003527 -0.004854
v -0.100000 0.003527 -0.004854
vn -0.6437 -0.0000 -0.7653
vn 0.6437 -0.0000 -0.7653
vn -0.6437 -0.4498 -0.6191
vn 0.6437 -0.4498 -0.6191
vn -0.6437 -0.7278 -0.2365
vn 0.6437 -0.7278 -0.2365
vn -0.6437 -0.7278 0.2365
vn 0.6437 -0.7278 0.2365
vn -0.6437 -0.4498 0.6191
vn 0.6437 -0.4498 0.6191
vn -0.6437 -0.0000 0.7653
vn 0.6437 -0.0000 0.7653
vn -0.6437 0.4498 0.6191
vn 0.6437 0.4498 0.6191
vn -0.6437 0.7278 0.2365
vn 0.6437 0.7278 0.2365
vn -0.6437 0.7278 -0.2365
vn 0.6437 0.7278 -0.2365
vn -0.6437 0.4498 -0.6191
vn 0.6437 0.4498 -0.6191
vt 1.000000 0.500000
vt 1.000000 1.000000
vt 0.900000 1.000000
vt 0.900000 0.500000
vt 0.800000 1.000000
vt 0.800000 0.500000
vt 0.700000 1.000000
vt 0.700000 0.500000
vt 0.600000 1.000000
vt 0.600000 0.500000
vt 0.500000 1.000000
vt 0.500000 0.500000
vt 0.400000 1.000000
vt 0.400000 0.500000
vt 0.300000 1.000000
vt 0.300000 0.500000
vt 0.200000 1.000000
vt 0.200000 0.500000
vt 0.391068 0.444164
vt 0.250000 0.490000
vt 0.108932 0.444164
vt 0.021746 0.324164
vt 0.021746 0.175836
vt 0.108932 0.055836
vt 0.250000 0.010000
vt 0.391068 0.055836
vt 0.478254 0.175836
vt 0.478254 0.324164
vt 0.100000 1.000000
vt 0.100000 0.500000
vt -0.000000 1.000000
vt -0.000000 0.500000
vt 0.750000 0.490000
vt 0.891068 0.444164
vt 0.978254 0.324164
vt 0.978254 0.175836
vt 0.891068 0.055836
vt 0.750000 0.010000
vt 0.608932 0.055836
vt 0.521746 0.175836
vt 0.521746 0.324164
vt 0.608932 0.444164
s 1
usemtl M_Brushed_Metal
f 201/411/201 202/412/202 204/413/204 203/414/203
f 203/414/203 204/413/204 206/415/206 205/416/205
f 205/416/205 206/415/206 208/417/208 207/418/207
f 207/418/207 208/417/208 210/419/210 209/420/209
f 209/420/209 210/419/210 212/421/212 211/422/211
f 211/422/211 212/421/212 214/423/214 213/424/213
f 213/424/213 214/423/214 216/425/216 215/426/215
f 215/426/215 216/425/216 218/427/218 217/428/217
f 204/429/204 202/430/202 220/431/220 218/432/218 216/433/216 214/434/214 212/435/212 210/436/210 208/437/208 206/438/206
f 217/428/217 218/427/218 220/439/220 219/440/219
f 219/440/219 220/439/220 202/441/202 201/442/201
f 201/443/201 203/444/203 205/445/205 207/446/207 209/447/209 211/448/211 213/449/213 215/450/215 217/451/217 219/452/219
o Lead.001
v 0.100000 0.000000 -0.006000
v 0.380000 -0.000000 -0.006000
v 0.100000 -0.003527 -0.004854
v 0.380000 -0.003527 -0.004854
v 0.100000 -0.005706 -0.001854
v 0.380000 -0.005706 -0.001854
v 0.100000 -0.005706 0.001854
v 0.380000 -0.005706 0.001854
v 0.100000 -0.003527 0.004854
v 0.380000 -0.003527 0.004854
v 0.100000 0.000000 0.006000
v 0.380000 -0.000000 0.006000
v 0.100000 0.003527 0.004854
v 0.380000 0.003527 0.004854
v 0.100000 0.005706 0.001854
v 0.380000 0.005706 0.001854
v 0.100000 0.005706 -0.001854
v 0.380000 0.005706 -0.001854
v 0.100000 0.003527 -0.004854
v 0.380000 0.003527 -0.004854
vn -0.6437 -0.0000 -0.7653
vn 0.6437 -0.0000 -0.7653
vn -0.6437 -0.4498 -0.6191
vn 0.6437 -0.4498 -0.6191
vn -0.6437 -0.7278 -0.2365
vn 0.6437 -0.7278 -0.2365
vn -0.6437 -0.7278 0.2365
vn 0.6437 -0.7278 0.2365
vn -0.6437 -0.4498 0.6191
vn 0.6437 -0.4498 0.6191
vn -0.6437 -0.0000 0.7653
vn 0.6437 -0.0000 0.7653
vn -0.6437 0.4498 0.6191
vn 0.6437 0.4498 0.6191
vn -0.6437 0.7278 0.2365
vn 0.6437 0.7278 0.2365
vn -0.6437 0.7278 -0.2365
vn 0.6437 0.7278 -0.2365
vn -0.6437 0.4498 -0.6191
vn 0.6437 0.4498 -0.6191
vt 1.000000 0.500000
vt 1.000000 1.000000
vt 0.900000 1.000000
vt 0.900000 0.500000
vt 0.800000 1.000000
vt 0.800000 0.500000
vt 0.700000 1.000000
vt 0.700000 0.500000
vt 0.600000 1.000000
vt 0.600000 0.500000
vt 0.500000 1.000000
vt 0.500000 0.500000
vt 0.400000 1.000000
vt 0.400000 0.500000
vt 0.300000 1.000000
vt 0.300000 0.500000
vt 0.200000 1.000000
vt 0.200000 0.500000
vt 0.391068 0.444164
vt 0.250000 0.490000
vt 0.108932 0.444164
vt 0.021746 0.324164
vt 0.021746 0.175836
vt 0.108932 0.055836
vt 0.250000 0.010000
vt 0.391068 0.055836
vt 0.478254 0.175836
vt 0.478254 0.324164
vt 0.100000 1.000000
vt 0.100000 0.500000
vt -0.000000 1.000000
vt -0.000000 0.500000
vt 0.750000 0.490000
vt 0.891068 0.444164
vt 0.978254 0.324164
vt 0.978254 0.175836
vt 0.891068 0.055836
vt 0.750000 0.010000
vt 0.608932 0.055836
vt 0.521746 0.175836
vt 0.521746 0.324164
vt 0.608932 0.444164
s 1
usemtl M_Brushed_Metal
f 221/453/221 222/454/222 224/455/224 223/456/223
f 223/456/223 224/455/224 226/457/226 225/458/225
f 225/458/225 226/457/226 228/459/228 227/460/227
f 227/460/227 228/459/228 230/461/230 229/462/229
f 229/462/229 230/461/230 232/463/232 231/464/231
f 231/464/231 232/463/232 234/465/234 233/466/233
f 233/466/233 234/465/234 236/467/236 235/468/235
f 235/468/235 236/467/236 238/469/238 237/470/237
f 224/471/224 222/472/222 240/473/240 238/474/238 236/475/236 234/476/234 232/477/232 230/478/230 228/479/228 226/480/226
f 237/470/237 238/469/238 240/481/240 239/482/239
f 239/482/239 240/481/240 222/483/222 221/484/221
f 221/485/221 223/486/223 225/487/225 227/488/227 229/489/229 231/490/231 233/491/233 235/492/235 237/493/237 239/494/239
