# Blender 4.5.11 LTS
# www.blender.org
mtllib LED.mtl
o Lens
v 0.000000 0.138126 -0.014235
v 0.000000 0.132631 -0.027500
v 0.000000 0.085000 -0.055000
v 0.000000 0.046109 -0.038891
v 0.000000 0.037369 -0.027500
v 0.000000 0.031874 -0.014235
v 0.004399 0.138126 -0.013538
v 0.008498 0.132631 -0.026154
v 0.012018 0.123891 -0.036987
v 0.014719 0.112500 -0.045300
v 0.016417 0.099235 -0.050526
v 0.016996 0.085000 -0.052308
v 0.016417 0.070765 -0.050526
v 0.014719 0.057500 -0.045300
v 0.012018 0.046109 -0.036987
v 0.008498 0.037369 -0.026154
v 0.004399 0.031874 -0.013538
v 0.008367 0.138126 -0.011516
v 0.016164 0.132631 -0.022248
v 0.022859 0.123891 -0.031463
v 0.027997 0.112500 -0.038535
v 0.031227 0.099235 -0.042980
v 0.032328 0.085000 -0.044496
v 0.031227 0.070765 -0.042980
v 0.027997 0.057500 -0.038535
v 0.022859 0.046109 -0.031463
v 0.016164 0.037369 -0.022248
v 0.008367 0.031874 -0.011516
v 0.011516 0.138126 -0.008367
v 0.022248 0.132631 -0.016164
v 0.031463 0.123891 -0.022859
v 0.038535 0.112500 -0.027997
v 0.042980 0.099235 -0.031227
v 0.044496 0.085000 -0.032328
v 0.042980 0.070765 -0.031227
v 0.038535 0.057500 -0.027997
v 0.031463 0.046109 -0.022859
v 0.022248 0.037369 -0.016164
v 0.011516 0.031874 -0.008367
v 0.013538 0.138126 -0.004399
v 0.026154 0.132631 -0.008498
v 0.036987 0.123891 -0.012018
v 0.045300 0.112500 -0.014719
v 0.050526 0.099235 -0.016417
v 0.052308 0.085000 -0.016996
v 0.050526 0.070765 -0.016417
v 0.045300 0.057500 -0.014719
v 0.036987 0.046109 -0.012018
v 0.026154 0.037369 -0.008498
v 0.013538 0.031874 -0.004399
v 0.014235 0.138126 -0.000000
v 0.027500 0.132631 0.000000
v 0.038891 0.123891 0.000000
v 0.047631 0.112500 0.000000
v 0.053126 0.099235 -0.000000
v 0.055000 0.085000 0.000000
v 0.053126 0.070765 -0.000000
v 0.047631 0.057500 0.000000
v 0.038891 0.046109 0.000000
v 0.027500 0.037369 0.000000
v 0.014235 0.031874 -0.000000
v 0.013538 0.138126 0.004399
v 0.026154 0.132631 0.008498
v 0.036987 0.123891 0.012018
v 0.045300 0.112500 0.014719
v 0.050526 0.099235 0.016417
v 0.052308 0.085000 0.016996
v 0.050526 0.070765 0.016417
v 0.045300 0.057500 0.014719
v 0.036987 0.046109 0.012018
v 0.026154 0.037369 0.008498
v 0.013538 0.031874 0.004399
v 0.011516 0.138126 0.008367
v 0.022248 0.132631 0.016164
v 0.031463 0.123891 0.022859
v 0.038535 0.112500 0.027997
v 0.042980 0.099235 0.031227
v 0.044496 0.085000 0.032328
v 0.042980 0.070765 0.031227
v 0.038535 0.057500 0.027997
v 0.031463 0.046109 0.022859
v 0.022248 0.037369 0.016164
v 0.011516 0.031874 0.008367
v 0.008367 0.138126 0.011516
v 0.016164 0.132631 0.022248
v 0.022859 0.123891 0.031463
v 0.027997 0.112500 0.038535
v 0.031227 0.099235 0.042980
v 0.032328 0.085000 0.044496
v 0.031227 0.070765 0.042980
v 0.027997 0.057500 0.038535
v 0.022859 0.046109 0.031463
v 0.016164 0.037369 0.022248
v 0.008367 0.031874 0.011516
v 0.004399 0.138126 0.013538
v 0.008498 0.132631 0.026154
v 0.012018 0.123891 0.036987
v 0.014719 0.112500 0.045300
v 0.016417 0.099235 0.050526
v 0.016996 0.085000 0.052308
v 0.016417 0.070765 0.050526
v 0.014719 0.057500 0.045300
v 0.012018 0.046109 0.036987
v 0.008498 0.037369 0.026154
v 0.004399 0.031874 0.013538
v 0.000000 0.138126 0.014235
v -0.000000 0.132631 0.027500
v -0.000000 0.123891 0.038891
v 0.000000 0.112500 0.047631
v 0.000000 0.099235 0.053126
v -0.000000 0.085000 0.055000
v 0.000000 0.070765 0.053126
v 0.000000 0.057500 0.047631
v -0.000000 0.046109 0.038891
v -0.000000 0.037369 0.027500
v 0.000000 0.031874 0.014235
v -0.004399 0.138126 0.013538
v -0.008498 0.132631 0.026154
v -0.012018 0.123891 0.036987
v -0.014719 0.112500 0.045300
v -0.016417 0.099235 0.050526
v -0.016996 0.085000 0.052308
v -0.016417 0.070765 0.050526
v -0.014719 0.057500 0.045300
v -0.012018 0.046109 0.036987
v -0.008498 0.037369 0.026154
v -0.004399 0.031874 0.013538
v 0.000000 0.030000 0.000000
v 0.000000 0.140000 0.000000
v -0.008367 0.138126 0.011516
v -0.016164 0.132631 0.022248
v -0.022859 0.123891 0.031463
v -0.027997 0.112500 0.038535
v -0.031227 0.099235 0.042980
v -0.032328 0.085000 0.044496
v -0.031227 0.070765 0.042980
v -0.027997 0.057500 0.038535
v -0.022859 0.046109 0.031463
v -0.016164 0.037369 0.022248
v -0.008367 0.031874 0.011516
v -0.011516 0.138126 0.008367
v -0.022248 0.132631 0.016164
v -0.031463 0.123891 0.022859
v -0.038535 0.112500 0.027997
v -0.042980 0.099235 0.031227
v -0.044496 0.085000 0.032328
v -0.042980 0.070765 0.031227
v -0.038535 0.057500 0.027997
v -0.031463 0.046109 0.022859
v -0.022248 0.037369 0.016164
v -0.011516 0.031874 0.008367
v -0.013538 0.138126 0.004399
v -0.026154 0.132631 0.008498
v -0.036987 0.123891 0.012018
v -0.045300 0.112500 0.014719
v -0.050526 0.099235 0.016417
v -0.052308 0.085000 0.016996
v -0.050526 0.070765 0.016417
v -0.045300 0.057500 0.014719
v -0.036987 0.046109 0.012018
v -0.026154 0.037369 0.008498
v -0.013538 0.031874 0.004399
v -0.014235 0.138126 0.000000
v -0.027500 0.132631 -0.000000
v -0.038891 0.123891 -0.000000
v -0.047631 0.112500 0.000000
v -0.053126 0.099235 0.000000
v -0.055000 0.085000 -0.000000
v -0.053126 0.070765 0.000000
v -0.047631 0.057500 0.000000
v -0.038891 0.046109 -0.000000
v -0.027500 0.037369 -0.000000
v -0.014235 0.031874 0.000000
v -0.013538 0.138126 -0.004399
v -0.026154 0.132631 -0.008498
v -0.036987 0.123891 -0.012018
v -0.045300 0.112500 -0.014719
v -0.050526 0.099235 -0.016417
v -0.052308 0.085000 -0.016996
v -0.050526 0.070765 -0.016417
v -0.045300 0.057500 -0.014719
v -0.036987 0.046109 -0.012018
v -0.026154 0.037369 -0.008498
v -0.013538 0.031874 -0.004399
v -0.011516 0.138126 -0.008367
v -0.022248 0.132631 -0.016164
v -0.031463 0.123891 -0.022859
v -0.038535 0.112500 -0.027997
v -0.042980 0.099235 -0.031227
v -0.044496 0.085000 -0.032328
v -0.042980 0.070765 -0.031227
v -0.038535 0.057500 -0.027997
v -0.031463 0.046109 -0.022859
v -0.022248 0.037369 -0.016164
v -0.011516 0.031874 -0.008367
v -0.008367 0.138126 -0.011516
v -0.016164 0.132631 -0.022248
v -0.022859 0.123891 -0.031463
v -0.027997 0.112500 -0.038535
v -0.031227 0.099235 -0.042980
v -0.032328 0.085000 -0.044496
v -0.031227 0.070765 -0.042980
v -0.027997 0.057500 -0.038535
v -0.022859 0.046109 -0.031463
v -0.016164 0.037369 -0.022248
v -0.008367 0.031874 -0.011516
v -0.004399 0.138126 -0.013538
v -0.008498 0.132631 -0.026154
v -0.012018 0.123891 -0.036987
v -0.014719 0.112500 -0.045300
v -0.016417 0.099235 -0.050526
v -0.016996 0.085000 -0.052308
v -0.016417 0.070765 -0.050526
v -0.014719 0.057500 -0.045300
v -0.012018 0.046109 -0.036987
v -0.008498 0.037369 -0.026154
v -0.004399 0.031874 -0.013538
v 0.000000 0.123891 -0.038891
v -0.000000 0.112500 -0.047631
v -0.000000 0.099235 -0.053126
v -0.000000 0.070765 -0.053126
v -0.000000 0.057500 -0.047631
vn -0.0000 0.9626 -0.2709
vn -0.0000 0.8604 -0.5097
vn -0.0000 -0.0000 -1.0000
vn -0.0000 -0.7007 -0.7135
vn -0.0000 -0.8604 -0.5097
vn -0.0000 -0.9626 -0.2709
vn 0.0837 0.9626 -0.2577
vn 0.1575 0.8604 -0.4847
vn 0.2205 0.7007 -0.6786
vn 0.2686 0.4945 -0.8267
vn 0.2988 0.2556 -0.9195
vn 0.3090 -0.0000 -0.9511
vn 0.2988 -0.2556 -0.9195
vn 0.2686 -0.4945 -0.8267
vn 0.2205 -0.7007 -0.6786
vn 0.1575 -0.8604 -0.4847
vn 0.0837 -0.9626 -0.2577
vn 0.1592 0.9626 -0.2192
vn 0.2996 0.8604 -0.4123
vn 0.4194 0.7007 -0.5772
vn 0.5109 0.4945 -0.7032
vn 0.5683 0.2556 -0.7821
vn 0.5878 -0.0000 -0.8090
vn 0.5683 -0.2556 -0.7821
vn 0.5109 -0.4945 -0.7032
vn 0.4194 -0.7007 -0.5772
vn 0.2996 -0.8604 -0.4123
vn 0.1592 -0.9626 -0.2192
vn 0.2192 0.9626 -0.1592
vn 0.4123 0.8604 -0.2996
vn 0.5772 0.7007 -0.4194
vn 0.7032 0.4945 -0.5109
vn 0.7821 0.2556 -0.5683
vn 0.8090 -0.0000 -0.5878
vn 0.7821 -0.2556 -0.5683
vn 0.7032 -0.4945 -0.5109
vn 0.5772 -0.7007 -0.4194
vn 0.4123 -0.8604 -0.2996
vn 0.2192 -0.9626 -0.1592
vn 0.2576 0.9626 -0.0837
vn 0.4847 0.8604 -0.1575
vn 0.6786 0.7007 -0.2205
vn 0.8267 0.4945 -0.2686
vn 0.9195 0.2556 -0.2988
vn 0.9511 -0.0000 -0.3090
vn 0.9195 -0.2556 -0.2988
vn 0.8267 -0.4945 -0.2686
vn 0.6786 -0.7007 -0.2205
vn 0.4847 -0.8604 -0.1575
vn 0.2577 -0.9626 -0.0837
vn 0.2709 0.9626 -0.0000
vn 0.5097 0.8604 -0.0000
vn 0.7135 0.7007 -0.0000
vn 0.8692 0.4945 -0.0000
vn 0.9668 0.2556 -0.0000
vn 1.0000 -0.0000 -0.0000
vn 0.9668 -0.2556 -0.0000
vn 0.8692 -0.4945 -0.0000
vn 0.7135 -0.7007 -0.0000
vn 0.5097 -0.8604 -0.0000
vn 0.2709 -0.9626 -0.0000
vn 0.2576 0.9626 0.0837
vn 0.4847 0.8604 0.1575
vn 0.6786 0.7007 0.2205
vn 0.8267 0.4945 0.2686
vn 0.9195 0.2556 0.2987
vn 0.9511 -0.0000 0.3090
vn 0.9195 -0.2556 0.2987
vn 0.8267 -0.4945 0.2686
vn 0.6786 -0.7007 0.2205
vn 0.4847 -0.8604 0.1575
vn 0.2576 -0.9626 0.0837
vn 0.2192 0.9626 0.1592
vn 0.4123 0.8604 0.2996
vn 0.5772 0.7007 0.4194
vn 0.7032 0.4945 0.5109
vn 0.7821 0.2556 0.5683
vn 0.8090 -0.0000 0.5878
vn 0.7821 -0.2556 0.5683
vn 0.7032 -0.4945 0.5109
vn 0.5772 -0.7007 0.4194
vn 0.4123 -0.8604 0.2996
vn 0.2192 -0.9626 0.1592
vn 0.1592 0.9626 0.2192
vn 0.2996 0.8604 0.4123
vn 0.4194 0.7007 0.5772
vn 0.5109 0.4945 0.7032
vn 0.5683 0.2556 0.7821
vn 0.5878 -0.0000 0.8090
vn 0.5683 -0.2556 0.7821
vn 0.5109 -0.4945 0.7032
vn 0.4194 -0.7007 0.5772
vn 0.2996 -0.8604 0.4123
vn 0.1592 -0.9626 0.2192
vn 0.0837 0.9626 0.2577
vn 0.1575 0.8604 0.4847
vn 0.2205 0.7007 0.6786
vn 0.2686 0.4945 0.8267
vn 0.2987 0.2556 0.9195
vn 0.3090 -0.0000 0.9511
vn 0.2987 -0.2556 0.9195
vn 0.2686 -0.4945 0.8267
vn 0.2205 -0.7007 0.6786
vn 0.1575 -0.8604 0.4847
vn 0.0837 -0.9626 0.2577
vn -0.0000 0.9626 0.2709
vn -0.0000 0.8604 0.5097
vn -0.0000 0.7007 0.7135
vn -0.0000 0.4945 0.8692
vn -0.0000 0.2556 0.9668
vn -0.0000 -0.0000 1.0000
vn -0.0000 -0.2556 0.9668
vn -0.0000 -0.4945 0.8692
vn -0.0000 -0.7007 0.7135
vn -0.0000 -0.8604 0.5097
vn -0.0000 -0.9626 0.2709
vn -0.0837 0.9626 0.2576
vn -0.1575 0.8604 0.4847
vn -0.2205 0.7007 0.6786
vn -0.2686 0.4945 0.8267
vn -0.2987 0.2556 0.9195
vn -0.3090 -0.0000 0.9511
vn -0.2987 -0.2556 0.9195
vn -0.2686 -0.4945 0.8267
vn -0.2205 -0.7007 0.6786
vn -0.1575 -0.8604 0.4847
vn -0.0837 -0.9626 0.2576
vn -0.0000 -1.0000 -0.0000
vn -0.0000 1.0000 -0.0000
vn -0.1592 0.9626 0.2192
vn -0.2996 0.8604 0.4123
vn -0.4194 0.7007 0.5772
vn -0.5109 0.4945 0.7032
vn -0.5683 0.2556 0.7821
vn -0.5878 -0.0000 0.8090
vn -0.5683 -0.2556 0.7821
vn -0.5109 -0.4945 0.7032
vn -0.4194 -0.7007 0.5772
vn -0.2996 -0.8604 0.4123
vn -0.1592 -0.9626 0.2192
vn -0.2192 0.9626 0.1592
vn -0.4123 0.8604 0.2996
vn -0.5772 0.7007 0.4194
vn -0.7032 0.4945 0.5109
vn -0.7821 0.2556 0.5683
vn -0.8090 -0.0000 0.5878
vn -0.7821 -0.2556 0.5683
vn -0.7032 -0.4945 0.5109
vn -0.5772 -0.7007 0.4194
vn -0.4123 -0.8604 0.2996
vn -0.2192 -0.9626 0.1592
vn -0.2577 0.9626 0.0837
vn -0.4847 0.8604 0.1575
vn -0.6786 0.7007 0.2205
vn -0.8267 0.4945 0.2686
vn -0.9195 0.2556 0.2987
vn -0.9511 -0.0000 0.3090
vn -0.9195 -0.2556 0.2987
vn -0.8267 -0.4945 0.2686
vn -0.6786 -0.7007 0.2205
vn -0.4847 -0.8604 0.1575
vn -0.2577 -0.9626 0.0837
vn -0.2709 0.9626 -0.0000
vn -0.5097 0.8604 -0.0000
vn -0.7135 0.7007 -0.0000
vn -0.8692 0.4945 -0.0000
vn -0.9668 0.2556 -0.0000
vn -1.0000 -0.0000 -0.0000
vn -0.9668 -0.2556 -0.0000
vn -0.8692 -0.4945 -0.0000
vn -0.7135 -0.7007 -0.0000
vn -0.5097 -0.8604 -0.0000
vn -0.2709 -0.9626 -0.0000
vn -0.2577 0.9626 -0.0837
vn -0.4847 0.8604 -0.1575
vn -0.6786 0.7007 -0.2205
vn -0.8267 0.4945 -0.2686
vn -0.9195 0.2556 -0.2987
vn -0.9511 -0.0000 -0.3090
vn -0.9195 -0.2556 -0.2987
vn -0.8267 -0.4945 -0.2686
vn -0.6786 -0.7007 -0.2205
vn -0.4847 -0.8604 -0.1575
vn -0.2576 -0.9626 -0.0837
vn -0.2192 0.9626 -0.1592
vn -0.4123 0.8604 -0.2996
vn -0.5772 0.7007 -0.4194
vn -0.7032 0.4945 -0.5109
vn -0.7821 0.2556 -0.5683
vn -0.8090 -0.0000 -0.5878
vn -0.7821 -0.2556 -0.5683
vn -0.7032 -0.4945 -0.5109
vn -0.5772 -0.7007 -0.4194
vn -0.4123 -0.8604 -0.2996
vn -0.2192 -0.9626 -0.1592
vn -0.1592 0.9626 -0.2192
vn -0.2996 0.8604 -0.4123
vn -0.4194 0.7007 -0.5772
vn -0.5109 0.4945 -0.7032
vn -0.5683 0.2556 -0.7821
vn -0.5878 -0.0000 -0.8090
vn -0.5683 -0.2556 -0.7821
vn -0.5109 -0.4945 -0.7032
vn -0.4194 -0.7007 -0.5772
vn -0.2996 -0.8604 -0.4123
vn -0.1592 -0.9626 -0.2192
vn -0.0837 0.9626 -0.2577
vn -0.1575 0.8604 -0.4847
vn -0.2205 0.7007 -0.6786
vn -0.2686 0.4945 -0.8267
vn -0.2987 0.2556 -0.9195
vn -0.3090 -0.0000 -0.9511
vn -0.2987 -0.2556 -0.9195
vn -0.2686 -0.4945 -0.8267
vn -0.2205 -0.7007 -0.6786
vn -0.1575 -0.8604 -0.4847
vn -0.0837 -0.9626 -0.2577
vn -0.0000 0.7007 -0.7135
vn -0.0000 0.4945 -0.8692
vn -0.0000 0.2556 -0.9668
vn -0.0000 -0.2556 -0.9668
vn -0.0000 -0.4945 -0.8692
vt 0.725000 0.000000
vt 0.750000 0.083333
vt 0.700000 0.083333
vt 0.750000 0.833333
vt 0.750000 0.916667
vt 0.700000 0.916667
vt 0.700000 0.833333
vt 0.750000 0.250000
vt 0.750000 0.333333
vt 0.700000 0.333333
vt 0.700000 0.250000
vt 0.750000 0.500000
vt 0.750000 0.583333
vt 0.700000 0.583333
vt 0.700000 0.500000
vt 0.750000 0.750000
vt 0.700000 0.750000
vt 0.750000 0.166667
vt 0.700000 0.166667
vt 0.750000 0.416667
vt 0.700000 0.416667
vt 0.750000 0.666667
vt 0.700000 0.666667
vt 0.725000 1.000000
vt 0.650000 0.500000
vt 0.650000 0.416667
vt 0.650000 0.750000
vt 0.650000 0.666667
vt 0.650000 0.166667
vt 0.650000 0.083333
vt 0.675000 1.000000
vt 0.650000 0.916667
vt 0.650000 0.333333
vt 0.650000 0.583333
vt 0.675000 0.000000
vt 0.650000 0.833333
vt 0.650000 0.250000
vt 0.600000 0.333333
vt 0.600000 0.250000
vt 0.600000 0.583333
vt 0.600000 0.500000
vt 0.600000 0.833333
vt 0.600000 0.750000
vt 0.600000 0.166667
vt 0.600000 0.416667
vt 0.600000 0.666667
vt 0.600000 0.083333
vt 0.625000 1.000000
vt 0.600000 0.916667
vt 0.625000 0.000000
vt 0.575000 1.000000
vt 0.550000 0.916667
vt 0.550000 0.416667
vt 0.550000 0.333333
vt 0.550000 0.666667
vt 0.550000 0.583333
vt 0.575000 0.000000
vt 0.550000 0.083333
vt 0.550000 0.833333
vt 0.550000 0.250000
vt 0.550000 0.500000
vt 0.550000 0.750000
vt 0.550000 0.166667
vt 0.500000 0.250000
vt 0.500000 0.166667
vt 0.500000 0.500000
vt 0.500000 0.416667
vt 0.500000 0.750000
vt 0.500000 0.666667
vt 0.500000 0.083333
vt 0.525000 1.000000
vt 0.500000 0.916667
vt 0.500000 0.333333
vt 0.500000 0.583333
vt 0.525000 0.000000
vt 0.500000 0.833333
vt 0.450000 0.916667
vt 0.450000 0.833333
vt 0.450000 0.333333
vt 0.450000 0.250000
vt 0.450000 0.583333
vt 0.450000 0.500000
vt 0.450000 0.750000
vt 0.450000 0.166667
vt 0.450000 0.416667
vt 0.450000 0.666667
vt 0.450000 0.083333
vt 0.475000 1.000000
vt 0.475000 0.000000
vt 0.400000 0.166667
vt 0.400000 0.083333
vt 0.425000 1.000000
vt 0.400000 0.916667
vt 0.400000 0.416667
vt 0.400000 0.333333
vt 0.400000 0.666667
vt 0.400000 0.583333
vt 0.425000 0.000000
vt 0.400000 0.833333
vt 0.400000 0.250000
vt 0.400000 0.500000
vt 0.400000 0.750000
vt 0.350000 0.833333
vt 0.350000 0.750000
vt 0.350000 0.250000
vt 0.350000 0.166667
vt 0.350000 0.500000
vt 0.350000 0.416667
vt 0.350000 0.666667
vt 0.350000 0.083333
vt 0.375000 1.000000
vt 0.350000 0.916667
vt 0.350000 0.333333
vt 0.350000 0.583333
vt 0.375000 0.000000
vt 0.325000 0.000000
vt 0.300000 0.083333
vt 0.300000 0.916667
vt 0.300000 0.833333
vt 0.300000 0.333333
vt 0.300000 0.250000
vt 0.300000 0.583333
vt 0.300000 0.500000
vt 0.300000 0.750000
vt 0.300000 0.166667
vt 0.300000 0.416667
vt 0.300000 0.666667
vt 0.325000 1.000000
vt 0.250000 0.750000
vt 0.250000 0.666667
vt 0.250000 0.166667
vt 0.250000 0.083333
vt 0.275000 1.000000
vt 0.250000 0.916667
vt 0.250000 0.416667
vt 0.250000 0.333333
vt 0.250000 0.583333
vt 0.275000 0.000000
vt 0.250000 0.833333
vt 0.250000 0.250000
vt 0.250000 0.500000
vt 0.200000 0.833333
vt 0.200000 0.750000
vt 0.200000 0.250000
vt 0.200000 0.166667
vt 0.200000 0.500000
vt 0.200000 0.416667
vt 0.200000 0.666667
vt 0.200000 0.083333
vt 0.225000 1.000000
vt 0.200000 0.916667
vt 0.200000 0.333333
vt 0.200000 0.583333
vt 0.225000 0.000000
vt 0.150000 0.666667
vt 0.150000 0.583333
vt 0.175000 0.000000
vt 0.150000 0.083333
vt 0.150000 0.916667
vt 0.150000 0.833333
vt 0.150000 0.333333
vt 0.150000 0.250000
vt 0.150000 0.500000
vt 0.150000 0.750000
vt 0.150000 0.166667
vt 0.150000 0.416667
vt 0.175000 1.000000
vt 0.100000 0.750000
vt 0.100000 0.666667
vt 0.100000 0.166667
vt 0.100000 0.083333
vt 0.125000 1.000000
vt 0.100000 0.916667
vt 0.100000 0.416667
vt 0.100000 0.333333
vt 0.100000 0.583333
vt 0.125000 0.000000
vt 0.100000 0.833333
vt 0.100000 0.250000
vt 0.100000 0.500000
vt 0.050000 0.583333
vt 0.050000 0.500000
vt 0.050000 0.833333
vt 0.050000 0.750000
vt 0.050000 0.250000
vt 0.050000 0.166667
vt 0.050000 0.416667
vt 0.050000 0.666667
vt 0.050000 0.083333
vt 0.075000 1.000000
vt 0.050000 0.916667
vt 0.050000 0.333333
vt 0.075000 0.000000
vt 0.000000 0.666667
vt 0.000000 0.583333
vt 0.025000 0.000000
vt 0.000000 0.083333
vt 0.000000 0.916667
vt 0.000000 0.833333
vt 0.000000 0.333333
vt 0.000000 0.250000
vt 0.000000 0.500000
vt 0.000000 0.750000
vt 0.000000 0.166667
vt 0.000000 0.416667
vt 0.025000 1.000000
vt 1.000000 0.416667
vt 1.000000 0.500000
vt 0.950000 0.500000
vt 0.950000 0.416667
vt 1.000000 0.666667
vt 1.000000 0.750000
vt 0.950000 0.750000
vt 0.950000 0.666667
vt 1.000000 0.083333
vt 1.000000 0.166667
vt 0.950000 0.166667
vt 0.950000 0.083333
vt 1.000000 0.916667
vt 0.975000 1.000000
vt 0.950000 0.916667
vt 1.000000 0.333333
vt 0.950000 0.333333
vt 1.000000 0.583333
vt 0.950000 0.583333
vt 0.975000 0.000000
vt 1.000000 0.833333
vt 0.950000 0.833333
vt 1.000000 0.250000
vt 0.950000 0.250000
vt 0.900000 0.583333
vt 0.900000 0.500000
vt 0.900000 0.833333
vt 0.900000 0.750000
vt 0.900000 0.250000
vt 0.900000 0.166667
vt 0.900000 0.416667
vt 0.900000 0.666667
vt 0.900000 0.083333
vt 0.925000 1.000000
vt 0.900000 0.916667
vt 0.900000 0.333333
vt 0.925000 0.000000
vt 0.850000 0.416667
vt 0.850000 0.333333
vt 0.850000 0.666667
vt 0.850000 0.583333
vt 0.875000 0.000000
vt 0.850000 0.083333
vt 0.850000 0.916667
vt 0.850000 0.833333
vt 0.850000 0.250000
vt 0.850000 0.500000
vt 0.850000 0.750000
vt 0.850000 0.166667
vt 0.875000 1.000000
vt 0.800000 0.500000
vt 0.800000 0.416667
vt 0.800000 0.750000
vt 0.800000 0.666667
vt 0.800000 0.166667
vt 0.800000 0.083333
vt 0.825000 1.000000
vt 0.800000 0.916667
vt 0.800000 0.333333
vt 0.800000 0.583333
vt 0.825000 0.000000
vt 0.800000 0.833333
vt 0.800000 0.250000
vt 0.775000 1.000000
vt 0.775000 0.000000
s 1
usemtl M_LED_Red
f 128/1/128 6/2/6 17/3/17
f 2/4/2 1/5/1 7/6/7 8/7/8
f 4/8/4 222/9/222 14/10/14 15/11/15
f 3/12/3 220/13/220 11/14/11 12/15/12
f 218/16/218 2/4/2 8/7/8 9/17/9
f 5/18/5 4/8/4 15/11/15 16/19/16
f 221/20/221 3/12/3 12/15/12 13/21/13
f 219/22/219 218/16/218 9/17/9 10/23/10
f 6/2/6 5/18/5 16/19/16 17/3/17
f 1/5/1 129/24/129 7/6/7
f 222/9/222 221/20/221 13/21/13 14/10/14
f 220/13/220 219/22/219 10/23/10 11/14/11
f 13/21/13 12/15/12 23/25/23 24/26/24
f 10/23/10 9/17/9 20/27/20 21/28/21
f 17/3/17 16/19/16 27/29/27 28/30/28
f 7/6/7 129/31/129 18/32/18
f 14/10/14 13/21/13 24/26/24 25/33/25
f 11/14/11 10/23/10 21/28/21 22/34/22
f 128/35/128 17/3/17 28/30/28
f 8/7/8 7/6/7 18/32/18 19/36/19
f 15/11/15 14/10/14 25/33/25 26/37/26
f 12/15/12 11/14/11 22/34/22 23/25/23
f 9/17/9 8/7/8 19/36/19 20/27/20
f 16/19/16 15/11/15 26/37/26 27/29/27
f 26/37/26 25/33/25 36/38/36 37/39/37
f 23/25/23 22/34/22 33/40/33 34/41/34
f 20/27/20 19/36/19 30/42/30 31/43/31
f 27/29/27 26/37/26 37/39/37 38/44/38
f 24/26/24 23/25/23 34/41/34 35/45/35
f 21/28/21 20/27/20 31/43/31 32/46/32
f 28/30/28 27/29/27 38/44/38 39/47/39
f 18/32/18 129/48/129 29/49/29
f 25/33/25 24/26/24 35/45/35 36/38/36
f 22/34/22 21/28/21 32/46/32 33/40/33
f 128/50/128 28/30/28 39/47/39
f 19/36/19 18/32/18 29/49/29 30/42/30
f 29/49/29 129/51/129 40/52/40
f 36/38/36 35/45/35 46/53/46 47/54/47
f 33/40/33 32/46/32 43/55/43 44/56/44
f 128/57/128 39/47/39 50/58/50
f 30/42/30 29/49/29 40/52/40 41/59/41
f 37/39/37 36/38/36 47/54/47 48/60/48
f 34/41/34 33/40/33 44/56/44 45/61/45
f 31/43/31 30/42/30 41/59/41 42/62/42
f 38/44/38 37/39/37 48/60/48 49/63/49
f 35/45/35 34/41/34 45/61/45 46/53/46
f 32/46/32 31/43/31 42/62/42 43/55/43
f 39/47/39 38/44/38 49/63/49 50/58/50
f 49/63/49 48/60/48 59/64/59 60/65/60
f 46/53/46 45/61/45 56/66/56 57/67/57
f 43/55/43 42/62/42 53/68/53 54/69/54
f 50/58/50 49/63/49 60/65/60 61/70/61
f 40/52/40 129/71/129 51/72/51
f 47/54/47 46/53/46 57/67/57 58/73/58
f 44/56/44 43/55/43 54/69/54 55/74/55
f 128/75/128 50/58/50 61/70/61
f 41/59/41 40/52/40 51/72/51 52/76/52
f 48/60/48 47/54/47 58/73/58 59/64/59
f 45/61/45 44/56/44 55/74/55 56/66/56
f 42/62/42 41/59/41 52/76/52 53/68/53
f 52/76/52 51/72/51 62/77/62 63/78/63
f 59/64/59 58/73/58 69/79/69 70/80/70
f 56/66/56 55/74/55 66/81/66 67/82/67
f 53/68/53 52/76/52 63/78/63 64/83/64
f 60/65/60 59/64/59 70/80/70 71/84/71
f 57/67/57 56/66/56 67/82/67 68/85/68
f 54/69/54 53/68/53 64/83/64 65/86/65
f 61/70/61 60/65/60 71/84/71 72/87/72
f 51/72/51 129/88/129 62/77/62
f 58/73/58 57/67/57 68/85/68 69/79/69
f 55/74/55 54/69/54 65/86/65 66/81/66
f 128/89/128 61/70/61 72/87/72
f 72/87/72 71/84/71 82/90/82 83/91/83
f 62/77/62 129/92/129 73/93/73
f 69/79/69 68/85/68 79/94/79 80/95/80
f 66/81/66 65/86/65 76/96/76 77/97/77
f 128/98/128 72/87/72 83/91/83
f 63/78/63 62/77/62 73/93/73 74/99/74
f 70/80/70 69/79/69 80/95/80 81/100/81
f 67/82/67 66/81/66 77/97/77 78/101/78
f 64/83/64 63/78/63 74/99/74 75/102/75
f 71/84/71 70/80/70 81/100/81 82/90/82
f 68/85/68 67/82/67 78/101/78 79/94/79
f 65/86/65 64/83/64 75/102/75 76/96/76
f 75/102/75 74/99/74 85/103/85 86/104/86
f 82/90/82 81/100/81 92/105/92 93/106/93
f 79/94/79 78/101/78 89/107/89 90/108/90
f 76/96/76 75/102/75 86/104/86 87/109/87
f 83/91/83 82/90/82 93/106/93 94/110/94
f 73/93/73 129/111/129 84/112/84
f 80/95/80 79/94/79 90/108/90 91/113/91
f 77/97/77 76/96/76 87/109/87 88/114/88
f 128/115/128 83/91/83 94/110/94
f 74/99/74 73/93/73 84/112/84 85/103/85
f 81/100/81 80/95/80 91/113/91 92/105/92
f 78/101/78 77/97/77 88/114/88 89/107/89
f 128/116/128 94/110/94 105/117/105
f 85/103/85 84/112/84 95/118/95 96/119/96
f 92/105/92 91/113/91 102/120/102 103/121/103
f 89/107/89 88/114/88 99/122/99 100/123/100
f 86/104/86 85/103/85 96/119/96 97/124/97
f 93/106/93 92/105/92 103/121/103 104/125/104
f 90/108/90 89/107/89 100/123/100 101/126/101
f 87/109/87 86/104/86 97/124/97 98/127/98
f 94/110/94 93/106/93 104/125/104 105/117/105
f 84/112/84 129/128/129 95/118/95
f 91/113/91 90/108/90 101/126/101 102/120/102
f 88/114/88 87/109/87 98/127/98 99/122/99
f 98/127/98 97/124/97 108/129/108 109/130/109
f 105/117/105 104/125/104 115/131/115 116/132/116
f 95/118/95 129/133/129 106/134/106
f 102/120/102 101/126/101 112/135/112 113/136/113
f 99/122/99 98/127/98 109/130/109 110/137/110
f 128/138/128 105/117/105 116/132/116
f 96/119/96 95/118/95 106/134/106 107/139/107
f 103/121/103 102/120/102 113/136/113 114/140/114
f 100/123/100 99/122/99 110/137/110 111/141/111
f 97/124/97 96/119/96 107/139/107 108/129/108
f 104/125/104 103/121/103 114/140/114 115/131/115
f 101/126/101 100/123/100 111/141/111 112/135/112
f 108/129/108 107/139/107 118/142/118 119/143/119
f 115/131/115 114/140/114 125/144/125 126/145/126
f 112/135/112 111/141/111 122/146/122 123/147/123
f 109/130/109 108/129/108 119/143/119 120/148/120
f 116/132/116 115/131/115 126/145/126 127/149/127
f 106/134/106 129/150/129 117/151/117
f 113/136/113 112/135/112 123/147/123 124/152/124
f 110/137/110 109/130/109 120/148/120 121/153/121
f 128/154/128 116/132/116 127/149/127
f 107/139/107 106/134/106 117/151/117 118/142/118
f 114/140/114 113/136/113 124/152/124 125/144/125
f 111/141/111 110/137/110 121/153/121 122/146/122
f 121/153/121 120/148/120 133/155/133 134/156/134
f 128/157/128 127/149/127 140/158/140
f 118/142/118 117/151/117 130/159/130 131/160/131
f 125/144/125 124/152/124 137/161/137 138/162/138
f 122/146/122 121/153/121 134/156/134 135/163/135
f 119/143/119 118/142/118 131/160/131 132/164/132
f 126/145/126 125/144/125 138/162/138 139/165/139
f 123/147/123 122/146/122 135/163/135 136/166/136
f 120/148/120 119/143/119 132/164/132 133/155/133
f 127/149/127 126/145/126 139/165/139 140/158/140
f 117/151/117 129/167/129 130/159/130
f 124/152/124 123/147/123 136/166/136 137/161/137
f 133/155/133 132/164/132 143/168/143 144/169/144
f 140/158/140 139/165/139 150/170/150 151/171/151
f 130/159/130 129/172/129 141/173/141
f 137/161/137 136/166/136 147/174/147 148/175/148
f 134/156/134 133/155/133 144/169/144 145/176/145
f 128/177/128 140/158/140 151/171/151
f 131/160/131 130/159/130 141/173/141 142/178/142
f 138/162/138 137/161/137 148/175/148 149/179/149
f 135/163/135 134/156/134 145/176/145 146/180/146
f 132/164/132 131/160/131 142/178/142 143/168/143
f 139/165/139 138/162/138 149/179/149 150/170/150
f 136/166/136 135/163/135 146/180/146 147/174/147
f 146/180/146 145/176/145 156/181/156 157/182/157
f 143/168/143 142/178/142 153/183/153 154/184/154
f 150/170/150 149/179/149 160/185/160 161/186/161
f 147/174/147 146/180/146 157/182/157 158/187/158
f 144/169/144 143/168/143 154/184/154 155/188/155
f 151/171/151 150/170/150 161/186/161 162/189/162
f 141/173/141 129/190/129 152/191/152
f 148/175/148 147/174/147 158/187/158 159/192/159
f 145/176/145 144/169/144 155/188/155 156/181/156
f 128/193/128 151/171/151 162/189/162
f 142/178/142 141/173/141 152/191/152 153/183/153
f 149/179/149 148/175/148 159/192/159 160/185/160
f 156/181/156 155/188/155 166/194/166 167/195/167
f 128/196/128 162/189/162 173/197/173
f 153/183/153 152/191/152 163/198/163 164/199/164
f 160/185/160 159/192/159 170/200/170 171/201/171
f 157/182/157 156/181/156 167/195/167 168/202/168
f 154/184/154 153/183/153 164/199/164 165/203/165
f 161/186/161 160/185/160 171/201/171 172/204/172
f 158/187/158 157/182/157 168/202/168 169/205/169
f 155/188/155 154/184/154 165/203/165 166/194/166
f 162/189/162 161/186/161 172/204/172 173/197/173
f 152/191/152 129/206/129 163/198/163
f 159/192/159 158/187/158 169/205/169 170/200/170
f 169/207/169 168/208/168 179/209/179 180/210/180
f 166/211/166 165/212/165 176/213/176 177/214/177
f 173/215/173 172/216/172 183/217/183 184/218/184
f 163/219/163 129/220/129 174/221/174
f 170/222/170 169/207/169 180/210/180 181/223/181
f 167/224/167 166/211/166 177/214/177 178/225/178
f 128/226/128 173/215/173 184/218/184
f 164/227/164 163/219/163 174/221/174 175/228/175
f 171/229/171 170/222/170 181/223/181 182/230/182
f 168/208/168 167/224/167 178/225/178 179/209/179
f 165/212/165 164/227/164 175/228/175 176/213/176
f 172/216/172 171/229/171 182/230/182 183/217/183
f 179/209/179 178/225/178 189/231/189 190/232/190
f 176/213/176 175/228/175 186/233/186 187/234/187
f 183/217/183 182/230/182 193/235/193 194/236/194
f 180/210/180 179/209/179 190/232/190 191/237/191
f 177/214/177 176/213/176 187/234/187 188/238/188
f 184/218/184 183/217/183 194/236/194 195/239/195
f 174/221/174 129/240/129 185/241/185
f 181/223/181 180/210/180 191/237/191 192/242/192
f 178/225/178 177/214/177 188/238/188 189/231/189
f 128/243/128 184/218/184 195/239/195
f 175/228/175 174/221/174 185/241/185 186/233/186
f 182/230/182 181/223/181 192/242/192 193/235/193
f 192/242/192 191/237/191 202/244/202 203/245/203
f 189/231/189 188/238/188 199/246/199 200/247/200
f 128/248/128 195/239/195 206/249/206
f 186/233/186 185/241/185 196/250/196 197/251/197
f 193/235/193 192/242/192 203/245/203 204/252/204
f 190/232/190 189/231/189 200/247/200 201/253/201
f 187/234/187 186/233/186 197/251/197 198/254/198
f 194/236/194 193/235/193 204/252/204 205/255/205
f 191/237/191 190/232/190 201/253/201 202/244/202
f 188/238/188 187/234/187 198/254/198 199/246/199
f 195/239/195 194/236/194 205/255/205 206/249/206
f 185/241/185 129/256/129 196/250/196
f 202/244/202 201/253/201 212/257/212 213/258/213
f 199/246/199 198/254/198 209/259/209 210/260/210
f 206/249/206 205/255/205 216/261/216 217/262/217
f 196/250/196 129/263/129 207/264/207
f 203/245/203 202/244/202 213/258/213 214/265/214
f 200/247/200 199/246/199 210/260/210 211/266/211
f 128/267/128 206/249/206 217/262/217
f 197/251/197 196/250/196 207/264/207 208/268/208
f 204/252/204 203/245/203 214/265/214 215/269/215
f 201/253/201 200/247/200 211/266/211 212/257/212
f 198/254/198 197/251/197 208/268/208 209/259/209
f 205/255/205 204/252/204 215/269/215 216/261/216
f 215/269/215 214/265/214 222/9/222 4/8/4
f 212/257/212 211/266/211 220/13/220 3/12/3
f 209/259/209 208/268/208 2/4/2 218/16/218
f 216/261/216 215/269/215 4/8/4 5/18/5
f 213/258/213 212/257/212 3/12/3 221/20/221
f 210/260/210 209/259/209 218/16/218 219/22/219
f 217/262/217 216/261/216 5/18/5 6/2/6
f 207/264/207 129/270/129 1/5/1
f 214/265/214 213/258/213 221/20/221 222/9/222
f 211/266/211 210/260/210 219/22/219 220/13/220
f 128/271/128 217/262/217 6/2/6
f 208/268/208 207/264/207 1/5/1 2/4/2
o Flange
v 0.000000 0.022500 -0.065000
v 0.000000 0.047500 -0.065000
v 0.020086 0.022500 -0.061819
v 0.020086 0.047500 -0.061819
v 0.038206 0.022500 -0.052586
v 0.038206 0.047500 -0.052586
v 0.052586 0.022500 -0.038206
v 0.052586 0.047500 -0.038206
v 0.061819 0.022500 -0.020086
v 0.061819 0.047500 -0.020086
v 0.065000 0.022500 0.000000
v 0.065000 0.047500 0.000000
v 0.061819 0.022500 0.020086
v 0.061819 0.047500 0.020086
v 0.052586 0.022500 0.038206
v 0.052586 0.047500 0.038206
v 0.038206 0.022500 0.052586
v 0.038206 0.047500 0.052586
v 0.020086 0.022500 0.061819
v 0.020086 0.047500 0.061819
v 0.000000 0.022500 0.065000
v 0.000000 0.047500 0.065000
v -0.020086 0.022500 0.061819
v -0.020086 0.047500 0.061819
v -0.038206 0.022500 0.052586
v -0.038206 0.047500 0.052586
v -0.052586 0.022500 0.038206
v -0.052586 0.047500 0.038206
v -0.061819 0.022500 0.020086
v -0.061819 0.047500 0.020086
v -0.065000 0.022500 0.000000
v -0.065000 0.047500 0.000000
v -0.061819 0.022500 -0.020086
v -0.061819 0.047500 -0.020086
v -0.052586 0.022500 -0.038206
v -0.052586 0.047500 -0.038206
v -0.038206 0.022500 -0.052586
v -0.038206 0.047500 -0.052586
v -0.020086 0.022500 -0.061819
v -0.020086 0.047500 -0.061819
vn -0.0000 -0.6735 -0.7392
vn -0.0000 0.6735 -0.7392
vn 0.2284 -0.6735 -0.7030
vn 0.2284 0.6735 -0.7030
vn 0.4345 -0.6735 -0.5980
vn 0.4345 0.6735 -0.5980
vn 0.5980 -0.6735 -0.4345
vn 0.5980 0.6735 -0.4345
vn 0.7030 -0.6735 -0.2284
vn 0.7030 0.6735 -0.2284
vn 0.7392 -0.6735 -0.0000
vn 0.7392 0.6735 -0.0000
vn 0.7030 -0.6735 0.2284
vn 0.7030 0.6735 0.2284
vn 0.5980 -0.6735 0.4345
vn 0.5980 0.6735 0.4345
vn 0.4345 -0.6735 0.5980
vn 0.4345 0.6735 0.5980
vn 0.2284 -0.6735 0.7030
vn 0.2284 0.6735 0.7030
vn -0.0000 -0.6735 0.7392
vn -0.0000 0.6735 0.7392
vn -0.2284 -0.6735 0.7030
vn -0.2284 0.6735 0.7030
vn -0.4345 -0.6735 0.5980
vn -0.4345 0.6735 0.5980
vn -0.5980 -0.6735 0.4345
vn -0.5980 0.6735 0.4345
vn -0.7030 -0.6735 0.2284
vn -0.7030 0.6735 0.2284
vn -0.7392 -0.6735 -0.0000
vn -0.7392 0.6735 -0.0000
vn -0.7030 -0.6735 -0.2284
vn -0.7030 0.6735 -0.2284
vn -0.5980 -0.6735 -0.4345
vn -0.5980 0.6735 -0.4345
vn -0.4345 -0.6735 -0.5980
vn -0.4345 0.6735 -0.5980
vn -0.2284 -0.6735 -0.7030
vn -0.2284 0.6735 -0.7030
vt 1.000000 0.500000
vt 1.000000 1.000000
vt 0.950000 1.000000
vt 0.950000 0.500000
vt 0.900000 1.000000
vt 0.900000 0.500000
vt 0.850000 1.000000
vt 0.850000 0.500000
vt 0.800000 1.000000
vt 0.800000 0.500000
vt 0.750000 1.000000
vt 0.750000 0.500000
vt 0.700000 1.000000
vt 0.700000 0.500000
vt 0.650000 1.000000
vt 0.650000 0.500000
vt 0.600000 1.000000
vt 0.600000 0.500000
vt 0.550000 1.000000
vt 0.550000 0.500000
vt 0.500000 1.000000
vt 0.500000 0.500000
vt 0.450000 1.000000
vt 0.450000 0.500000
vt 0.400000 1.000000
vt 0.400000 0.500000
vt 0.350000 1.000000
vt 0.350000 0.500000
vt 0.300000 1.000000
vt 0.300000 0.500000
vt 0.250000 1.000000
vt 0.250000 0.500000
vt 0.200000 1.000000
vt 0.200000 0.500000
vt 0.150000 1.000000
vt 0.150000 0.500000
vt 0.100000 1.000000
vt 0.100000 0.500000
vt 0.324164 0.478254
vt 0.250000 0.490000
vt 0.175836 0.478254
vt 0.108932 0.444164
vt 0.055836 0.391068
vt 0.021746 0.324164
vt 0.010000 0.250000
vt 0.021746 0.175836
vt 0.055836 0.108932
vt 0.108932 0.055836
vt 0.175836 0.021746
vt 0.250000 0.010000
vt 0.324164 0.021746
vt 0.391068 0.055836
vt 0.444164 0.108932
vt 0.478254 0.175836
vt 0.490000 0.250000
vt 0.478254 0.324164
vt 0.444164 0.391068
vt 0.391068 0.444164
vt 0.050000 1.000000
vt 0.050000 0.500000
vt -0.000000 1.000000
vt -0.000000 0.500000
vt 0.750000 0.490000
vt 0.824164 0.478254
vt 0.891068 0.444164
vt 0.944164 0.391068
vt 0.978254 0.324164
vt 0.990000 0.250000
vt 0.978254 0.175836
vt 0.944164 0.108932
vt 0.891068 0.055836
vt 0.824164 0.021746
vt 0.750000 0.010000
vt 0.675836 0.021746
vt 0.608932 0.055836
vt 0.555836 0.108932
vt 0.521746 0.175836
vt 0.510000 0.250000
vt 0.521746 0.324164
vt 0.555836 0.391068
vt 0.608932 0.444164
vt 0.675836 0.478254
s 1
usemtl M_LED_Red
f 223/272/223 224/273/224 226/274/226 225/275/225
f 225/275/225 226/274/226 228/276/228 227/277/227
f 227/277/227 228/276/228 230/278/230 229/279/229
f 229/279/229 230/278/230 232/280/232 231/281/231
f 231/281/231 232/280/232 234/282/234 233/283/233
f 233/283/233 234/282/234 236/284/236 235/285/235
f 235/285/235 236/284/236 238/286/238 237/287/237
f 237/287/237 238/286/238 240/288/240 239/289/239
f 239/289/239 240/288/240 242/290/242 241/291/241
f 241/291/241 242/290/242 244/292/244 243/293/243
f 243/293/243 244/292/244 246/294/246 245/295/245
f 245/295/245 246/294/246 248/296/248 247/297/247
f 247/297/247 248/296/248 250/298/250 249/299/249
f 249/299/249 250/298/250 252/300/252 251/301/251
f 251/301/251 252/300/252 254/302/254 253/303/253
f 253/303/253 254/302/254 256/304/256 255/305/255
f 255/305/255 256/304/256 258/306/258 257/307/257
f 257/307/257 258/306/258 260/308/260 259/309/259
f 226/310/226 224/311/224 262/312/262 260/313/260 258/314/258 256/315/256 254/316/254 252/317/252 250/318/250 248/319/248 246/320/246 244/321/244 242/322/242 240/323/240 238/324/238 236/325/236 234/326/234 232/327/232 230/328/230 228/329/228
f 259/309/259 260/308/260 262/330/262 261/331/261
f 261/331/261 262/330/262 224/332/224 223/333/223
f 223/334/223 225/335/225 227/336/227 229/337/229 231/338/231 233/339/233 235/340/235 237/341/237 239/342/239 241/343/241 243/344/243 245/345/245 247/346/247 249/347/249 251/348/251 253/349/253 255/350/255 257/351/257 259/352/259 261/353/261
o Long_Lead
v -0.018000 -0.270000 -0.006000
v -0.018000 0.030000 -0.006000
v -0.014473 -0.270000 -0.004854
v -0.014473 0.030000 -0.004854
v -0.012294 -0.270000 -0.001854
v -0.012294 0.030000 -0.001854
v -0.012294 -0.270000 0.001854
v -0.012294 0.030000 0.001854
v -0.014473 -0.270000 0.004854
v -0.014473 0.030000 0.004854
v -0.018000 -0.270000 0.006000
v -0.018000 0.030000 0.006000
v -0.021527 -0.270000 0.004854
v -0.021527 0.030000 0.004854
v -0.023706 -0.270000 0.001854
v -0.023706 0.030000 0.001854
v -0.023706 -0.270000 -0.001854
v -0.023706 0.030000 -0.001854
v -0.021527 -0.270000 -0.004854
v -0.021527 0.030000 -0.004854
vn -0.0000 -0.6437 -0.7653
vn -0.0000 0.6437 -0.7653
vn 0.4498 -0.6437 -0.6191
vn 0.4498 0.6437 -0.6191
vn 0.7278 -0.6437 -0.2365
vn 0.7278 0.6437 -0.2365
vn 0.7278 -0.6437 0.2365
vn 0.7278 0.6437 0.2365
vn 0.4498 -0.6437 0.6191
vn 0.4498 0.6437 0.6191
vn -0.0000 -0.6437 0.7653
vn -0.0000 0.6437 0.7653
vn -0.4498 -0.6437 0.6191
vn -0.4498 0.6437 0.6191
vn -0.7278 -0.6437 0.2365
vn -0.7278 0.6437 0.2365
vn -0.7278 -0.6437 -0.2365
vn -0.7278 0.6437 -0.2365
vn -0.4498 -0.6437 -0.6191
vn -0.4498 0.6437 -0.6191
vt 1.000000 0.500000
vt 1.000000 1.000000
vt 0.900000 1.000000
vt 0.900000 0.500000
vt 0.800000 1.000000
vt 0.800000 0.500000
vt 0.700000 1.000000
vt 0.700000 0.500000
vt 0.600000 1.000000
vt 0.600000 0.500000
vt 0.500000 1.000000
vt 0.500000 0.500000
vt 0.400000 1.000000
vt 0.400000 0.500000
vt 0.300000 1.000000
vt 0.300000 0.500000
vt 0.200000 1.000000
vt 0.200000 0.500000
vt 0.391068 0.444164
vt 0.250000 0.490000
vt 0.108932 0.444164
vt 0.021746 0.324164
vt 0.021746 0.175836
vt 0.108932 0.055836
vt 0.250000 0.010000
vt 0.391068 0.055836
vt 0.478254 0.175836
vt 0.478254 0.324164
vt 0.100000 1.000000
vt 0.100000 0.500000
vt -0.000000 1.000000
vt -0.000000 0.500000
vt 0.750000 0.490000
vt 0.891068 0.444164
vt 0.978254 0.324164
vt 0.978254 0.175836
vt 0.891068 0.055836
vt 0.750000 0.010000
vt 0.608932 0.055836
vt 0.521746 0.175836
vt 0.521746 0.324164
vt 0.608932 0.444164
s 1
usemtl M_Brushed_Metal
f 263/354/263 264/355/264 266/356/266 265/357/265
f 265/357/265 266/356/266 268/358/268 267/359/267
f 267/359/267 268/358/268 270/360/270 269/361/269
f 269/361/269 270/360/270 272/362/272 271/363/271
f 271/363/271 272/362/272 274/364/274 273/365/273
f 273/365/273 274/364/274 276/366/276 275/367/275
f 275/367/275 276/366/276 278/368/278 277/369/277
f 277/369/277 278/368/278 280/370/280 279/371/279
f 266/372/266 264/373/264 282/374/282 280/375/280 278/376/278 276/377/276 274/378/274 272/379/272 270/380/270 268/381/268
f 279/371/279 280/370/280 282/382/282 281/383/281
f 281/383/281 282/382/282 264/384/264 263/385/263
f 263/386/263 265/387/265 267/388/267 269/389/269 271/390/271 273/391/273 275/392/275 277/393/277 279/394/279 281/395/281
o Short_Lead
v 0.018000 -0.190000 -0.006000
v 0.018000 0.030000 -0.006000
v 0.021527 -0.190000 -0.004854
v 0.021527 0.030000 -0.004854
v 0.023706 -0.190000 -0.001854
v 0.023706 0.030000 -0.001854
v 0.023706 -0.190000 0.001854
v 0.023706 0.030000 0.001854
v 0.021527 -0.190000 0.004854
v 0.021527 0.030000 0.004854
v 0.018000 -0.190000 0.006000
v 0.018000 0.030000 0.006000
v 0.014473 -0.190000 0.004854
v 0.014473 0.030000 0.004854
v 0.012294 -0.190000 0.001854
v 0.012294 0.030000 0.001854
v 0.012294 -0.190000 -0.001854
v 0.012294 0.030000 -0.001854
v 0.014473 -0.190000 -0.004854
v 0.014473 0.030000 -0.004854
vn -0.0000 -0.6437 -0.7653
vn -0.0000 0.6437 -0.7653
vn 0.4498 -0.6437 -0.6191
vn 0.4498 0.6437 -0.6191
vn 0.7278 -0.6437 -0.2365
vn 0.7278 0.6437 -0.2365
vn 0.7278 -0.6437 0.2365
vn 0.7278 0.6437 0.2365
vn 0.4498 -0.6437 0.6191
vn 0.4498 0.6437 0.6191
vn -0.0000 -0.6437 0.7653
vn -0.0000 0.6437 0.7653
vn -0.4498 -0.6437 0.6191
vn -0.4498 0.6437 0.6191
vn -0.7278 -0.6437 0.2365
vn -0.7278 0.6437 0.2365
vn -0.7278 -0.6437 -0.2365
vn -0.7278 0.6437 -0.2365
vn -0.4498 -0.6437 -0.6191
vn -0.4498 0.6437 -0.6191
vt 1.000000 0.500000
vt 1.000000 1.000000
vt 0.900000 1.000000
vt 0.900000 0.500000
vt 0.800000 1.000000
vt 0.800000 0.500000
vt 0.700000 1.000000
vt 0.700000 0.500000
vt 0.600000 1.000000
vt 0.600000 0.500000
vt 0.500000 1.000000
vt 0.500000 0.500000
vt 0.400000 1.000000
vt 0.400000 0.500000
vt 0.300000 1.000000
vt 0.300000 0.500000
vt 0.200000 1.000000
vt 0.200000 0.500000
vt 0.391068 0.444164
vt 0.250000 0.490000
vt 0.108932 0.444164
vt 0.021746 0.324164
vt 0.021746 0.175836
vt 0.108932 0.055836
vt 0.250000 0.010000
vt 0.391068 0.055836
vt 0.478254 0.175836
vt 0.478254 0.324164
vt 0.100000 1.000000
vt 0.100000 0.500000
vt -0.000000 1.000000
vt -0.000000 0.500000
vt 0.750000 0.490000
vt 0.891068 0.444164
vt 0.978254 0.324164
vt 0.978254 0.175836
vt 0.891068 0.055836
vt 0.750000 0.010000
vt 0.608932 0.055836
vt 0.521746 0.175836
vt 0.521746 0.324164
vt 0.608932 0.444164
s 1
usemtl M_Brushed_Metal
f 283/396/283 284/397/284 286/398/286 285/399/285
f 285/399/285 286/398/286 288/400/288 287/401/287
f 287/401/287 288/400/288 290/402/290 289/403/289
f 289/403/289 290/402/290 292/404/292 291/405/291
f 291/405/291 292/404/292 294/406/294 293/407/293
f 293/407/293 294/406/294 296/408/296 295/409/295
f 295/409/295 296/408/296 298/410/298 297/411/297
f 297/411/297 298/410/298 300/412/300 299/413/299
f 286/414/286 284/415/284 302/416/302 300/417/300 298/418/298 296/419/296 294/420/294 292/421/292 290/422/290 288/423/288
f 299/413/299 300/412/300 302/424/302 301/425/301
f 301/425/301 302/424/302 284/426/284 283/427/283
f 283/428/283 285/429/285 287/430/287 289/431/289 291/432/291 293/433/293 295/434/295 297/435/297 299/436/299 301/437/301
