# Blender 4.5.11 LTS
# www.blender.org
mtllib ParticipantBeacon.mtl
o Beacon
v 0.000000 0.000000 -0.025000
v 0.000000 0.050000 -0.025000
v 0.006470 0.000000 -0.024148
v 0.006470 0.050000 -0.024148
v 0.012500 0.000000 -0.021651
v 0.012500 0.050000 -0.021651
v 0.017678 0.000000 -0.017678
v 0.017678 0.050000 -0.017678
v 0.021651 0.000000 -0.012500
v 0.021651 0.050000 -0.012500
v 0.024148 0.000000 -0.006470
v 0.024148 0.050000 -0.006470
v 0.025000 0.000000 0.000000
v 0.025000 0.050000 0.000000
v 0.024148 0.000000 0.006470
v 0.024148 0.050000 0.006470
v 0.021651 0.000000 0.012500
v 0.021651 0.050000 0.012500
v 0.017678 0.000000 0.017678
v 0.017678 0.050000 0.017678
v 0.012500 0.000000 0.021651
v 0.012500 0.050000 0.021651
v 0.006470 0.000000 0.024148
v 0.006470 0.050000 0.024148
v 0.000000 0.000000 0.025000
v 0.000000 0.050000 0.025000
v -0.006470 0.000000 0.024148
v -0.006470 0.050000 0.024148
v -0.012500 0.000000 0.021651
v -0.012500 0.050000 0.021651
v -0.017678 0.000000 0.017678
v -0.017678 0.050000 0.017678
v -0.021651 0.000000 0.012500
v -0.021651 0.050000 0.012500
v -0.024148 0.000000 0.006470
v -0.024148 0.050000 0.006470
v -0.025000 0.000000 0.000000
v -0.025000 0.050000 0.000000
v -0.024148 0.000000 -0.006470
v -0.024148 0.050000 -0.006470
v -0.021651 0.000000 -0.012500
v -0.021651 0.050000 -0.012500
v -0.017678 0.000000 -0.017678
v -0.017678 0.050000 -0.017678
v -0.012500 0.000000 -0.021651
v -0.012500 0.050000 -0.021651
v -0.006470 0.000000 -0.024148
v -0.006470 0.050000 -0.024148
vn -0.0000 -0.6789 -0.7342
vn -0.0000 0.6789 -0.7342
vn 0.1900 -0.6789 -0.7092
vn 0.1900 0.6789 -0.7092
vn 0.3671 -0.6789 -0.6359
vn 0.3671 0.6789 -0.6359
vn 0.5192 -0.6789 -0.5192
vn 0.5192 0.6789 -0.5192
vn 0.6359 -0.6789 -0.3671
vn 0.6359 0.6789 -0.3671
vn 0.7092 -0.6789 -0.1900
vn 0.7092 0.6789 -0.1900
vn 0.7342 -0.6789 -0.0000
vn 0.7342 0.6789 -0.0000
vn 0.7092 -0.6789 0.1900
vn 0.7092 0.6789 0.1900
vn 0.6359 -0.6789 0.3671
vn 0.6359 0.6789 0.3671
vn 0.5192 -0.6789 0.5192
vn 0.5192 0.6789 0.5192
vn 0.3671 -0.6789 0.6359
vn 0.3671 0.6789 0.6359
vn 0.1900 -0.6789 0.7092
vn 0.1900 0.6789 0.7092
vn -0.0000 -0.6789 0.7342
vn -0.0000 0.6789 0.7342
vn -0.1900 -0.6789 0.7092
vn -0.1900 0.6789 0.7092
vn -0.3671 -0.6789 0.6359
vn -0.3671 0.6789 0.6359
vn -0.5192 -0.6789 0.5192
vn -0.5192 0.6789 0.5192
vn -0.6359 -0.6789 0.3671
vn -0.6359 0.6789 0.3671
vn -0.7092 -0.6789 0.1900
vn -0.7092 0.6789 0.1900
vn -0.7342 -0.6789 -0.0000
vn -0.7342 0.6789 -0.0000
vn -0.7092 -0.6789 -0.1900
vn -0.7092 0.6789 -0.1900
vn -0.6359 -0.6789 -0.3671
vn -0.6359 0.6789 -0.3671
vn -0.5192 -0.6789 -0.5192
vn -0.5192 0.6789 -0.5192
vn -0.3671 -0.6789 -0.6359
vn -0.3671 0.6789 -0.6359
vn -0.1900 -0.6789 -0.7092
vn -0.1900 0.6789 -0.7092
vt 1.000000 0.500000
vt 1.000000 1.000000
vt 0.958333 1.000000
vt 0.958333 0.500000
vt 0.916667 1.000000
vt 0.916667 0.500000
vt 0.875000 1.000000
vt 0.875000 0.500000
vt 0.833333 1.000000
vt 0.833333 0.500000
vt 0.791667 1.000000
vt 0.791667 0.500000
vt 0.750000 1.000000
vt 0.750000 0.500000
vt 0.708333 1.000000
vt 0.708333 0.500000
vt 0.666667 1.000000
vt 0.666667 0.500000
vt 0.625000 1.000000
vt 0.625000 0.500000
vt 0.583333 1.000000
vt 0.583333 0.500000
vt 0.541666 1.000000
vt 0.541666 0.500000
vt 0.500000 1.000000
vt 0.500000 0.500000
vt 0.458333 1.000000
vt 0.458333 0.500000
vt 0.416666 1.000000
vt 0.416666 0.500000
vt 0.375000 1.000000
vt 0.375000 0.500000
vt 0.333333 1.000000
vt 0.333333 0.500000
vt 0.291667 1.000000
vt 0.291667 0.500000
vt 0.250000 1.000000
vt 0.250000 0.500000
vt 0.208333 1.000000
vt 0.208333 0.500000
vt 0.166666 1.000000
vt 0.166666 0.500000
vt 0.125000 1.000000
vt 0.125000 0.500000
vt 0.083333 1.000000
vt 0.083333 0.500000
vt 0.312117 0.481822
vt 0.250000 0.490000
vt 0.187883 0.481822
vt 0.130000 0.457846
vt 0.080294 0.419706
vt 0.042154 0.370000
vt 0.018178 0.312117
vt 0.010000 0.250000
vt 0.018178 0.187883
vt 0.042154 0.130000
vt 0.080294 0.080294
vt 0.130000 0.042154
vt 0.187883 0.018178
vt 0.250000 0.010000
vt 0.312117 0.018178
vt 0.370000 0.042154
vt 0.419706 0.080294
vt 0.457846 0.130000
vt 0.481822 0.187883
vt 0.490000 0.250000
vt 0.481822 0.312117
vt 0.457846 0.370000
vt 0.419706 0.419706
vt 0.370000 0.457846
vt 0.041666 1.000000
vt 0.041666 0.500000
vt -0.000000 1.000000
vt -0.000000 0.500000
vt 0.750000 0.490000
vt 0.812117 0.481822
vt 0.870000 0.457846
vt 0.919706 0.419706
vt 0.957846 0.370000
vt 0.981822 0.312117
vt 0.990000 0.250000
vt 0.981822 0.187883
vt 0.957846 0.130000
vt 0.919706 0.080294
vt 0.870000 0.042154
vt 0.812117 0.018178
vt 0.750000 0.010000
vt 0.687883 0.018178
vt 0.630000 0.042154
vt 0.580294 0.080294
vt 0.542154 0.130000
vt 0.518178 0.187883
vt 0.510000 0.250000
vt 0.518178 0.312117
vt 0.542154 0.370000
vt 0.580294 0.419706
vt 0.630000 0.457846
vt 0.687883 0.481822
s 1
usemtl M_Graphite
f 1/1/1 2/2/2 4/3/4 3/4/3
f 3/4/3 4/3/4 6/5/6 5/6/5
f 5/6/5 6/5/6 8/7/8 7/8/7
f 7/8/7 8/7/8 10/9/10 9/10/9
f 9/10/9 10/9/10 12/11/12 11/12/11
f 11/12/11 12/11/12 14/13/14 13/14/13
f 13/14/13 14/13/14 16/15/16 15/16/15
f 15/16/15 16/15/16 18/17/18 17/18/17
f 17/18/17 18/17/18 20/19/20 19/20/19
f 19/20/19 20/19/20 22/21/22 21/22/21
f 21/22/21 22/21/22 24/23/24 23/24/23
f 23/24/23 24/23/24 26/25/26 25/26/25
f 25/26/25 26/25/26 28/27/28 27/28/27
f 27/28/27 28/27/28 30/29/30 29/30/29
f 29/30/29 30/29/30 32/31/32 31/32/31
f 31/32/31 32/31/32 34/33/34 33/34/33
f 33/34/33 34/33/34 36/35/36 35/36/35
f 35/36/35 36/35/36 38/37/38 37/38/37
f 37/38/37 38/37/38 40/39/40 39/40/39
f 39/40/39 40/39/40 42/41/42 41/42/41
f 41/42/41 42/41/42 44/43/44 43/44/43
f 43/44/43 44/43/44 46/45/46 45/46/45
f 4/47/4 2/48/2 48/49/48 46/50/46 44/51/44 42/52/42 40/53/40 38/54/38 36/55/36 34/56/34 32/57/32 30/58/30 28/59/28 26/60/26 24/61/24 22/62/22 20/63/20 18/64/18 16/65/16 14/66/14 12/67/12 10/68/10 8/69/8 6/70/6
f 45/46/45 46/45/46 48/71/48 47/72/47
f 47/72/47 48/71/48 2/73/2 1/74/1
f 1/75/1 3/76/3 5/77/5 7/78/7 9/79/9 11/80/11 13/81/13 15/82/15 17/83/17 19/84/19 21/85/21 23/86/23 25/87/25 27/88/27 29/89/29 31/90/31 33/91/33 35/92/35 37/93/37 39/94/39 41/95/41 43/96/43 45/97/45 47/98/47
o Voice_Ring
v 0.029000 0.030000 0.000000
v 0.028121 0.032121 0.000000
v 0.026000 0.033000 0.000000
v 0.023879 0.032121 0.000000
v 0.023000 0.030000 0.000000
v 0.023879 0.027879 0.000000
v 0.026000 0.027000 0.000000
v 0.028121 0.027879 0.000000
v 0.028443 0.030000 -0.005658
v 0.027581 0.032121 -0.005486
v 0.025500 0.033000 -0.005072
v 0.023420 0.032121 -0.004659
v 0.022558 0.030000 -0.004487
v 0.023420 0.027879 -0.004659
v 0.025500 0.027000 -0.005072
v 0.027581 0.027879 -0.005486
v 0.026793 0.030000 -0.011098
v 0.025981 0.032121 -0.010762
v 0.024021 0.033000 -0.009950
v 0.022061 0.032121 -0.009138
v 0.021249 0.030000 -0.008802
v 0.022061 0.027879 -0.009138
v 0.024021 0.027000 -0.009950
v 0.025981 0.027879 -0.010762
v 0.024113 0.030000 -0.016112
v 0.023382 0.032121 -0.015623
v 0.021618 0.033000 -0.014445
v 0.019854 0.032121 -0.013266
v 0.019124 0.030000 -0.012778
v 0.019854 0.027879 -0.013266
v 0.021618 0.027000 -0.014445
v 0.023382 0.027879 -0.015623
v 0.020506 0.030000 -0.020506
v 0.019885 0.032121 -0.019885
v 0.018385 0.033000 -0.018385
v 0.016885 0.032121 -0.016885
v 0.016263 0.030000 -0.016263
v 0.016885 0.027879 -0.016885
v 0.018385 0.027000 -0.018385
v 0.019885 0.027879 -0.019885
v 0.016112 0.030000 -0.024113
v 0.015623 0.032121 -0.023382
v 0.014445 0.033000 -0.021618
v 0.013266 0.032121 -0.019854
v 0.012778 0.030000 -0.019124
v 0.013266 0.027879 -0.019854
v 0.014445 0.027000 -0.021618
v 0.015623 0.027879 -0.023382
v 0.011098 0.030000 -0.026793
v 0.010762 0.032121 -0.025981
v 0.009950 0.033000 -0.024021
v 0.009138 0.032121 -0.022061
v 0.008802 0.030000 -0.021249
v 0.009138 0.027879 -0.022061
v 0.009950 0.027000 -0.024021
v 0.010762 0.027879 -0.025981
v 0.005658 0.030000 -0.028443
v 0.005486 0.032121 -0.027581
v 0.005072 0.033000 -0.025500
v 0.004659 0.032121 -0.023420
v 0.004487 0.030000 -0.022558
v 0.004659 0.027879 -0.023420
v 0.005072 0.027000 -0.025500
v 0.005486 0.027879 -0.027581
v 0.000000 0.030000 -0.029000
v 0.000000 0.032121 -0.028121
v 0.000000 0.033000 -0.026000
v 0.000000 0.032121 -0.023879
v 0.000000 0.030000 -0.023000
v 0.000000 0.027879 -0.023879
v 0.000000 0.027000 -0.026000
v 0.000000 0.027879 -0.028121
v -0.005658 0.030000 -0.028443
v -0.005486 0.032121 -0.027581
v -0.005072 0.033000 -0.025500
v -0.004658 0.032121 -0.023420
v -0.004487 0.030000 -0.022558
v -0.004658 0.027879 -0.023420
v -0.005072 0.027000 -0.025500
v -0.005486 0.027879 -0.027581
v -0.011098 0.030000 -0.026793
v -0.010762 0.032121 -0.025981
v -0.009950 0.033000 -0.024021
v -0.009138 0.032121 -0.022061
v -0.008802 0.030000 -0.021249
v -0.009138 0.027879 -0.022061
v -0.009950 0.027000 -0.024021
v -0.010762 0.027879 -0.025981
v -0.016112 0.030000 -0.024113
v -0.015623 0.032121 -0.023382
v -0.014445 0.033000 -0.021618
v -0.013266 0.032121 -0.019854
v -0.012778 0.030000 -0.019124
v -0.013266 0.027879 -0.019854
v -0.014445 0.027000 -0.021618
v -0.015623 0.027879 -0.023382
v -0.020506 0.030000 -0.020506
v -0.019885 0.032121 -0.019885
v -0.018385 0.033000 -0.018385
v -0.016885 0.032121 -0.016885
v -0.016263 0.030000 -0.016263
v -0.016885 0.027879 -0.016885
v -0.018385 0.027000 -0.018385
v -0.019885 0.027879 -0.019885
v -0.024113 0.030000 -0.016112
v -0.023382 0.032121 -0.015623
v -0.021618 0.033000 -0.014445
v -0.019854 0.032121 -0.013266
v -0.019124 0.030000 -0.012778
v -0.019854 0.027879 -0.013266
v -0.021618 0.027000 -0.014445
v -0.023382 0.027879 -0.015623
v -0.026793 0.030000 -0.011098
v -0.025981 0.032121 -0.010762
v -0.024021 0.033000 -0.009950
v -0.022061 0.032121 -0.009138
v -0.021249 0.030000 -0.008802
v -0.022061 0.027879 -0.009138
v -0.024021 0.027000 -0.009950
v -0.025981 0.027879 -0.010762
v -0.028443 0.030000 -0.005658
v -0.027581 0.032121 -0.005486
v -0.025500 0.033000 -0.005072
v -0.023420 0.032121 -0.004658
v -0.022558 0.030000 -0.004487
v -0.023420 0.027879 -0.004658
v -0.025500 0.027000 -0.005072
v -0.027581 0.027879 -0.005486
v -0.029000 0.030000 -0.000000
v -0.028121 0.032121 -0.000000
v -0.026000 0.033000 -0.000000
v -0.023879 0.032121 -0.000000
v -0.023000 0.030000 -0.000000
v -0.023879 0.027879 -0.000000
v -0.026000 0.027000 -0.000000
v -0.028121 0.027879 -0.000000
v -0.028443 0.030000 0.005658
v -0.027581 0.032121 0.005486
v -0.025500 0.033000 0.005072
v -0.023420 0.032121 0.004658
v -0.022558 0.030000 0.004487
v -0.023420 0.027879 0.004658
v -0.025500 0.027000 0.005072
v -0.027581 0.027879 0.005486
v -0.026793 0.030000 0.011098
v -0.025981 0.032121 0.010762
v -0.024021 0.033000 0.009950
v -0.022061 0.032121 0.009138
v -0.021249 0.030000 0.008802
v -0.022061 0.027879 0.009138
v -0.024021 0.027000 0.009950
v -0.025981 0.027879 0.010762
v -0.024113 0.030000 0.016112
v -0.023382 0.032121 0.015623
v -0.021618 0.033000 0.014445
v -0.019854 0.032121 0.013266
v -0.019124 0.030000 0.012778
v -0.019854 0.027879 0.013266
v -0.021618 0.027000 0.014445
v -0.023382 0.027879 0.015623
v -0.020506 0.030000 0.020506
v -0.019885 0.032121 0.019885
v -0.018385 0.033000 0.018385
v -0.016885 0.032121 0.016885
v -0.016263 0.030000 0.016263
v -0.016885 0.027879 0.016885
v -0.018385 0.027000 0.018385
v -0.019885 0.027879 0.019885
v -0.016112 0.030000 0.024113
v -0.015623 0.032121 0.023382
v -0.014445 0.033000 0.021618
v -0.013266 0.032121 0.019854
v -0.012778 0.030000 0.019124
v -0.013266 0.027879 0.019854
v -0.014445 0.027000 0.021618
v -0.015623 0.027879 0.023382
v -0.011098 0.030000 0.026793
v -0.010762 0.032121 0.025981
v -0.009950 0.033000 0.024021
v -0.009138 0.032121 0.022061
v -0.008802 0.030000 0.021249
v -0.009138 0.027879 0.022061
v -0.009950 0.027000 0.024021
v -0.010762 0.027879 0.025981
v -0.005658 0.030000 0.028443
v -0.005486 0.032121 0.027581
v -0.005072 0.033000 0.025500
v -0.004659 0.032121 0.023420
v -0.004487 0.030000 0.022558
v -0.004659 0.027879 0.023420
v -0.005072 0.027000 0.025500
v -0.005486 0.027879 0.027581
v 0.000000 0.030000 0.029000
v 0.000000 0.032121 0.028121
v 0.000000 0.033000 0.026000
v 0.000000 0.032121 0.023879
v 0.000000 0.030000 0.023000
v 0.000000 0.027879 0.023879
v 0.000000 0.027000 0.026000
v 0.000000 0.027879 0.028121
v 0.005658 0.030000 0.028443
v 0.005486 0.032121 0.027581
v 0.005072 0.033000 0.025500
v 0.004658 0.032121 0.023420
v 0.004487 0.030000 0.022558
v 0.004658 0.027879 0.023420
v 0.005072 0.027000 0.025500
v 0.005486 0.027879 0.027581
v 0.011098 0.030000 0.026793
v 0.010762 0.032121 0.025981
v 0.009950 0.033000 0.024021
v 0.009138 0.032121 0.022061
v 0.008802 0.030000 0.021249
v 0.009138 0.027879 0.022061
v 0.009950 0.027000 0.024021
v 0.010762 0.027879 0.025981
v 0.016112 0.030000 0.024113
v 0.015623 0.032121 0.023382
v 0.014445 0.033000 0.021618
v 0.013266 0.032121 0.019854
v 0.012778 0.030000 0.019124
v 0.013266 0.027879 0.019854
v 0.014445 0.027000 0.021618
v 0.015623 0.027879 0.023382
v 0.020506 0.030000 0.020506
v 0.019885 0.032121 0.019885
v 0.018385 0.033000 0.018385
v 0.016885 0.032121 0.016885
v 0.016263 0.030000 0.016263
v 0.016885 0.027879 0.016885
v 0.018385 0.027000 0.018385
v 0.019885 0.027879 0.019885
v 0.024113 0.030000 0.016112
v 0.023382 0.032121 0.015623
v 0.021618 0.033000 0.014445
v 0.019854 0.032121 0.013266
v 0.019124 0.030000 0.012778
v 0.019854 0.027879 0.013266
v 0.021618 0.027000 0.014445
v 0.023382 0.027879 0.015623
v 0.026793 0.030000 0.011098
v 0.025981 0.032121 0.010762
v 0.024021 0.033000 0.009950
v 0.022061 0.032121 0.009138
v 0.021249 0.030000 0.008802
v 0.022061 0.027879 0.009138
v 0.024021 0.027000 0.009950
v 0.025981 0.027879 0.010762
v 0.028443 0.030000 0.005658
v 0.027581 0.032121 0.005486
v 0.025500 0.033000 0.005072
v 0.023420 0.032121 0.004658
v 0.022558 0.030000 0.004487
v 0.023420 0.027879 0.004658
v 0.025500 0.027000 0.005072
v 0.027581 0.027879 0.005486
vn 1.0000 -0.0000 -0.0000
vn 0.7187 0.6954 -0.0000
vn 0.0239 0.9997 -0.0000
vn -0.6948 0.7192 -0.0000
vn -1.0000 -0.0000 -0.0000
vn -0.6948 -0.7192 -0.0000
vn 0.0239 -0.9997 -0.0000
vn 0.7187 -0.6954 -0.0000
vn 0.9808 -0.0000 -0.1951
vn 0.7049 0.6954 -0.1402
vn 0.0234 0.9997 -0.0047
vn -0.6814 0.7192 0.1355
vn -0.9808 -0.0000 0.1951
vn -0.6814 -0.7192 0.1355
vn 0.0234 -0.9997 -0.0047
vn 0.7049 -0.6954 -0.1402
vn 0.9239 -0.0000 -0.3827
vn 0.6640 0.6954 -0.2750
vn 0.0221 0.9997 -0.0091
vn -0.6419 0.7192 0.2659
vn -0.9239 -0.0000 0.3827
vn -0.6419 -0.7192 0.2659
vn 0.0221 -0.9997 -0.0091
vn 0.6640 -0.6954 -0.2750
vn 0.8315 -0.0000 -0.5556
vn 0.5975 0.6954 -0.3993
vn 0.0199 0.9997 -0.0133
vn -0.5777 0.7192 0.3860
vn -0.8315 -0.0000 0.5556
vn -0.5777 -0.7192 0.3860
vn 0.0199 -0.9997 -0.0133
vn 0.5975 -0.6954 -0.3993
vn 0.7071 -0.0000 -0.7071
vn 0.5082 0.6954 -0.5082
vn 0.0169 0.9997 -0.0169
vn -0.4913 0.7192 0.4913
vn -0.7071 -0.0000 0.7071
vn -0.4913 -0.7192 0.4913
vn 0.0169 -0.9997 -0.0169
vn 0.5082 -0.6954 -0.5082
vn 0.5556 -0.0000 -0.8315
vn 0.3993 0.6954 -0.5975
vn 0.0133 0.9997 -0.0199
vn -0.3860 0.7192 0.5777
vn -0.5556 -0.0000 0.8315
vn -0.3860 -0.7192 0.5777
vn 0.0133 -0.9997 -0.0199
vn 0.3993 -0.6954 -0.5975
vn 0.3827 -0.0000 -0.9239
vn 0.2750 0.6954 -0.6640
vn 0.0091 0.9997 -0.0221
vn -0.2659 0.7192 0.6419
vn -0.3827 -0.0000 0.9239
vn -0.2659 -0.7192 0.6419
vn 0.0091 -0.9997 -0.0221
vn 0.2750 -0.6954 -0.6640
vn 0.1951 -0.0000 -0.9808
vn 0.1402 0.6954 -0.7049
vn 0.0047 0.9997 -0.0234
vn -0.1355 0.7192 0.6814
vn -0.1951 -0.0000 0.9808
vn -0.1355 -0.7192 0.6814
vn 0.0047 -0.9997 -0.0234
vn 0.1402 -0.6954 -0.7049
vn -0.0000 -0.0000 -1.0000
vn -0.0000 0.6954 -0.7187
vn -0.0000 0.9997 -0.0239
vn -0.0000 0.7192 0.6948
vn -0.0000 -0.0000 1.0000
vn -0.0000 -0.7192 0.6948
vn -0.0000 -0.9997 -0.0239
vn -0.0000 -0.6954 -0.7187
vn -0.1951 -0.0000 -0.9808
vn -0.1402 0.6954 -0.7049
vn -0.0047 0.9997 -0.0234
vn 0.1355 0.7192 0.6814
vn 0.1951 -0.0000 0.9808
vn 0.1355 -0.7192 0.6814
vn -0.0047 -0.9997 -0.0234
vn -0.1402 -0.6954 -0.7049
vn -0.3827 -0.0000 -0.9239
vn -0.2750 0.6954 -0.6640
vn -0.0091 0.9997 -0.0221
vn 0.2659 0.7192 0.6419
vn 0.3827 -0.0000 0.9239
vn 0.2659 -0.7192 0.6419
vn -0.0091 -0.9997 -0.0221
vn -0.2750 -0.6954 -0.6640
vn -0.5556 -0.0000 -0.8315
vn -0.3993 0.6954 -0.5975
vn -0.0133 0.9997 -0.0199
vn 0.3860 0.7192 0.5777
vn 0.5556 -0.0000 0.8315
vn 0.3860 -0.7192 0.5777
vn -0.0133 -0.9997 -0.0199
vn -0.3993 -0.6954 -0.5975
vn -0.7071 -0.0000 -0.7071
vn -0.5082 0.6954 -0.5082
vn -0.0169 0.9997 -0.0169
vn 0.4913 0.7192 0.4913
vn 0.7071 -0.0000 0.7071
vn 0.4913 -0.7192 0.4913
vn -0.0169 -0.9997 -0.0169
vn -0.5082 -0.6954 -0.5082
vn -0.8315 -0.0000 -0.5556
vn -0.5975 0.6954 -0.3993
vn -0.0199 0.9997 -0.0133
vn 0.5777 0.7192 0.3860
vn 0.8315 -0.0000 0.5556
vn 0.5777 -0.7192 0.3860
vn -0.0199 -0.9997 -0.0133
vn -0.5975 -0.6954 -0.3993
vn -0.9239 -0.0000 -0.3827
vn -0.6640 0.6954 -0.2750
vn -0.0221 0.9997 -0.0091
vn 0.6419 0.7192 0.2659
vn 0.9239 -0.0000 0.3827
vn 0.6419 -0.7192 0.2659
vn -0.0221 -0.9997 -0.0091
vn -0.6640 -0.6954 -0.2750
vn -0.9808 -0.0000 -0.1951
vn -0.7049 0.6954 -0.1402
vn -0.0234 0.9997 -0.0047
vn 0.6814 0.7192 0.1355
vn 0.9808 -0.0000 0.1951
vn 0.6814 -0.7192 0.1355
vn -0.0234 -0.9997 -0.0047
vn -0.7049 -0.6954 -0.1402
vn -0.7187 0.6954 -0.0000
vn -0.0239 0.9997 -0.0000
vn 0.6948 0.7192 -0.0000
vn 0.6948 -0.7192 -0.0000
vn -0.0239 -0.9997 -0.0000
vn -0.7187 -0.6954 -0.0000
vn -0.7049 0.6954 0.1402
vn -0.0234 0.9997 0.0047
vn 0.6814 0.7192 -0.1355
vn 0.6814 -0.7192 -0.1355
vn -0.0234 -0.9997 0.0047
vn -0.7049 -0.6954 0.1402
vn -0.6640 0.6954 0.2750
vn -0.0221 0.9997 0.0091
vn 0.6419 0.7192 -0.2659
vn 0.6419 -0.7192 -0.2659
vn -0.0221 -0.9997 0.0091
vn -0.6640 -0.6954 0.2750
vn -0.5975 0.6954 0.3993
vn -0.0199 0.9997 0.0133
vn 0.5777 0.7192 -0.3860
vn 0.5777 -0.7192 -0.3860
vn -0.0199 -0.9997 0.0133
vn -0.5975 -0.6954 0.3993
vn -0.5082 0.6954 0.5082
vn -0.0169 0.9997 0.0169
vn 0.4913 0.7192 -0.4913
vn 0.4913 -0.7192 -0.4913
vn -0.0169 -0.9997 0.0169
vn -0.5082 -0.6954 0.5082
vn -0.3993 0.6954 0.5975
vn -0.0133 0.9997 0.0199
vn 0.3860 0.7192 -0.5777
vn 0.3860 -0.7192 -0.5777
vn -0.0133 -0.9997 0.0199
vn -0.3993 -0.6954 0.5975
vn -0.2750 0.6954 0.6640
vn -0.0091 0.9997 0.0221
vn 0.2659 0.7192 -0.6419
vn 0.2659 -0.7192 -0.6419
vn -0.0091 -0.9997 0.0221
vn -0.2750 -0.6954 0.6640
vn -0.1402 0.6954 0.7049
vn -0.0047 0.9997 0.0234
vn 0.1355 0.7192 -0.6814
vn 0.1355 -0.7192 -0.6814
vn -0.0047 -0.9997 0.0234
vn -0.1402 -0.6954 0.7049
vn -0.0000 0.6954 0.7187
vn -0.0000 0.9997 0.0239
vn -0.0000 0.7192 -0.6948
vn -0.0000 -0.7192 -0.6948
vn -0.0000 -0.9997 0.0239
vn -0.0000 -0.6954 0.7187
vn 0.1402 0.6954 0.7049
vn 0.0047 0.9997 0.0234
vn -0.1355 0.7192 -0.6814
vn -0.1355 -0.7192 -0.6814
vn 0.0047 -0.9997 0.0234
vn 0.1402 -0.6954 0.7049
vn 0.2750 0.6954 0.6640
vn 0.0091 0.9997 0.0221
vn -0.2659 0.7192 -0.6419
vn -0.2659 -0.7192 -0.6419
vn 0.0091 -0.9997 0.0221
vn 0.2750 -0.6954 0.6640
vn 0.3993 0.6954 0.5975
vn 0.0133 0.9997 0.0199
vn -0.3860 0.7192 -0.5777
vn -0.3860 -0.7192 -0.5777
vn 0.0133 -0.9997 0.0199
vn 0.3993 -0.6954 0.5975
vn 0.5082 0.6954 0.5082
vn 0.0169 0.9997 0.0169
vn -0.4913 0.7192 -0.4913
vn -0.4913 -0.7192 -0.4913
vn 0.0169 -0.9997 0.0169
vn 0.5082 -0.6954 0.5082
vn 0.5975 0.6954 0.3993
vn 0.0199 0.9997 0.0133
vn -0.5777 0.7192 -0.3860
vn -0.5777 -0.7192 -0.3860
vn 0.0199 -0.9997 0.0133
vn 0.5975 -0.6954 0.3993
vn 0.6640 0.6954 0.2750
vn 0.0221 0.9997 0.0091
vn -0.6419 0.7192 -0.2659
vn -0.6419 -0.7192 -0.2659
vn 0.0221 -0.9997 0.0091
vn 0.6640 -0.6954 0.2750
vn 0.7049 0.6954 0.1402
vn 0.0234 0.9997 0.0047
vn -0.6814 0.7192 -0.1355
vn -0.6814 -0.7192 -0.1355
vn 0.0234 -0.9997 0.0047
vn 0.7049 -0.6954 0.1402
vt 0.500000 0.500000
vt 0.531250 0.500000
vt 0.531250 0.625000
vt 0.500000 0.625000
vt 0.531250 0.750000
vt 0.500000 0.750000
vt 0.531250 0.875000
vt 0.500000 0.875000
vt 0.531250 1.000000
vt 0.500000 1.000000
vt 0.500000 0.000000
vt 0.531250 0.000000
vt 0.531250 0.125000
vt 0.500000 0.125000
vt 0.531250 0.250000
vt 0.500000 0.250000
vt 0.531250 0.375000
vt 0.500000 0.375000
vt 0.562500 0.500000
vt 0.562500 0.625000
vt 0.562500 0.750000
vt 0.562500 0.875000
vt 0.562500 1.000000
vt 0.562500 0.000000
vt 0.562500 0.125000
vt 0.562500 0.250000
vt 0.562500 0.375000
vt 0.593750 0.500000
vt 0.593750 0.625000
vt 0.593750 0.750000
vt 0.593750 0.875000
vt 0.593750 1.000000
vt 0.593750 0.000000
vt 0.593750 0.125000
vt 0.593750 0.250000
vt 0.593750 0.375000
vt 0.625000 0.500000
vt 0.625000 0.625000
vt 0.625000 0.750000
vt 0.625000 0.875000
vt 0.625000 1.000000
vt 0.625000 0.000000
vt 0.625000 0.125000
vt 0.625000 0.250000
vt 0.625000 0.375000
vt 0.656250 0.500000
vt 0.656250 0.625000
vt 0.656250 0.750000
vt 0.656250 0.875000
vt 0.656250 1.000000
vt 0.656250 0.000000
vt 0.656250 0.125000
vt 0.656250 0.250000
vt 0.656250 0.375000
vt 0.687500 0.500000
vt 0.687500 0.625000
vt 0.687500 0.750000
vt 0.687500 0.875000
vt 0.687500 1.000000
vt 0.687500 0.000000
vt 0.687500 0.125000
vt 0.687500 0.250000
vt 0.687500 0.375000
vt 0.718750 0.500000
vt 0.718750 0.625000
vt 0.718750 0.750000
vt 0.718750 0.875000
vt 0.718750 1.000000
vt 0.718750 0.000000
vt 0.718750 0.125000
vt 0.718750 0.250000
vt 0.718750 0.375000
vt 0.750000 0.500000
vt 0.750000 0.625000
vt 0.750000 0.750000
vt 0.750000 0.875000
vt 0.750000 1.000000
vt 0.750000 0.000000
vt 0.750000 0.125000
vt 0.750000 0.250000
vt 0.750000 0.375000
vt 0.781250 0.500000
vt 0.781250 0.625000
vt 0.781250 0.750000
vt 0.781250 0.875000
vt 0.781250 1.000000
vt 0.781250 0.000000
vt 0.781250 0.125000
vt 0.781250 0.250000
vt 0.781250 0.375000
vt 0.812500 0.500000
vt 0.812500 0.625000
vt 0.812500 0.750000
vt 0.812500 0.875000
vt 0.812500 1.000000
vt 0.812500 0.000000
vt 0.812500 0.125000
vt 0.812500 0.250000
vt 0.812500 0.375000
vt 0.843750 0.500000
vt 0.843750 0.625000
vt 0.843750 0.750000
vt 0.843750 0.875000
vt 0.843750 1.000000
vt 0.843750 0.000000
vt 0.843750 0.125000
vt 0.843750 0.250000
vt 0.843750 0.375000
vt 0.875000 0.500000
vt 0.875000 0.625000
vt 0.875000 0.750000
vt 0.875000 0.875000
vt 0.875000 1.000000
vt 0.875000 0.000000
vt 0.875000 0.125000
vt 0.875000 0.250000
vt 0.875000 0.375000
vt 0.906250 0.500000
vt 0.906250 0.625000
vt 0.906250 0.750000
vt 0.906250 0.875000
vt 0.906250 1.000000
vt 0.906250 0.000000
vt 0.906250 0.125000
vt 0.906250 0.250000
vt 0.906250 0.375000
vt 0.937500 0.500000
vt 0.937500 0.625000
vt 0.937500 0.750000
vt 0.937500 0.875000
vt 0.937500 1.000000
vt 0.937500 0.000000
vt 0.937500 0.125000
vt 0.937500 0.250000
vt 0.937500 0.375000
vt 0.968750 0.500000
vt 0.968750 0.625000
vt 0.968750 0.750000
vt 0.968750 0.875000
vt 0.968750 1.000000
vt 0.968750 0.000000
vt 0.968750 0.125000
vt 0.968750 0.250000
vt 0.968750 0.375000
vt 1.000000 0.500000
vt 1.000000 0.625000
vt 1.000000 0.750000
vt 1.000000 0.875000
vt 1.000000 1.000000
vt 1.000000 0.000000
vt 1.000000 0.125000
vt 1.000000 0.250000
vt 1.000000 0.375000
vt 0.000000 0.500000
vt 0.031250 0.500000
vt 0.031250 0.625000
vt 0.000000 0.625000
vt 0.031250 0.750000
vt 0.000000 0.750000
vt 0.031250 0.875000
vt 0.000000 0.875000
vt 0.031250 1.000000
vt 0.000000 1.000000
vt 0.000000 0.000000
vt 0.031250 0.000000
vt 0.031250 0.125000
vt 0.000000 0.125000
vt 0.031250 0.250000
vt 0.000000 0.250000
vt 0.031250 0.375000
vt 0.000000 0.375000
vt 0.062500 0.500000
vt 0.062500 0.625000
vt 0.062500 0.750000
vt 0.062500 0.875000
vt 0.062500 1.000000
vt 0.062500 0.000000
vt 0.062500 0.125000
vt 0.062500 0.250000
vt 0.062500 0.375000
vt 0.093750 0.500000
vt 0.093750 0.625000
vt 0.093750 0.750000
vt 0.093750 0.875000
vt 0.093750 1.000000
vt 0.093750 0.000000
vt 0.093750 0.125000
vt 0.093750 0.250000
vt 0.093750 0.375000
vt 0.125000 0.500000
vt 0.125000 0.625000
vt 0.125000 0.750000
vt 0.125000 0.875000
vt 0.125000 1.000000
vt 0.125000 0.000000
vt 0.125000 0.125000
vt 0.125000 0.250000
vt 0.125000 0.375000
vt 0.156250 0.500000
vt 0.156250 0.625000
vt 0.156250 0.750000
vt 0.156250 0.875000
vt 0.156250 1.000000
vt 0.156250 0.000000
vt 0.156250 0.125000
vt 0.156250 0.250000
vt 0.156250 0.375000
vt 0.187500 0.500000
vt 0.187500 0.625000
vt 0.187500 0.750000
vt 0.187500 0.875000
vt 0.187500 1.000000
vt 0.187500 0.000000
vt 0.187500 0.125000
vt 0.187500 0.250000
vt 0.187500 0.375000
vt 0.218750 0.500000
vt 0.218750 0.625000
vt 0.218750 0.750000
vt 0.218750 0.875000
vt 0.218750 1.000000
vt 0.218750 0.000000
vt 0.218750 0.125000
vt 0.218750 0.250000
vt 0.218750 0.375000
vt 0.250000 0.500000
vt 0.250000 0.625000
vt 0.250000 0.750000
vt 0.250000 0.875000
vt 0.250000 1.000000
vt 0.250000 0.000000
vt 0.250000 0.125000
vt 0.250000 0.250000
vt 0.250000 0.375000
vt 0.281250 0.500000
vt 0.281250 0.625000
vt 0.281250 0.750000
vt 0.281250 0.875000
vt 0.281250 1.000000
vt 0.281250 0.000000
vt 0.281250 0.125000
vt 0.281250 0.250000
vt 0.281250 0.375000
vt 0.312500 0.500000
vt 0.312500 0.625000
vt 0.312500 0.750000
vt 0.312500 0.875000
vt 0.312500 1.000000
vt 0.312500 0.000000
vt 0.312500 0.125000
vt 0.312500 0.250000
vt 0.312500 0.375000
vt 0.343750 0.500000
vt 0.343750 0.625000
vt 0.343750 0.750000
vt 0.343750 0.875000
vt 0.343750 1.000000
vt 0.343750 0.000000
vt 0.343750 0.125000
vt 0.343750 0.250000
vt 0.343750 0.375000
vt 0.375000 0.500000
vt 0.375000 0.625000
vt 0.375000 0.750000
vt 0.375000 0.875000
vt 0.375000 1.000000
vt 0.375000 0.000000
vt 0.375000 0.125000
vt 0.375000 0.250000
vt 0.375000 0.375000
vt 0.406250 0.500000
vt 0.406250 0.625000
vt 0.406250 0.750000
vt 0.406250 0.875000
vt 0.406250 1.000000
vt 0.406250 0.000000
vt 0.406250 0.125000
vt 0.406250 0.250000
vt 0.406250 0.375000
vt 0.437500 0.500000
vt 0.437500 0.625000
vt 0.437500 0.750000
vt 0.437500 0.875000
vt 0.437500 1.000000
vt 0.437500 0.000000
vt 0.437500 0.125000
vt 0.437500 0.250000
vt 0.437500 0.375000
vt 0.468750 0.500000
vt 0.468750 0.625000
vt 0.468750 0.750000
vt 0.468750 0.875000
vt 0.468750 1.000000
vt 0.468750 0.000000
vt 0.468750 0.125000
vt 0.468750 0.250000
vt 0.468750 0.375000
s 1
usemtl M_Cyan_Emission
f 49/99/49 57/100/57 58/101/58 50/102/50
f 50/102/50 58/101/58 59/103/59 51/104/51
f 51/104/51 59/103/59 60/105/60 52/106/52
f 52/106/52 60/105/60 61/107/61 53/108/53
f 53/109/53 61/110/61 62/111/62 54/112/54
f 54/112/54 62/111/62 63/113/63 55/114/55
f 55/114/55 63/113/63 64/115/64 56/116/56
f 56/116/56 64/115/64 57/100/57 49/99/49
f 57/100/57 65/117/65 66/118/66 58/101/58
f 58/101/58 66/118/66 67/119/67 59/103/59
f 59/103/59 67/119/67 68/120/68 60/105/60
f 60/105/60 68/120/68 69/121/69 61/107/61
f 61/110/61 69/122/69 70/123/70 62/111/62
f 62/111/62 70/123/70 71/124/71 63/113/63
f 63/113/63 71/124/71 72/125/72 64/115/64
f 64/115/64 72/125/72 65/117/65 57/100/57
f 65/117/65 73/126/73 74/127/74 66/118/66
f 66/118/66 74/127/74 75/128/75 67/119/67
f 67/119/67 75/128/75 76/129/76 68/120/68
f 68/120/68 76/129/76 77/130/77 69/121/69
f 69/122/69 77/131/77 78/132/78 70/123/70
f 70/123/70 78/132/78 79/133/79 71/124/71
f 71/124/71 79/133/79 80/134/80 72/125/72
f 72/125/72 80/134/80 73/126/73 65/117/65
f 73/126/73 81/135/81 82/136/82 74/127/74
f 74/127/74 82/136/82 83/137/83 75/128/75
f 75/128/75 83/137/83 84/138/84 76/129/76
f 76/129/76 84/138/84 85/139/85 77/130/77
f 77/131/77 85/140/85 86/141/86 78/132/78
f 78/132/78 86/141/86 87/142/87 79/133/79
f 79/133/79 87/142/87 88/143/88 80/134/80
f 80/134/80 88/143/88 81/135/81 73/126/73
f 81/135/81 89/144/89 90/145/90 82/136/82
f 82/136/82 90/145/90 91/146/91 83/137/83
f 83/137/83 91/146/91 92/147/92 84/138/84
f 84/138/84 92/147/92 93/148/93 85/139/85
f 85/140/85 93/149/93 94/150/94 86/141/86
f 86/141/86 94/150/94 95/151/95 87/142/87
f 87/142/87 95/151/95 96/152/96 88/143/88
f 88/143/88 96/152/96 89/144/89 81/135/81
f 89/144/89 97/153/97 98/154/98 90/145/90
f 90/145/90 98/154/98 99/155/99 91/146/91
f 91/146/91 99/155/99 100/156/100 92/147/92
f 92/147/92 100/156/100 101/157/101 93/148/93
f 93/149/93 101/158/101 102/159/102 94/150/94
f 94/150/94 102/159/102 103/160/103 95/151/95
f 95/151/95 103/160/103 104/161/104 96/152/96
f 96/152/96 104/161/104 97/153/97 89/144/89
f 97/153/97 105/162/105 106/163/106 98/154/98
f 98/154/98 106/163/106 107/164/107 99/155/99
f 99/155/99 107/164/107 108/165/108 100/156/100
f 100/156/100 108/165/108 109/166/109 101/157/101
f 101/158/101 109/167/109 110/168/110 102/159/102
f 102/159/102 110/168/110 111/169/111 103/160/103
f 103/160/103 111/169/111 112/170/112 104/161/104
f 104/161/104 112/170/112 105/162/105 97/153/97
f 105/162/105 113/171/113 114/172/114 106/163/106
f 106/163/106 114/172/114 115/173/115 107/164/107
f 107/164/107 115/173/115 116/174/116 108/165/108
f 108/165/108 116/174/116 117/175/117 109/166/109
f 109/167/109 117/176/117 118/177/118 110/168/110
f 110/168/110 118/177/118 119/178/119 111/169/111
f 111/169/111 119/178/119 120/179/120 112/170/112
f 112/170/112 120/179/120 113/171/113 105/162/105
f 113/171/113 121/180/121 122/181/122 114/172/114
f 114/172/114 122/181/122 123/182/123 115/173/115
f 115/173/115 123/182/123 124/183/124 116/174/116
f 116/174/116 124/183/124 125/184/125 117/175/117
f 117/176/117 125/185/125 126/186/126 118/177/118
f 118/177/118 126/186/126 127/187/127 119/178/119
f 119/178/119 127/187/127 128/188/128 120/179/120
f 120/179/120 128/188/128 121/180/121 113/171/113
f 121/180/121 129/189/129 130/190/130 122/181/122
f 122/181/122 130/190/130 131/191/131 123/182/123
f 123/182/123 131/191/131 132/192/132 124/183/124
f 124/183/124 132/192/132 133/193/133 125/184/125
f 125/185/125 133/194/133 134/195/134 126/186/126
f 126/186/126 134/195/134 135/196/135 127/187/127
f 127/187/127 135/196/135 136/197/136 128/188/128
f 128/188/128 136/197/136 129/189/129 121/180/121
f 129/189/129 137/198/137 138/199/138 130/190/130
f 130/190/130 138/199/138 139/200/139 131/191/131
f 131/191/131 139/200/139 140/201/140 132/192/132
f 132/192/132 140/201/140 141/202/141 133/193/133
f 133/194/133 141/203/141 142/204/142 134/195/134
f 134/195/134 142/204/142 143/205/143 135/196/135
f 135/196/135 143/205/143 144/206/144 136/197/136
f 136/197/136 144/206/144 137/198/137 129/189/129
f 137/198/137 145/207/145 146/208/146 138/199/138
f 138/199/138 146/208/146 147/209/147 139/200/139
f 139/200/139 147/209/147 148/210/148 140/201/140
f 140/201/140 148/210/148 149/211/149 141/202/141
f 141/203/141 149/212/149 150/213/150 142/204/142
f 142/204/142 150/213/150 151/214/151 143/205/143
f 143/205/143 151/214/151 152/215/152 144/206/144
f 144/206/144 152/215/152 145/207/145 137/198/137
f 145/207/145 153/216/153 154/217/154 146/208/146
f 146/208/146 154/217/154 155/218/155 147/209/147
f 147/209/147 155/218/155 156/219/156 148/210/148
f 148/210/148 156/219/156 157/220/157 149/211/149
f 149/212/149 157/221/157 158/222/158 150/213/150
f 150/213/150 158/222/158 159/223/159 151/214/151
f 151/214/151 159/223/159 160/224/160 152/215/152
f 152/215/152 160/224/160 153/216/153 145/207/145
f 153/216/153 161/225/161 162/226/162 154/217/154
f 154/217/154 162/226/162 163/227/163 155/218/155
f 155/218/155 163/227/163 164/228/164 156/219/156
f 156/219/156 164/228/164 165/229/165 157/220/157
f 157/221/157 165/230/165 166/231/166 158/222/158
f 158/222/158 166/231/166 167/232/167 159/223/159
f 159/223/159 167/232/167 168/233/168 160/224/160
f 160/224/160 168/233/168 161/225/161 153/216/153
f 161/225/161 169/234/169 170/235/170 162/226/162
f 162/226/162 170/235/170 171/236/171 163/227/163
f 163/227/163 171/236/171 172/237/172 164/228/164
f 164/228/164 172/237/172 173/238/173 165/229/165
f 165/230/165 173/239/173 174/240/174 166/231/166
f 166/231/166 174/240/174 175/241/175 167/232/167
f 167/232/167 175/241/175 176/242/176 168/233/168
f 168/233/168 176/242/176 169/234/169 161/225/161
f 169/234/169 177/243/53 178/244/177 170/235/170
f 170/235/170 178/244/177 179/245/178 171/236/171
f 171/236/171 179/245/178 180/246/179 172/237/172
f 172/237/172 180/246/179 181/247/49 173/238/173
f 173/239/173 181/248/49 182/249/180 174/240/174
f 174/240/174 182/249/180 183/250/181 175/241/175
f 175/241/175 183/250/181 184/251/182 176/242/176
f 176/242/176 184/251/182 177/243/53 169/234/169
f 177/252/53 185/253/61 186/254/183 178/255/177
f 178/255/177 186/254/183 187/256/184 179/257/178
f 179/257/178 187/256/184 188/258/185 180/259/179
f 180/259/179 188/258/185 189/260/57 181/261/49
f 181/262/49 189/263/57 190/264/186 182/265/180
f 182/265/180 190/264/186 191/266/187 183/267/181
f 183/267/181 191/266/187 192/268/188 184/269/182
f 184/269/182 192/268/188 185/253/61 177/252/53
f 185/253/61 193/270/69 194/271/189 186/254/183
f 186/254/183 194/271/189 195/272/190 187/256/184
f 187/256/184 195/272/190 196/273/191 188/258/185
f 188/258/185 196/273/191 197/274/65 189/260/57
f 189/263/57 197/275/65 198/276/192 190/264/186
f 190/264/186 198/276/192 199/277/193 191/266/187
f 191/266/187 199/277/193 200/278/194 192/268/188
f 192/268/188 200/278/194 193/270/69 185/253/61
f 193/270/69 201/279/77 202/280/195 194/271/189
f 194/271/189 202/280/195 203/281/196 195/272/190
f 195/272/190 203/281/196 204/282/197 196/273/191
f 196/273/191 204/282/197 205/283/73 197/274/65
f 197/275/65 205/284/73 206/285/198 198/276/192
f 198/276/192 206/285/198 207/286/199 199/277/193
f 199/277/193 207/286/199 208/287/200 200/278/194
f 200/278/194 208/287/200 201/279/77 193/270/69
f 201/279/77 209/288/85 210/289/201 202/280/195
f 202/280/195 210/289/201 211/290/202 203/281/196
f 203/281/196 211/290/202 212/291/203 204/282/197
f 204/282/197 212/291/203 213/292/81 205/283/73
f 205/284/73 213/293/81 214/294/204 206/285/198
f 206/285/198 214/294/204 215/295/205 207/286/199
f 207/286/199 215/295/205 216/296/206 208/287/200
f 208/287/200 216/296/206 209/288/85 201/279/77
f 209/288/85 217/297/93 218/298/207 210/289/201
f 210/289/201 218/298/207 219/299/208 211/290/202
f 211/290/202 219/299/208 220/300/209 212/291/203
f 212/291/203 220/300/209 221/301/89 213/292/81
f 213/293/81 221/302/89 222/303/210 214/294/204
f 214/294/204 222/303/210 223/304/211 215/295/205
f 215/295/205 223/304/211 224/305/212 216/296/206
f 216/296/206 224/305/212 217/297/93 209/288/85
f 217/297/93 225/306/101 226/307/213 218/298/207
f 218/298/207 226/307/213 227/308/214 219/299/208
f 219/299/208 227/308/214 228/309/215 220/300/209
f 220/300/209 228/309/215 229/310/97 221/301/89
f 221/302/89 229/311/97 230/312/216 222/303/210
f 222/303/210 230/312/216 231/313/217 223/304/211
f 223/304/211 231/313/217 232/314/218 224/305/212
f 224/305/212 232/314/218 225/306/101 217/297/93
f 225/306/101 233/315/109 234/316/219 226/307/213
f 226/307/213 234/316/219 235/317/220 227/308/214
f 227/308/214 235/317/220 236/318/221 228/309/215
f 228/309/215 236/318/221 237/319/105 229/310/97
f 229/311/97 237/320/105 238/321/222 230/312/216
f 230/312/216 238/321/222 239/322/223 231/313/217
f 231/313/217 239/322/223 240/323/224 232/314/218
f 232/314/218 240/323/224 233/315/109 225/306/101
f 233/315/109 241/324/117 242/325/225 234/316/219
f 234/316/219 242/325/225 243/326/226 235/317/220
f 235/317/220 243/326/226 244/327/227 236/318/221
f 236/318/221 244/327/227 245/328/113 237/319/105
f 237/320/105 245/329/113 246/330/228 238/321/222
f 238/321/222 246/330/228 247/331/229 239/322/223
f 239/322/223 247/331/229 248/332/230 240/323/224
f 240/323/224 248/332/230 241/324/117 233/315/109
f 241/324/117 249/333/125 250/334/231 242/325/225
f 242/325/225 250/334/231 251/335/232 243/326/226
f 243/326/226 251/335/232 252/336/233 244/327/227
f 244/327/227 252/336/233 253/337/121 245/328/113
f 245/329/113 253/338/121 254/339/234 246/330/228
f 246/330/228 254/339/234 255/340/235 247/331/229
f 247/331/229 255/340/235 256/341/236 248/332/230
f 248/332/230 256/341/236 249/333/125 241/324/117
f 249/333/125 257/342/133 258/343/237 250/334/231
f 250/334/231 258/343/237 259/344/238 251/335/232
f 251/335/232 259/344/238 260/345/239 252/336/233
f 252/336/233 260/345/239 261/346/129 253/337/121
f 253/338/121 261/347/129 262/348/240 254/339/234
f 254/339/234 262/348/240 263/349/241 255/340/235
f 255/340/235 263/349/241 264/350/242 256/341/236
f 256/341/236 264/350/242 257/342/133 249/333/125
f 257/342/133 265/351/141 266/352/243 258/343/237
f 258/343/237 266/352/243 267/353/244 259/344/238
f 259/344/238 267/353/244 268/354/245 260/345/239
f 260/345/239 268/354/245 269/355/137 261/346/129
f 261/347/129 269/356/137 270/357/246 262/348/240
f 262/348/240 270/357/246 271/358/247 263/349/241
f 263/349/241 271/358/247 272/359/248 264/350/242
f 264/350/242 272/359/248 265/351/141 257/342/133
f 265/351/141 273/360/149 274/361/249 266/352/243
f 266/352/243 274/361/249 275/362/250 267/353/244
f 267/353/244 275/362/250 276/363/251 268/354/245
f 268/354/245 276/363/251 277/364/145 269/355/137
f 269/356/137 277/365/145 278/366/252 270/357/246
f 270/357/246 278/366/252 279/367/253 271/358/247
f 271/358/247 279/367/253 280/368/254 272/359/248
f 272/359/248 280/368/254 273/360/149 265/351/141
f 273/360/149 281/369/157 282/370/255 274/361/249
f 274/361/249 282/370/255 283/371/256 275/362/250
f 275/362/250 283/371/256 284/372/257 276/363/251
f 276/363/251 284/372/257 285/373/153 277/364/145
f 277/365/145 285/374/153 286/375/258 278/366/252
f 278/366/252 286/375/258 287/376/259 279/367/253
f 279/367/253 287/376/259 288/377/260 280/368/254
f 280/368/254 288/377/260 281/369/157 273/360/149
f 281/369/157 289/378/165 290/379/261 282/370/255
f 282/370/255 290/379/261 291/380/262 283/371/256
f 283/371/256 291/380/262 292/381/263 284/372/257
f 284/372/257 292/381/263 293/382/161 285/373/153
f 285/374/153 293/383/161 294/384/264 286/375/258
f 286/375/258 294/384/264 295/385/265 287/376/259
f 287/376/259 295/385/265 296/386/266 288/377/260
f 288/377/260 296/386/266 289/378/165 281/369/157
f 289/378/165 297/387/173 298/388/267 290/379/261
f 290/379/261 298/388/267 299/389/268 291/380/262
f 291/380/262 299/389/268 300/390/269 292/381/263
f 292/381/263 300/390/269 301/391/169 293/382/161
f 293/383/161 301/392/169 302/393/270 294/384/264
f 294/384/264 302/393/270 303/394/271 295/385/265
f 295/385/265 303/394/271 304/395/272 296/386/266
f 296/386/266 304/395/272 297/387/173 289/378/165
f 297/387/173 49/99/49 50/102/50 298/388/267
f 298/388/267 50/102/50 51/104/51 299/389/268
f 299/389/268 51/104/51 52/106/52 300/390/269
f 300/390/269 52/106/52 53/108/53 301/391/169
f 301/392/169 53/109/53 54/112/54 302/393/270
f 302/393/270 54/112/54 55/114/55 303/394/271
f 303/394/271 55/114/55 56/116/56 304/395/272
f 304/395/272 56/116/56 49/99/49 297/387/173
o Presence_Dot
v 0.000000 0.036928 0.020000
v 0.000000 0.032071 0.016273
v 0.000000 0.030000 0.016000
v 0.000000 0.027929 0.016273
v 0.000640 0.037727 0.022031
v 0.001236 0.036928 0.020196
v 0.001748 0.035657 0.018620
v 0.002141 0.034000 0.017411
v 0.002388 0.032071 0.016651
v 0.002472 0.030000 0.016392
v 0.002388 0.027929 0.016651
v 0.002141 0.026000 0.017411
v 0.001748 0.024343 0.018620
v 0.001236 0.023072 0.020196
v 0.000640 0.022273 0.022031
v 0.001217 0.037727 0.022325
v 0.002351 0.036928 0.020764
v 0.003325 0.035657 0.019424
v 0.004072 0.034000 0.018395
v 0.004542 0.032071 0.017748
v 0.004702 0.030000 0.017528
v 0.004542 0.027929 0.017748
v 0.004072 0.026000 0.018395
v 0.003325 0.024343 0.019424
v 0.002351 0.023072 0.020764
v 0.001217 0.022273 0.022325
v 0.000000 0.038000 0.024000
v 0.001675 0.037727 0.022783
v 0.003236 0.036928 0.021649
v 0.004576 0.035657 0.020675
v 0.005605 0.034000 0.019928
v 0.006252 0.032071 0.019458
v 0.006472 0.030000 0.019298
v 0.006252 0.027929 0.019458
v 0.005605 0.026000 0.019928
v 0.004576 0.024343 0.020675
v 0.003236 0.023072 0.021649
v 0.001675 0.022273 0.022783
v 0.000000 0.022000 0.024000
v 0.001969 0.037727 0.023360
v 0.003804 0.036928 0.022764
v 0.005380 0.035657 0.022252
v 0.006589 0.034000 0.021859
v 0.007349 0.032071 0.021612
v 0.007608 0.030000 0.021528
v 0.007349 0.027929 0.021612
v 0.006589 0.026000 0.021859
v 0.005380 0.024343 0.022252
v 0.003804 0.023072 0.022764
v 0.001969 0.022273 0.023360
v 0.002071 0.037727 0.024000
v 0.004000 0.036928 0.024000
v 0.005657 0.035657 0.024000
v 0.006928 0.034000 0.024000
v 0.007727 0.032071 0.024000
v 0.008000 0.030000 0.024000
v 0.007727 0.027929 0.024000
v 0.006928 0.026000 0.024000
v 0.005657 0.024343 0.024000
v 0.004000 0.023072 0.024000
v 0.002071 0.022273 0.024000
v 0.001969 0.037727 0.024640
v 0.003804 0.036928 0.025236
v 0.005380 0.035657 0.025748
v 0.006589 0.034000 0.026141
v 0.007349 0.032071 0.026388
v 0.007608 0.030000 0.026472
v 0.007349 0.027929 0.026388
v 0.006589 0.026000 0.026141
v 0.005380 0.024343 0.025748
v 0.003804 0.023072 0.025236
v 0.001969 0.022273 0.024640
v 0.001675 0.037727 0.025217
v 0.003236 0.036928 0.026351
v 0.004576 0.035657 0.027325
v 0.005605 0.034000 0.028072
v 0.006252 0.032071 0.028542
v 0.006472 0.030000 0.028702
v 0.006252 0.027929 0.028542
v 0.005605 0.026000 0.028072
v 0.004576 0.024343 0.027325
v 0.003236 0.023072 0.026351
v 0.001675 0.022273 0.025217
v 0.001217 0.037727 0.025675
v 0.002351 0.036928 0.027236
v 0.003325 0.035657 0.028576
v 0.004072 0.034000 0.029605
v 0.004542 0.032071 0.030252
v 0.004702 0.030000 0.030472
v 0.004542 0.027929 0.030252
v 0.004072 0.026000 0.029605
v 0.003325 0.024343 0.028576
v 0.002351 0.023072 0.027236
v 0.001217 0.022273 0.025675
v 0.000640 0.037727 0.025969
v 0.001236 0.036928 0.027804
v 0.001748 0.035657 0.029380
v 0.002141 0.034000 0.030589
v 0.002388 0.032071 0.031349
v 0.002472 0.030000 0.031608
v 0.002388 0.027929 0.031349
v 0.002141 0.026000 0.030589
v 0.001748 0.024343 0.029380
v 0.001236 0.023072 0.027804
v 0.000640 0.022273 0.025969
v 0.000000 0.037727 0.026071
v -0.000000 0.036928 0.028000
v 0.000000 0.035657 0.029657
v 0.000000 0.034000 0.030928
v -0.000000 0.032071 0.031727
v -0.000000 0.030000 0.032000
v -0.000000 0.027929 0.031727
v 0.000000 0.026000 0.030928
v 0.000000 0.024343 0.029657
v -0.000000 0.023072 0.028000
v 0.000000 0.022273 0.026071
v -0.000640 0.037727 0.025969
v -0.001236 0.036928 0.027804
v -0.001748 0.035657 0.029380
v -0.002141 0.034000 0.030589
v -0.002388 0.032071 0.031349
v -0.002472 0.030000 0.031608
v -0.002388 0.027929 0.031349
v -0.002141 0.026000 0.030589
v -0.001748 0.024343 0.029380
v -0.001236 0.023072 0.027804
v -0.000640 0.022273 0.025969
v -0.001217 0.037727 0.025675
v -0.002351 0.036928 0.027236
v -0.003325 0.035657 0.028576
v -0.004072 0.034000 0.029605
v -0.004542 0.032071 0.030252
v -0.004702 0.030000 0.030472
v -0.004542 0.027929 0.030252
v -0.004072 0.026000 0.029605
v -0.003325 0.024343 0.028576
v -0.002351 0.023072 0.027236
v -0.001217 0.022273 0.025675
v -0.001675 0.037727 0.025217
v -0.003236 0.036928 0.026351
v -0.004576 0.035657 0.027325
v -0.005605 0.034000 0.028072
v -0.006252 0.032071 0.028542
v -0.006472 0.030000 0.028702
v -0.006252 0.027929 0.028542
v -0.005605 0.026000 0.028072
v -0.004576 0.024343 0.027325
v -0.003236 0.023072 0.026351
v -0.001675 0.022273 0.025217
v -0.001969 0.037727 0.024640
v -0.003804 0.036928 0.025236
v -0.005380 0.035657 0.025748
v -0.006589 0.034000 0.026141
v -0.007349 0.032071 0.026388
v -0.007608 0.030000 0.026472
v -0.007349 0.027929 0.026388
v -0.006589 0.026000 0.026141
v -0.005380 0.024343 0.025748
v -0.003804 0.023072 0.025236
v -0.001969 0.022273 0.024640
v -0.002071 0.037727 0.024000
v -0.004000 0.036928 0.024000
v -0.005657 0.035657 0.024000
v -0.006928 0.034000 0.024000
v -0.007727 0.032071 0.024000
v -0.008000 0.030000 0.024000
v -0.007727 0.027929 0.024000
v -0.006928 0.026000 0.024000
v -0.005657 0.024343 0.024000
v -0.004000 0.023072 0.024000
v -0.002071 0.022273 0.024000
v -0.001969 0.037727 0.023360
v -0.003804 0.036928 0.022764
v -0.005380 0.035657 0.022252
v -0.006589 0.034000 0.021859
v -0.007349 0.032071 0.021612
v -0.007608 0.030000 0.021528
v -0.007349 0.027929 0.021612
v -0.006589 0.026000 0.021859
v -0.005380 0.024343 0.022252
v -0.003804 0.023072 0.022764
v -0.001969 0.022273 0.023360
v -0.001675 0.037727 0.022783
v -0.003236 0.036928 0.021649
v -0.004576 0.035657 0.020675
v -0.005605 0.034000 0.019928
v -0.006252 0.032071 0.019458
v -0.006472 0.030000 0.019298
v -0.006252 0.027929 0.019458
v -0.005605 0.026000 0.019928
v -0.004576 0.024343 0.020675
v -0.003236 0.023072 0.021649
v -0.001675 0.022273 0.022783
v -0.001217 0.037727 0.022325
v -0.002351 0.036928 0.020764
v -0.003325 0.035657 0.019424
v -0.004072 0.034000 0.018395
v -0.004542 0.032071 0.017748
v -0.004702 0.030000 0.017528
v -0.004542 0.027929 0.017748
v -0.004072 0.026000 0.018395
v -0.003325 0.024343 0.019424
v -0.002351 0.023072 0.020764
v -0.001217 0.022273 0.022325
v -0.000640 0.037727 0.022031
v -0.001236 0.036928 0.020196
v -0.001748 0.035657 0.018620
v -0.002141 0.034000 0.017411
v -0.002388 0.032071 0.016651
v -0.002472 0.030000 0.016392
v -0.002388 0.027929 0.016651
v -0.002141 0.026000 0.017411
v -0.001748 0.024343 0.018620
v -0.001236 0.023072 0.020196
v -0.000640 0.022273 0.022031
v -0.000000 0.037727 0.021929
v -0.000000 0.035657 0.018343
v 0.000000 0.034000 0.017072
v 0.000000 0.026000 0.017072
v -0.000000 0.024343 0.018343
v 0.000000 0.023072 0.020000
v -0.000000 0.022273 0.021929
vn -0.0000 0.8604 -0.5097
vn -0.0000 0.2556 -0.9668
vn -0.0000 -0.0000 -1.0000
vn -0.0000 -0.2556 -0.9668
vn 0.0837 0.9626 -0.2577
vn 0.1575 0.8604 -0.4847
vn 0.2205 0.7007 -0.6786
vn 0.2686 0.4945 -0.8267
vn 0.2987 0.2556 -0.9195
vn 0.3090 -0.0000 -0.9511
vn 0.2987 -0.2556 -0.9195
vn 0.2686 -0.4945 -0.8267
vn 0.2205 -0.7007 -0.6786
vn 0.1575 -0.8604 -0.4847
vn 0.0837 -0.9626 -0.2577
vn 0.1592 0.9626 -0.2192
vn 0.2996 0.8604 -0.4123
vn 0.4194 0.7007 -0.5772
vn 0.5109 0.4945 -0.7032
vn 0.5683 0.2556 -0.7821
vn 0.5878 -0.0000 -0.8090
vn 0.5683 -0.2556 -0.7821
vn 0.5109 -0.4945 -0.7032
vn 0.4194 -0.7007 -0.5772
vn 0.2996 -0.8604 -0.4123
vn 0.1592 -0.9626 -0.2192
vn -0.0000 1.0000 -0.0000
vn 0.2192 0.9626 -0.1592
vn 0.4123 0.8604 -0.2996
vn 0.5772 0.7007 -0.4194
vn 0.7032 0.4945 -0.5109
vn 0.7821 0.2556 -0.5683
vn 0.8090 -0.0000 -0.5878
vn 0.7821 -0.2556 -0.5683
vn 0.7032 -0.4945 -0.5109
vn 0.5772 -0.7007 -0.4194
vn 0.4123 -0.8604 -0.2996
vn 0.2192 -0.9626 -0.1592
vn -0.0000 -1.0000 -0.0000
vn 0.2577 0.9626 -0.0837
vn 0.4847 0.8604 -0.1575
vn 0.6786 0.7007 -0.2205
vn 0.8267 0.4945 -0.2686
vn 0.9195 0.2556 -0.2988
vn 0.9511 -0.0000 -0.3090
vn 0.9195 -0.2556 -0.2988
vn 0.8267 -0.4945 -0.2686
vn 0.6786 -0.7007 -0.2205
vn 0.4847 -0.8604 -0.1575
vn 0.2577 -0.9626 -0.0837
vn 0.2709 0.9626 -0.0000
vn 0.5097 0.8604 -0.0000
vn 0.7135 0.7007 -0.0000
vn 0.8692 0.4945 -0.0000
vn 0.9668 0.2556 -0.0000
vn 1.0000 -0.0000 -0.0000
vn 0.9668 -0.2556 -0.0000
vn 0.8692 -0.4945 -0.0000
vn 0.7135 -0.7007 -0.0000
vn 0.5097 -0.8604 -0.0000
vn 0.2709 -0.9626 -0.0000
vn 0.2577 0.9626 0.0837
vn 0.4847 0.8604 0.1575
vn 0.6786 0.7007 0.2205
vn 0.8267 0.4945 0.2686
vn 0.9195 0.2556 0.2987
vn 0.9511 -0.0000 0.3090
vn 0.9195 -0.2556 0.2987
vn 0.8267 -0.4945 0.2686
vn 0.6786 -0.7007 0.2205
vn 0.4847 -0.8604 0.1575
vn 0.2577 -0.9626 0.0837
vn 0.2192 0.9626 0.1592
vn 0.4123 0.8604 0.2996
vn 0.5772 0.7007 0.4194
vn 0.7032 0.4945 0.5109
vn 0.7821 0.2556 0.5683
vn 0.8090 -0.0000 0.5878
vn 0.7821 -0.2556 0.5683
vn 0.7032 -0.4945 0.5109
vn 0.5772 -0.7007 0.4194
vn 0.4123 -0.8604 0.2996
vn 0.2192 -0.9626 0.1592
vn 0.1592 0.9626 0.2192
vn 0.2996 0.8604 0.4123
vn 0.4194 0.7007 0.5772
vn 0.5109 0.4945 0.7032
vn 0.5683 0.2556 0.7821
vn 0.5878 -0.0000 0.8090
vn 0.5683 -0.2556 0.7821
vn 0.5109 -0.4945 0.7032
vn 0.4194 -0.7007 0.5772
vn 0.2996 -0.8604 0.4123
vn 0.1592 -0.9626 0.2192
vn 0.0837 0.9626 0.2577
vn 0.1575 0.8604 0.4847
vn 0.2205 0.7007 0.6786
vn 0.2686 0.4945 0.8267
vn 0.2987 0.2556 0.9195
vn 0.3090 -0.0000 0.9511
vn 0.2987 -0.2556 0.9195
vn 0.2686 -0.4945 0.8267
vn 0.2205 -0.7007 0.6786
vn 0.1575 -0.8604 0.4847
vn 0.0837 -0.9626 0.2577
vn -0.0000 0.9626 0.2709
vn -0.0000 0.8604 0.5097
vn -0.0000 0.7007 0.7135
vn -0.0000 0.4945 0.8692
vn -0.0000 0.2556 0.9668
vn -0.0000 -0.0000 1.0000
vn -0.0000 -0.2556 0.9668
vn -0.0000 -0.4945 0.8692
vn -0.0000 -0.7007 0.7135
vn -0.0000 -0.8604 0.5097
vn -0.0000 -0.9626 0.2709
vn -0.0837 0.9626 0.2577
vn -0.1575 0.8604 0.4847
vn -0.2205 0.7007 0.6786
vn -0.2686 0.4945 0.8267
vn -0.2987 0.2556 0.9195
vn -0.3090 -0.0000 0.9511
vn -0.2987 -0.2556 0.9195
vn -0.2686 -0.4945 0.8267
vn -0.2205 -0.7007 0.6786
vn -0.1575 -0.8604 0.4847
vn -0.0837 -0.9626 0.2577
vn -0.1592 0.9626 0.2192
vn -0.2996 0.8604 0.4123
vn -0.4194 0.7007 0.5772
vn -0.5109 0.4945 0.7032
vn -0.5683 0.2556 0.7821
vn -0.5878 -0.0000 0.8090
vn -0.5683 -0.2556 0.7821
vn -0.5109 -0.4945 0.7032
vn -0.4194 -0.7007 0.5772
vn -0.2996 -0.8604 0.4123
vn -0.1592 -0.9626 0.2192
vn -0.2192 0.9626 0.1592
vn -0.4123 0.8604 0.2996
vn -0.5772 0.7007 0.4194
vn -0.7032 0.4945 0.5109
vn -0.7821 0.2556 0.5683
vn -0.8090 -0.0000 0.5878
vn -0.7821 -0.2556 0.5683
vn -0.7032 -0.4945 0.5109
vn -0.5772 -0.7007 0.4194
vn -0.4123 -0.8604 0.2996
vn -0.2192 -0.9626 0.1592
vn -0.2577 0.9626 0.0837
vn -0.4847 0.8604 0.1575
vn -0.6786 0.7007 0.2205
vn -0.8267 0.4945 0.2686
vn -0.9195 0.2556 0.2987
vn -0.9511 -0.0000 0.3090
vn -0.9195 -0.2556 0.2987
vn -0.8267 -0.4945 0.2686
vn -0.6786 -0.7007 0.2205
vn -0.4847 -0.8604 0.1575
vn -0.2577 -0.9626 0.0837
vn -0.2709 0.9626 -0.0000
vn -0.5097 0.8604 -0.0000
vn -0.7135 0.7007 -0.0000
vn -0.8692 0.4945 -0.0000
vn -0.9668 0.2556 -0.0000
vn -1.0000 -0.0000 -0.0000
vn -0.9668 -0.2556 -0.0000
vn -0.8692 -0.4945 -0.0000
vn -0.7135 -0.7007 -0.0000
vn -0.5097 -0.8604 -0.0000
vn -0.2709 -0.9626 -0.0000
vn -0.2577 0.9626 -0.0837
vn -0.4847 0.8604 -0.1575
vn -0.6786 0.7007 -0.2205
vn -0.8267 0.4945 -0.2686
vn -0.9195 0.2556 -0.2987
vn -0.9511 -0.0000 -0.3090
vn -0.9195 -0.2556 -0.2987
vn -0.8267 -0.4945 -0.2686
vn -0.6786 -0.7007 -0.2205
vn -0.4847 -0.8604 -0.1575
vn -0.2577 -0.9626 -0.0837
vn -0.2192 0.9626 -0.1592
vn -0.4123 0.8604 -0.2996
vn -0.5772 0.7007 -0.4194
vn -0.7032 0.4945 -0.5109
vn -0.7821 0.2556 -0.5683
vn -0.8090 -0.0000 -0.5878
vn -0.7821 -0.2556 -0.5683
vn -0.7032 -0.4945 -0.5109
vn -0.5772 -0.7007 -0.4194
vn -0.4123 -0.8604 -0.2996
vn -0.2192 -0.9626 -0.1592
vn -0.1592 0.9626 -0.2192
vn -0.2996 0.8604 -0.4123
vn -0.4194 0.7007 -0.5772
vn -0.5109 0.4945 -0.7032
vn -0.5683 0.2556 -0.7821
vn -0.5878 -0.0000 -0.8090
vn -0.5683 -0.2556 -0.7821
vn -0.5109 -0.4945 -0.7032
vn -0.4194 -0.7007 -0.5772
vn -0.2996 -0.8604 -0.4123
vn -0.1592 -0.9626 -0.2192
vn -0.0837 0.9626 -0.2577
vn -0.1575 0.8604 -0.4847
vn -0.2205 0.7007 -0.6786
vn -0.2686 0.4945 -0.8267
vn -0.2987 0.2556 -0.9195
vn -0.3090 -0.0000 -0.9511
vn -0.2987 -0.2556 -0.9195
vn -0.2686 -0.4945 -0.8267
vn -0.2205 -0.7007 -0.6786
vn -0.1575 -0.8604 -0.4847
vn -0.0837 -0.9626 -0.2577
vn -0.0000 0.9626 -0.2709
vn -0.0000 0.7007 -0.7135
vn -0.0000 0.4945 -0.8692
vn -0.0000 -0.4945 -0.8692
vn -0.0000 -0.7007 -0.7135
vn -0.0000 -0.8604 -0.5097
vn -0.0000 -0.9626 -0.2709
vt 0.725000 0.000000
vt 0.750000 0.083333
vt 0.700000 0.083333
vt 0.750000 0.833333
vt 0.750000 0.916667
vt 0.700000 0.916667
vt 0.700000 0.833333
vt 0.750000 0.250000
vt 0.750000 0.333333
vt 0.700000 0.333333
vt 0.700000 0.250000
vt 0.750000 0.500000
vt 0.750000 0.583333
vt 0.700000 0.583333
vt 0.700000 0.500000
vt 0.750000 0.750000
vt 0.700000 0.750000
vt 0.750000 0.166667
vt 0.700000 0.166667
vt 0.750000 0.416667
vt 0.700000 0.416667
vt 0.750000 0.666667
vt 0.700000 0.666667
vt 0.725000 1.000000
vt 0.650000 0.500000
vt 0.650000 0.416667
vt 0.650000 0.750000
vt 0.650000 0.666667
vt 0.650000 0.166667
vt 0.650000 0.083333
vt 0.675000 1.000000
vt 0.650000 0.916667
vt 0.650000 0.333333
vt 0.650000 0.583333
vt 0.675000 0.000000
vt 0.650000 0.833333
vt 0.650000 0.250000
vt 0.600000 0.333333
vt 0.600000 0.250000
vt 0.600000 0.583333
vt 0.600000 0.500000
vt 0.600000 0.833333
vt 0.600000 0.750000
vt 0.600000 0.166667
vt 0.600000 0.416667
vt 0.600000 0.666667
vt 0.600000 0.083333
vt 0.625000 1.000000
vt 0.600000 0.916667
vt 0.625000 0.000000
vt 0.575000 1.000000
vt 0.550000 0.916667
vt 0.550000 0.416667
vt 0.550000 0.333333
vt 0.550000 0.666667
vt 0.550000 0.583333
vt 0.575000 0.000000
vt 0.550000 0.083333
vt 0.550000 0.833333
vt 0.550000 0.250000
vt 0.550000 0.500000
vt 0.550000 0.750000
vt 0.550000 0.166667
vt 0.500000 0.250000
vt 0.500000 0.166667
vt 0.500000 0.500000
vt 0.500000 0.416667
vt 0.500000 0.750000
vt 0.500000 0.666667
vt 0.500000 0.083333
vt 0.525000 1.000000
vt 0.500000 0.916667
vt 0.500000 0.333333
vt 0.500000 0.583333
vt 0.525000 0.000000
vt 0.500000 0.833333
vt 0.450000 0.916667
vt 0.450000 0.833333
vt 0.450000 0.333333
vt 0.450000 0.250000
vt 0.450000 0.583333
vt 0.450000 0.500000
vt 0.450000 0.750000
vt 0.450000 0.166667
vt 0.450000 0.416667
vt 0.450000 0.666667
vt 0.450000 0.083333
vt 0.475000 1.000000
vt 0.475000 0.000000
vt 0.400000 0.166667
vt 0.400000 0.083333
vt 0.425000 1.000000
vt 0.400000 0.916667
vt 0.400000 0.416667
vt 0.400000 0.333333
vt 0.400000 0.666667
vt 0.400000 0.583333
vt 0.425000 0.000000
vt 0.400000 0.833333
vt 0.400000 0.250000
vt 0.400000 0.500000
vt 0.400000 0.750000
vt 0.350000 0.833333
vt 0.350000 0.750000
vt 0.350000 0.250000
vt 0.350000 0.166667
vt 0.350000 0.500000
vt 0.350000 0.416667
vt 0.350000 0.666667
vt 0.350000 0.083333
vt 0.375000 1.000000
vt 0.350000 0.916667
vt 0.350000 0.333333
vt 0.350000 0.583333
vt 0.375000 0.000000
vt 0.325000 0.000000
vt 0.300000 0.083333
vt 0.300000 0.916667
vt 0.300000 0.833333
vt 0.300000 0.333333
vt 0.300000 0.250000
vt 0.300000 0.583333
vt 0.300000 0.500000
vt 0.300000 0.750000
vt 0.300000 0.166667
vt 0.300000 0.416667
vt 0.300000 0.666667
vt 0.325000 1.000000
vt 0.250000 0.750000
vt 0.250000 0.666667
vt 0.250000 0.166667
vt 0.250000 0.083333
vt 0.275000 1.000000
vt 0.250000 0.916667
vt 0.250000 0.416667
vt 0.250000 0.333333
vt 0.250000 0.583333
vt 0.275000 0.000000
vt 0.250000 0.833333
vt 0.250000 0.250000
vt 0.250000 0.500000
vt 0.200000 0.833333
vt 0.200000 0.750000
vt 0.200000 0.250000
vt 0.200000 0.166667
vt 0.200000 0.500000
vt 0.200000 0.416667
vt 0.200000 0.666667
vt 0.200000 0.083333
vt 0.225000 1.000000
vt 0.200000 0.916667
vt 0.200000 0.333333
vt 0.200000 0.583333
vt 0.225000 0.000000
vt 0.150000 0.666667
vt 0.150000 0.583333
vt 0.175000 0.000000
vt 0.150000 0.083333
vt 0.150000 0.916667
vt 0.150000 0.833333
vt 0.150000 0.333333
vt 0.150000 0.250000
vt 0.150000 0.500000
vt 0.150000 0.750000
vt 0.150000 0.166667
vt 0.150000 0.416667
vt 0.175000 1.000000
vt 0.100000 0.750000
vt 0.100000 0.666667
vt 0.100000 0.166667
vt 0.100000 0.083333
vt 0.125000 1.000000
vt 0.100000 0.916667
vt 0.100000 0.416667
vt 0.100000 0.333333
vt 0.100000 0.583333
vt 0.125000 0.000000
vt 0.100000 0.833333
vt 0.100000 0.250000
vt 0.100000 0.500000
vt 0.050000 0.583333
vt 0.050000 0.500000
vt 0.050000 0.833333
vt 0.050000 0.750000
vt 0.050000 0.250000
vt 0.050000 0.166667
vt 0.050000 0.416667
vt 0.050000 0.666667
vt 0.050000 0.083333
vt 0.075000 1.000000
vt 0.050000 0.916667
vt 0.050000 0.333333
vt 0.075000 0.000000
vt 0.000000 0.666667
vt 0.000000 0.583333
vt 0.025000 0.000000
vt 0.000000 0.083333
vt 0.000000 0.916667
vt 0.000000 0.833333
vt 0.000000 0.333333
vt 0.000000 0.250000
vt 0.000000 0.500000
vt 0.000000 0.750000
vt 0.000000 0.166667
vt 0.000000 0.416667
vt 0.025000 1.000000
vt 1.000000 0.416667
vt 1.000000 0.500000
vt 0.950000 0.500000
vt 0.950000 0.416667
vt 1.000000 0.666667
vt 1.000000 0.750000
vt 0.950000 0.750000
vt 0.950000 0.666667
vt 1.000000 0.083333
vt 1.000000 0.166667
vt 0.950000 0.166667
vt 0.950000 0.083333
vt 1.000000 0.916667
vt 0.975000 1.000000
vt 0.950000 0.916667
vt 1.000000 0.333333
vt 0.950000 0.333333
vt 1.000000 0.583333
vt 0.950000 0.583333
vt 0.975000 0.000000
vt 1.000000 0.833333
vt 0.950000 0.833333
vt 1.000000 0.250000
vt 0.950000 0.250000
vt 0.900000 0.583333
vt 0.900000 0.500000
vt 0.900000 0.833333
vt 0.900000 0.750000
vt 0.900000 0.250000
vt 0.900000 0.166667
vt 0.900000 0.416667
vt 0.900000 0.666667
vt 0.900000 0.083333
vt 0.925000 1.000000
vt 0.900000 0.916667
vt 0.900000 0.333333
vt 0.925000 0.000000
vt 0.850000 0.416667
vt 0.850000 0.333333
vt 0.850000 0.666667
vt 0.850000 0.583333
vt 0.875000 0.000000
vt 0.850000 0.083333
vt 0.850000 0.916667
vt 0.850000 0.833333
vt 0.850000 0.250000
vt 0.850000 0.500000
vt 0.850000 0.750000
vt 0.850000 0.166667
vt 0.875000 1.000000
vt 0.800000 0.500000
vt 0.800000 0.416667
vt 0.800000 0.750000
vt 0.800000 0.666667
vt 0.800000 0.166667
vt 0.800000 0.083333
vt 0.825000 1.000000
vt 0.800000 0.916667
vt 0.800000 0.333333
vt 0.800000 0.583333
vt 0.825000 0.000000
vt 0.800000 0.833333
vt 0.800000 0.250000
vt 0.775000 1.000000
vt 0.775000 0.000000
s 1
usemtl M_Green
f 343/396/311 526/397/494 319/398/287
f 305/399/273 520/400/488 309/401/277 310/402/278
f 524/403/492 523/404/491 316/405/284 317/406/285
f 307/407/275 306/408/274 313/409/281 314/410/282
f 521/411/489 305/399/273 310/402/278 311/412/279
f 525/413/493 524/403/492 317/406/285 318/414/286
f 308/415/276 307/407/275 314/410/282 315/416/283
f 522/417/490 521/411/489 311/412/279 312/418/280
f 526/397/494 525/413/493 318/414/286 319/398/287
f 520/400/488 331/419/299 309/401/277
f 523/404/491 308/415/276 315/416/283 316/405/284
f 306/408/274 522/417/490 312/418/280 313/409/281
f 315/416/283 314/410/282 325/420/293 326/421/294
f 312/418/280 311/412/279 322/422/290 323/423/291
f 319/398/287 318/414/286 329/424/297 330/425/298
f 309/401/277 331/426/299 320/427/288
f 316/405/284 315/416/283 326/421/294 327/428/295
f 313/409/281 312/418/280 323/423/291 324/429/292
f 343/430/311 319/398/287 330/425/298
f 310/402/278 309/401/277 320/427/288 321/431/289
f 317/406/285 316/405/284 327/428/295 328/432/296
f 314/410/282 313/409/281 324/429/292 325/420/293
f 311/412/279 310/402/278 321/431/289 322/422/290
f 318/414/286 317/406/285 328/432/296 329/424/297
f 328/432/296 327/428/295 339/433/307 340/434/308
f 325/420/293 324/429/292 336/435/304 337/436/305
f 322/422/290 321/431/289 333/437/301 334/438/302
f 329/424/297 328/432/296 340/434/308 341/439/309
f 326/421/294 325/420/293 337/436/305 338/440/306
f 323/423/291 322/422/290 334/438/302 335/441/303
f 330/425/298 329/424/297 341/439/309 342/442/310
f 320/427/288 331/443/299 332/444/300
f 327/428/295 326/421/294 338/440/306 339/433/307
f 324/429/292 323/423/291 335/441/303 336/435/304
f 343/445/311 330/425/298 342/442/310
f 321/431/289 320/427/288 332/444/300 333/437/301
f 332/444/300 331/446/299 344/447/312
f 339/433/307 338/440/306 350/448/318 351/449/319
f 336/435/304 335/441/303 347/450/315 348/451/316
f 343/452/311 342/442/310 354/453/322
f 333/437/301 332/444/300 344/447/312 345/454/313
f 340/434/308 339/433/307 351/449/319 352/455/320
f 337/436/305 336/435/304 348/451/316 349/456/317
f 334/438/302 333/437/301 345/454/313 346/457/314
f 341/439/309 340/434/308 352/455/320 353/458/321
f 338/440/306 337/436/305 349/456/317 350/448/318
f 335/441/303 334/438/302 346/457/314 347/450/315
f 342/442/310 341/439/309 353/458/321 354/453/322
f 353/458/321 352/455/320 363/459/331 364/460/332
f 350/448/318 349/456/317 360/461/328 361/462/329
f 347/450/315 346/457/314 357/463/325 358/464/326
f 354/453/322 353/458/321 364/460/332 365/465/333
f 344/447/312 331/466/299 355/467/323
f 351/449/319 350/448/318 361/462/329 362/468/330
f 348/451/316 347/450/315 358/464/326 359/469/327
f 343/470/311 354/453/322 365/465/333
f 345/454/313 344/447/312 355/467/323 356/471/324
f 352/455/320 351/449/319 362/468/330 363/459/331
f 349/456/317 348/451/316 359/469/327 360/461/328
f 346/457/314 345/454/313 356/471/324 357/463/325
f 356/471/324 355/467/323 366/472/334 367/473/335
f 363/459/331 362/468/330 373/474/341 374/475/342
f 360/461/328 359/469/327 370/476/338 371/477/339
f 357/463/325 356/471/324 367/473/335 368/478/336
f 364/460/332 363/459/331 374/475/342 375/479/343
f 361/462/329 360/461/328 371/477/339 372/480/340
f 358/464/326 357/463/325 368/478/336 369/481/337
f 365/465/333 364/460/332 375/479/343 376/482/344
f 355/467/323 331/483/299 366/472/334
f 362/468/330 361/462/329 372/480/340 373/474/341
f 359/469/327 358/464/326 369/481/337 370/476/338
f 343/484/311 365/465/333 376/482/344
f 376/482/344 375/479/343 386/485/354 387/486/355
f 366/472/334 331/487/299 377/488/345
f 373/474/341 372/480/340 383/489/351 384/490/352
f 370/476/338 369/481/337 380/491/348 381/492/349
f 343/493/311 376/482/344 387/486/355
f 367/473/335 366/472/334 377/488/345 378/494/346
f 374/475/342 373/474/341 384/490/352 385/495/353
f 371/477/339 370/476/338 381/492/349 382/496/350
f 368/478/336 367/473/335 378/494/346 379/497/347
f 375/479/343 374/475/342 385/495/353 386/485/354
f 372/480/340 371/477/339 382/496/350 383/489/351
f 369/481/337 368/478/336 379/497/347 380/491/348
f 379/497/347 378/494/346 389/498/357 390/499/358
f 386/485/354 385/495/353 396/500/364 397/501/365
f 383/489/351 382/496/350 393/502/361 394/503/362
f 380/491/348 379/497/347 390/499/358 391/504/359
f 387/486/355 386/485/354 397/501/365 398/505/366
f 377/488/345 331/506/299 388/507/356
f 384/490/352 383/489/351 394/503/362 395/508/363
f 381/492/349 380/491/348 391/504/359 392/509/360
f 343/510/311 387/486/355 398/505/366
f 378/494/346 377/488/345 388/507/356 389/498/357
f 385/495/353 384/490/352 395/508/363 396/500/364
f 382/496/350 381/492/349 392/509/360 393/502/361
f 343/511/311 398/505/366 409/512/377
f 389/498/357 388/507/356 399/513/367 400/514/368
f 396/500/364 395/508/363 406/515/374 407/516/375
f 393/502/361 392/509/360 403/517/371 404/518/372
f 390/499/358 389/498/357 400/514/368 401/519/369
f 397/501/365 396/500/364 407/516/375 408/520/376
f 394/503/362 393/502/361 404/518/372 405/521/373
f 391/504/359 390/499/358 401/519/369 402/522/370
f 398/505/366 397/501/365 408/520/376 409/512/377
f 388/507/356 331/523/299 399/513/367
f 395/508/363 394/503/362 405/521/373 406/515/374
f 392/509/360 391/504/359 402/522/370 403/517/371
f 402/522/370 401/519/369 412/524/380 413/525/381
f 409/512/377 408/520/376 419/526/387 420/527/388
f 399/513/367 331/528/299 410/529/378
f 406/515/374 405/521/373 416/530/384 417/531/385
f 403/517/371 402/522/370 413/525/381 414/532/382
f 343/533/311 409/512/377 420/527/388
f 400/514/368 399/513/367 410/529/378 411/534/379
f 407/516/375 406/515/374 417/531/385 418/535/386
f 404/518/372 403/517/371 414/532/382 415/536/383
f 401/519/369 400/514/368 411/534/379 412/524/380
f 408/520/376 407/516/375 418/535/386 419/526/387
f 405/521/373 404/518/372 415/536/383 416/530/384
f 412/524/380 411/534/379 422/537/390 423/538/391
f 419/526/387 418/535/386 429/539/397 430/540/398
f 416/530/384 415/536/383 426/541/394 427/542/395
f 413/525/381 412/524/380 423/538/391 424/543/392
f 420/527/388 419/526/387 430/540/398 431/544/399
f 410/529/378 331/545/299 421/546/389
f 417/531/385 416/530/384 427/542/395 428/547/396
f 414/532/382 413/525/381 424/543/392 425/548/393
f 343/549/311 420/527/388 431/544/399
f 411/534/379 410/529/378 421/546/389 422/537/390
f 418/535/386 417/531/385 428/547/396 429/539/397
f 415/536/383 414/532/382 425/548/393 426/541/394
f 425/548/393 424/543/392 435/550/403 436/551/404
f 343/552/311 431/544/399 442/553/410
f 422/537/390 421/546/389 432/554/400 433/555/401
f 429/539/397 428/547/396 439/556/407 440/557/408
f 426/541/394 425/548/393 436/551/404 437/558/405
f 423/538/391 422/537/390 433/555/401 434/559/402
f 430/540/398 429/539/397 440/557/408 441/560/409
f 427/542/395 426/541/394 437/558/405 438/561/406
f 424/543/392 423/538/391 434/559/402 435/550/403
f 431/544/399 430/540/398 441/560/409 442/553/410
f 421/546/389 331/562/299 432/554/400
f 428/547/396 427/542/395 438/561/406 439/556/407
f 435/550/403 434/559/402 445/563/413 446/564/414
f 442/553/410 441/560/409 452/565/420 453/566/421
f 432/554/400 331/567/299 443/568/411
f 439/556/407 438/561/406 449/569/417 450/570/418
f 436/551/404 435/550/403 446/564/414 447/571/415
f 343/572/311 442/553/410 453/566/421
f 433/555/401 432/554/400 443/568/411 444/573/412
f 440/557/408 439/556/407 450/570/418 451/574/419
f 437/558/405 436/551/404 447/571/415 448/575/416
f 434/559/402 433/555/401 444/573/412 445/563/413
f 441/560/409 440/557/408 451/574/419 452/565/420
f 438/561/406 437/558/405 448/575/416 449/569/417
f 448/575/416 447/571/415 458/576/426 459/577/427
f 445/563/413 444/573/412 455/578/423 456/579/424
f 452/565/420 451/574/419 462/580/430 463/581/431
f 449/569/417 448/575/416 459/577/427 460/582/428
f 446/564/414 445/563/413 456/579/424 457/583/425
f 453/566/421 452/565/420 463/581/431 464/584/432
f 443/568/411 331/585/299 454/586/422
f 450/570/418 449/569/417 460/582/428 461/587/429
f 447/571/415 446/564/414 457/583/425 458/576/426
f 343/588/311 453/566/421 464/584/432
f 444/573/412 443/568/411 454/586/422 455/578/423
f 451/574/419 450/570/418 461/587/429 462/580/430
f 458/576/426 457/583/425 468/589/436 469/590/437
f 343/591/311 464/584/432 475/592/443
f 455/578/423 454/586/422 465/593/433 466/594/434
f 462/580/430 461/587/429 472/595/440 473/596/441
f 459/577/427 458/576/426 469/590/437 470/597/438
f 456/579/424 455/578/423 466/594/434 467/598/435
f 463/581/431 462/580/430 473/596/441 474/599/442
f 460/582/428 459/577/427 470/597/438 471/600/439
f 457/583/425 456/579/424 467/598/435 468/589/436
f 464/584/432 463/581/431 474/599/442 475/592/443
f 454/586/422 331/601/299 465/593/433
f 461/587/429 460/582/428 471/600/439 472/595/440
f 471/602/439 470/603/438 481/604/449 482/605/450
f 468/606/436 467/607/435 478/608/446 479/609/447
f 475/610/443 474/611/442 485/612/453 486/613/454
f 465/614/433 331/615/299 476/616/444
f 472/617/440 471/602/439 482/605/450 483/618/451
f 469/619/437 468/606/436 479/609/447 480/620/448
f 343/621/311 475/610/443 486/613/454
f 466/622/434 465/614/433 476/616/444 477/623/445
f 473/624/441 472/617/440 483/618/451 484/625/452
f 470/603/438 469/619/437 480/620/448 481/604/449
f 467/607/435 466/622/434 477/623/445 478/608/446
f 474/611/442 473/624/441 484/625/452 485/612/453
f 481/604/449 480/620/448 491/626/459 492/627/460
f 478/608/446 477/623/445 488/628/456 489/629/457
f 485/612/453 484/625/452 495/630/463 496/631/464
f 482/605/450 481/604/449 492/627/460 493/632/461
f 479/609/447 478/608/446 489/629/457 490/633/458
f 486/613/454 485/612/453 496/631/464 497/634/465
f 476/616/444 331/635/299 487/636/455
f 483/618/451 482/605/450 493/632/461 494/637/462
f 480/620/448 479/609/447 490/633/458 491/626/459
f 343/638/311 486/613/454 497/634/465
f 477/623/445 476/616/444 487/636/455 488/628/456
f 484/625/452 483/618/451 494/637/462 495/630/463
f 494/637/462 493/632/461 504/639/472 505/640/473
f 491/626/459 490/633/458 501/641/469 502/642/470
f 343/643/311 497/634/465 508/644/476
f 488/628/456 487/636/455 498/645/466 499/646/467
f 495/630/463 494/637/462 505/640/473 506/647/474
f 492/627/460 491/626/459 502/642/470 503/648/471
f 489/629/457 488/628/456 499/646/467 500/649/468
f 496/631/464 495/630/463 506/647/474 507/650/475
f 493/632/461 492/627/460 503/648/471 504/639/472
f 490/633/458 489/629/457 500/649/468 501/641/469
f 497/634/465 496/631/464 507/650/475 508/644/476
f 487/636/455 331/651/299 498/645/466
f 504/639/472 503/648/471 514/652/482 515/653/483
f 501/641/469 500/649/468 511/654/479 512/655/480
f 508/644/476 507/650/475 518/656/486 519/657/487
f 498/645/466 331/658/299 509/659/477
f 505/640/473 504/639/472 515/653/483 516/660/484
f 502/642/470 501/641/469 512/655/480 513/661/481
f 343/662/311 508/644/476 519/657/487
f 499/646/467 498/645/466 509/659/477 510/663/478
f 506/647/474 505/640/473 516/660/484 517/664/485
f 503/648/471 502/642/470 513/661/481 514/652/482
f 500/649/468 499/646/467 510/663/478 511/654/479
f 507/650/475 506/647/474 517/664/485 518/656/486
f 517/664/485 516/660/484 523/404/491 524/403/492
f 514/652/482 513/661/481 306/408/274 307/407/275
f 511/654/479 510/663/478 305/399/273 521/411/489
f 518/656/486 517/664/485 524/403/492 525/413/493
f 515/653/483 514/652/482 307/407/275 308/415/276
f 512/655/480 511/654/479 521/411/489 522/417/490
f 519/657/487 518/656/486 525/413/493 526/397/494
f 509/659/477 331/665/299 520/400/488
f 516/660/484 515/653/483 308/415/276 523/404/491
f 513/661/481 512/655/480 522/417/490 306/408/274
f 343/666/311 519/657/487 526/397/494
f 510/663/478 509/659/477 520/400/488 305/399/273
